%TF.GenerationSoftware,KiCad,Pcbnew,9.0.6*%
%TF.CreationDate,2025-12-07T19:06:17+09:00*%
%TF.ProjectId,ROBOBIKE05_PCBA,524f424f-4249-44b4-9530-355f50434241,20250802*%
%TF.SameCoordinates,Original*%
%TF.FileFunction,Copper,L2,Bot*%
%TF.FilePolarity,Positive*%
%FSLAX46Y46*%
G04 Gerber Fmt 4.6, Leading zero omitted, Abs format (unit mm)*
G04 Created by KiCad (PCBNEW 9.0.6) date 2025-12-07 19:06:17*
%MOMM*%
%LPD*%
G01*
G04 APERTURE LIST*
G04 Aperture macros list*
%AMRoundRect*
0 Rectangle with rounded corners*
0 $1 Rounding radius*
0 $2 $3 $4 $5 $6 $7 $8 $9 X,Y pos of 4 corners*
0 Add a 4 corners polygon primitive as box body*
4,1,4,$2,$3,$4,$5,$6,$7,$8,$9,$2,$3,0*
0 Add four circle primitives for the rounded corners*
1,1,$1+$1,$2,$3*
1,1,$1+$1,$4,$5*
1,1,$1+$1,$6,$7*
1,1,$1+$1,$8,$9*
0 Add four rect primitives between the rounded corners*
20,1,$1+$1,$2,$3,$4,$5,0*
20,1,$1+$1,$4,$5,$6,$7,0*
20,1,$1+$1,$6,$7,$8,$9,0*
20,1,$1+$1,$8,$9,$2,$3,0*%
G04 Aperture macros list end*
%TA.AperFunction,ComponentPad*%
%ADD10C,1.700000*%
%TD*%
%TA.AperFunction,ComponentPad*%
%ADD11R,1.700000X1.700000*%
%TD*%
%TA.AperFunction,HeatsinkPad*%
%ADD12O,2.100000X1.000000*%
%TD*%
%TA.AperFunction,HeatsinkPad*%
%ADD13O,1.600000X1.000000*%
%TD*%
%TA.AperFunction,ComponentPad*%
%ADD14R,1.500000X2.500000*%
%TD*%
%TA.AperFunction,ComponentPad*%
%ADD15O,1.500000X2.500000*%
%TD*%
%TA.AperFunction,ComponentPad*%
%ADD16O,2.050000X3.450000*%
%TD*%
%TA.AperFunction,ComponentPad*%
%ADD17O,2.100000X3.350000*%
%TD*%
%TA.AperFunction,HeatsinkPad*%
%ADD18C,0.600000*%
%TD*%
%TA.AperFunction,ComponentPad*%
%ADD19C,3.600000*%
%TD*%
%TA.AperFunction,ConnectorPad*%
%ADD20C,5.500000*%
%TD*%
%TA.AperFunction,ComponentPad*%
%ADD21RoundRect,0.250000X0.550000X-0.550000X0.550000X0.550000X-0.550000X0.550000X-0.550000X-0.550000X0*%
%TD*%
%TA.AperFunction,ComponentPad*%
%ADD22C,1.600000*%
%TD*%
%TA.AperFunction,ComponentPad*%
%ADD23R,2.200000X1.700000*%
%TD*%
%TA.AperFunction,ComponentPad*%
%ADD24O,2.500000X1.700000*%
%TD*%
%TA.AperFunction,HeatsinkPad*%
%ADD25C,0.500000*%
%TD*%
%TA.AperFunction,HeatsinkPad*%
%ADD26R,1.800000X2.500000*%
%TD*%
%TA.AperFunction,ViaPad*%
%ADD27C,0.800000*%
%TD*%
%TA.AperFunction,Conductor*%
%ADD28C,1.000000*%
%TD*%
%TA.AperFunction,Conductor*%
%ADD29C,0.500000*%
%TD*%
%TA.AperFunction,Conductor*%
%ADD30C,2.200000*%
%TD*%
%TA.AperFunction,Conductor*%
%ADD31C,0.350000*%
%TD*%
%TA.AperFunction,Conductor*%
%ADD32C,1.500000*%
%TD*%
%TA.AperFunction,Conductor*%
%ADD33C,0.200000*%
%TD*%
%TA.AperFunction,Conductor*%
%ADD34C,1.200000*%
%TD*%
%TA.AperFunction,Conductor*%
%ADD35C,2.000000*%
%TD*%
G04 APERTURE END LIST*
D10*
%TO.P,J2,3,Pin_3*%
%TO.N,GND*%
X88160000Y-115320000D03*
%TO.P,J2,2,Pin_2*%
%TO.N,+4V*%
X85620000Y-115320000D03*
D11*
%TO.P,J2,1,Pin_1*%
%TO.N,SV_STR*%
X83080000Y-115320000D03*
%TD*%
D12*
%TO.P,J9,S1,SHIELD*%
%TO.N,GND*%
X46365000Y-106700000D03*
D13*
X42185000Y-106700000D03*
D12*
X46365000Y-115340000D03*
D13*
X42185000Y-115340000D03*
%TD*%
D14*
%TO.P,SW1,1,A*%
%TO.N,Net-(J4-Pin_1)*%
X60190000Y-102400000D03*
D15*
%TO.P,SW1,2,B*%
X58190000Y-102400000D03*
%TO.P,SW1,3,C*%
%TO.N,+4V*%
X56190000Y-102400000D03*
D16*
%TO.P,SW1,4,FR*%
%TO.N,GND*%
X62365000Y-102375000D03*
D17*
X54040000Y-102325000D03*
%TD*%
D18*
%TO.P,U1,19,GND-PAD*%
%TO.N,GND*%
X59730000Y-118470000D03*
X59730000Y-117370000D03*
X59180000Y-119020000D03*
X59180000Y-117920000D03*
X59180000Y-116820000D03*
X58630000Y-118470000D03*
X58630000Y-117370000D03*
X58080000Y-119020000D03*
X58080000Y-117920000D03*
X58080000Y-116820000D03*
X57530000Y-118470000D03*
X57530000Y-117370000D03*
%TD*%
D11*
%TO.P,J3,1,Pin_1*%
%TO.N,SV_STD*%
X83080000Y-111730000D03*
D10*
%TO.P,J3,2,Pin_2*%
%TO.N,+4V*%
X85620000Y-111730000D03*
%TO.P,J3,3,Pin_3*%
%TO.N,GND*%
X88160000Y-111730000D03*
%TD*%
D19*
%TO.P,H1,1,1*%
%TO.N,GND*%
X43000000Y-119500000D03*
D20*
X43000000Y-119500000D03*
%TD*%
D21*
%TO.P,C4,1*%
%TO.N,+4V*%
X77670000Y-109682651D03*
D22*
%TO.P,C4,2*%
%TO.N,GND*%
X77670000Y-106182651D03*
%TD*%
D23*
%TO.P,J11,1,Pin_1*%
%TO.N,Net-(J11-Pin_1)*%
X42170000Y-104200000D03*
D24*
%TO.P,J11,2,Pin_2*%
%TO.N,GND*%
X42170000Y-101660000D03*
%TD*%
D11*
%TO.P,J1,1,Pin_1*%
%TO.N,SV_DRV*%
X83080000Y-118880000D03*
D10*
%TO.P,J1,2,Pin_2*%
%TO.N,+4V*%
X85620000Y-118880000D03*
%TO.P,J1,3,Pin_3*%
%TO.N,GND*%
X88160000Y-118880000D03*
%TD*%
D19*
%TO.P,H2,1,1*%
%TO.N,GND*%
X87000000Y-105500000D03*
D20*
X87000000Y-105500000D03*
%TD*%
D23*
%TO.P,J4,1,Pin_1*%
%TO.N,Net-(J4-Pin_1)*%
X66070000Y-104230000D03*
D24*
%TO.P,J4,2,Pin_2*%
%TO.N,GND*%
X66070000Y-101690000D03*
%TD*%
D25*
%TO.P,U3,9,EXPAD*%
%TO.N,GND*%
X56420000Y-107010000D03*
X56420000Y-108010000D03*
X56420000Y-109010000D03*
D26*
X57070000Y-108010000D03*
D25*
X57720000Y-107010000D03*
X57720000Y-108010000D03*
X57720000Y-109010000D03*
%TD*%
D27*
%TO.N,GND*%
X69490000Y-104190000D03*
X77540000Y-113990000D03*
X76030000Y-124260000D03*
X61500000Y-122920000D03*
X87550000Y-120840000D03*
X75570000Y-115540000D03*
X66020000Y-110270000D03*
X77400000Y-119780000D03*
X65750000Y-119120000D03*
X72590000Y-109930000D03*
X73140000Y-123870000D03*
X67180000Y-110290000D03*
X66010000Y-113470000D03*
X79930000Y-117500000D03*
X55250000Y-116670000D03*
X69610000Y-102740000D03*
X85730000Y-122860000D03*
X80610000Y-122330000D03*
X65760000Y-112120000D03*
X64850000Y-116820000D03*
X69680000Y-107540000D03*
X62630000Y-121220000D03*
X73900000Y-104640000D03*
X74190000Y-103410000D03*
X74610000Y-120500000D03*
X61910000Y-114010000D03*
X57250000Y-121870000D03*
X57050000Y-106360000D03*
X57050000Y-109750000D03*
X58800000Y-124120000D03*
X62000000Y-116670000D03*
X61650000Y-119470000D03*
X50370000Y-107520000D03*
X81180000Y-104030000D03*
X77960000Y-124380000D03*
X56100000Y-113620000D03*
X69470000Y-112090000D03*
X52900000Y-124170000D03*
X52550000Y-116320000D03*
X88960000Y-123550000D03*
X77730000Y-121380000D03*
X79790000Y-119950000D03*
X54800000Y-122420000D03*
X79990000Y-113620000D03*
X76880000Y-102970000D03*
X85750000Y-124240000D03*
X47900000Y-100750000D03*
X65700000Y-124120000D03*
X66390000Y-107890000D03*
X75620000Y-113220000D03*
X54510000Y-119680000D03*
X72550000Y-108180000D03*
X75400000Y-102710000D03*
X67640000Y-107890000D03*
X74270000Y-124260000D03*
X63600000Y-112000000D03*
X58450000Y-115550000D03*
X53230000Y-111860000D03*
X66000000Y-115260000D03*
X65300000Y-122120000D03*
X58930000Y-112010000D03*
X80640000Y-124350000D03*
%TO.N,SV_STR*%
X76624713Y-117668504D03*
X74710000Y-117749997D03*
%TO.N,SV_DRV*%
X74740000Y-118850000D03*
X76590000Y-118710000D03*
%TO.N,SCL*%
X73490000Y-113150000D03*
X69950000Y-115330000D03*
%TO.N,UD+*%
X48670000Y-114067184D03*
X48290000Y-111269989D03*
%TO.N,UD-*%
X48320000Y-110270000D03*
X49373489Y-113356475D03*
%TO.N,SV_STD*%
X76570000Y-116670000D03*
X73670000Y-117490000D03*
%TO.N,SDA*%
X74430498Y-115020000D03*
X70010000Y-116830000D03*
%TO.N,Net-(J9-CC1)*%
X49160000Y-105640000D03*
X49140000Y-107720000D03*
%TO.N,+4V*%
X81340000Y-117990000D03*
X81340000Y-119930000D03*
%TO.N,Net-(J11-Pin_1)*%
X43770000Y-116080000D03*
%TD*%
D28*
%TO.N,+4V*%
X77670000Y-110500000D02*
X77670000Y-109682651D01*
X80250000Y-111420000D02*
X78590000Y-111420000D01*
X81330000Y-112500000D02*
X80250000Y-111420000D01*
X81330000Y-119970000D02*
X81330000Y-112500000D01*
X78590000Y-111420000D02*
X77670000Y-110500000D01*
D29*
%TO.N,GND*%
X41220000Y-101660000D02*
X40510000Y-102370000D01*
X46365000Y-115340000D02*
X47010000Y-114695000D01*
D30*
X88160000Y-118730000D02*
X88160000Y-109270000D01*
D29*
X46365000Y-106700000D02*
X47010000Y-107345000D01*
D31*
X47010000Y-107990000D02*
X47040000Y-107990000D01*
D28*
X88170000Y-109230000D02*
X88200000Y-109200000D01*
D31*
X45250000Y-124500000D02*
X44600000Y-123850000D01*
D32*
X66070000Y-101690000D02*
X68670000Y-101690000D01*
D29*
X47010000Y-107345000D02*
X47010000Y-107990000D01*
X47010000Y-114695000D02*
X47010000Y-114260000D01*
X42170000Y-101660000D02*
X41220000Y-101660000D01*
D31*
X44600000Y-123850000D02*
X41400000Y-123850000D01*
D33*
%TO.N,SV_STR*%
X74710000Y-117749997D02*
X75650003Y-117749997D01*
X75650003Y-117749997D02*
X75720000Y-117680000D01*
X76613217Y-117680000D02*
X76624713Y-117668504D01*
X75720000Y-117680000D02*
X76613217Y-117680000D01*
%TO.N,SV_DRV*%
X75670000Y-118850000D02*
X75810000Y-118710000D01*
X75810000Y-118710000D02*
X76590000Y-118710000D01*
X74740000Y-118850000D02*
X75670000Y-118850000D01*
D34*
%TO.N,Net-(J4-Pin_1)*%
X60190000Y-104020000D02*
X60190000Y-102450000D01*
X60190000Y-102450000D02*
X58190000Y-102450000D01*
X63430000Y-105060000D02*
X61230000Y-105060000D01*
X64235000Y-104255000D02*
X63430000Y-105060000D01*
X66160000Y-104225000D02*
X66070000Y-104315000D01*
X61230000Y-105060000D02*
X60190000Y-104020000D01*
X66010000Y-104255000D02*
X64235000Y-104255000D01*
X66070000Y-104315000D02*
X66010000Y-104255000D01*
D33*
%TO.N,SCL*%
X72840000Y-114600000D02*
X70680000Y-114600000D01*
X73490000Y-113950000D02*
X72840000Y-114600000D01*
X73490000Y-113150000D02*
X73490000Y-113950000D01*
X73490000Y-113150000D02*
X73429950Y-113089950D01*
X70680000Y-114600000D02*
X69950000Y-115330000D01*
X73429950Y-113089950D02*
X73380000Y-113089950D01*
X73380000Y-113089950D02*
X73330050Y-113040000D01*
%TO.N,UD+*%
X48670001Y-111649990D02*
X48290000Y-111269989D01*
X48670001Y-114067183D02*
X48670001Y-111649990D01*
X48670000Y-114067184D02*
X48670001Y-114067183D01*
%TO.N,UD-*%
X49370000Y-113352986D02*
X49370000Y-111290000D01*
X48420000Y-110370000D02*
X48320000Y-110270000D01*
X48450000Y-110370000D02*
X48420000Y-110370000D01*
X49373489Y-113356475D02*
X49370000Y-113352986D01*
X49370000Y-111290000D02*
X48450000Y-110370000D01*
%TO.N,SV_STD*%
X76250000Y-116990000D02*
X74170000Y-116990000D01*
X74170000Y-116990000D02*
X73670000Y-117490000D01*
X76570000Y-116670000D02*
X76250000Y-116990000D01*
%TO.N,SDA*%
X74380000Y-115020000D02*
X74300000Y-115100000D01*
X74430498Y-115020000D02*
X74380000Y-115020000D01*
X74300000Y-115100000D02*
X71740000Y-115100000D01*
X71740000Y-115100000D02*
X70010000Y-116830000D01*
%TO.N,Net-(J9-CC1)*%
X49160000Y-107000000D02*
X49140000Y-107020000D01*
X49160000Y-105640000D02*
X49160000Y-107000000D01*
X49140000Y-107020000D02*
X49140000Y-107720000D01*
D34*
%TO.N,+4V*%
X58730000Y-105440000D02*
X58040000Y-104750000D01*
D32*
X67710000Y-106180000D02*
X68070000Y-105820000D01*
D35*
X85620000Y-118880000D02*
X85620000Y-111730000D01*
D34*
X58040000Y-104750000D02*
X57300000Y-104750000D01*
D32*
X60140000Y-106850000D02*
X64550000Y-106850000D01*
X76390000Y-109682651D02*
X77670000Y-109682651D01*
D34*
X56190000Y-103640000D02*
X56190000Y-102450000D01*
D32*
X84982651Y-109722651D02*
X85620000Y-110360000D01*
X72527349Y-105820000D02*
X76390000Y-109682651D01*
D34*
X57300000Y-104750000D02*
X56190000Y-103640000D01*
D32*
X77670000Y-109682651D02*
X84992651Y-109682651D01*
X64550000Y-106850000D02*
X65220000Y-106180000D01*
X68070000Y-105820000D02*
X72527349Y-105820000D01*
X85620000Y-110360000D02*
X85620000Y-111730000D01*
X58730000Y-105440000D02*
X60140000Y-106850000D01*
X65220000Y-106180000D02*
X67710000Y-106180000D01*
D33*
%TO.N,Net-(J11-Pin_1)*%
X43770000Y-116080000D02*
X43770000Y-105480000D01*
X42490000Y-104200000D02*
X42170000Y-104200000D01*
X43770000Y-105480000D02*
X42490000Y-104200000D01*
%TD*%
%TA.AperFunction,Conductor*%
%TO.N,GND*%
G36*
X52903883Y-100269707D02*
G01*
X52973124Y-100324926D01*
X53011551Y-100404718D01*
X53011551Y-100493282D01*
X52973124Y-100573074D01*
X52958254Y-100589714D01*
X52857728Y-100690239D01*
X52714317Y-100887628D01*
X52603561Y-101104999D01*
X52603557Y-101105010D01*
X52528166Y-101337038D01*
X52528164Y-101337047D01*
X52490000Y-101578012D01*
X52490000Y-102075000D01*
X53412826Y-102075000D01*
X53368822Y-102181233D01*
X53340000Y-102326131D01*
X53340000Y-102473869D01*
X53360116Y-102575000D01*
X52490000Y-102575000D01*
X52490000Y-103071987D01*
X52528164Y-103312952D01*
X52528166Y-103312961D01*
X52603557Y-103544989D01*
X52603561Y-103545000D01*
X52714317Y-103762371D01*
X52857728Y-103959760D01*
X53030239Y-104132271D01*
X53227628Y-104275682D01*
X53444999Y-104386438D01*
X53445010Y-104386442D01*
X53677033Y-104461831D01*
X53677051Y-104461835D01*
X53790000Y-104479724D01*
X53790000Y-103087529D01*
X53871233Y-103121178D01*
X54016131Y-103150000D01*
X54163869Y-103150000D01*
X54290000Y-103124910D01*
X54290000Y-104479723D01*
X54402948Y-104461835D01*
X54402966Y-104461831D01*
X54634989Y-104386442D01*
X54635000Y-104386438D01*
X54852371Y-104275682D01*
X55056083Y-104127678D01*
X55056936Y-104128852D01*
X55068413Y-104122839D01*
X55085283Y-104108369D01*
X55107142Y-104102549D01*
X55127178Y-104092053D01*
X55149388Y-104091302D01*
X55170866Y-104085585D01*
X55193086Y-104089826D01*
X55215691Y-104089063D01*
X55236027Y-104098023D01*
X55257859Y-104102191D01*
X55271585Y-104113691D01*
X55296736Y-104124773D01*
X55329032Y-104154896D01*
X55336810Y-104163964D01*
X55412861Y-104277782D01*
X55552218Y-104417139D01*
X55552221Y-104417141D01*
X55564564Y-104429484D01*
X56517860Y-105382780D01*
X56517867Y-105382788D01*
X56522861Y-105387782D01*
X56662218Y-105527139D01*
X56826086Y-105636632D01*
X56954834Y-105689961D01*
X57008164Y-105712051D01*
X57008166Y-105712051D01*
X57008168Y-105712052D01*
X57042304Y-105718842D01*
X57042305Y-105718842D01*
X57201459Y-105750500D01*
X57201460Y-105750500D01*
X57398540Y-105750500D01*
X57476598Y-105750500D01*
X57562941Y-105770207D01*
X57632182Y-105825426D01*
X57658950Y-105875186D01*
X57660800Y-105874421D01*
X57663787Y-105881633D01*
X57663789Y-105881639D01*
X57746004Y-106042994D01*
X57852448Y-106189501D01*
X57852452Y-106189505D01*
X57852453Y-106189507D01*
X59257446Y-107594499D01*
X59257453Y-107594507D01*
X59262447Y-107599501D01*
X59390499Y-107727553D01*
X59537006Y-107833996D01*
X59537008Y-107833997D01*
X59537011Y-107833999D01*
X59698348Y-107916205D01*
X59698359Y-107916210D01*
X59698361Y-107916211D01*
X59870591Y-107972171D01*
X59870594Y-107972171D01*
X59870596Y-107972172D01*
X60014983Y-107995041D01*
X60049453Y-108000501D01*
X60049459Y-108000501D01*
X60238755Y-108000501D01*
X60238779Y-108000500D01*
X64451221Y-108000500D01*
X64451245Y-108000501D01*
X64459454Y-108000501D01*
X64640540Y-108000501D01*
X64640546Y-108000501D01*
X64819409Y-107972171D01*
X64991639Y-107916211D01*
X65152994Y-107833996D01*
X65299501Y-107727553D01*
X65427553Y-107599501D01*
X65427554Y-107599499D01*
X65438890Y-107588163D01*
X65438893Y-107588158D01*
X65638268Y-107388785D01*
X65713257Y-107341667D01*
X65778982Y-107330500D01*
X67611221Y-107330500D01*
X67611245Y-107330501D01*
X67619454Y-107330501D01*
X67800540Y-107330501D01*
X67800546Y-107330501D01*
X67979409Y-107302171D01*
X68151639Y-107246211D01*
X68312994Y-107163996D01*
X68317912Y-107160423D01*
X68459501Y-107057553D01*
X68459504Y-107057550D01*
X68488269Y-107028786D01*
X68563257Y-106981667D01*
X68628983Y-106970500D01*
X71968368Y-106970500D01*
X72054711Y-106990207D01*
X72109082Y-107028786D01*
X75507446Y-110427150D01*
X75507453Y-110427158D01*
X75512447Y-110432152D01*
X75640499Y-110560204D01*
X75787006Y-110666647D01*
X75787008Y-110666648D01*
X75787011Y-110666650D01*
X75948348Y-110748856D01*
X75948359Y-110748861D01*
X75948361Y-110748862D01*
X76120591Y-110804822D01*
X76120594Y-110804822D01*
X76120596Y-110804823D01*
X76253206Y-110825827D01*
X76299453Y-110833152D01*
X76299459Y-110833152D01*
X76488755Y-110833152D01*
X76488779Y-110833151D01*
X76703214Y-110833151D01*
X76789557Y-110852858D01*
X76858798Y-110908077D01*
X76868676Y-110921592D01*
X76918379Y-110995978D01*
X76918381Y-110995980D01*
X76970531Y-111074030D01*
X76970536Y-111074036D01*
X77890536Y-111994035D01*
X77958703Y-112062202D01*
X78015964Y-112119463D01*
X78015965Y-112119464D01*
X78163449Y-112218011D01*
X78163451Y-112218012D01*
X78163453Y-112218013D01*
X78327334Y-112285894D01*
X78501309Y-112320500D01*
X79794572Y-112320500D01*
X79880915Y-112340207D01*
X79935286Y-112378786D01*
X80371214Y-112814713D01*
X80418333Y-112889701D01*
X80429500Y-112955427D01*
X80429500Y-120058690D01*
X80464104Y-120232660D01*
X80464105Y-120232663D01*
X80464106Y-120232666D01*
X80486873Y-120287631D01*
X80531988Y-120396550D01*
X80630535Y-120544034D01*
X80630541Y-120544041D01*
X80755958Y-120669458D01*
X80755965Y-120669464D01*
X80903449Y-120768011D01*
X80903451Y-120768012D01*
X80903453Y-120768013D01*
X81067334Y-120835894D01*
X81241309Y-120870500D01*
X81241310Y-120870500D01*
X81418690Y-120870500D01*
X81418691Y-120870500D01*
X81592666Y-120835894D01*
X81756547Y-120768013D01*
X81904035Y-120669464D01*
X82029464Y-120544035D01*
X82128013Y-120396547D01*
X82187329Y-120253342D01*
X82238576Y-120181117D01*
X82316088Y-120138277D01*
X82371180Y-120130499D01*
X83961518Y-120130499D01*
X84055304Y-120115646D01*
X84168342Y-120058050D01*
X84258050Y-119968342D01*
X84292240Y-119901241D01*
X84348998Y-119833256D01*
X84429633Y-119796630D01*
X84518174Y-119798617D01*
X84597084Y-119838824D01*
X84610264Y-119850871D01*
X84707635Y-119948242D01*
X84885978Y-120077815D01*
X85082394Y-120177895D01*
X85082399Y-120177896D01*
X85082400Y-120177897D01*
X85292039Y-120246012D01*
X85292043Y-120246013D01*
X85292049Y-120246015D01*
X85509778Y-120280500D01*
X85730222Y-120280500D01*
X85947951Y-120246015D01*
X86088222Y-120200438D01*
X86176426Y-120192500D01*
X86259342Y-120223618D01*
X86310342Y-120276959D01*
X86310463Y-120276873D01*
X86311071Y-120277722D01*
X86320545Y-120287631D01*
X86322518Y-120293705D01*
X86370000Y-120360000D01*
X89551000Y-120360000D01*
X89637343Y-120379707D01*
X89706584Y-120434926D01*
X89745011Y-120514718D01*
X89750000Y-120559000D01*
X89750000Y-124551000D01*
X89730293Y-124637343D01*
X89675074Y-124706584D01*
X89595282Y-124745011D01*
X89551000Y-124750000D01*
X40449000Y-124750000D01*
X40362657Y-124730293D01*
X40293416Y-124675074D01*
X40254989Y-124595282D01*
X40250000Y-124551000D01*
X40250000Y-102476913D01*
X40269707Y-102390570D01*
X40324926Y-102321329D01*
X40404718Y-102282902D01*
X40493282Y-102282902D01*
X40573074Y-102321329D01*
X40609283Y-102362317D01*
X40610782Y-102361229D01*
X40740280Y-102539469D01*
X40896062Y-102695251D01*
X40894240Y-102697072D01*
X40938562Y-102756658D01*
X40955352Y-102843615D01*
X40932751Y-102929246D01*
X40875234Y-102996590D01*
X40846813Y-103014227D01*
X40831658Y-103021948D01*
X40741949Y-103111657D01*
X40684355Y-103224692D01*
X40684353Y-103224699D01*
X40669500Y-103318481D01*
X40669500Y-105081518D01*
X40677133Y-105129711D01*
X40683939Y-105172686D01*
X40684354Y-105175303D01*
X40684354Y-105175305D01*
X40741951Y-105288344D01*
X40831657Y-105378050D01*
X40944692Y-105435644D01*
X40944696Y-105435646D01*
X41038481Y-105450500D01*
X41299042Y-105450499D01*
X41385382Y-105470206D01*
X41454624Y-105525424D01*
X41493050Y-105605217D01*
X41493051Y-105693780D01*
X41454625Y-105773573D01*
X41409600Y-105814961D01*
X41247537Y-105923249D01*
X41247533Y-105923252D01*
X41108252Y-106062533D01*
X41108246Y-106062541D01*
X40998812Y-106226319D01*
X40998810Y-106226323D01*
X40923430Y-106408305D01*
X40923430Y-106408306D01*
X40915137Y-106449999D01*
X40915138Y-106450000D01*
X41718012Y-106450000D01*
X41700795Y-106459940D01*
X41644940Y-106515795D01*
X41605444Y-106584204D01*
X41585000Y-106660504D01*
X41585000Y-106739496D01*
X41605444Y-106815796D01*
X41644940Y-106884205D01*
X41700795Y-106940060D01*
X41718012Y-106950000D01*
X40915138Y-106950000D01*
X40923430Y-106991693D01*
X40923430Y-106991694D01*
X40998810Y-107173676D01*
X40998812Y-107173680D01*
X41108246Y-107337458D01*
X41108252Y-107337466D01*
X41247533Y-107476747D01*
X41247541Y-107476753D01*
X41411319Y-107586187D01*
X41411326Y-107586191D01*
X41593307Y-107661569D01*
X41593314Y-107661571D01*
X41786506Y-107700000D01*
X41935000Y-107700000D01*
X41935000Y-107000000D01*
X42435000Y-107000000D01*
X42435000Y-107700000D01*
X42583494Y-107700000D01*
X42776685Y-107661571D01*
X42776692Y-107661569D01*
X42958673Y-107586191D01*
X42958674Y-107586190D01*
X42959936Y-107585348D01*
X42961039Y-107584926D01*
X42967301Y-107581580D01*
X42967725Y-107582374D01*
X43042675Y-107553762D01*
X43130925Y-107561203D01*
X43207207Y-107606197D01*
X43256413Y-107679833D01*
X43269500Y-107750807D01*
X43269500Y-114289192D01*
X43249793Y-114375535D01*
X43194574Y-114444776D01*
X43114782Y-114483203D01*
X43026218Y-114483203D01*
X42967559Y-114457937D01*
X42967301Y-114458420D01*
X42961578Y-114455361D01*
X42959948Y-114454659D01*
X42958681Y-114453812D01*
X42958673Y-114453808D01*
X42776692Y-114378430D01*
X42776685Y-114378428D01*
X42583494Y-114340000D01*
X42435000Y-114340000D01*
X42435000Y-115040000D01*
X41935000Y-115040000D01*
X41935000Y-114340000D01*
X41786506Y-114340000D01*
X41593314Y-114378428D01*
X41593307Y-114378430D01*
X41411326Y-114453808D01*
X41411319Y-114453812D01*
X41247541Y-114563246D01*
X41247533Y-114563252D01*
X41108252Y-114702533D01*
X41108246Y-114702541D01*
X40998812Y-114866319D01*
X40998810Y-114866323D01*
X40923430Y-115048305D01*
X40923430Y-115048306D01*
X40915137Y-115089999D01*
X40915138Y-115090000D01*
X41718012Y-115090000D01*
X41700795Y-115099940D01*
X41644940Y-115155795D01*
X41605444Y-115224204D01*
X41585000Y-115300504D01*
X41585000Y-115379496D01*
X41605444Y-115455796D01*
X41644940Y-115524205D01*
X41700795Y-115580060D01*
X41718012Y-115590000D01*
X40915138Y-115590000D01*
X40923430Y-115631693D01*
X40923430Y-115631694D01*
X40998810Y-115813676D01*
X40998812Y-115813680D01*
X41108246Y-115977458D01*
X41108252Y-115977466D01*
X41247533Y-116116747D01*
X41247541Y-116116753D01*
X41411319Y-116226187D01*
X41411326Y-116226191D01*
X41593307Y-116301569D01*
X41593314Y-116301571D01*
X41786506Y-116340000D01*
X41935000Y-116340000D01*
X41935000Y-115640000D01*
X42435000Y-115640000D01*
X42435000Y-116340000D01*
X42583494Y-116340000D01*
X42776685Y-116301571D01*
X42779447Y-116300428D01*
X42781742Y-116300037D01*
X42786044Y-116298733D01*
X42786209Y-116299278D01*
X42866759Y-116285591D01*
X42951862Y-116310106D01*
X43017900Y-116369118D01*
X43039458Y-116408124D01*
X43060604Y-116459174D01*
X43060606Y-116459179D01*
X43148211Y-116590289D01*
X43259711Y-116701789D01*
X43361046Y-116769499D01*
X43390818Y-116789392D01*
X43390825Y-116789396D01*
X43463662Y-116819565D01*
X43536503Y-116849737D01*
X43691158Y-116880500D01*
X43691159Y-116880500D01*
X43848841Y-116880500D01*
X43848842Y-116880500D01*
X44003497Y-116849737D01*
X44149179Y-116789394D01*
X44280289Y-116701789D01*
X44391789Y-116590289D01*
X44479394Y-116459179D01*
X44539737Y-116313497D01*
X44570500Y-116158842D01*
X44570500Y-116001158D01*
X44539737Y-115846503D01*
X44479394Y-115700821D01*
X44391789Y-115569711D01*
X44385571Y-115563493D01*
X44328785Y-115506706D01*
X44311024Y-115478439D01*
X44290207Y-115452336D01*
X44287688Y-115441299D01*
X44281667Y-115431717D01*
X44270500Y-115365993D01*
X44270500Y-115089999D01*
X44845137Y-115089999D01*
X44845138Y-115090000D01*
X45648012Y-115090000D01*
X45630795Y-115099940D01*
X45574940Y-115155795D01*
X45535444Y-115224204D01*
X45515000Y-115300504D01*
X45515000Y-115379496D01*
X45535444Y-115455796D01*
X45574940Y-115524205D01*
X45630795Y-115580060D01*
X45648012Y-115590000D01*
X44853854Y-115590000D01*
X44935750Y-115824063D01*
X45038246Y-115977458D01*
X45038252Y-115977466D01*
X45177533Y-116116747D01*
X45177541Y-116116753D01*
X45341319Y-116226187D01*
X45341326Y-116226191D01*
X45523307Y-116301569D01*
X45523314Y-116301571D01*
X45716506Y-116340000D01*
X46115000Y-116340000D01*
X46115000Y-115640000D01*
X46615000Y-115640000D01*
X46615000Y-116340000D01*
X47013494Y-116340000D01*
X47206685Y-116301571D01*
X47206692Y-116301569D01*
X47388673Y-116226191D01*
X47388680Y-116226187D01*
X47552458Y-116116753D01*
X47552466Y-116116747D01*
X47691747Y-115977466D01*
X47691753Y-115977458D01*
X47801187Y-115813680D01*
X47801189Y-115813676D01*
X47876569Y-115631694D01*
X47876569Y-115631693D01*
X47884862Y-115590000D01*
X47081988Y-115590000D01*
X47099205Y-115580060D01*
X47155060Y-115524205D01*
X47194556Y-115455796D01*
X47215000Y-115379496D01*
X47215000Y-115300504D01*
X47201778Y-115251158D01*
X69149500Y-115251158D01*
X69149500Y-115408841D01*
X69180262Y-115563493D01*
X69180264Y-115563500D01*
X69240603Y-115709174D01*
X69240607Y-115709181D01*
X69284114Y-115774293D01*
X69328211Y-115840289D01*
X69439711Y-115951789D01*
X69439714Y-115951791D01*
X69443779Y-115955127D01*
X69446290Y-115958368D01*
X69446624Y-115958702D01*
X69446581Y-115958744D01*
X69498021Y-116025135D01*
X69516516Y-116111746D01*
X69495601Y-116197804D01*
X69458251Y-116249670D01*
X69388214Y-116319706D01*
X69388208Y-116319715D01*
X69300607Y-116450818D01*
X69300603Y-116450825D01*
X69240264Y-116596499D01*
X69240262Y-116596506D01*
X69209500Y-116751158D01*
X69209500Y-116908841D01*
X69240262Y-117063493D01*
X69240264Y-117063500D01*
X69300603Y-117209174D01*
X69300607Y-117209181D01*
X69332224Y-117256499D01*
X69388211Y-117340289D01*
X69499711Y-117451789D01*
X69607339Y-117523704D01*
X69630818Y-117539392D01*
X69630825Y-117539396D01*
X69667469Y-117554574D01*
X69776503Y-117599737D01*
X69931158Y-117630500D01*
X69931159Y-117630500D01*
X70088841Y-117630500D01*
X70088842Y-117630500D01*
X70243497Y-117599737D01*
X70389179Y-117539394D01*
X70520289Y-117451789D01*
X70560920Y-117411158D01*
X72869500Y-117411158D01*
X72869500Y-117568842D01*
X72877646Y-117609793D01*
X72900262Y-117723493D01*
X72900264Y-117723500D01*
X72960603Y-117869174D01*
X72960606Y-117869179D01*
X73048211Y-118000289D01*
X73159711Y-118111789D01*
X73262544Y-118180500D01*
X73290818Y-118199392D01*
X73290825Y-118199396D01*
X73315219Y-118209500D01*
X73436503Y-118259737D01*
X73591158Y-118290500D01*
X73591159Y-118290500D01*
X73748841Y-118290500D01*
X73748842Y-118290500D01*
X73772153Y-118285863D01*
X73860678Y-118288344D01*
X73939363Y-118328992D01*
X73992619Y-118399753D01*
X74009899Y-118486615D01*
X73994831Y-118557188D01*
X73970262Y-118616504D01*
X73970262Y-118616506D01*
X73939500Y-118771158D01*
X73939500Y-118928841D01*
X73970262Y-119083493D01*
X73970264Y-119083500D01*
X74030603Y-119229174D01*
X74030606Y-119229179D01*
X74118211Y-119360289D01*
X74229711Y-119471789D01*
X74359939Y-119558805D01*
X74360818Y-119559392D01*
X74360825Y-119559396D01*
X74433662Y-119589565D01*
X74506503Y-119619737D01*
X74661158Y-119650500D01*
X74661159Y-119650500D01*
X74818841Y-119650500D01*
X74818842Y-119650500D01*
X74973497Y-119619737D01*
X75119179Y-119559394D01*
X75250289Y-119471789D01*
X75287997Y-119434081D01*
X75313294Y-119408785D01*
X75388283Y-119361667D01*
X75454007Y-119350500D01*
X75735890Y-119350500D01*
X75735892Y-119350500D01*
X75863186Y-119316392D01*
X75863190Y-119316389D01*
X75875236Y-119311401D01*
X75876018Y-119313291D01*
X75944616Y-119292127D01*
X76032191Y-119305321D01*
X76070590Y-119327843D01*
X76071583Y-119326358D01*
X76210818Y-119419392D01*
X76210825Y-119419396D01*
X76283662Y-119449565D01*
X76356503Y-119479737D01*
X76511158Y-119510500D01*
X76511159Y-119510500D01*
X76668841Y-119510500D01*
X76668842Y-119510500D01*
X76823497Y-119479737D01*
X76969179Y-119419394D01*
X77100289Y-119331789D01*
X77211789Y-119220289D01*
X77299394Y-119089179D01*
X77359737Y-118943497D01*
X77390500Y-118788842D01*
X77390500Y-118631158D01*
X77359737Y-118476503D01*
X77307131Y-118349500D01*
X77299396Y-118330825D01*
X77299392Y-118330818D01*
X77296030Y-118325786D01*
X77264446Y-118243046D01*
X77271889Y-118154796D01*
X77296028Y-118104672D01*
X77334107Y-118047683D01*
X77394450Y-117902001D01*
X77425213Y-117747346D01*
X77425213Y-117589662D01*
X77394450Y-117435007D01*
X77334728Y-117290824D01*
X77334109Y-117289329D01*
X77334105Y-117289322D01*
X77298021Y-117235318D01*
X77266437Y-117152577D01*
X77273881Y-117064327D01*
X77279625Y-117048620D01*
X77339737Y-116903497D01*
X77370500Y-116748842D01*
X77370500Y-116591158D01*
X77339737Y-116436503D01*
X77309565Y-116363662D01*
X77279396Y-116290825D01*
X77279392Y-116290818D01*
X77251898Y-116249670D01*
X77191789Y-116159711D01*
X77080289Y-116048211D01*
X76974400Y-115977458D01*
X76949181Y-115960607D01*
X76949174Y-115960603D01*
X76803500Y-115900264D01*
X76803498Y-115900263D01*
X76803497Y-115900263D01*
X76803495Y-115900262D01*
X76803493Y-115900262D01*
X76725125Y-115884673D01*
X76648842Y-115869500D01*
X76491158Y-115869500D01*
X76440072Y-115879661D01*
X76336506Y-115900262D01*
X76336499Y-115900264D01*
X76190825Y-115960603D01*
X76190818Y-115960607D01*
X76059715Y-116048208D01*
X76059707Y-116048214D01*
X75948214Y-116159707D01*
X75948208Y-116159715D01*
X75860607Y-116290818D01*
X75860605Y-116290821D01*
X75829195Y-116366654D01*
X75777946Y-116438882D01*
X75700434Y-116481722D01*
X75645343Y-116489500D01*
X74235893Y-116489500D01*
X74104108Y-116489500D01*
X74040461Y-116506554D01*
X73976812Y-116523608D01*
X73862686Y-116589498D01*
X73862684Y-116589500D01*
X73820971Y-116631214D01*
X73745983Y-116678333D01*
X73680257Y-116689500D01*
X73591158Y-116689500D01*
X73540072Y-116699661D01*
X73436506Y-116720262D01*
X73436499Y-116720264D01*
X73290825Y-116780603D01*
X73290818Y-116780607D01*
X73159715Y-116868208D01*
X73159707Y-116868214D01*
X73048214Y-116979707D01*
X73048208Y-116979715D01*
X72960607Y-117110818D01*
X72960603Y-117110825D01*
X72900264Y-117256499D01*
X72900263Y-117256503D01*
X72869500Y-117411158D01*
X70560920Y-117411158D01*
X70631789Y-117340289D01*
X70719394Y-117209179D01*
X70779737Y-117063497D01*
X70810500Y-116908842D01*
X70810500Y-116819741D01*
X70830207Y-116733398D01*
X70868786Y-116679027D01*
X71889028Y-115658786D01*
X71964017Y-115611667D01*
X72029742Y-115600500D01*
X73798695Y-115600500D01*
X73885038Y-115620207D01*
X73911562Y-115637133D01*
X73912081Y-115636358D01*
X74051316Y-115729392D01*
X74051323Y-115729396D01*
X74124160Y-115759565D01*
X74197001Y-115789737D01*
X74351656Y-115820500D01*
X74351657Y-115820500D01*
X74509339Y-115820500D01*
X74509340Y-115820500D01*
X74663995Y-115789737D01*
X74809677Y-115729394D01*
X74940787Y-115641789D01*
X75052287Y-115530289D01*
X75139892Y-115399179D01*
X75200235Y-115253497D01*
X75230998Y-115098842D01*
X75230998Y-114941158D01*
X75200235Y-114786503D01*
X75159837Y-114688973D01*
X75139894Y-114640825D01*
X75139890Y-114640818D01*
X75088058Y-114563246D01*
X75052287Y-114509711D01*
X74940787Y-114398211D01*
X74824175Y-114320293D01*
X74809679Y-114310607D01*
X74809672Y-114310603D01*
X74663998Y-114250264D01*
X74663996Y-114250263D01*
X74663995Y-114250263D01*
X74663993Y-114250262D01*
X74663991Y-114250262D01*
X74585623Y-114234673D01*
X74509340Y-114219500D01*
X74351656Y-114219500D01*
X74225628Y-114244568D01*
X74182722Y-114243364D01*
X74139710Y-114242739D01*
X74138476Y-114242122D01*
X74137100Y-114242084D01*
X74098929Y-114222364D01*
X74060484Y-114203157D01*
X74059641Y-114202067D01*
X74058416Y-114201435D01*
X74032566Y-114167086D01*
X74006278Y-114133121D01*
X74006092Y-114131908D01*
X74005162Y-114130672D01*
X73987827Y-114046500D01*
X73988144Y-114024684D01*
X73990500Y-114015892D01*
X73990500Y-113884107D01*
X73990500Y-113862559D01*
X73990521Y-113861114D01*
X74000664Y-113819472D01*
X74010207Y-113777663D01*
X74011184Y-113776285D01*
X74011481Y-113775067D01*
X74015648Y-113769994D01*
X74048786Y-113723292D01*
X74111789Y-113660289D01*
X74199394Y-113529179D01*
X74259737Y-113383497D01*
X74290500Y-113228842D01*
X74290500Y-113071158D01*
X74259737Y-112916503D01*
X74217575Y-112814713D01*
X74199396Y-112770825D01*
X74199392Y-112770818D01*
X74175249Y-112734686D01*
X74111789Y-112639711D01*
X74000289Y-112528211D01*
X73934293Y-112484114D01*
X73869181Y-112440607D01*
X73869174Y-112440603D01*
X73723500Y-112380264D01*
X73723498Y-112380263D01*
X73723497Y-112380263D01*
X73723495Y-112380262D01*
X73723493Y-112380262D01*
X73645125Y-112364673D01*
X73568842Y-112349500D01*
X73411158Y-112349500D01*
X73360072Y-112359661D01*
X73256506Y-112380262D01*
X73256499Y-112380264D01*
X73110825Y-112440603D01*
X73110818Y-112440607D01*
X72979715Y-112528208D01*
X72979707Y-112528214D01*
X72868214Y-112639707D01*
X72868208Y-112639715D01*
X72780607Y-112770818D01*
X72780603Y-112770825D01*
X72720264Y-112916499D01*
X72720262Y-112916506D01*
X72689500Y-113071158D01*
X72689500Y-113228841D01*
X72720262Y-113383493D01*
X72720264Y-113383500D01*
X72780603Y-113529174D01*
X72780606Y-113529179D01*
X72859063Y-113646599D01*
X72860080Y-113649264D01*
X72862098Y-113651282D01*
X72875827Y-113690519D01*
X72890646Y-113729339D01*
X72890406Y-113732180D01*
X72891349Y-113734875D01*
X72886694Y-113776185D01*
X72883202Y-113817589D01*
X72881752Y-113820046D01*
X72881433Y-113822882D01*
X72859317Y-113858079D01*
X72838205Y-113893870D01*
X72834315Y-113897871D01*
X72690970Y-114041215D01*
X72615984Y-114088333D01*
X72550258Y-114099500D01*
X70745893Y-114099500D01*
X70614108Y-114099500D01*
X70493159Y-114131908D01*
X70486814Y-114133608D01*
X70372684Y-114199501D01*
X70100971Y-114471214D01*
X70025982Y-114518333D01*
X69960257Y-114529500D01*
X69871158Y-114529500D01*
X69820072Y-114539661D01*
X69716506Y-114560262D01*
X69716499Y-114560264D01*
X69570825Y-114620603D01*
X69570818Y-114620607D01*
X69439715Y-114708208D01*
X69439707Y-114708214D01*
X69328214Y-114819707D01*
X69328208Y-114819715D01*
X69240607Y-114950818D01*
X69240603Y-114950825D01*
X69180264Y-115096499D01*
X69180262Y-115096506D01*
X69149500Y-115251158D01*
X47201778Y-115251158D01*
X47194556Y-115224204D01*
X47155060Y-115155795D01*
X47099205Y-115099940D01*
X47081988Y-115090000D01*
X47884862Y-115090000D01*
X47876569Y-115048306D01*
X47876569Y-115048305D01*
X47814310Y-114898000D01*
X47613682Y-114624468D01*
X47552466Y-114563252D01*
X47552458Y-114563246D01*
X47388680Y-114453812D01*
X47388673Y-114453808D01*
X47206692Y-114378430D01*
X47206685Y-114378428D01*
X47013494Y-114340000D01*
X46604926Y-114340000D01*
X46518583Y-114320293D01*
X46449342Y-114265074D01*
X46410915Y-114185282D01*
X46410915Y-114096718D01*
X46412706Y-114089497D01*
X46440500Y-113985765D01*
X46440500Y-113834236D01*
X46440500Y-113834234D01*
X46401281Y-113687865D01*
X46325515Y-113556635D01*
X46218366Y-113449486D01*
X46218367Y-113449486D01*
X46087134Y-113373718D01*
X46002626Y-113351075D01*
X45940766Y-113334500D01*
X45789234Y-113334500D01*
X45738165Y-113348183D01*
X45642865Y-113373718D01*
X45511633Y-113449486D01*
X45404486Y-113556633D01*
X45328718Y-113687865D01*
X45303183Y-113783165D01*
X45289500Y-113834234D01*
X45289500Y-113985766D01*
X45306656Y-114049793D01*
X45328718Y-114132134D01*
X45341148Y-114153663D01*
X45373054Y-114208926D01*
X45399158Y-114293553D01*
X45385959Y-114381127D01*
X45336070Y-114454302D01*
X45311275Y-114473886D01*
X45177543Y-114563244D01*
X45177533Y-114563252D01*
X45038252Y-114702533D01*
X45038246Y-114702541D01*
X44928812Y-114866319D01*
X44928810Y-114866323D01*
X44853430Y-115048305D01*
X44853430Y-115048306D01*
X44845137Y-115089999D01*
X44270500Y-115089999D01*
X44270500Y-111191147D01*
X47489500Y-111191147D01*
X47489500Y-111348830D01*
X47520262Y-111503482D01*
X47520264Y-111503489D01*
X47580603Y-111649163D01*
X47580606Y-111649168D01*
X47668211Y-111780278D01*
X47779711Y-111891778D01*
X47909939Y-111978794D01*
X47910818Y-111979381D01*
X47910819Y-111979382D01*
X47910820Y-111979382D01*
X47910821Y-111979383D01*
X48046656Y-112035647D01*
X48118883Y-112086894D01*
X48161723Y-112164406D01*
X48169501Y-112219498D01*
X48169501Y-113353176D01*
X48149794Y-113439519D01*
X48111216Y-113493889D01*
X48048215Y-113556890D01*
X48048208Y-113556899D01*
X47960607Y-113688002D01*
X47960603Y-113688009D01*
X47900264Y-113833683D01*
X47900262Y-113833690D01*
X47888292Y-113893870D01*
X47869500Y-113988342D01*
X47869500Y-114146026D01*
X47871019Y-114153663D01*
X47888737Y-114242739D01*
X47900263Y-114300681D01*
X47924021Y-114358040D01*
X47933584Y-114381127D01*
X47960606Y-114446363D01*
X48048211Y-114577473D01*
X48159711Y-114688973D01*
X48289939Y-114775989D01*
X48290818Y-114776576D01*
X48290825Y-114776580D01*
X48314782Y-114786503D01*
X48436503Y-114836921D01*
X48591158Y-114867684D01*
X48591159Y-114867684D01*
X48748841Y-114867684D01*
X48748842Y-114867684D01*
X48903497Y-114836921D01*
X49049179Y-114776578D01*
X49180289Y-114688973D01*
X49291789Y-114577473D01*
X49379394Y-114446363D01*
X49439737Y-114300681D01*
X49443040Y-114284074D01*
X49479212Y-114203238D01*
X49546877Y-114146098D01*
X49599398Y-114127721D01*
X49606986Y-114126212D01*
X49752668Y-114065869D01*
X49883778Y-113978264D01*
X49995278Y-113866764D01*
X50082883Y-113735654D01*
X50143226Y-113589972D01*
X50173989Y-113435317D01*
X50173989Y-113277633D01*
X50143226Y-113122978D01*
X50102193Y-113023915D01*
X50082885Y-112977300D01*
X50082881Y-112977293D01*
X50075099Y-112965646D01*
X49995278Y-112846186D01*
X49928786Y-112779694D01*
X49881667Y-112704706D01*
X49870500Y-112638980D01*
X49870500Y-111224107D01*
X49863988Y-111199806D01*
X49862002Y-111192394D01*
X49836392Y-111096814D01*
X49823241Y-111074036D01*
X49770500Y-110982686D01*
X49677314Y-110889500D01*
X49178786Y-110390972D01*
X49131667Y-110315984D01*
X49120500Y-110250258D01*
X49120500Y-110191158D01*
X49089737Y-110036503D01*
X49040803Y-109918365D01*
X49029396Y-109890825D01*
X49029392Y-109890818D01*
X49028805Y-109889939D01*
X48941789Y-109759711D01*
X48830289Y-109648211D01*
X48764293Y-109604114D01*
X48699181Y-109560607D01*
X48699174Y-109560603D01*
X48553500Y-109500264D01*
X48553498Y-109500263D01*
X48553497Y-109500263D01*
X48553495Y-109500262D01*
X48553493Y-109500262D01*
X48475125Y-109484673D01*
X48398842Y-109469500D01*
X48241158Y-109469500D01*
X48205354Y-109476622D01*
X48086506Y-109500262D01*
X48086499Y-109500264D01*
X47940825Y-109560603D01*
X47940818Y-109560607D01*
X47809715Y-109648208D01*
X47809707Y-109648214D01*
X47698214Y-109759707D01*
X47698208Y-109759715D01*
X47610607Y-109890818D01*
X47610603Y-109890825D01*
X47550264Y-110036499D01*
X47550262Y-110036506D01*
X47519500Y-110191158D01*
X47519500Y-110348841D01*
X47539730Y-110450547D01*
X47550263Y-110503497D01*
X47573752Y-110560204D01*
X47610608Y-110649183D01*
X47612805Y-110653294D01*
X47613759Y-110656791D01*
X47614347Y-110658210D01*
X47614166Y-110658284D01*
X47636122Y-110738732D01*
X47620060Y-110825827D01*
X47602762Y-110857648D01*
X47580610Y-110890800D01*
X47580603Y-110890814D01*
X47520264Y-111036488D01*
X47520262Y-111036495D01*
X47489500Y-111191147D01*
X44270500Y-111191147D01*
X44270500Y-106449999D01*
X44845137Y-106449999D01*
X44845138Y-106450000D01*
X45648012Y-106450000D01*
X45630795Y-106459940D01*
X45574940Y-106515795D01*
X45535444Y-106584204D01*
X45515000Y-106660504D01*
X45515000Y-106739496D01*
X45535444Y-106815796D01*
X45574940Y-106884205D01*
X45630795Y-106940060D01*
X45648012Y-106950000D01*
X44845138Y-106950000D01*
X44853430Y-106991693D01*
X44853430Y-106991694D01*
X44928810Y-107173676D01*
X44928812Y-107173680D01*
X45038246Y-107337458D01*
X45038252Y-107337466D01*
X45177533Y-107476747D01*
X45177541Y-107476753D01*
X45311274Y-107566112D01*
X45372117Y-107630468D01*
X45399011Y-107714849D01*
X45386630Y-107802542D01*
X45373054Y-107831074D01*
X45328719Y-107907863D01*
X45317294Y-107950503D01*
X45289500Y-108054234D01*
X45289500Y-108205766D01*
X45296070Y-108230284D01*
X45328718Y-108352134D01*
X45328719Y-108352135D01*
X45403784Y-108482151D01*
X45404486Y-108483366D01*
X45511633Y-108590513D01*
X45511632Y-108590513D01*
X45511634Y-108590514D01*
X45511635Y-108590515D01*
X45642865Y-108666281D01*
X45789234Y-108705500D01*
X45789236Y-108705500D01*
X45940764Y-108705500D01*
X45940766Y-108705500D01*
X46087135Y-108666281D01*
X46218365Y-108590515D01*
X46325515Y-108483365D01*
X46401281Y-108352135D01*
X46440500Y-108205766D01*
X46440500Y-108054234D01*
X46412706Y-107950503D01*
X46409396Y-107862002D01*
X46444812Y-107780829D01*
X46511941Y-107723060D01*
X46597487Y-107700139D01*
X46604926Y-107700000D01*
X47013494Y-107700000D01*
X47206685Y-107661571D01*
X47206692Y-107661569D01*
X47388673Y-107586191D01*
X47388680Y-107586187D01*
X47552458Y-107476753D01*
X47552466Y-107476747D01*
X47691747Y-107337466D01*
X47691753Y-107337458D01*
X47801187Y-107173680D01*
X47801189Y-107173676D01*
X47876569Y-106991694D01*
X47876569Y-106991693D01*
X47884862Y-106950000D01*
X47081988Y-106950000D01*
X47099205Y-106940060D01*
X47155060Y-106884205D01*
X47194556Y-106815796D01*
X47215000Y-106739496D01*
X47215000Y-106660504D01*
X47194556Y-106584204D01*
X47155060Y-106515795D01*
X47099205Y-106459940D01*
X47081988Y-106450000D01*
X47884862Y-106450000D01*
X47884862Y-106449999D01*
X47876569Y-106408306D01*
X47876569Y-106408305D01*
X47801189Y-106226323D01*
X47801187Y-106226319D01*
X47691753Y-106062541D01*
X47691747Y-106062533D01*
X47552466Y-105923252D01*
X47552458Y-105923246D01*
X47388680Y-105813812D01*
X47388673Y-105813808D01*
X47206692Y-105738430D01*
X47206685Y-105738428D01*
X47013494Y-105700000D01*
X46615000Y-105700000D01*
X46615000Y-106400000D01*
X46115000Y-106400000D01*
X46115000Y-105700000D01*
X45716506Y-105700000D01*
X45523314Y-105738428D01*
X45523307Y-105738430D01*
X45341326Y-105813808D01*
X45341319Y-105813812D01*
X45177541Y-105923246D01*
X45177533Y-105923252D01*
X45038252Y-106062533D01*
X45038246Y-106062541D01*
X44928812Y-106226319D01*
X44928810Y-106226323D01*
X44853430Y-106408305D01*
X44853430Y-106408306D01*
X44845137Y-106449999D01*
X44270500Y-106449999D01*
X44270500Y-105414877D01*
X44270500Y-105414108D01*
X44268921Y-105408216D01*
X44236392Y-105286814D01*
X44209075Y-105239500D01*
X44186116Y-105199734D01*
X44170502Y-105172688D01*
X43728785Y-104730971D01*
X43681666Y-104655983D01*
X43670499Y-104590257D01*
X43670499Y-103696229D01*
X45979500Y-103696229D01*
X45979500Y-103863770D01*
X46012183Y-104028078D01*
X46012184Y-104028081D01*
X46076294Y-104182859D01*
X46076297Y-104182864D01*
X46137927Y-104275098D01*
X46169374Y-104322162D01*
X46287838Y-104440626D01*
X46339339Y-104475038D01*
X46427135Y-104533702D01*
X46427140Y-104533705D01*
X46493843Y-104561333D01*
X46581918Y-104597816D01*
X46664075Y-104614158D01*
X46746230Y-104630500D01*
X48573946Y-104630500D01*
X48660289Y-104650207D01*
X48729530Y-104705426D01*
X48767957Y-104785218D01*
X48767957Y-104873782D01*
X48729530Y-104953574D01*
X48684506Y-104994962D01*
X48649711Y-105018211D01*
X48649707Y-105018214D01*
X48538214Y-105129707D01*
X48538208Y-105129715D01*
X48450607Y-105260818D01*
X48450603Y-105260825D01*
X48390264Y-105406499D01*
X48390262Y-105406506D01*
X48366608Y-105525424D01*
X48359500Y-105561158D01*
X48359500Y-105718842D01*
X48374673Y-105795125D01*
X48390262Y-105873493D01*
X48390264Y-105873500D01*
X48450603Y-106019174D01*
X48450607Y-106019181D01*
X48491472Y-106080339D01*
X48538211Y-106150289D01*
X48538214Y-106150292D01*
X48601214Y-106213292D01*
X48648333Y-106288280D01*
X48659500Y-106354006D01*
X48659500Y-106853268D01*
X48657815Y-106879107D01*
X48656112Y-106892109D01*
X48639500Y-106954108D01*
X48639500Y-107018964D01*
X48637815Y-107031832D01*
X48626832Y-107061494D01*
X48619793Y-107092336D01*
X48610633Y-107105245D01*
X48607064Y-107114885D01*
X48596699Y-107124882D01*
X48581215Y-107146706D01*
X48518215Y-107209706D01*
X48518208Y-107209715D01*
X48430607Y-107340818D01*
X48430603Y-107340825D01*
X48370264Y-107486499D01*
X48370262Y-107486506D01*
X48347787Y-107599497D01*
X48339500Y-107641158D01*
X48339500Y-107798842D01*
X48346493Y-107833996D01*
X48370262Y-107953493D01*
X48370264Y-107953500D01*
X48430603Y-108099174D01*
X48430606Y-108099179D01*
X48518211Y-108230289D01*
X48629711Y-108341789D01*
X48759939Y-108428805D01*
X48760818Y-108429392D01*
X48760825Y-108429396D01*
X48833662Y-108459565D01*
X48906503Y-108489737D01*
X49061158Y-108520500D01*
X49061159Y-108520500D01*
X49218841Y-108520500D01*
X49218842Y-108520500D01*
X49373497Y-108489737D01*
X49519179Y-108429394D01*
X49650289Y-108341789D01*
X49761789Y-108230289D01*
X49849394Y-108099179D01*
X49909737Y-107953497D01*
X49940500Y-107798842D01*
X49940500Y-107641158D01*
X49909737Y-107486503D01*
X49868691Y-107387408D01*
X49849396Y-107340825D01*
X49849392Y-107340818D01*
X49823569Y-107302171D01*
X49761789Y-107209711D01*
X49718786Y-107166708D01*
X49671667Y-107091720D01*
X49660500Y-107025994D01*
X49660500Y-106354006D01*
X49680207Y-106267663D01*
X49718786Y-106213292D01*
X49749428Y-106182650D01*
X49781789Y-106150289D01*
X49869394Y-106019179D01*
X49929737Y-105873497D01*
X49960500Y-105718842D01*
X49960500Y-105561158D01*
X49929737Y-105406503D01*
X49899565Y-105333662D01*
X49869396Y-105260825D01*
X49869392Y-105260818D01*
X49812253Y-105175304D01*
X49781789Y-105129711D01*
X49670289Y-105018211D01*
X49573553Y-104953574D01*
X49539181Y-104930607D01*
X49539174Y-104930603D01*
X49393500Y-104870264D01*
X49393498Y-104870263D01*
X49393497Y-104870263D01*
X49393495Y-104870262D01*
X49393493Y-104870262D01*
X49315125Y-104854673D01*
X49238842Y-104839500D01*
X49231220Y-104839500D01*
X49144877Y-104819793D01*
X49075636Y-104764574D01*
X49037209Y-104684782D01*
X49037209Y-104596218D01*
X49075636Y-104516426D01*
X49120661Y-104475038D01*
X49172162Y-104440626D01*
X49290626Y-104322162D01*
X49383703Y-104182863D01*
X49447816Y-104028082D01*
X49475612Y-103888342D01*
X49480500Y-103863770D01*
X49480500Y-103696229D01*
X49450418Y-103545000D01*
X49447816Y-103531918D01*
X49411333Y-103443843D01*
X49383705Y-103377140D01*
X49383702Y-103377135D01*
X49301890Y-103254696D01*
X49290626Y-103237838D01*
X49172162Y-103119374D01*
X49084861Y-103061041D01*
X49032864Y-103026297D01*
X49032859Y-103026294D01*
X48914563Y-102977295D01*
X48878082Y-102962184D01*
X48878079Y-102962183D01*
X48878078Y-102962183D01*
X48713770Y-102929500D01*
X48713767Y-102929500D01*
X46746233Y-102929500D01*
X46746230Y-102929500D01*
X46581921Y-102962183D01*
X46581918Y-102962184D01*
X46427140Y-103026294D01*
X46427135Y-103026297D01*
X46287842Y-103119371D01*
X46287834Y-103119377D01*
X46169377Y-103237834D01*
X46169371Y-103237842D01*
X46076297Y-103377135D01*
X46076294Y-103377140D01*
X46012184Y-103531918D01*
X46012183Y-103531921D01*
X45979500Y-103696229D01*
X43670499Y-103696229D01*
X43670499Y-103318481D01*
X43666455Y-103292949D01*
X43655646Y-103224696D01*
X43598050Y-103111658D01*
X43598049Y-103111657D01*
X43598048Y-103111655D01*
X43508343Y-103021950D01*
X43493189Y-103014229D01*
X43425204Y-102957470D01*
X43388578Y-102876835D01*
X43390566Y-102788294D01*
X43430774Y-102709384D01*
X43444348Y-102695661D01*
X43443938Y-102695251D01*
X43599719Y-102539469D01*
X43724626Y-102367548D01*
X43821088Y-102178232D01*
X43821096Y-102178213D01*
X43827014Y-102160000D01*
X42369000Y-102160000D01*
X42297083Y-102143585D01*
X42362993Y-102125925D01*
X42477007Y-102060099D01*
X42570099Y-101967007D01*
X42635925Y-101852993D01*
X42670000Y-101725826D01*
X42670000Y-101594174D01*
X42635925Y-101467007D01*
X42570099Y-101352993D01*
X42477007Y-101259901D01*
X42362993Y-101194075D01*
X42299596Y-101177087D01*
X42324718Y-101164989D01*
X42369000Y-101160000D01*
X43827014Y-101160000D01*
X43827013Y-101159999D01*
X43821096Y-101141786D01*
X43821088Y-101141767D01*
X43724626Y-100952451D01*
X43599719Y-100780530D01*
X43449468Y-100630279D01*
X43449461Y-100630273D01*
X43421549Y-100609994D01*
X43363279Y-100543300D01*
X43339718Y-100457928D01*
X43355532Y-100370788D01*
X43407588Y-100299139D01*
X43485577Y-100257171D01*
X43538518Y-100250000D01*
X52817540Y-100250000D01*
X52903883Y-100269707D01*
G37*
%TD.AperFunction*%
%TA.AperFunction,Conductor*%
G36*
X89637343Y-100269707D02*
G01*
X89706584Y-100324926D01*
X89745011Y-100404718D01*
X89750000Y-100449000D01*
X89750000Y-119761000D01*
X89730293Y-119847343D01*
X89675074Y-119916584D01*
X89595282Y-119955011D01*
X89551000Y-119960000D01*
X86957007Y-119960000D01*
X86870664Y-119940293D01*
X86801423Y-119885074D01*
X86762996Y-119805282D01*
X86762996Y-119716718D01*
X86796012Y-119644031D01*
X86817815Y-119614022D01*
X86917895Y-119417606D01*
X86986015Y-119207951D01*
X87020500Y-118990222D01*
X87020500Y-111619778D01*
X86986015Y-111402049D01*
X86968723Y-111348830D01*
X86917897Y-111192400D01*
X86917896Y-111192399D01*
X86917895Y-111192394D01*
X86817815Y-110995978D01*
X86808503Y-110983161D01*
X86773698Y-110901726D01*
X86770500Y-110866195D01*
X86770500Y-110458780D01*
X86770501Y-110458755D01*
X86770501Y-110269454D01*
X86742173Y-110090596D01*
X86742171Y-110090588D01*
X86686212Y-109918365D01*
X86686208Y-109918354D01*
X86603999Y-109757011D01*
X86603997Y-109757008D01*
X86603996Y-109757006D01*
X86497553Y-109610499D01*
X86369501Y-109482447D01*
X86363700Y-109476646D01*
X86363675Y-109476622D01*
X86009030Y-109121977D01*
X85980074Y-109085248D01*
X85976655Y-109079670D01*
X85976650Y-109079663D01*
X85976647Y-109079657D01*
X85870204Y-108933150D01*
X85742152Y-108805098D01*
X85595645Y-108698655D01*
X85595643Y-108698654D01*
X85595639Y-108698651D01*
X85434302Y-108616445D01*
X85434283Y-108616437D01*
X85262069Y-108560482D01*
X85262058Y-108560479D01*
X85083197Y-108532151D01*
X78513002Y-108532151D01*
X78457483Y-108524249D01*
X78322569Y-108485053D01*
X78322572Y-108485053D01*
X78308740Y-108483964D01*
X78285694Y-108482151D01*
X77054306Y-108482151D01*
X77031259Y-108483964D01*
X77017428Y-108485053D01*
X76977035Y-108496788D01*
X76888622Y-108501951D01*
X76806725Y-108468242D01*
X76780805Y-108446403D01*
X75662604Y-107328202D01*
X77054777Y-107328202D01*
X77170972Y-107387407D01*
X77170973Y-107387408D01*
X77365578Y-107450639D01*
X77365590Y-107450642D01*
X77567688Y-107482651D01*
X77772312Y-107482651D01*
X77974409Y-107450642D01*
X77974421Y-107450639D01*
X78169026Y-107387408D01*
X78169027Y-107387407D01*
X78285222Y-107328202D01*
X77670001Y-106712981D01*
X77670000Y-106712981D01*
X77054777Y-107328202D01*
X75662604Y-107328202D01*
X74414741Y-106080339D01*
X76370000Y-106080339D01*
X76370000Y-106284962D01*
X76402008Y-106487060D01*
X76402011Y-106487072D01*
X76465241Y-106681672D01*
X76524447Y-106797873D01*
X76524448Y-106797873D01*
X77139670Y-106182651D01*
X77139670Y-106182650D01*
X77087010Y-106129990D01*
X77270000Y-106129990D01*
X77270000Y-106235312D01*
X77297259Y-106337045D01*
X77349920Y-106428257D01*
X77424394Y-106502731D01*
X77515606Y-106555392D01*
X77617339Y-106582651D01*
X77722661Y-106582651D01*
X77824394Y-106555392D01*
X77915606Y-106502731D01*
X77990080Y-106428257D01*
X78042741Y-106337045D01*
X78070000Y-106235312D01*
X78070000Y-106182650D01*
X78200330Y-106182650D01*
X78200330Y-106182652D01*
X78815551Y-106797873D01*
X78874756Y-106681678D01*
X78874757Y-106681677D01*
X78937988Y-106487072D01*
X78937991Y-106487060D01*
X78970000Y-106284962D01*
X78970000Y-106080339D01*
X78937991Y-105878241D01*
X78937988Y-105878229D01*
X78874757Y-105683624D01*
X78874756Y-105683623D01*
X78815551Y-105567428D01*
X78200330Y-106182650D01*
X78070000Y-106182650D01*
X78070000Y-106129990D01*
X78042741Y-106028257D01*
X77990080Y-105937045D01*
X77915606Y-105862571D01*
X77824394Y-105809910D01*
X77722661Y-105782651D01*
X77617339Y-105782651D01*
X77515606Y-105809910D01*
X77424394Y-105862571D01*
X77349920Y-105937045D01*
X77297259Y-106028257D01*
X77270000Y-106129990D01*
X77087010Y-106129990D01*
X76524447Y-105567427D01*
X76524446Y-105567428D01*
X76465243Y-105683622D01*
X76465242Y-105683625D01*
X76402011Y-105878229D01*
X76402008Y-105878241D01*
X76370000Y-106080339D01*
X74414741Y-106080339D01*
X73411861Y-105077459D01*
X73411852Y-105077449D01*
X73371501Y-105037098D01*
X77054776Y-105037098D01*
X77670000Y-105652321D01*
X77670001Y-105652321D01*
X78285222Y-105037099D01*
X78285222Y-105037098D01*
X78169021Y-104977892D01*
X77974421Y-104914662D01*
X77974409Y-104914659D01*
X77772312Y-104882651D01*
X77567688Y-104882651D01*
X77365590Y-104914659D01*
X77365578Y-104914662D01*
X77170974Y-104977893D01*
X77170971Y-104977894D01*
X77054777Y-105037097D01*
X77054776Y-105037098D01*
X73371501Y-105037098D01*
X73352611Y-105018208D01*
X73276850Y-104942447D01*
X73130343Y-104836004D01*
X73130339Y-104836001D01*
X73067029Y-104803743D01*
X72999044Y-104746984D01*
X72962418Y-104666349D01*
X72964406Y-104577808D01*
X73004613Y-104498898D01*
X73046812Y-104460973D01*
X73122162Y-104410626D01*
X73240626Y-104292162D01*
X73333703Y-104152863D01*
X73397816Y-103998082D01*
X73416492Y-103904187D01*
X73430500Y-103833770D01*
X73430500Y-103666229D01*
X73403783Y-103531918D01*
X73397816Y-103501918D01*
X73346129Y-103377135D01*
X73333705Y-103347140D01*
X73333702Y-103347135D01*
X73284650Y-103273724D01*
X73240626Y-103207838D01*
X73122162Y-103089374D01*
X73054598Y-103044229D01*
X72982864Y-102996297D01*
X72982859Y-102996294D01*
X72864563Y-102947295D01*
X72828082Y-102932184D01*
X72828079Y-102932183D01*
X72828078Y-102932183D01*
X72663770Y-102899500D01*
X72663767Y-102899500D01*
X70696233Y-102899500D01*
X70696230Y-102899500D01*
X70531921Y-102932183D01*
X70531918Y-102932184D01*
X70377140Y-102996294D01*
X70377135Y-102996297D01*
X70237842Y-103089371D01*
X70237834Y-103089377D01*
X70119377Y-103207834D01*
X70119371Y-103207842D01*
X70026297Y-103347135D01*
X70026294Y-103347140D01*
X69962184Y-103501918D01*
X69962183Y-103501921D01*
X69929500Y-103666229D01*
X69929500Y-103833770D01*
X69962183Y-103998078D01*
X69962184Y-103998081D01*
X70026294Y-104152859D01*
X70026297Y-104152864D01*
X70046342Y-104182863D01*
X70119374Y-104292162D01*
X70119377Y-104292165D01*
X70156998Y-104329786D01*
X70204117Y-104404774D01*
X70214033Y-104492781D01*
X70184782Y-104576374D01*
X70122158Y-104638998D01*
X70038565Y-104668249D01*
X70016284Y-104669500D01*
X68168780Y-104669500D01*
X68168756Y-104669499D01*
X68160547Y-104669499D01*
X67979454Y-104669499D01*
X67979449Y-104669499D01*
X67979446Y-104669500D01*
X67800629Y-104697822D01*
X67712267Y-104691864D01*
X67635240Y-104648158D01*
X67584804Y-104575358D01*
X67570499Y-104501272D01*
X67570499Y-103348481D01*
X67565748Y-103318482D01*
X67555646Y-103254696D01*
X67498050Y-103141658D01*
X67498049Y-103141657D01*
X67498048Y-103141655D01*
X67408343Y-103051950D01*
X67393189Y-103044229D01*
X67325204Y-102987470D01*
X67288578Y-102906835D01*
X67290566Y-102818294D01*
X67330774Y-102739384D01*
X67344348Y-102725661D01*
X67343938Y-102725251D01*
X67499719Y-102569469D01*
X67624626Y-102397548D01*
X67721088Y-102208232D01*
X67721096Y-102208213D01*
X67727014Y-102190000D01*
X66135826Y-102190000D01*
X66262993Y-102155925D01*
X66377007Y-102090099D01*
X66470099Y-101997007D01*
X66535925Y-101882993D01*
X66570000Y-101755826D01*
X66570000Y-101624174D01*
X66535925Y-101497007D01*
X66470099Y-101382993D01*
X66377007Y-101289901D01*
X66262993Y-101224075D01*
X66135826Y-101190000D01*
X67727014Y-101190000D01*
X67727013Y-101189999D01*
X67721096Y-101171786D01*
X67721088Y-101171767D01*
X67624626Y-100982451D01*
X67499719Y-100810530D01*
X67349469Y-100660280D01*
X67280257Y-100609995D01*
X67221988Y-100543300D01*
X67198426Y-100457929D01*
X67214240Y-100370789D01*
X67266296Y-100299139D01*
X67344284Y-100257172D01*
X67397226Y-100250000D01*
X89551000Y-100250000D01*
X89637343Y-100269707D01*
G37*
%TD.AperFunction*%
%TA.AperFunction,Conductor*%
G36*
X64768924Y-100255968D02*
G01*
X64795716Y-100257172D01*
X64811565Y-100265701D01*
X64829117Y-100269707D01*
X64850086Y-100286429D01*
X64873704Y-100299139D01*
X64884285Y-100313703D01*
X64898358Y-100324926D01*
X64909995Y-100349090D01*
X64925760Y-100370789D01*
X64928973Y-100388498D01*
X64936785Y-100404718D01*
X64936785Y-100431540D01*
X64941574Y-100457929D01*
X64936785Y-100475280D01*
X64936785Y-100493282D01*
X64925147Y-100517447D01*
X64918012Y-100543300D01*
X64906168Y-100556856D01*
X64898358Y-100573074D01*
X64859743Y-100609995D01*
X64790530Y-100660280D01*
X64640280Y-100810530D01*
X64515373Y-100982451D01*
X64418911Y-101171767D01*
X64418903Y-101171786D01*
X64412986Y-101189999D01*
X64412986Y-101190000D01*
X66004174Y-101190000D01*
X65877007Y-101224075D01*
X65762993Y-101289901D01*
X65669901Y-101382993D01*
X65604075Y-101497007D01*
X65570000Y-101624174D01*
X65570000Y-101755826D01*
X65604075Y-101882993D01*
X65669901Y-101997007D01*
X65762993Y-102090099D01*
X65877007Y-102155925D01*
X66004174Y-102190000D01*
X64412986Y-102190000D01*
X64418903Y-102208213D01*
X64418911Y-102208232D01*
X64515373Y-102397548D01*
X64640280Y-102569469D01*
X64796062Y-102725251D01*
X64794240Y-102727072D01*
X64838562Y-102786658D01*
X64855352Y-102873615D01*
X64832751Y-102959246D01*
X64795188Y-103009597D01*
X64773615Y-103030571D01*
X64731658Y-103051950D01*
X64641950Y-103141658D01*
X64624855Y-103175207D01*
X64601230Y-103198178D01*
X64590849Y-103204498D01*
X64583061Y-103213828D01*
X64553405Y-103227298D01*
X64525586Y-103244238D01*
X64513492Y-103245428D01*
X64502427Y-103250455D01*
X64462507Y-103254500D01*
X64136458Y-103254500D01*
X64127821Y-103256218D01*
X64039293Y-103253733D01*
X63960609Y-103213083D01*
X63907355Y-103142320D01*
X63890000Y-103061041D01*
X63890000Y-102625000D01*
X63008596Y-102625000D01*
X63011178Y-102618767D01*
X63040000Y-102473869D01*
X63040000Y-102326131D01*
X63011178Y-102181233D01*
X62987885Y-102125000D01*
X63890000Y-102125000D01*
X63890000Y-101554980D01*
X63852451Y-101317900D01*
X63852449Y-101317892D01*
X63778274Y-101089607D01*
X63778270Y-101089596D01*
X63669300Y-100875731D01*
X63528202Y-100681525D01*
X63436391Y-100589714D01*
X63389272Y-100514726D01*
X63379356Y-100426719D01*
X63408607Y-100343126D01*
X63471231Y-100280502D01*
X63554824Y-100251251D01*
X63577105Y-100250000D01*
X64742774Y-100250000D01*
X64768924Y-100255968D01*
G37*
%TD.AperFunction*%
%TD*%
M02*
