M48
; DRILL file {KiCad 9.0.6} date 2025-12-07T19:06:17+0900
; FORMAT={-:-/ absolute / inch / decimal}
; #@! TF.CreationDate,2025-12-07T19:06:17+09:00
; #@! TF.GenerationSoftware,Kicad,Pcbnew,9.0.6
; #@! TF.FileFunction,Plated,1,2,PTH
FMAT,2
INCH
; #@! TA.AperFunction,Plated,PTH,ComponentDrill
T1C0.0079
; #@! TA.AperFunction,Plated,PTH,ViaDrill
T2C0.0157
; #@! TA.AperFunction,Plated,PTH,ComponentDrill
T3C0.0236
; #@! TA.AperFunction,Plated,PTH,ComponentDrill
T4C0.0315
; #@! TA.AperFunction,Plated,PTH,ComponentDrill
T5C0.0394
; #@! TA.AperFunction,Plated,PTH,ComponentDrill
T6C0.0591
; #@! TA.AperFunction,Plated,PTH,ComponentDrill
T7C0.1260
%
G90
G05
T1
X2.2213Y-4.213
X2.2213Y-4.2524
X2.2213Y-4.2917
X2.265Y-4.6209
X2.265Y-4.6642
X2.2724Y-4.213
X2.2724Y-4.2524
X2.2724Y-4.2917
X2.2866Y-4.5992
X2.2866Y-4.6425
X2.2866Y-4.6858
X2.3083Y-4.6209
X2.3083Y-4.6642
X2.3299Y-4.5992
X2.3299Y-4.6425
X2.3299Y-4.6858
X2.3516Y-4.6209
X2.3516Y-4.6642
T2
X1.7232Y-4.5701
X1.8858Y-3.9665
X1.9012Y-4.3807
X1.9024Y-4.3413
X1.9161Y-4.4908
X1.9346Y-4.2409
X1.9354Y-4.1591
X1.9438Y-4.4629
X1.9831Y-4.2331
X2.0689Y-4.5795
X2.0827Y-4.8886
X2.0957Y-4.4039
X2.1461Y-4.7118
X2.1575Y-4.8197
X2.1752Y-4.5933
X2.2087Y-4.4732
X2.2461Y-4.1874
X2.2461Y-4.3209
X2.2539Y-4.798
X2.3012Y-4.5492
X2.315Y-4.8866
X2.3201Y-4.4098
X2.4213Y-4.8394
X2.4272Y-4.7035
X2.4374Y-4.4886
X2.4409Y-4.5933
X2.4657Y-4.7724
X2.5039Y-4.4094
X2.5531Y-4.5992
X2.5709Y-4.8079
X2.5866Y-4.8866
X2.5886Y-4.6898
X2.589Y-4.4142
X2.5984Y-4.5378
X2.5988Y-4.4673
X2.5992Y-4.3413
X2.6138Y-4.2476
X2.6449Y-4.3421
X2.663Y-4.2476
X2.735Y-4.413
X2.7358Y-4.102
X2.7406Y-4.0449
X2.7433Y-4.2339
X2.7539Y-4.5406
X2.7563Y-4.5996
X2.8563Y-4.2591
X2.8579Y-4.328
X2.8795Y-4.8768
X2.8933Y-4.4547
X2.9004Y-4.6256
X2.9094Y-4.1197
X2.9209Y-4.0713
X2.924Y-4.8921
X2.9303Y-4.5283
X2.9374Y-4.7441
X2.9413Y-4.6358
X2.9425Y-4.6791
X2.9685Y-4.0437
X2.9752Y-4.5488
X2.9772Y-4.4575
X2.9933Y-4.8921
X3.0146Y-4.5933
X3.0154Y-4.6736
X3.0167Y-4.6326
X3.0268Y-4.0539
X3.0472Y-4.7157
X3.0528Y-4.4878
X3.0602Y-4.7787
X3.0693Y-4.8969
X3.1413Y-4.7224
X3.1469Y-4.626
X3.1492Y-4.4732
X3.1736Y-4.8161
X3.1748Y-4.8957
X3.1961Y-4.0957
X3.2024Y-4.6453
X3.2024Y-4.7217
X3.3752Y-4.837
X3.376Y-4.8913
X3.4469Y-4.7575
X3.5024Y-4.8642
T4
X2.2122Y-4.0315
X2.2909Y-4.0315
X2.3697Y-4.0315
X3.0579Y-4.1804
X3.0579Y-4.3182
T5
X1.6602Y-4.0024
X1.6602Y-4.1024
X2.6012Y-4.0035
X2.6012Y-4.1035
X3.2709Y-4.3988
X3.2709Y-4.5402
X3.2709Y-4.6803
X3.3709Y-4.3988
X3.3709Y-4.5402
X3.3709Y-4.6803
X3.4709Y-4.3988
X3.4709Y-4.5402
X3.4709Y-4.6803
T6
X2.1295Y-4.0315
X2.4524Y-4.0315
T7
X1.6929Y-4.7047
X3.4252Y-4.1535
T3
G00X1.6726Y-4.2008
M15
G01X1.649Y-4.2008
M16
G05
G00X1.6726Y-4.5409
M15
G01X1.649Y-4.5409
M16
G05
G00X1.847Y-4.2008
M15
G01X1.8037Y-4.2008
M16
G05
G00X1.847Y-4.5409
M15
G01X1.8037Y-4.5409
M16
G05
M30
