%TF.GenerationSoftware,KiCad,Pcbnew,9.0.6*%
%TF.CreationDate,2025-12-07T19:06:17+09:00*%
%TF.ProjectId,ROBOBIKE05_PCBA,524f424f-4249-44b4-9530-355f50434241,20250802*%
%TF.SameCoordinates,Original*%
%TF.FileFunction,Legend,Top*%
%TF.FilePolarity,Positive*%
%FSLAX46Y46*%
G04 Gerber Fmt 4.6, Leading zero omitted, Abs format (unit mm)*
G04 Created by KiCad (PCBNEW 9.0.6) date 2025-12-07 19:06:17*
%MOMM*%
%LPD*%
G01*
G04 APERTURE LIST*
G04 Aperture macros list*
%AMRoundRect*
0 Rectangle with rounded corners*
0 $1 Rounding radius*
0 $2 $3 $4 $5 $6 $7 $8 $9 X,Y pos of 4 corners*
0 Add a 4 corners polygon primitive as box body*
4,1,4,$2,$3,$4,$5,$6,$7,$8,$9,$2,$3,0*
0 Add four circle primitives for the rounded corners*
1,1,$1+$1,$2,$3*
1,1,$1+$1,$4,$5*
1,1,$1+$1,$6,$7*
1,1,$1+$1,$8,$9*
0 Add four rect primitives between the rounded corners*
20,1,$1+$1,$2,$3,$4,$5,0*
20,1,$1+$1,$4,$5,$6,$7,0*
20,1,$1+$1,$6,$7,$8,$9,0*
20,1,$1+$1,$8,$9,$2,$3,0*%
G04 Aperture macros list end*
%ADD10C,0.150000*%
%ADD11C,0.000000*%
%ADD12C,0.125000*%
%ADD13C,0.008999*%
%ADD14C,0.100000*%
%ADD15C,0.187500*%
%ADD16C,0.250000*%
%ADD17C,0.120000*%
%ADD18C,1.700000*%
%ADD19R,1.700000X1.700000*%
%ADD20RoundRect,0.237500X-0.300000X-0.237500X0.300000X-0.237500X0.300000X0.237500X-0.300000X0.237500X0*%
%ADD21C,0.650000*%
%ADD22RoundRect,0.150000X-0.500000X0.150000X-0.500000X-0.150000X0.500000X-0.150000X0.500000X0.150000X0*%
%ADD23RoundRect,0.075000X-0.575000X0.075000X-0.575000X-0.075000X0.575000X-0.075000X0.575000X0.075000X0*%
%ADD24O,2.100000X1.000000*%
%ADD25O,1.600000X1.000000*%
%ADD26R,1.500000X2.500000*%
%ADD27O,1.500000X2.500000*%
%ADD28O,2.050000X3.450000*%
%ADD29O,2.100000X3.350000*%
%ADD30C,1.500000*%
%ADD31R,1.500000X0.900000*%
%ADD32C,0.600000*%
%ADD33R,2.900000X2.900000*%
%ADD34RoundRect,0.162500X0.617500X0.162500X-0.617500X0.162500X-0.617500X-0.162500X0.617500X-0.162500X0*%
%ADD35RoundRect,0.237500X0.250000X0.237500X-0.250000X0.237500X-0.250000X-0.237500X0.250000X-0.237500X0*%
%ADD36RoundRect,0.237500X-0.287500X-0.237500X0.287500X-0.237500X0.287500X0.237500X-0.287500X0.237500X0*%
%ADD37RoundRect,0.237500X-0.237500X0.250000X-0.237500X-0.250000X0.237500X-0.250000X0.237500X0.250000X0*%
%ADD38RoundRect,0.237500X0.237500X-0.300000X0.237500X0.300000X-0.237500X0.300000X-0.237500X-0.300000X0*%
%ADD39O,3.000000X1.200000*%
%ADD40C,3.600000*%
%ADD41C,5.500000*%
%ADD42RoundRect,0.237500X0.300000X0.237500X-0.300000X0.237500X-0.300000X-0.237500X0.300000X-0.237500X0*%
%ADD43RoundRect,0.250000X0.550000X-0.550000X0.550000X0.550000X-0.550000X0.550000X-0.550000X-0.550000X0*%
%ADD44C,1.600000*%
%ADD45RoundRect,0.237500X0.237500X-0.250000X0.237500X0.250000X-0.237500X0.250000X-0.237500X-0.250000X0*%
%ADD46R,2.200000X1.700000*%
%ADD47O,2.500000X1.700000*%
%ADD48RoundRect,0.087500X0.187500X0.087500X-0.187500X0.087500X-0.187500X-0.087500X0.187500X-0.087500X0*%
%ADD49RoundRect,0.087500X0.087500X0.187500X-0.087500X0.187500X-0.087500X-0.187500X0.087500X-0.187500X0*%
%ADD50RoundRect,0.150000X-0.825000X-0.150000X0.825000X-0.150000X0.825000X0.150000X-0.825000X0.150000X0*%
%ADD51R,2.290000X3.000000*%
G04 APERTURE END LIST*
D10*
X89520000Y-119540000D02*
X88820000Y-120240000D01*
D11*
G36*
X144000Y-99000D02*
G01*
X36000Y-99000D01*
X36000Y-90000D01*
X144000Y-90000D01*
X144000Y-99000D01*
G37*
D10*
X71570000Y-106210000D02*
G75*
G02*
X71370000Y-106210000I-100000J0D01*
G01*
X71370000Y-106210000D02*
G75*
G02*
X71570000Y-106210000I100000J0D01*
G01*
D12*
X72020000Y-106210000D02*
G75*
G02*
X70920000Y-106210000I-550000J0D01*
G01*
X70920000Y-106210000D02*
G75*
G02*
X72020000Y-106210000I550000J0D01*
G01*
D10*
X81710000Y-112420000D02*
X82397536Y-113110000D01*
D11*
G36*
X94168Y-9105D02*
G01*
X98282Y-9418D01*
X102335Y-9933D01*
X106324Y-10646D01*
X110243Y-11550D01*
X114087Y-12642D01*
X117851Y-13915D01*
X121529Y-15365D01*
X125117Y-16987D01*
X128609Y-18776D01*
X132001Y-20727D01*
X135288Y-22834D01*
X138464Y-25092D01*
X141524Y-27496D01*
X144463Y-30042D01*
X147276Y-32724D01*
X149958Y-35537D01*
X152504Y-38476D01*
X154908Y-41536D01*
X157166Y-44712D01*
X159273Y-47999D01*
X161224Y-51391D01*
X163013Y-54883D01*
X164635Y-58471D01*
X166085Y-62149D01*
X167358Y-65913D01*
X168450Y-69757D01*
X169354Y-73676D01*
X170067Y-77664D01*
X170582Y-81718D01*
X170895Y-85832D01*
X171000Y-90000D01*
X170895Y-94168D01*
X170582Y-98282D01*
X170067Y-102335D01*
X169354Y-106324D01*
X168450Y-110243D01*
X167358Y-114087D01*
X166085Y-117851D01*
X164635Y-121529D01*
X163013Y-125117D01*
X161224Y-128609D01*
X159273Y-132001D01*
X157166Y-135288D01*
X154908Y-138464D01*
X152504Y-141524D01*
X149958Y-144463D01*
X147276Y-147276D01*
X144463Y-149958D01*
X141524Y-152504D01*
X138464Y-154908D01*
X135288Y-157166D01*
X132001Y-159273D01*
X128609Y-161224D01*
X125117Y-163013D01*
X121529Y-164635D01*
X117851Y-166085D01*
X114087Y-167358D01*
X110243Y-168450D01*
X106324Y-169354D01*
X102335Y-170067D01*
X98282Y-170582D01*
X94168Y-170895D01*
X90000Y-171000D01*
X85832Y-170895D01*
X81718Y-170582D01*
X77664Y-170067D01*
X73676Y-169354D01*
X69757Y-168450D01*
X65913Y-167358D01*
X62149Y-166085D01*
X58471Y-164635D01*
X54883Y-163013D01*
X51391Y-161224D01*
X47999Y-159273D01*
X44712Y-157166D01*
X41536Y-154908D01*
X38476Y-152504D01*
X35537Y-149958D01*
X32724Y-147276D01*
X30042Y-144463D01*
X27496Y-141524D01*
X25092Y-138464D01*
X22834Y-135288D01*
X20727Y-132001D01*
X18776Y-128609D01*
X16987Y-125117D01*
X15365Y-121529D01*
X13915Y-117851D01*
X12642Y-114087D01*
X11550Y-110243D01*
X10646Y-106324D01*
X9933Y-102335D01*
X9418Y-98282D01*
X9105Y-94168D01*
X9000Y-90000D01*
X9105Y-85832D01*
X9418Y-81718D01*
X9933Y-77664D01*
X10646Y-73676D01*
X11550Y-69757D01*
X12642Y-65913D01*
X13915Y-62149D01*
X15365Y-58471D01*
X16987Y-54883D01*
X18776Y-51391D01*
X20727Y-47999D01*
X22834Y-44712D01*
X25092Y-41536D01*
X27496Y-38476D01*
X30042Y-35537D01*
X32724Y-32724D01*
X35537Y-30042D01*
X38476Y-27496D01*
X41536Y-25092D01*
X44712Y-22834D01*
X47999Y-20727D01*
X51391Y-18776D01*
X54883Y-16987D01*
X58471Y-15365D01*
X62149Y-13915D01*
X65913Y-12642D01*
X69757Y-11550D01*
X73676Y-10646D01*
X77664Y-9933D01*
X81718Y-9418D01*
X85832Y-9105D01*
X90000Y-9000D01*
X94168Y-9105D01*
G37*
D12*
X71470000Y-106210000D02*
X70020000Y-106210000D01*
D10*
X81707500Y-119540000D02*
X82407500Y-120240000D01*
D11*
G36*
X144000Y-72000D02*
G01*
X36000Y-72000D01*
X36000Y-63000D01*
X144000Y-63000D01*
X144000Y-72000D01*
G37*
G36*
X144000Y-126000D02*
G01*
X36000Y-126000D01*
X36000Y-117000D01*
X144000Y-117000D01*
X144000Y-126000D01*
G37*
D12*
X70020000Y-106210000D02*
X70620000Y-105910000D01*
X71470000Y-106210000D02*
X71470000Y-107610000D01*
D13*
X36000Y-36000D02*
X144000Y-144000D01*
D12*
X71470000Y-107610000D02*
X71770000Y-107060000D01*
D10*
X89520000Y-115990000D02*
X88820000Y-116690000D01*
D14*
X36000Y-36000D02*
X144000Y-144000D01*
D10*
X81720000Y-115990000D02*
X82420000Y-116690000D01*
D12*
X71470000Y-107610000D02*
X71170000Y-107060000D01*
X70020000Y-106210000D02*
X70620000Y-106510000D01*
D10*
X89520000Y-112440000D02*
X88840000Y-113110000D01*
D12*
X73090144Y-105130595D02*
X73128240Y-105092500D01*
X73128240Y-105092500D02*
X73242525Y-105054404D01*
X73242525Y-105054404D02*
X73318716Y-105054404D01*
X73318716Y-105054404D02*
X73433002Y-105092500D01*
X73433002Y-105092500D02*
X73509192Y-105168690D01*
X73509192Y-105168690D02*
X73547287Y-105244880D01*
X73547287Y-105244880D02*
X73585383Y-105397261D01*
X73585383Y-105397261D02*
X73585383Y-105511547D01*
X73585383Y-105511547D02*
X73547287Y-105663928D01*
X73547287Y-105663928D02*
X73509192Y-105740119D01*
X73509192Y-105740119D02*
X73433002Y-105816309D01*
X73433002Y-105816309D02*
X73318716Y-105854404D01*
X73318716Y-105854404D02*
X73242525Y-105854404D01*
X73242525Y-105854404D02*
X73128240Y-105816309D01*
X73128240Y-105816309D02*
X73090144Y-105778214D01*
X72823478Y-105854404D02*
X72633002Y-105054404D01*
X72633002Y-105054404D02*
X72480621Y-105625833D01*
X72480621Y-105625833D02*
X72328240Y-105054404D01*
X72328240Y-105054404D02*
X72137764Y-105854404D01*
D15*
G36*
X77978070Y-100339354D02*
G01*
X78085192Y-100352444D01*
X78162399Y-100371191D01*
X78233390Y-100402773D01*
X78294070Y-100447933D01*
X78345765Y-100507845D01*
X78383736Y-100577352D01*
X78407233Y-100657553D01*
X78415465Y-100750928D01*
X78409164Y-100832719D01*
X78391151Y-100903929D01*
X78362159Y-100966350D01*
X78322406Y-101022680D01*
X78273857Y-101071449D01*
X78215705Y-101113170D01*
X78149806Y-101144232D01*
X78052765Y-101172521D01*
X78129309Y-101202623D01*
X78173665Y-101228209D01*
X78200947Y-101252956D01*
X78247945Y-101307527D01*
X78313066Y-101401316D01*
X78537465Y-101835000D01*
X78012831Y-101835000D01*
X77764802Y-101375945D01*
X77715901Y-101296558D01*
X77680813Y-101260174D01*
X77627561Y-101234157D01*
X77567057Y-101225369D01*
X77526116Y-101225369D01*
X77526116Y-101835000D01*
X77059826Y-101835000D01*
X77059826Y-100944002D01*
X77526116Y-100944002D01*
X77721846Y-100944002D01*
X77844761Y-100923577D01*
X77886537Y-100907233D01*
X77920049Y-100876499D01*
X77941913Y-100836002D01*
X77949267Y-100789579D01*
X77943720Y-100743287D01*
X77928226Y-100706912D01*
X77903105Y-100678113D01*
X77869524Y-100658789D01*
X77814758Y-100644793D01*
X77729998Y-100639187D01*
X77526116Y-100639187D01*
X77526116Y-100944002D01*
X77059826Y-100944002D01*
X77059826Y-100334371D01*
X77833496Y-100334371D01*
X77978070Y-100339354D01*
G37*
G36*
X79520851Y-100320100D02*
G01*
X79652043Y-100346051D01*
X79765004Y-100387026D01*
X79862382Y-100442158D01*
X79946227Y-100511509D01*
X80016904Y-100594815D01*
X80072732Y-100690550D01*
X80113972Y-100800541D01*
X80139951Y-100927202D01*
X80149101Y-101073420D01*
X80142795Y-101206659D01*
X80125036Y-101321188D01*
X80097255Y-101419476D01*
X80060441Y-101503715D01*
X80011050Y-101583233D01*
X79952284Y-101652809D01*
X79883651Y-101713261D01*
X79804261Y-101765024D01*
X79719709Y-101804254D01*
X79623174Y-101833478D01*
X79512854Y-101851948D01*
X79386697Y-101858447D01*
X79218548Y-101848444D01*
X79079986Y-101820708D01*
X78966111Y-101777847D01*
X78887696Y-101732256D01*
X78816911Y-101675154D01*
X78753132Y-101605699D01*
X78696100Y-101522582D01*
X78652556Y-101434163D01*
X78620203Y-101333217D01*
X78599784Y-101217806D01*
X78592761Y-101088624D01*
X79056786Y-101088624D01*
X79063403Y-101205241D01*
X79081175Y-101294919D01*
X79107635Y-101362956D01*
X79141325Y-101413772D01*
X79186900Y-101456632D01*
X79239413Y-101487155D01*
X79300241Y-101505997D01*
X79371401Y-101512599D01*
X79444900Y-101505999D01*
X79506582Y-101487331D01*
X79558733Y-101457403D01*
X79602943Y-101415787D01*
X79634765Y-101366313D01*
X79660483Y-101296154D01*
X79678198Y-101199225D01*
X79684918Y-101068291D01*
X79678379Y-100960301D01*
X79660651Y-100875773D01*
X79633918Y-100810235D01*
X79599371Y-100759995D01*
X79553415Y-100717857D01*
X79500443Y-100687766D01*
X79439065Y-100669158D01*
X79367280Y-100662634D01*
X79298884Y-100669143D01*
X79239616Y-100687842D01*
X79187657Y-100718371D01*
X79141782Y-100761552D01*
X79107957Y-100812343D01*
X79081353Y-100880612D01*
X79063457Y-100970894D01*
X79056786Y-101088624D01*
X78592761Y-101088624D01*
X78592602Y-101085693D01*
X78601841Y-100937377D01*
X78628081Y-100808815D01*
X78669737Y-100697101D01*
X78726124Y-100599806D01*
X78797492Y-100515081D01*
X78882510Y-100443947D01*
X78979996Y-100387752D01*
X79091778Y-100346250D01*
X79220254Y-100320120D01*
X79368287Y-100310924D01*
X79520851Y-100320100D01*
G37*
G36*
X81378369Y-100342061D02*
G01*
X81468180Y-100363463D01*
X81542099Y-100396852D01*
X81602834Y-100441625D01*
X81654188Y-100499038D01*
X81690070Y-100561551D01*
X81711726Y-100630322D01*
X81719155Y-100707056D01*
X81709682Y-100792470D01*
X81682124Y-100867570D01*
X81636174Y-100934751D01*
X81595878Y-100972308D01*
X81542757Y-101005796D01*
X81474241Y-101034860D01*
X81577778Y-101069341D01*
X81655474Y-101114269D01*
X81712377Y-101168766D01*
X81754007Y-101235690D01*
X81779721Y-101314209D01*
X81788764Y-101407269D01*
X81782542Y-101483698D01*
X81764374Y-101553376D01*
X81734451Y-101617562D01*
X81693749Y-101675515D01*
X81644481Y-101724499D01*
X81585890Y-101765207D01*
X81519136Y-101792598D01*
X81409669Y-101814483D01*
X81201666Y-101835000D01*
X80400335Y-101835000D01*
X80400335Y-101512599D01*
X80868640Y-101512599D01*
X81105312Y-101512599D01*
X81184637Y-101506720D01*
X81238723Y-101491642D01*
X81274389Y-101470009D01*
X81301488Y-101438727D01*
X81317841Y-101401235D01*
X81323573Y-101355612D01*
X81317979Y-101313383D01*
X81301875Y-101278205D01*
X81274847Y-101248359D01*
X81239662Y-101227904D01*
X81185251Y-101213461D01*
X81104304Y-101207784D01*
X80868640Y-101207784D01*
X80868640Y-101512599D01*
X80400335Y-101512599D01*
X80400335Y-100920554D01*
X80868640Y-100920554D01*
X81070507Y-100920554D01*
X81142569Y-100915382D01*
X81190718Y-100902244D01*
X81221632Y-100883643D01*
X81244660Y-100856306D01*
X81258979Y-100821474D01*
X81264131Y-100776848D01*
X81259097Y-100735627D01*
X81244893Y-100702525D01*
X81221632Y-100675640D01*
X81190812Y-100657198D01*
X81143516Y-100644256D01*
X81073530Y-100639187D01*
X80868640Y-100639187D01*
X80868640Y-100920554D01*
X80400335Y-100920554D01*
X80400335Y-100334371D01*
X81269260Y-100334371D01*
X81378369Y-100342061D01*
G37*
G36*
X82901660Y-100320100D02*
G01*
X83032853Y-100346051D01*
X83145814Y-100387026D01*
X83243192Y-100442158D01*
X83327036Y-100511509D01*
X83397714Y-100594815D01*
X83453542Y-100690550D01*
X83494781Y-100800541D01*
X83520761Y-100927202D01*
X83529911Y-101073420D01*
X83523605Y-101206659D01*
X83505845Y-101321188D01*
X83478064Y-101419476D01*
X83441250Y-101503715D01*
X83391860Y-101583233D01*
X83333094Y-101652809D01*
X83264460Y-101713261D01*
X83185070Y-101765024D01*
X83100518Y-101804254D01*
X83003983Y-101833478D01*
X82893664Y-101851948D01*
X82767506Y-101858447D01*
X82599358Y-101848444D01*
X82460795Y-101820708D01*
X82346920Y-101777847D01*
X82268505Y-101732256D01*
X82197721Y-101675154D01*
X82133941Y-101605699D01*
X82076910Y-101522582D01*
X82033365Y-101434163D01*
X82001012Y-101333217D01*
X81980594Y-101217806D01*
X81973571Y-101088624D01*
X82437595Y-101088624D01*
X82444212Y-101205241D01*
X82461984Y-101294919D01*
X82488444Y-101362956D01*
X82522134Y-101413772D01*
X82567710Y-101456632D01*
X82620223Y-101487155D01*
X82681051Y-101505997D01*
X82752211Y-101512599D01*
X82825710Y-101505999D01*
X82887392Y-101487331D01*
X82939543Y-101457403D01*
X82983753Y-101415787D01*
X83015574Y-101366313D01*
X83041293Y-101296154D01*
X83059007Y-101199225D01*
X83065727Y-101068291D01*
X83059188Y-100960301D01*
X83041460Y-100875773D01*
X83014728Y-100810235D01*
X82980181Y-100759995D01*
X82934225Y-100717857D01*
X82881252Y-100687766D01*
X82819875Y-100669158D01*
X82748089Y-100662634D01*
X82679694Y-100669143D01*
X82620426Y-100687842D01*
X82568467Y-100718371D01*
X82522592Y-100761552D01*
X82488767Y-100812343D01*
X82462163Y-100880612D01*
X82444267Y-100970894D01*
X82437595Y-101088624D01*
X81973571Y-101088624D01*
X81973412Y-101085693D01*
X81982651Y-100937377D01*
X82008890Y-100808815D01*
X82050546Y-100697101D01*
X82106933Y-100599806D01*
X82178301Y-100515081D01*
X82263320Y-100443947D01*
X82360806Y-100387752D01*
X82472588Y-100346250D01*
X82601063Y-100320120D01*
X82749097Y-100310924D01*
X82901660Y-100320100D01*
G37*
G36*
X84759179Y-100342061D02*
G01*
X84848989Y-100363463D01*
X84922909Y-100396852D01*
X84983644Y-100441625D01*
X85034997Y-100499038D01*
X85070879Y-100561551D01*
X85092535Y-100630322D01*
X85099965Y-100707056D01*
X85090492Y-100792470D01*
X85062934Y-100867570D01*
X85016983Y-100934751D01*
X84976688Y-100972308D01*
X84923566Y-101005796D01*
X84855050Y-101034860D01*
X84958588Y-101069341D01*
X85036283Y-101114269D01*
X85093187Y-101168766D01*
X85134816Y-101235690D01*
X85160530Y-101314209D01*
X85169574Y-101407269D01*
X85163351Y-101483698D01*
X85145183Y-101553376D01*
X85115260Y-101617562D01*
X85074558Y-101675515D01*
X85025291Y-101724499D01*
X84966700Y-101765207D01*
X84899946Y-101792598D01*
X84790478Y-101814483D01*
X84582475Y-101835000D01*
X83781145Y-101835000D01*
X83781145Y-101512599D01*
X84249450Y-101512599D01*
X84486121Y-101512599D01*
X84565447Y-101506720D01*
X84619532Y-101491642D01*
X84655198Y-101470009D01*
X84682298Y-101438727D01*
X84698651Y-101401235D01*
X84704383Y-101355612D01*
X84698789Y-101313383D01*
X84682685Y-101278205D01*
X84655656Y-101248359D01*
X84620471Y-101227904D01*
X84566060Y-101213461D01*
X84485114Y-101207784D01*
X84249450Y-101207784D01*
X84249450Y-101512599D01*
X83781145Y-101512599D01*
X83781145Y-100920554D01*
X84249450Y-100920554D01*
X84451317Y-100920554D01*
X84523378Y-100915382D01*
X84571527Y-100902244D01*
X84602442Y-100883643D01*
X84625470Y-100856306D01*
X84639788Y-100821474D01*
X84644940Y-100776848D01*
X84639906Y-100735627D01*
X84625703Y-100702525D01*
X84602442Y-100675640D01*
X84571622Y-100657198D01*
X84524325Y-100644256D01*
X84454339Y-100639187D01*
X84249450Y-100639187D01*
X84249450Y-100920554D01*
X83781145Y-100920554D01*
X83781145Y-100334371D01*
X84650069Y-100334371D01*
X84759179Y-100342061D01*
G37*
G36*
X85431158Y-100334371D02*
G01*
X85896349Y-100334371D01*
X85896349Y-101835000D01*
X85431158Y-101835000D01*
X85431158Y-100334371D01*
G37*
G36*
X86231023Y-100334371D02*
G01*
X86695115Y-100334371D01*
X86695115Y-100901412D01*
X87181921Y-100334371D01*
X87798695Y-100334371D01*
X87251530Y-100900404D01*
X87823333Y-101835000D01*
X87251530Y-101835000D01*
X86934900Y-101217767D01*
X86695115Y-101468544D01*
X86695115Y-101835000D01*
X86231023Y-101835000D01*
X86231023Y-100334371D01*
G37*
G36*
X87976199Y-100334371D02*
G01*
X89220189Y-100334371D01*
X89220189Y-100656772D01*
X88441390Y-100656772D01*
X88441390Y-100897107D01*
X89163769Y-100897107D01*
X89163769Y-101201922D01*
X88441390Y-101201922D01*
X88441390Y-101495013D01*
X89242720Y-101495013D01*
X89242720Y-101835000D01*
X87976199Y-101835000D01*
X87976199Y-100334371D01*
G37*
D12*
X70814906Y-107655547D02*
X70576811Y-106988880D01*
X70338716Y-107655547D02*
X70576811Y-106988880D01*
X70576811Y-106988880D02*
X70672049Y-106750785D01*
X70672049Y-106750785D02*
X70719668Y-106703166D01*
X70719668Y-106703166D02*
X70814906Y-106655547D01*
D10*
X82889160Y-109912200D02*
X82984398Y-109959819D01*
X82984398Y-109959819D02*
X83174874Y-109959819D01*
X83174874Y-109959819D02*
X83270112Y-109912200D01*
X83270112Y-109912200D02*
X83317731Y-109816961D01*
X83317731Y-109816961D02*
X83317731Y-109769342D01*
X83317731Y-109769342D02*
X83270112Y-109674104D01*
X83270112Y-109674104D02*
X83174874Y-109626485D01*
X83174874Y-109626485D02*
X83032017Y-109626485D01*
X83032017Y-109626485D02*
X82936779Y-109578866D01*
X82936779Y-109578866D02*
X82889160Y-109483628D01*
X82889160Y-109483628D02*
X82889160Y-109436009D01*
X82889160Y-109436009D02*
X82936779Y-109340771D01*
X82936779Y-109340771D02*
X83032017Y-109293152D01*
X83032017Y-109293152D02*
X83174874Y-109293152D01*
X83174874Y-109293152D02*
X83270112Y-109340771D01*
X85270113Y-109578866D02*
X86032018Y-109578866D01*
X85651065Y-109959819D02*
X85651065Y-109197914D01*
X88032018Y-109578866D02*
X88793923Y-109578866D01*
X44458866Y-105303220D02*
X44458866Y-104541316D01*
X44839819Y-104922268D02*
X44077914Y-104922268D01*
X44839819Y-103588935D02*
X44839819Y-104065125D01*
X44839819Y-104065125D02*
X43839819Y-104065125D01*
X44316009Y-103255601D02*
X44316009Y-102922268D01*
X44839819Y-102779411D02*
X44839819Y-103255601D01*
X44839819Y-103255601D02*
X43839819Y-103255601D01*
X43839819Y-103255601D02*
X43839819Y-102779411D01*
X44839819Y-102350839D02*
X43839819Y-102350839D01*
X43839819Y-102350839D02*
X43839819Y-102112744D01*
X43839819Y-102112744D02*
X43887438Y-101969887D01*
X43887438Y-101969887D02*
X43982676Y-101874649D01*
X43982676Y-101874649D02*
X44077914Y-101827030D01*
X44077914Y-101827030D02*
X44268390Y-101779411D01*
X44268390Y-101779411D02*
X44411247Y-101779411D01*
X44411247Y-101779411D02*
X44601723Y-101827030D01*
X44601723Y-101827030D02*
X44696961Y-101874649D01*
X44696961Y-101874649D02*
X44792200Y-101969887D01*
X44792200Y-101969887D02*
X44839819Y-102112744D01*
X44839819Y-102112744D02*
X44839819Y-102350839D01*
X44458866Y-101350839D02*
X44458866Y-100588935D01*
X77509160Y-102385057D02*
X77556779Y-102337438D01*
X77556779Y-102337438D02*
X77652017Y-102289819D01*
X77652017Y-102289819D02*
X77890112Y-102289819D01*
X77890112Y-102289819D02*
X77985350Y-102337438D01*
X77985350Y-102337438D02*
X78032969Y-102385057D01*
X78032969Y-102385057D02*
X78080588Y-102480295D01*
X78080588Y-102480295D02*
X78080588Y-102575533D01*
X78080588Y-102575533D02*
X78032969Y-102718390D01*
X78032969Y-102718390D02*
X77461541Y-103289819D01*
X77461541Y-103289819D02*
X78080588Y-103289819D01*
X78699636Y-102289819D02*
X78794874Y-102289819D01*
X78794874Y-102289819D02*
X78890112Y-102337438D01*
X78890112Y-102337438D02*
X78937731Y-102385057D01*
X78937731Y-102385057D02*
X78985350Y-102480295D01*
X78985350Y-102480295D02*
X79032969Y-102670771D01*
X79032969Y-102670771D02*
X79032969Y-102908866D01*
X79032969Y-102908866D02*
X78985350Y-103099342D01*
X78985350Y-103099342D02*
X78937731Y-103194580D01*
X78937731Y-103194580D02*
X78890112Y-103242200D01*
X78890112Y-103242200D02*
X78794874Y-103289819D01*
X78794874Y-103289819D02*
X78699636Y-103289819D01*
X78699636Y-103289819D02*
X78604398Y-103242200D01*
X78604398Y-103242200D02*
X78556779Y-103194580D01*
X78556779Y-103194580D02*
X78509160Y-103099342D01*
X78509160Y-103099342D02*
X78461541Y-102908866D01*
X78461541Y-102908866D02*
X78461541Y-102670771D01*
X78461541Y-102670771D02*
X78509160Y-102480295D01*
X78509160Y-102480295D02*
X78556779Y-102385057D01*
X78556779Y-102385057D02*
X78604398Y-102337438D01*
X78604398Y-102337438D02*
X78699636Y-102289819D01*
X79413922Y-102385057D02*
X79461541Y-102337438D01*
X79461541Y-102337438D02*
X79556779Y-102289819D01*
X79556779Y-102289819D02*
X79794874Y-102289819D01*
X79794874Y-102289819D02*
X79890112Y-102337438D01*
X79890112Y-102337438D02*
X79937731Y-102385057D01*
X79937731Y-102385057D02*
X79985350Y-102480295D01*
X79985350Y-102480295D02*
X79985350Y-102575533D01*
X79985350Y-102575533D02*
X79937731Y-102718390D01*
X79937731Y-102718390D02*
X79366303Y-103289819D01*
X79366303Y-103289819D02*
X79985350Y-103289819D01*
X80890112Y-102289819D02*
X80413922Y-102289819D01*
X80413922Y-102289819D02*
X80366303Y-102766009D01*
X80366303Y-102766009D02*
X80413922Y-102718390D01*
X80413922Y-102718390D02*
X80509160Y-102670771D01*
X80509160Y-102670771D02*
X80747255Y-102670771D01*
X80747255Y-102670771D02*
X80842493Y-102718390D01*
X80842493Y-102718390D02*
X80890112Y-102766009D01*
X80890112Y-102766009D02*
X80937731Y-102861247D01*
X80937731Y-102861247D02*
X80937731Y-103099342D01*
X80937731Y-103099342D02*
X80890112Y-103194580D01*
X80890112Y-103194580D02*
X80842493Y-103242200D01*
X80842493Y-103242200D02*
X80747255Y-103289819D01*
X80747255Y-103289819D02*
X80509160Y-103289819D01*
X80509160Y-103289819D02*
X80413922Y-103242200D01*
X80413922Y-103242200D02*
X80366303Y-103194580D01*
X81890112Y-103289819D02*
X81318684Y-103289819D01*
X81604398Y-103289819D02*
X81604398Y-102289819D01*
X81604398Y-102289819D02*
X81509160Y-102432676D01*
X81509160Y-102432676D02*
X81413922Y-102527914D01*
X81413922Y-102527914D02*
X81318684Y-102575533D01*
X82271065Y-102385057D02*
X82318684Y-102337438D01*
X82318684Y-102337438D02*
X82413922Y-102289819D01*
X82413922Y-102289819D02*
X82652017Y-102289819D01*
X82652017Y-102289819D02*
X82747255Y-102337438D01*
X82747255Y-102337438D02*
X82794874Y-102385057D01*
X82794874Y-102385057D02*
X82842493Y-102480295D01*
X82842493Y-102480295D02*
X82842493Y-102575533D01*
X82842493Y-102575533D02*
X82794874Y-102718390D01*
X82794874Y-102718390D02*
X82223446Y-103289819D01*
X82223446Y-103289819D02*
X82842493Y-103289819D01*
X83461541Y-102289819D02*
X83556779Y-102289819D01*
X83556779Y-102289819D02*
X83652017Y-102337438D01*
X83652017Y-102337438D02*
X83699636Y-102385057D01*
X83699636Y-102385057D02*
X83747255Y-102480295D01*
X83747255Y-102480295D02*
X83794874Y-102670771D01*
X83794874Y-102670771D02*
X83794874Y-102908866D01*
X83794874Y-102908866D02*
X83747255Y-103099342D01*
X83747255Y-103099342D02*
X83699636Y-103194580D01*
X83699636Y-103194580D02*
X83652017Y-103242200D01*
X83652017Y-103242200D02*
X83556779Y-103289819D01*
X83556779Y-103289819D02*
X83461541Y-103289819D01*
X83461541Y-103289819D02*
X83366303Y-103242200D01*
X83366303Y-103242200D02*
X83318684Y-103194580D01*
X83318684Y-103194580D02*
X83271065Y-103099342D01*
X83271065Y-103099342D02*
X83223446Y-102908866D01*
X83223446Y-102908866D02*
X83223446Y-102670771D01*
X83223446Y-102670771D02*
X83271065Y-102480295D01*
X83271065Y-102480295D02*
X83318684Y-102385057D01*
X83318684Y-102385057D02*
X83366303Y-102337438D01*
X83366303Y-102337438D02*
X83461541Y-102289819D01*
X84699636Y-102289819D02*
X84223446Y-102289819D01*
X84223446Y-102289819D02*
X84175827Y-102766009D01*
X84175827Y-102766009D02*
X84223446Y-102718390D01*
X84223446Y-102718390D02*
X84318684Y-102670771D01*
X84318684Y-102670771D02*
X84556779Y-102670771D01*
X84556779Y-102670771D02*
X84652017Y-102718390D01*
X84652017Y-102718390D02*
X84699636Y-102766009D01*
X84699636Y-102766009D02*
X84747255Y-102861247D01*
X84747255Y-102861247D02*
X84747255Y-103099342D01*
X84747255Y-103099342D02*
X84699636Y-103194580D01*
X84699636Y-103194580D02*
X84652017Y-103242200D01*
X84652017Y-103242200D02*
X84556779Y-103289819D01*
X84556779Y-103289819D02*
X84318684Y-103289819D01*
X84318684Y-103289819D02*
X84223446Y-103242200D01*
X84223446Y-103242200D02*
X84175827Y-103194580D01*
X77276779Y-118889819D02*
X77276779Y-117889819D01*
X77276779Y-117889819D02*
X77514874Y-117889819D01*
X77514874Y-117889819D02*
X77657731Y-117937438D01*
X77657731Y-117937438D02*
X77752969Y-118032676D01*
X77752969Y-118032676D02*
X77800588Y-118127914D01*
X77800588Y-118127914D02*
X77848207Y-118318390D01*
X77848207Y-118318390D02*
X77848207Y-118461247D01*
X77848207Y-118461247D02*
X77800588Y-118651723D01*
X77800588Y-118651723D02*
X77752969Y-118746961D01*
X77752969Y-118746961D02*
X77657731Y-118842200D01*
X77657731Y-118842200D02*
X77514874Y-118889819D01*
X77514874Y-118889819D02*
X77276779Y-118889819D01*
X78848207Y-118889819D02*
X78514874Y-118413628D01*
X78276779Y-118889819D02*
X78276779Y-117889819D01*
X78276779Y-117889819D02*
X78657731Y-117889819D01*
X78657731Y-117889819D02*
X78752969Y-117937438D01*
X78752969Y-117937438D02*
X78800588Y-117985057D01*
X78800588Y-117985057D02*
X78848207Y-118080295D01*
X78848207Y-118080295D02*
X78848207Y-118223152D01*
X78848207Y-118223152D02*
X78800588Y-118318390D01*
X78800588Y-118318390D02*
X78752969Y-118366009D01*
X78752969Y-118366009D02*
X78657731Y-118413628D01*
X78657731Y-118413628D02*
X78276779Y-118413628D01*
X79133922Y-117889819D02*
X79467255Y-118889819D01*
X79467255Y-118889819D02*
X79800588Y-117889819D01*
D12*
X72878902Y-106835547D02*
X72355093Y-106835547D01*
X72355093Y-106835547D02*
X72878902Y-106168880D01*
X72878902Y-106168880D02*
X72355093Y-106168880D01*
D10*
X68478866Y-105233220D02*
X68478866Y-104471316D01*
X68859819Y-104852268D02*
X68097914Y-104852268D01*
X68336009Y-103661792D02*
X68383628Y-103518935D01*
X68383628Y-103518935D02*
X68431247Y-103471316D01*
X68431247Y-103471316D02*
X68526485Y-103423697D01*
X68526485Y-103423697D02*
X68669342Y-103423697D01*
X68669342Y-103423697D02*
X68764580Y-103471316D01*
X68764580Y-103471316D02*
X68812200Y-103518935D01*
X68812200Y-103518935D02*
X68859819Y-103614173D01*
X68859819Y-103614173D02*
X68859819Y-103995125D01*
X68859819Y-103995125D02*
X67859819Y-103995125D01*
X67859819Y-103995125D02*
X67859819Y-103661792D01*
X67859819Y-103661792D02*
X67907438Y-103566554D01*
X67907438Y-103566554D02*
X67955057Y-103518935D01*
X67955057Y-103518935D02*
X68050295Y-103471316D01*
X68050295Y-103471316D02*
X68145533Y-103471316D01*
X68145533Y-103471316D02*
X68240771Y-103518935D01*
X68240771Y-103518935D02*
X68288390Y-103566554D01*
X68288390Y-103566554D02*
X68336009Y-103661792D01*
X68336009Y-103661792D02*
X68336009Y-103995125D01*
X68574104Y-103042744D02*
X68574104Y-102566554D01*
X68859819Y-103137982D02*
X67859819Y-102804649D01*
X67859819Y-102804649D02*
X68859819Y-102471316D01*
X67859819Y-102280839D02*
X67859819Y-101709411D01*
X68859819Y-101995125D02*
X67859819Y-101995125D01*
X68478866Y-101376077D02*
X68478866Y-100614173D01*
X77269160Y-116012200D02*
X77412017Y-116059819D01*
X77412017Y-116059819D02*
X77650112Y-116059819D01*
X77650112Y-116059819D02*
X77745350Y-116012200D01*
X77745350Y-116012200D02*
X77792969Y-115964580D01*
X77792969Y-115964580D02*
X77840588Y-115869342D01*
X77840588Y-115869342D02*
X77840588Y-115774104D01*
X77840588Y-115774104D02*
X77792969Y-115678866D01*
X77792969Y-115678866D02*
X77745350Y-115631247D01*
X77745350Y-115631247D02*
X77650112Y-115583628D01*
X77650112Y-115583628D02*
X77459636Y-115536009D01*
X77459636Y-115536009D02*
X77364398Y-115488390D01*
X77364398Y-115488390D02*
X77316779Y-115440771D01*
X77316779Y-115440771D02*
X77269160Y-115345533D01*
X77269160Y-115345533D02*
X77269160Y-115250295D01*
X77269160Y-115250295D02*
X77316779Y-115155057D01*
X77316779Y-115155057D02*
X77364398Y-115107438D01*
X77364398Y-115107438D02*
X77459636Y-115059819D01*
X77459636Y-115059819D02*
X77697731Y-115059819D01*
X77697731Y-115059819D02*
X77840588Y-115107438D01*
X78126303Y-115059819D02*
X78697731Y-115059819D01*
X78412017Y-116059819D02*
X78412017Y-115059819D01*
X79602493Y-116059819D02*
X79269160Y-115583628D01*
X79031065Y-116059819D02*
X79031065Y-115059819D01*
X79031065Y-115059819D02*
X79412017Y-115059819D01*
X79412017Y-115059819D02*
X79507255Y-115107438D01*
X79507255Y-115107438D02*
X79554874Y-115155057D01*
X79554874Y-115155057D02*
X79602493Y-115250295D01*
X79602493Y-115250295D02*
X79602493Y-115393152D01*
X79602493Y-115393152D02*
X79554874Y-115488390D01*
X79554874Y-115488390D02*
X79507255Y-115536009D01*
X79507255Y-115536009D02*
X79412017Y-115583628D01*
X79412017Y-115583628D02*
X79031065Y-115583628D01*
D16*
G36*
X52023327Y-102373641D02*
G01*
X52114951Y-102387849D01*
X52193581Y-102410074D01*
X52260972Y-102439525D01*
X52324586Y-102479038D01*
X52380247Y-102526050D01*
X52428608Y-102580957D01*
X52470019Y-102644469D01*
X52501403Y-102712111D01*
X52524783Y-102789339D01*
X52539558Y-102877594D01*
X52544757Y-102978520D01*
X52536755Y-103113039D01*
X52514566Y-103223889D01*
X52480277Y-103314989D01*
X52443805Y-103377721D01*
X52398123Y-103434349D01*
X52342559Y-103485372D01*
X52276066Y-103530997D01*
X52205330Y-103565833D01*
X52124573Y-103591716D01*
X52032244Y-103608050D01*
X51926554Y-103613796D01*
X51807902Y-103606404D01*
X51705052Y-103585413D01*
X51615681Y-103552088D01*
X51537845Y-103506979D01*
X51470064Y-103449884D01*
X51413158Y-103381870D01*
X51368201Y-103303881D01*
X51335000Y-103214455D01*
X51314096Y-103111675D01*
X51306789Y-102994054D01*
X51588107Y-102994054D01*
X51593314Y-103048770D01*
X51608274Y-103096185D01*
X51632696Y-103137752D01*
X51667242Y-103174452D01*
X51707874Y-103201512D01*
X51762489Y-103222795D01*
X51834715Y-103237112D01*
X51928899Y-103242449D01*
X52022192Y-103237156D01*
X52093935Y-103222938D01*
X52148364Y-103201770D01*
X52189018Y-103174818D01*
X52223306Y-103138358D01*
X52247724Y-103096347D01*
X52262797Y-103047685D01*
X52268079Y-102990757D01*
X52262799Y-102931958D01*
X52247865Y-102882612D01*
X52223923Y-102840891D01*
X52190630Y-102805523D01*
X52151050Y-102780066D01*
X52094923Y-102759491D01*
X52017380Y-102745319D01*
X51912632Y-102739944D01*
X51826241Y-102745175D01*
X51758618Y-102759357D01*
X51706188Y-102780743D01*
X51665996Y-102808381D01*
X51632285Y-102845146D01*
X51608212Y-102887523D01*
X51593327Y-102936626D01*
X51588107Y-102994054D01*
X51306789Y-102994054D01*
X51306739Y-102993248D01*
X51314080Y-102871197D01*
X51334840Y-102766243D01*
X51367620Y-102675874D01*
X51411726Y-102597972D01*
X51467207Y-102530896D01*
X51533852Y-102474354D01*
X51610440Y-102429692D01*
X51698433Y-102396700D01*
X51799761Y-102375916D01*
X51916736Y-102368597D01*
X52023327Y-102373641D01*
G37*
G36*
X51325497Y-102165924D02*
G01*
X51325497Y-101819197D01*
X51989496Y-101366664D01*
X51325497Y-101366664D01*
X51325497Y-101016639D01*
X52526000Y-101016639D01*
X52526000Y-101366664D01*
X51865738Y-101816706D01*
X52526000Y-101816706D01*
X52526000Y-102165924D01*
X51325497Y-102165924D01*
G37*
D12*
X70654906Y-105048880D02*
X70131097Y-105715547D01*
X70654906Y-105715547D02*
X70131097Y-105048880D01*
D10*
X77279160Y-113312200D02*
X77422017Y-113359819D01*
X77422017Y-113359819D02*
X77660112Y-113359819D01*
X77660112Y-113359819D02*
X77755350Y-113312200D01*
X77755350Y-113312200D02*
X77802969Y-113264580D01*
X77802969Y-113264580D02*
X77850588Y-113169342D01*
X77850588Y-113169342D02*
X77850588Y-113074104D01*
X77850588Y-113074104D02*
X77802969Y-112978866D01*
X77802969Y-112978866D02*
X77755350Y-112931247D01*
X77755350Y-112931247D02*
X77660112Y-112883628D01*
X77660112Y-112883628D02*
X77469636Y-112836009D01*
X77469636Y-112836009D02*
X77374398Y-112788390D01*
X77374398Y-112788390D02*
X77326779Y-112740771D01*
X77326779Y-112740771D02*
X77279160Y-112645533D01*
X77279160Y-112645533D02*
X77279160Y-112550295D01*
X77279160Y-112550295D02*
X77326779Y-112455057D01*
X77326779Y-112455057D02*
X77374398Y-112407438D01*
X77374398Y-112407438D02*
X77469636Y-112359819D01*
X77469636Y-112359819D02*
X77707731Y-112359819D01*
X77707731Y-112359819D02*
X77850588Y-112407438D01*
X78136303Y-112359819D02*
X78707731Y-112359819D01*
X78422017Y-113359819D02*
X78422017Y-112359819D01*
X79041065Y-113359819D02*
X79041065Y-112359819D01*
X79041065Y-112359819D02*
X79279160Y-112359819D01*
X79279160Y-112359819D02*
X79422017Y-112407438D01*
X79422017Y-112407438D02*
X79517255Y-112502676D01*
X79517255Y-112502676D02*
X79564874Y-112597914D01*
X79564874Y-112597914D02*
X79612493Y-112788390D01*
X79612493Y-112788390D02*
X79612493Y-112931247D01*
X79612493Y-112931247D02*
X79564874Y-113121723D01*
X79564874Y-113121723D02*
X79517255Y-113216961D01*
X79517255Y-113216961D02*
X79422017Y-113312200D01*
X79422017Y-113312200D02*
X79279160Y-113359819D01*
X79279160Y-113359819D02*
X79041065Y-113359819D01*
X80376666Y-114764819D02*
X80376666Y-115479104D01*
X80376666Y-115479104D02*
X80329047Y-115621961D01*
X80329047Y-115621961D02*
X80233809Y-115717200D01*
X80233809Y-115717200D02*
X80090952Y-115764819D01*
X80090952Y-115764819D02*
X79995714Y-115764819D01*
X80805238Y-114860057D02*
X80852857Y-114812438D01*
X80852857Y-114812438D02*
X80948095Y-114764819D01*
X80948095Y-114764819D02*
X81186190Y-114764819D01*
X81186190Y-114764819D02*
X81281428Y-114812438D01*
X81281428Y-114812438D02*
X81329047Y-114860057D01*
X81329047Y-114860057D02*
X81376666Y-114955295D01*
X81376666Y-114955295D02*
X81376666Y-115050533D01*
X81376666Y-115050533D02*
X81329047Y-115193390D01*
X81329047Y-115193390D02*
X80757619Y-115764819D01*
X80757619Y-115764819D02*
X81376666Y-115764819D01*
X72103333Y-118539580D02*
X72055714Y-118587200D01*
X72055714Y-118587200D02*
X71912857Y-118634819D01*
X71912857Y-118634819D02*
X71817619Y-118634819D01*
X71817619Y-118634819D02*
X71674762Y-118587200D01*
X71674762Y-118587200D02*
X71579524Y-118491961D01*
X71579524Y-118491961D02*
X71531905Y-118396723D01*
X71531905Y-118396723D02*
X71484286Y-118206247D01*
X71484286Y-118206247D02*
X71484286Y-118063390D01*
X71484286Y-118063390D02*
X71531905Y-117872914D01*
X71531905Y-117872914D02*
X71579524Y-117777676D01*
X71579524Y-117777676D02*
X71674762Y-117682438D01*
X71674762Y-117682438D02*
X71817619Y-117634819D01*
X71817619Y-117634819D02*
X71912857Y-117634819D01*
X71912857Y-117634819D02*
X72055714Y-117682438D01*
X72055714Y-117682438D02*
X72103333Y-117730057D01*
X72484286Y-117730057D02*
X72531905Y-117682438D01*
X72531905Y-117682438D02*
X72627143Y-117634819D01*
X72627143Y-117634819D02*
X72865238Y-117634819D01*
X72865238Y-117634819D02*
X72960476Y-117682438D01*
X72960476Y-117682438D02*
X73008095Y-117730057D01*
X73008095Y-117730057D02*
X73055714Y-117825295D01*
X73055714Y-117825295D02*
X73055714Y-117920533D01*
X73055714Y-117920533D02*
X73008095Y-118063390D01*
X73008095Y-118063390D02*
X72436667Y-118634819D01*
X72436667Y-118634819D02*
X73055714Y-118634819D01*
X45596666Y-116234819D02*
X45596666Y-116949104D01*
X45596666Y-116949104D02*
X45549047Y-117091961D01*
X45549047Y-117091961D02*
X45453809Y-117187200D01*
X45453809Y-117187200D02*
X45310952Y-117234819D01*
X45310952Y-117234819D02*
X45215714Y-117234819D01*
X46120476Y-117234819D02*
X46310952Y-117234819D01*
X46310952Y-117234819D02*
X46406190Y-117187200D01*
X46406190Y-117187200D02*
X46453809Y-117139580D01*
X46453809Y-117139580D02*
X46549047Y-116996723D01*
X46549047Y-116996723D02*
X46596666Y-116806247D01*
X46596666Y-116806247D02*
X46596666Y-116425295D01*
X46596666Y-116425295D02*
X46549047Y-116330057D01*
X46549047Y-116330057D02*
X46501428Y-116282438D01*
X46501428Y-116282438D02*
X46406190Y-116234819D01*
X46406190Y-116234819D02*
X46215714Y-116234819D01*
X46215714Y-116234819D02*
X46120476Y-116282438D01*
X46120476Y-116282438D02*
X46072857Y-116330057D01*
X46072857Y-116330057D02*
X46025238Y-116425295D01*
X46025238Y-116425295D02*
X46025238Y-116663390D01*
X46025238Y-116663390D02*
X46072857Y-116758628D01*
X46072857Y-116758628D02*
X46120476Y-116806247D01*
X46120476Y-116806247D02*
X46215714Y-116853866D01*
X46215714Y-116853866D02*
X46406190Y-116853866D01*
X46406190Y-116853866D02*
X46501428Y-116806247D01*
X46501428Y-116806247D02*
X46549047Y-116758628D01*
X46549047Y-116758628D02*
X46596666Y-116663390D01*
X50427200Y-103053332D02*
X50474819Y-102910475D01*
X50474819Y-102910475D02*
X50474819Y-102672380D01*
X50474819Y-102672380D02*
X50427200Y-102577142D01*
X50427200Y-102577142D02*
X50379580Y-102529523D01*
X50379580Y-102529523D02*
X50284342Y-102481904D01*
X50284342Y-102481904D02*
X50189104Y-102481904D01*
X50189104Y-102481904D02*
X50093866Y-102529523D01*
X50093866Y-102529523D02*
X50046247Y-102577142D01*
X50046247Y-102577142D02*
X49998628Y-102672380D01*
X49998628Y-102672380D02*
X49951009Y-102862856D01*
X49951009Y-102862856D02*
X49903390Y-102958094D01*
X49903390Y-102958094D02*
X49855771Y-103005713D01*
X49855771Y-103005713D02*
X49760533Y-103053332D01*
X49760533Y-103053332D02*
X49665295Y-103053332D01*
X49665295Y-103053332D02*
X49570057Y-103005713D01*
X49570057Y-103005713D02*
X49522438Y-102958094D01*
X49522438Y-102958094D02*
X49474819Y-102862856D01*
X49474819Y-102862856D02*
X49474819Y-102624761D01*
X49474819Y-102624761D02*
X49522438Y-102481904D01*
X49474819Y-102148570D02*
X50474819Y-101910475D01*
X50474819Y-101910475D02*
X49760533Y-101719999D01*
X49760533Y-101719999D02*
X50474819Y-101529523D01*
X50474819Y-101529523D02*
X49474819Y-101291428D01*
X50474819Y-100386666D02*
X50474819Y-100958094D01*
X50474819Y-100672380D02*
X49474819Y-100672380D01*
X49474819Y-100672380D02*
X49617676Y-100767618D01*
X49617676Y-100767618D02*
X49712914Y-100862856D01*
X49712914Y-100862856D02*
X49760533Y-100958094D01*
X70473333Y-123019580D02*
X70425714Y-123067200D01*
X70425714Y-123067200D02*
X70282857Y-123114819D01*
X70282857Y-123114819D02*
X70187619Y-123114819D01*
X70187619Y-123114819D02*
X70044762Y-123067200D01*
X70044762Y-123067200D02*
X69949524Y-122971961D01*
X69949524Y-122971961D02*
X69901905Y-122876723D01*
X69901905Y-122876723D02*
X69854286Y-122686247D01*
X69854286Y-122686247D02*
X69854286Y-122543390D01*
X69854286Y-122543390D02*
X69901905Y-122352914D01*
X69901905Y-122352914D02*
X69949524Y-122257676D01*
X69949524Y-122257676D02*
X70044762Y-122162438D01*
X70044762Y-122162438D02*
X70187619Y-122114819D01*
X70187619Y-122114819D02*
X70282857Y-122114819D01*
X70282857Y-122114819D02*
X70425714Y-122162438D01*
X70425714Y-122162438D02*
X70473333Y-122210057D01*
X71425714Y-123114819D02*
X70854286Y-123114819D01*
X71140000Y-123114819D02*
X71140000Y-122114819D01*
X71140000Y-122114819D02*
X71044762Y-122257676D01*
X71044762Y-122257676D02*
X70949524Y-122352914D01*
X70949524Y-122352914D02*
X70854286Y-122400533D01*
X44728095Y-122894819D02*
X45299523Y-122894819D01*
X45013809Y-123894819D02*
X45013809Y-122894819D01*
X45632857Y-123894819D02*
X45632857Y-122894819D01*
X45632857Y-122894819D02*
X46013809Y-122894819D01*
X46013809Y-122894819D02*
X46109047Y-122942438D01*
X46109047Y-122942438D02*
X46156666Y-122990057D01*
X46156666Y-122990057D02*
X46204285Y-123085295D01*
X46204285Y-123085295D02*
X46204285Y-123228152D01*
X46204285Y-123228152D02*
X46156666Y-123323390D01*
X46156666Y-123323390D02*
X46109047Y-123371009D01*
X46109047Y-123371009D02*
X46013809Y-123418628D01*
X46013809Y-123418628D02*
X45632857Y-123418628D01*
X46585238Y-122990057D02*
X46632857Y-122942438D01*
X46632857Y-122942438D02*
X46728095Y-122894819D01*
X46728095Y-122894819D02*
X46966190Y-122894819D01*
X46966190Y-122894819D02*
X47061428Y-122942438D01*
X47061428Y-122942438D02*
X47109047Y-122990057D01*
X47109047Y-122990057D02*
X47156666Y-123085295D01*
X47156666Y-123085295D02*
X47156666Y-123180533D01*
X47156666Y-123180533D02*
X47109047Y-123323390D01*
X47109047Y-123323390D02*
X46537619Y-123894819D01*
X46537619Y-123894819D02*
X47156666Y-123894819D01*
X64198095Y-109804819D02*
X64198095Y-110614342D01*
X64198095Y-110614342D02*
X64245714Y-110709580D01*
X64245714Y-110709580D02*
X64293333Y-110757200D01*
X64293333Y-110757200D02*
X64388571Y-110804819D01*
X64388571Y-110804819D02*
X64579047Y-110804819D01*
X64579047Y-110804819D02*
X64674285Y-110757200D01*
X64674285Y-110757200D02*
X64721904Y-110709580D01*
X64721904Y-110709580D02*
X64769523Y-110614342D01*
X64769523Y-110614342D02*
X64769523Y-109804819D01*
X65769523Y-110804819D02*
X65198095Y-110804819D01*
X65483809Y-110804819D02*
X65483809Y-109804819D01*
X65483809Y-109804819D02*
X65388571Y-109947676D01*
X65388571Y-109947676D02*
X65293333Y-110042914D01*
X65293333Y-110042914D02*
X65198095Y-110090533D01*
X83188095Y-123444819D02*
X83188095Y-124254342D01*
X83188095Y-124254342D02*
X83235714Y-124349580D01*
X83235714Y-124349580D02*
X83283333Y-124397200D01*
X83283333Y-124397200D02*
X83378571Y-124444819D01*
X83378571Y-124444819D02*
X83569047Y-124444819D01*
X83569047Y-124444819D02*
X83664285Y-124397200D01*
X83664285Y-124397200D02*
X83711904Y-124349580D01*
X83711904Y-124349580D02*
X83759523Y-124254342D01*
X83759523Y-124254342D02*
X83759523Y-123444819D01*
X84664285Y-123778152D02*
X84664285Y-124444819D01*
X84426190Y-123397200D02*
X84188095Y-124111485D01*
X84188095Y-124111485D02*
X84807142Y-124111485D01*
X75203333Y-114634819D02*
X74870000Y-114158628D01*
X74631905Y-114634819D02*
X74631905Y-113634819D01*
X74631905Y-113634819D02*
X75012857Y-113634819D01*
X75012857Y-113634819D02*
X75108095Y-113682438D01*
X75108095Y-113682438D02*
X75155714Y-113730057D01*
X75155714Y-113730057D02*
X75203333Y-113825295D01*
X75203333Y-113825295D02*
X75203333Y-113968152D01*
X75203333Y-113968152D02*
X75155714Y-114063390D01*
X75155714Y-114063390D02*
X75108095Y-114111009D01*
X75108095Y-114111009D02*
X75012857Y-114158628D01*
X75012857Y-114158628D02*
X74631905Y-114158628D01*
X75536667Y-113634819D02*
X76203333Y-113634819D01*
X76203333Y-113634819D02*
X75774762Y-114634819D01*
X40318095Y-123484819D02*
X40889523Y-123484819D01*
X40603809Y-124484819D02*
X40603809Y-123484819D01*
X41222857Y-124484819D02*
X41222857Y-123484819D01*
X41222857Y-123484819D02*
X41603809Y-123484819D01*
X41603809Y-123484819D02*
X41699047Y-123532438D01*
X41699047Y-123532438D02*
X41746666Y-123580057D01*
X41746666Y-123580057D02*
X41794285Y-123675295D01*
X41794285Y-123675295D02*
X41794285Y-123818152D01*
X41794285Y-123818152D02*
X41746666Y-123913390D01*
X41746666Y-123913390D02*
X41699047Y-123961009D01*
X41699047Y-123961009D02*
X41603809Y-124008628D01*
X41603809Y-124008628D02*
X41222857Y-124008628D01*
X42746666Y-124484819D02*
X42175238Y-124484819D01*
X42460952Y-124484819D02*
X42460952Y-123484819D01*
X42460952Y-123484819D02*
X42365714Y-123627676D01*
X42365714Y-123627676D02*
X42270476Y-123722914D01*
X42270476Y-123722914D02*
X42175238Y-123770533D01*
X64371905Y-107514819D02*
X64371905Y-106514819D01*
X64371905Y-106514819D02*
X64610000Y-106514819D01*
X64610000Y-106514819D02*
X64752857Y-106562438D01*
X64752857Y-106562438D02*
X64848095Y-106657676D01*
X64848095Y-106657676D02*
X64895714Y-106752914D01*
X64895714Y-106752914D02*
X64943333Y-106943390D01*
X64943333Y-106943390D02*
X64943333Y-107086247D01*
X64943333Y-107086247D02*
X64895714Y-107276723D01*
X64895714Y-107276723D02*
X64848095Y-107371961D01*
X64848095Y-107371961D02*
X64752857Y-107467200D01*
X64752857Y-107467200D02*
X64610000Y-107514819D01*
X64610000Y-107514819D02*
X64371905Y-107514819D01*
X65895714Y-107514819D02*
X65324286Y-107514819D01*
X65610000Y-107514819D02*
X65610000Y-106514819D01*
X65610000Y-106514819D02*
X65514762Y-106657676D01*
X65514762Y-106657676D02*
X65419524Y-106752914D01*
X65419524Y-106752914D02*
X65324286Y-106800533D01*
X72823333Y-122834819D02*
X72490000Y-122358628D01*
X72251905Y-122834819D02*
X72251905Y-121834819D01*
X72251905Y-121834819D02*
X72632857Y-121834819D01*
X72632857Y-121834819D02*
X72728095Y-121882438D01*
X72728095Y-121882438D02*
X72775714Y-121930057D01*
X72775714Y-121930057D02*
X72823333Y-122025295D01*
X72823333Y-122025295D02*
X72823333Y-122168152D01*
X72823333Y-122168152D02*
X72775714Y-122263390D01*
X72775714Y-122263390D02*
X72728095Y-122311009D01*
X72728095Y-122311009D02*
X72632857Y-122358628D01*
X72632857Y-122358628D02*
X72251905Y-122358628D01*
X73775714Y-122834819D02*
X73204286Y-122834819D01*
X73490000Y-122834819D02*
X73490000Y-121834819D01*
X73490000Y-121834819D02*
X73394762Y-121977676D01*
X73394762Y-121977676D02*
X73299524Y-122072914D01*
X73299524Y-122072914D02*
X73204286Y-122120533D01*
X64371905Y-109104819D02*
X64371905Y-108104819D01*
X64371905Y-108104819D02*
X64610000Y-108104819D01*
X64610000Y-108104819D02*
X64752857Y-108152438D01*
X64752857Y-108152438D02*
X64848095Y-108247676D01*
X64848095Y-108247676D02*
X64895714Y-108342914D01*
X64895714Y-108342914D02*
X64943333Y-108533390D01*
X64943333Y-108533390D02*
X64943333Y-108676247D01*
X64943333Y-108676247D02*
X64895714Y-108866723D01*
X64895714Y-108866723D02*
X64848095Y-108961961D01*
X64848095Y-108961961D02*
X64752857Y-109057200D01*
X64752857Y-109057200D02*
X64610000Y-109104819D01*
X64610000Y-109104819D02*
X64371905Y-109104819D01*
X65324286Y-108200057D02*
X65371905Y-108152438D01*
X65371905Y-108152438D02*
X65467143Y-108104819D01*
X65467143Y-108104819D02*
X65705238Y-108104819D01*
X65705238Y-108104819D02*
X65800476Y-108152438D01*
X65800476Y-108152438D02*
X65848095Y-108200057D01*
X65848095Y-108200057D02*
X65895714Y-108295295D01*
X65895714Y-108295295D02*
X65895714Y-108390533D01*
X65895714Y-108390533D02*
X65848095Y-108533390D01*
X65848095Y-108533390D02*
X65276667Y-109104819D01*
X65276667Y-109104819D02*
X65895714Y-109104819D01*
X48614819Y-105686666D02*
X48138628Y-106019999D01*
X48614819Y-106258094D02*
X47614819Y-106258094D01*
X47614819Y-106258094D02*
X47614819Y-105877142D01*
X47614819Y-105877142D02*
X47662438Y-105781904D01*
X47662438Y-105781904D02*
X47710057Y-105734285D01*
X47710057Y-105734285D02*
X47805295Y-105686666D01*
X47805295Y-105686666D02*
X47948152Y-105686666D01*
X47948152Y-105686666D02*
X48043390Y-105734285D01*
X48043390Y-105734285D02*
X48091009Y-105781904D01*
X48091009Y-105781904D02*
X48138628Y-105877142D01*
X48138628Y-105877142D02*
X48138628Y-106258094D01*
X47614819Y-104781904D02*
X47614819Y-105258094D01*
X47614819Y-105258094D02*
X48091009Y-105305713D01*
X48091009Y-105305713D02*
X48043390Y-105258094D01*
X48043390Y-105258094D02*
X47995771Y-105162856D01*
X47995771Y-105162856D02*
X47995771Y-104924761D01*
X47995771Y-104924761D02*
X48043390Y-104829523D01*
X48043390Y-104829523D02*
X48091009Y-104781904D01*
X48091009Y-104781904D02*
X48186247Y-104734285D01*
X48186247Y-104734285D02*
X48424342Y-104734285D01*
X48424342Y-104734285D02*
X48519580Y-104781904D01*
X48519580Y-104781904D02*
X48567200Y-104829523D01*
X48567200Y-104829523D02*
X48614819Y-104924761D01*
X48614819Y-104924761D02*
X48614819Y-105162856D01*
X48614819Y-105162856D02*
X48567200Y-105258094D01*
X48567200Y-105258094D02*
X48519580Y-105305713D01*
X80366666Y-111584819D02*
X80366666Y-112299104D01*
X80366666Y-112299104D02*
X80319047Y-112441961D01*
X80319047Y-112441961D02*
X80223809Y-112537200D01*
X80223809Y-112537200D02*
X80080952Y-112584819D01*
X80080952Y-112584819D02*
X79985714Y-112584819D01*
X80747619Y-111584819D02*
X81366666Y-111584819D01*
X81366666Y-111584819D02*
X81033333Y-111965771D01*
X81033333Y-111965771D02*
X81176190Y-111965771D01*
X81176190Y-111965771D02*
X81271428Y-112013390D01*
X81271428Y-112013390D02*
X81319047Y-112061009D01*
X81319047Y-112061009D02*
X81366666Y-112156247D01*
X81366666Y-112156247D02*
X81366666Y-112394342D01*
X81366666Y-112394342D02*
X81319047Y-112489580D01*
X81319047Y-112489580D02*
X81271428Y-112537200D01*
X81271428Y-112537200D02*
X81176190Y-112584819D01*
X81176190Y-112584819D02*
X80890476Y-112584819D01*
X80890476Y-112584819D02*
X80795238Y-112537200D01*
X80795238Y-112537200D02*
X80747619Y-112489580D01*
D14*
X51728704Y-108483332D02*
X51766800Y-108521428D01*
X51766800Y-108521428D02*
X51804895Y-108635713D01*
X51804895Y-108635713D02*
X51804895Y-108711904D01*
X51804895Y-108711904D02*
X51766800Y-108826190D01*
X51766800Y-108826190D02*
X51690609Y-108902380D01*
X51690609Y-108902380D02*
X51614419Y-108940475D01*
X51614419Y-108940475D02*
X51462038Y-108978571D01*
X51462038Y-108978571D02*
X51347752Y-108978571D01*
X51347752Y-108978571D02*
X51195371Y-108940475D01*
X51195371Y-108940475D02*
X51119180Y-108902380D01*
X51119180Y-108902380D02*
X51042990Y-108826190D01*
X51042990Y-108826190D02*
X51004895Y-108711904D01*
X51004895Y-108711904D02*
X51004895Y-108635713D01*
X51004895Y-108635713D02*
X51042990Y-108521428D01*
X51042990Y-108521428D02*
X51081085Y-108483332D01*
X51004895Y-108216666D02*
X51004895Y-107721428D01*
X51004895Y-107721428D02*
X51309657Y-107988094D01*
X51309657Y-107988094D02*
X51309657Y-107873809D01*
X51309657Y-107873809D02*
X51347752Y-107797618D01*
X51347752Y-107797618D02*
X51385847Y-107759523D01*
X51385847Y-107759523D02*
X51462038Y-107721428D01*
X51462038Y-107721428D02*
X51652514Y-107721428D01*
X51652514Y-107721428D02*
X51728704Y-107759523D01*
X51728704Y-107759523D02*
X51766800Y-107797618D01*
X51766800Y-107797618D02*
X51804895Y-107873809D01*
X51804895Y-107873809D02*
X51804895Y-108102380D01*
X51804895Y-108102380D02*
X51766800Y-108178571D01*
X51766800Y-108178571D02*
X51728704Y-108216666D01*
D10*
X66963333Y-107004819D02*
X66630000Y-106528628D01*
X66391905Y-107004819D02*
X66391905Y-106004819D01*
X66391905Y-106004819D02*
X66772857Y-106004819D01*
X66772857Y-106004819D02*
X66868095Y-106052438D01*
X66868095Y-106052438D02*
X66915714Y-106100057D01*
X66915714Y-106100057D02*
X66963333Y-106195295D01*
X66963333Y-106195295D02*
X66963333Y-106338152D01*
X66963333Y-106338152D02*
X66915714Y-106433390D01*
X66915714Y-106433390D02*
X66868095Y-106481009D01*
X66868095Y-106481009D02*
X66772857Y-106528628D01*
X66772857Y-106528628D02*
X66391905Y-106528628D01*
X67344286Y-106100057D02*
X67391905Y-106052438D01*
X67391905Y-106052438D02*
X67487143Y-106004819D01*
X67487143Y-106004819D02*
X67725238Y-106004819D01*
X67725238Y-106004819D02*
X67820476Y-106052438D01*
X67820476Y-106052438D02*
X67868095Y-106100057D01*
X67868095Y-106100057D02*
X67915714Y-106195295D01*
X67915714Y-106195295D02*
X67915714Y-106290533D01*
X67915714Y-106290533D02*
X67868095Y-106433390D01*
X67868095Y-106433390D02*
X67296667Y-107004819D01*
X67296667Y-107004819D02*
X67915714Y-107004819D01*
X73393333Y-112249580D02*
X73345714Y-112297200D01*
X73345714Y-112297200D02*
X73202857Y-112344819D01*
X73202857Y-112344819D02*
X73107619Y-112344819D01*
X73107619Y-112344819D02*
X72964762Y-112297200D01*
X72964762Y-112297200D02*
X72869524Y-112201961D01*
X72869524Y-112201961D02*
X72821905Y-112106723D01*
X72821905Y-112106723D02*
X72774286Y-111916247D01*
X72774286Y-111916247D02*
X72774286Y-111773390D01*
X72774286Y-111773390D02*
X72821905Y-111582914D01*
X72821905Y-111582914D02*
X72869524Y-111487676D01*
X72869524Y-111487676D02*
X72964762Y-111392438D01*
X72964762Y-111392438D02*
X73107619Y-111344819D01*
X73107619Y-111344819D02*
X73202857Y-111344819D01*
X73202857Y-111344819D02*
X73345714Y-111392438D01*
X73345714Y-111392438D02*
X73393333Y-111440057D01*
X74250476Y-111344819D02*
X74060000Y-111344819D01*
X74060000Y-111344819D02*
X73964762Y-111392438D01*
X73964762Y-111392438D02*
X73917143Y-111440057D01*
X73917143Y-111440057D02*
X73821905Y-111582914D01*
X73821905Y-111582914D02*
X73774286Y-111773390D01*
X73774286Y-111773390D02*
X73774286Y-112154342D01*
X73774286Y-112154342D02*
X73821905Y-112249580D01*
X73821905Y-112249580D02*
X73869524Y-112297200D01*
X73869524Y-112297200D02*
X73964762Y-112344819D01*
X73964762Y-112344819D02*
X74155238Y-112344819D01*
X74155238Y-112344819D02*
X74250476Y-112297200D01*
X74250476Y-112297200D02*
X74298095Y-112249580D01*
X74298095Y-112249580D02*
X74345714Y-112154342D01*
X74345714Y-112154342D02*
X74345714Y-111916247D01*
X74345714Y-111916247D02*
X74298095Y-111821009D01*
X74298095Y-111821009D02*
X74250476Y-111773390D01*
X74250476Y-111773390D02*
X74155238Y-111725771D01*
X74155238Y-111725771D02*
X73964762Y-111725771D01*
X73964762Y-111725771D02*
X73869524Y-111773390D01*
X73869524Y-111773390D02*
X73821905Y-111821009D01*
X73821905Y-111821009D02*
X73774286Y-111916247D01*
X81963333Y-105589580D02*
X81915714Y-105637200D01*
X81915714Y-105637200D02*
X81772857Y-105684819D01*
X81772857Y-105684819D02*
X81677619Y-105684819D01*
X81677619Y-105684819D02*
X81534762Y-105637200D01*
X81534762Y-105637200D02*
X81439524Y-105541961D01*
X81439524Y-105541961D02*
X81391905Y-105446723D01*
X81391905Y-105446723D02*
X81344286Y-105256247D01*
X81344286Y-105256247D02*
X81344286Y-105113390D01*
X81344286Y-105113390D02*
X81391905Y-104922914D01*
X81391905Y-104922914D02*
X81439524Y-104827676D01*
X81439524Y-104827676D02*
X81534762Y-104732438D01*
X81534762Y-104732438D02*
X81677619Y-104684819D01*
X81677619Y-104684819D02*
X81772857Y-104684819D01*
X81772857Y-104684819D02*
X81915714Y-104732438D01*
X81915714Y-104732438D02*
X81963333Y-104780057D01*
X82820476Y-105018152D02*
X82820476Y-105684819D01*
X82582381Y-104637200D02*
X82344286Y-105351485D01*
X82344286Y-105351485D02*
X82963333Y-105351485D01*
X87403333Y-122129580D02*
X87355714Y-122177200D01*
X87355714Y-122177200D02*
X87212857Y-122224819D01*
X87212857Y-122224819D02*
X87117619Y-122224819D01*
X87117619Y-122224819D02*
X86974762Y-122177200D01*
X86974762Y-122177200D02*
X86879524Y-122081961D01*
X86879524Y-122081961D02*
X86831905Y-121986723D01*
X86831905Y-121986723D02*
X86784286Y-121796247D01*
X86784286Y-121796247D02*
X86784286Y-121653390D01*
X86784286Y-121653390D02*
X86831905Y-121462914D01*
X86831905Y-121462914D02*
X86879524Y-121367676D01*
X86879524Y-121367676D02*
X86974762Y-121272438D01*
X86974762Y-121272438D02*
X87117619Y-121224819D01*
X87117619Y-121224819D02*
X87212857Y-121224819D01*
X87212857Y-121224819D02*
X87355714Y-121272438D01*
X87355714Y-121272438D02*
X87403333Y-121320057D01*
X87736667Y-121224819D02*
X88403333Y-121224819D01*
X88403333Y-121224819D02*
X87974762Y-122224819D01*
X49504819Y-109256666D02*
X49028628Y-109589999D01*
X49504819Y-109828094D02*
X48504819Y-109828094D01*
X48504819Y-109828094D02*
X48504819Y-109447142D01*
X48504819Y-109447142D02*
X48552438Y-109351904D01*
X48552438Y-109351904D02*
X48600057Y-109304285D01*
X48600057Y-109304285D02*
X48695295Y-109256666D01*
X48695295Y-109256666D02*
X48838152Y-109256666D01*
X48838152Y-109256666D02*
X48933390Y-109304285D01*
X48933390Y-109304285D02*
X48981009Y-109351904D01*
X48981009Y-109351904D02*
X49028628Y-109447142D01*
X49028628Y-109447142D02*
X49028628Y-109828094D01*
X48504819Y-108399523D02*
X48504819Y-108589999D01*
X48504819Y-108589999D02*
X48552438Y-108685237D01*
X48552438Y-108685237D02*
X48600057Y-108732856D01*
X48600057Y-108732856D02*
X48742914Y-108828094D01*
X48742914Y-108828094D02*
X48933390Y-108875713D01*
X48933390Y-108875713D02*
X49314342Y-108875713D01*
X49314342Y-108875713D02*
X49409580Y-108828094D01*
X49409580Y-108828094D02*
X49457200Y-108780475D01*
X49457200Y-108780475D02*
X49504819Y-108685237D01*
X49504819Y-108685237D02*
X49504819Y-108494761D01*
X49504819Y-108494761D02*
X49457200Y-108399523D01*
X49457200Y-108399523D02*
X49409580Y-108351904D01*
X49409580Y-108351904D02*
X49314342Y-108304285D01*
X49314342Y-108304285D02*
X49076247Y-108304285D01*
X49076247Y-108304285D02*
X48981009Y-108351904D01*
X48981009Y-108351904D02*
X48933390Y-108399523D01*
X48933390Y-108399523D02*
X48885771Y-108494761D01*
X48885771Y-108494761D02*
X48885771Y-108685237D01*
X48885771Y-108685237D02*
X48933390Y-108780475D01*
X48933390Y-108780475D02*
X48981009Y-108828094D01*
X48981009Y-108828094D02*
X49076247Y-108875713D01*
X47574819Y-118486666D02*
X47098628Y-118819999D01*
X47574819Y-119058094D02*
X46574819Y-119058094D01*
X46574819Y-119058094D02*
X46574819Y-118677142D01*
X46574819Y-118677142D02*
X46622438Y-118581904D01*
X46622438Y-118581904D02*
X46670057Y-118534285D01*
X46670057Y-118534285D02*
X46765295Y-118486666D01*
X46765295Y-118486666D02*
X46908152Y-118486666D01*
X46908152Y-118486666D02*
X47003390Y-118534285D01*
X47003390Y-118534285D02*
X47051009Y-118581904D01*
X47051009Y-118581904D02*
X47098628Y-118677142D01*
X47098628Y-118677142D02*
X47098628Y-119058094D01*
X46908152Y-117629523D02*
X47574819Y-117629523D01*
X46527200Y-117867618D02*
X47241485Y-118105713D01*
X47241485Y-118105713D02*
X47241485Y-117486666D01*
X76193333Y-121959580D02*
X76145714Y-122007200D01*
X76145714Y-122007200D02*
X76002857Y-122054819D01*
X76002857Y-122054819D02*
X75907619Y-122054819D01*
X75907619Y-122054819D02*
X75764762Y-122007200D01*
X75764762Y-122007200D02*
X75669524Y-121911961D01*
X75669524Y-121911961D02*
X75621905Y-121816723D01*
X75621905Y-121816723D02*
X75574286Y-121626247D01*
X75574286Y-121626247D02*
X75574286Y-121483390D01*
X75574286Y-121483390D02*
X75621905Y-121292914D01*
X75621905Y-121292914D02*
X75669524Y-121197676D01*
X75669524Y-121197676D02*
X75764762Y-121102438D01*
X75764762Y-121102438D02*
X75907619Y-121054819D01*
X75907619Y-121054819D02*
X76002857Y-121054819D01*
X76002857Y-121054819D02*
X76145714Y-121102438D01*
X76145714Y-121102438D02*
X76193333Y-121150057D01*
X77098095Y-121054819D02*
X76621905Y-121054819D01*
X76621905Y-121054819D02*
X76574286Y-121531009D01*
X76574286Y-121531009D02*
X76621905Y-121483390D01*
X76621905Y-121483390D02*
X76717143Y-121435771D01*
X76717143Y-121435771D02*
X76955238Y-121435771D01*
X76955238Y-121435771D02*
X77050476Y-121483390D01*
X77050476Y-121483390D02*
X77098095Y-121531009D01*
X77098095Y-121531009D02*
X77145714Y-121626247D01*
X77145714Y-121626247D02*
X77145714Y-121864342D01*
X77145714Y-121864342D02*
X77098095Y-121959580D01*
X77098095Y-121959580D02*
X77050476Y-122007200D01*
X77050476Y-122007200D02*
X76955238Y-122054819D01*
X76955238Y-122054819D02*
X76717143Y-122054819D01*
X76717143Y-122054819D02*
X76621905Y-122007200D01*
X76621905Y-122007200D02*
X76574286Y-121959580D01*
X45164819Y-102569523D02*
X45879104Y-102569523D01*
X45879104Y-102569523D02*
X46021961Y-102617142D01*
X46021961Y-102617142D02*
X46117200Y-102712380D01*
X46117200Y-102712380D02*
X46164819Y-102855237D01*
X46164819Y-102855237D02*
X46164819Y-102950475D01*
X46164819Y-101569523D02*
X46164819Y-102140951D01*
X46164819Y-101855237D02*
X45164819Y-101855237D01*
X45164819Y-101855237D02*
X45307676Y-101950475D01*
X45307676Y-101950475D02*
X45402914Y-102045713D01*
X45402914Y-102045713D02*
X45450533Y-102140951D01*
X46164819Y-100617142D02*
X46164819Y-101188570D01*
X46164819Y-100902856D02*
X45164819Y-100902856D01*
X45164819Y-100902856D02*
X45307676Y-100998094D01*
X45307676Y-100998094D02*
X45402914Y-101093332D01*
X45402914Y-101093332D02*
X45450533Y-101188570D01*
X75173333Y-116934819D02*
X74840000Y-116458628D01*
X74601905Y-116934819D02*
X74601905Y-115934819D01*
X74601905Y-115934819D02*
X74982857Y-115934819D01*
X74982857Y-115934819D02*
X75078095Y-115982438D01*
X75078095Y-115982438D02*
X75125714Y-116030057D01*
X75125714Y-116030057D02*
X75173333Y-116125295D01*
X75173333Y-116125295D02*
X75173333Y-116268152D01*
X75173333Y-116268152D02*
X75125714Y-116363390D01*
X75125714Y-116363390D02*
X75078095Y-116411009D01*
X75078095Y-116411009D02*
X74982857Y-116458628D01*
X74982857Y-116458628D02*
X74601905Y-116458628D01*
X75744762Y-116363390D02*
X75649524Y-116315771D01*
X75649524Y-116315771D02*
X75601905Y-116268152D01*
X75601905Y-116268152D02*
X75554286Y-116172914D01*
X75554286Y-116172914D02*
X75554286Y-116125295D01*
X75554286Y-116125295D02*
X75601905Y-116030057D01*
X75601905Y-116030057D02*
X75649524Y-115982438D01*
X75649524Y-115982438D02*
X75744762Y-115934819D01*
X75744762Y-115934819D02*
X75935238Y-115934819D01*
X75935238Y-115934819D02*
X76030476Y-115982438D01*
X76030476Y-115982438D02*
X76078095Y-116030057D01*
X76078095Y-116030057D02*
X76125714Y-116125295D01*
X76125714Y-116125295D02*
X76125714Y-116172914D01*
X76125714Y-116172914D02*
X76078095Y-116268152D01*
X76078095Y-116268152D02*
X76030476Y-116315771D01*
X76030476Y-116315771D02*
X75935238Y-116363390D01*
X75935238Y-116363390D02*
X75744762Y-116363390D01*
X75744762Y-116363390D02*
X75649524Y-116411009D01*
X75649524Y-116411009D02*
X75601905Y-116458628D01*
X75601905Y-116458628D02*
X75554286Y-116553866D01*
X75554286Y-116553866D02*
X75554286Y-116744342D01*
X75554286Y-116744342D02*
X75601905Y-116839580D01*
X75601905Y-116839580D02*
X75649524Y-116887200D01*
X75649524Y-116887200D02*
X75744762Y-116934819D01*
X75744762Y-116934819D02*
X75935238Y-116934819D01*
X75935238Y-116934819D02*
X76030476Y-116887200D01*
X76030476Y-116887200D02*
X76078095Y-116839580D01*
X76078095Y-116839580D02*
X76125714Y-116744342D01*
X76125714Y-116744342D02*
X76125714Y-116553866D01*
X76125714Y-116553866D02*
X76078095Y-116458628D01*
X76078095Y-116458628D02*
X76030476Y-116411009D01*
X76030476Y-116411009D02*
X75935238Y-116363390D01*
D14*
X51834895Y-106163332D02*
X51453942Y-106429999D01*
X51834895Y-106620475D02*
X51034895Y-106620475D01*
X51034895Y-106620475D02*
X51034895Y-106315713D01*
X51034895Y-106315713D02*
X51072990Y-106239523D01*
X51072990Y-106239523D02*
X51111085Y-106201428D01*
X51111085Y-106201428D02*
X51187276Y-106163332D01*
X51187276Y-106163332D02*
X51301561Y-106163332D01*
X51301561Y-106163332D02*
X51377752Y-106201428D01*
X51377752Y-106201428D02*
X51415847Y-106239523D01*
X51415847Y-106239523D02*
X51453942Y-106315713D01*
X51453942Y-106315713D02*
X51453942Y-106620475D01*
X51034895Y-105896666D02*
X51034895Y-105401428D01*
X51034895Y-105401428D02*
X51339657Y-105668094D01*
X51339657Y-105668094D02*
X51339657Y-105553809D01*
X51339657Y-105553809D02*
X51377752Y-105477618D01*
X51377752Y-105477618D02*
X51415847Y-105439523D01*
X51415847Y-105439523D02*
X51492038Y-105401428D01*
X51492038Y-105401428D02*
X51682514Y-105401428D01*
X51682514Y-105401428D02*
X51758704Y-105439523D01*
X51758704Y-105439523D02*
X51796800Y-105477618D01*
X51796800Y-105477618D02*
X51834895Y-105553809D01*
X51834895Y-105553809D02*
X51834895Y-105782380D01*
X51834895Y-105782380D02*
X51796800Y-105858571D01*
X51796800Y-105858571D02*
X51758704Y-105896666D01*
D10*
X80496666Y-118394819D02*
X80496666Y-119109104D01*
X80496666Y-119109104D02*
X80449047Y-119251961D01*
X80449047Y-119251961D02*
X80353809Y-119347200D01*
X80353809Y-119347200D02*
X80210952Y-119394819D01*
X80210952Y-119394819D02*
X80115714Y-119394819D01*
X81496666Y-119394819D02*
X80925238Y-119394819D01*
X81210952Y-119394819D02*
X81210952Y-118394819D01*
X81210952Y-118394819D02*
X81115714Y-118537676D01*
X81115714Y-118537676D02*
X81020476Y-118632914D01*
X81020476Y-118632914D02*
X80925238Y-118680533D01*
X46314819Y-121991904D02*
X46314819Y-121420476D01*
X47314819Y-121706190D02*
X46314819Y-121706190D01*
X47314819Y-121087142D02*
X46314819Y-121087142D01*
X46314819Y-121087142D02*
X46314819Y-120706190D01*
X46314819Y-120706190D02*
X46362438Y-120610952D01*
X46362438Y-120610952D02*
X46410057Y-120563333D01*
X46410057Y-120563333D02*
X46505295Y-120515714D01*
X46505295Y-120515714D02*
X46648152Y-120515714D01*
X46648152Y-120515714D02*
X46743390Y-120563333D01*
X46743390Y-120563333D02*
X46791009Y-120610952D01*
X46791009Y-120610952D02*
X46838628Y-120706190D01*
X46838628Y-120706190D02*
X46838628Y-121087142D01*
X46314819Y-120182380D02*
X46314819Y-119563333D01*
X46314819Y-119563333D02*
X46695771Y-119896666D01*
X46695771Y-119896666D02*
X46695771Y-119753809D01*
X46695771Y-119753809D02*
X46743390Y-119658571D01*
X46743390Y-119658571D02*
X46791009Y-119610952D01*
X46791009Y-119610952D02*
X46886247Y-119563333D01*
X46886247Y-119563333D02*
X47124342Y-119563333D01*
X47124342Y-119563333D02*
X47219580Y-119610952D01*
X47219580Y-119610952D02*
X47267200Y-119658571D01*
X47267200Y-119658571D02*
X47314819Y-119753809D01*
X47314819Y-119753809D02*
X47314819Y-120039523D01*
X47314819Y-120039523D02*
X47267200Y-120134761D01*
X47267200Y-120134761D02*
X47219580Y-120182380D01*
X66668095Y-108694819D02*
X66668095Y-109504342D01*
X66668095Y-109504342D02*
X66715714Y-109599580D01*
X66715714Y-109599580D02*
X66763333Y-109647200D01*
X66763333Y-109647200D02*
X66858571Y-109694819D01*
X66858571Y-109694819D02*
X67049047Y-109694819D01*
X67049047Y-109694819D02*
X67144285Y-109647200D01*
X67144285Y-109647200D02*
X67191904Y-109599580D01*
X67191904Y-109599580D02*
X67239523Y-109504342D01*
X67239523Y-109504342D02*
X67239523Y-108694819D01*
X67668095Y-108790057D02*
X67715714Y-108742438D01*
X67715714Y-108742438D02*
X67810952Y-108694819D01*
X67810952Y-108694819D02*
X68049047Y-108694819D01*
X68049047Y-108694819D02*
X68144285Y-108742438D01*
X68144285Y-108742438D02*
X68191904Y-108790057D01*
X68191904Y-108790057D02*
X68239523Y-108885295D01*
X68239523Y-108885295D02*
X68239523Y-108980533D01*
X68239523Y-108980533D02*
X68191904Y-109123390D01*
X68191904Y-109123390D02*
X67620476Y-109694819D01*
X67620476Y-109694819D02*
X68239523Y-109694819D01*
X69364819Y-101853333D02*
X70079104Y-101853333D01*
X70079104Y-101853333D02*
X70221961Y-101900952D01*
X70221961Y-101900952D02*
X70317200Y-101996190D01*
X70317200Y-101996190D02*
X70364819Y-102139047D01*
X70364819Y-102139047D02*
X70364819Y-102234285D01*
X69698152Y-100948571D02*
X70364819Y-100948571D01*
X69317200Y-101186666D02*
X70031485Y-101424761D01*
X70031485Y-101424761D02*
X70031485Y-100805714D01*
X60918095Y-109744819D02*
X60918095Y-110554342D01*
X60918095Y-110554342D02*
X60965714Y-110649580D01*
X60965714Y-110649580D02*
X61013333Y-110697200D01*
X61013333Y-110697200D02*
X61108571Y-110744819D01*
X61108571Y-110744819D02*
X61299047Y-110744819D01*
X61299047Y-110744819D02*
X61394285Y-110697200D01*
X61394285Y-110697200D02*
X61441904Y-110649580D01*
X61441904Y-110649580D02*
X61489523Y-110554342D01*
X61489523Y-110554342D02*
X61489523Y-109744819D01*
X61870476Y-109744819D02*
X62489523Y-109744819D01*
X62489523Y-109744819D02*
X62156190Y-110125771D01*
X62156190Y-110125771D02*
X62299047Y-110125771D01*
X62299047Y-110125771D02*
X62394285Y-110173390D01*
X62394285Y-110173390D02*
X62441904Y-110221009D01*
X62441904Y-110221009D02*
X62489523Y-110316247D01*
X62489523Y-110316247D02*
X62489523Y-110554342D01*
X62489523Y-110554342D02*
X62441904Y-110649580D01*
X62441904Y-110649580D02*
X62394285Y-110697200D01*
X62394285Y-110697200D02*
X62299047Y-110744819D01*
X62299047Y-110744819D02*
X62013333Y-110744819D01*
X62013333Y-110744819D02*
X61918095Y-110697200D01*
X61918095Y-110697200D02*
X61870476Y-110649580D01*
D17*
%TO.C,J2*%
X89540000Y-116700000D02*
X89540000Y-113940000D01*
X84350000Y-116700000D02*
X89540000Y-116700000D01*
X84350000Y-116700000D02*
X84350000Y-113940000D01*
X84350000Y-113940000D02*
X89540000Y-113940000D01*
X83080000Y-116700000D02*
X81700000Y-116700000D01*
X81700000Y-116700000D02*
X81700000Y-115320000D01*
%TO.C,C2*%
X72153733Y-119080000D02*
X72446267Y-119080000D01*
X72153733Y-120100000D02*
X72446267Y-120100000D01*
%TO.C,J9*%
X45040000Y-106320000D02*
X43260000Y-106320000D01*
X45040000Y-115720000D02*
X43260000Y-115720000D01*
X47960000Y-108220000D02*
X47960000Y-107420000D01*
%TO.C,SW1*%
X53780000Y-100140000D02*
X53780000Y-100450000D01*
X53780000Y-100140000D02*
X62600000Y-100140000D01*
X53780000Y-104660000D02*
X53780000Y-104350000D01*
X62600000Y-100140000D02*
X62600000Y-100450000D01*
X62600000Y-104350000D02*
X62600000Y-104660000D01*
X62600000Y-104660000D02*
X53780000Y-104660000D01*
%TO.C,C1*%
X70953733Y-123180000D02*
X71246267Y-123180000D01*
X70953733Y-124200000D02*
X71246267Y-124200000D01*
%TO.C,TP2*%
X49310000Y-123550000D02*
G75*
G02*
X47410000Y-123550000I-950000J0D01*
G01*
X47410000Y-123550000D02*
G75*
G02*
X49310000Y-123550000I950000J0D01*
G01*
%TO.C,U1*%
X50480000Y-111410000D02*
X50480000Y-111110000D01*
X50480000Y-131330000D02*
X50480000Y-124830000D01*
X68700000Y-111110000D02*
X50480000Y-111110000D01*
X68700000Y-111410000D02*
X68700000Y-111110000D01*
X68700000Y-131330000D02*
X50480000Y-131330000D01*
X68700000Y-131330000D02*
X68700000Y-125520000D01*
X68690000Y-125320000D02*
X68690000Y-124820000D01*
X69190000Y-124820000D01*
X68690000Y-125320000D01*
G36*
X68690000Y-125320000D02*
G01*
X68690000Y-124820000D01*
X69190000Y-124820000D01*
X68690000Y-125320000D01*
G37*
%TO.C,U4*%
X80540000Y-123907500D02*
X79740000Y-123907500D01*
X80540000Y-123907500D02*
X81340000Y-123907500D01*
X81540000Y-120687500D02*
X79740000Y-120687500D01*
X82080000Y-124187500D02*
X81600000Y-124187500D01*
X81840000Y-123857500D01*
X82080000Y-124187500D01*
G36*
X82080000Y-124187500D02*
G01*
X81600000Y-124187500D01*
X81840000Y-123857500D01*
X82080000Y-124187500D01*
G37*
%TO.C,R7*%
X72824724Y-113667500D02*
X72315276Y-113667500D01*
X72824724Y-114712500D02*
X72315276Y-114712500D01*
%TO.C,TP1*%
X44620000Y-123700000D02*
G75*
G02*
X42720000Y-123700000I-950000J0D01*
G01*
X42720000Y-123700000D02*
G75*
G02*
X44620000Y-123700000I950000J0D01*
G01*
%TO.C,D1*%
X60982500Y-106265000D02*
X60982500Y-107735000D01*
X60982500Y-107735000D02*
X63442500Y-107735000D01*
X63442500Y-106265000D02*
X60982500Y-106265000D01*
%TO.C,R1*%
X72554724Y-120527500D02*
X72045276Y-120527500D01*
X72554724Y-121572500D02*
X72045276Y-121572500D01*
%TO.C,D2*%
X60982500Y-107935000D02*
X60982500Y-109405000D01*
X60982500Y-109405000D02*
X63442500Y-109405000D01*
X63442500Y-107935000D02*
X60982500Y-107935000D01*
%TO.C,R5*%
X49797500Y-104475276D02*
X49797500Y-104984724D01*
X50842500Y-104475276D02*
X50842500Y-104984724D01*
%TO.C,J3*%
X81700000Y-113110000D02*
X81700000Y-111730000D01*
X83080000Y-113110000D02*
X81700000Y-113110000D01*
X84350000Y-110350000D02*
X89540000Y-110350000D01*
X84350000Y-113110000D02*
X84350000Y-110350000D01*
X84350000Y-113110000D02*
X89540000Y-113110000D01*
X89540000Y-113110000D02*
X89540000Y-110350000D01*
%TO.C,C3*%
X51990000Y-109446267D02*
X51990000Y-109153733D01*
X53010000Y-109446267D02*
X53010000Y-109153733D01*
%TO.C,R2*%
X62857224Y-104977500D02*
X62347776Y-104977500D01*
X62857224Y-106022500D02*
X62347776Y-106022500D01*
%TO.C,C6*%
X71246267Y-112080000D02*
X70953733Y-112080000D01*
X71246267Y-113100000D02*
X70953733Y-113100000D01*
%TO.C,C4*%
X73590000Y-107892651D02*
X81750000Y-107892651D01*
X73590000Y-107932651D02*
X81750000Y-107932651D01*
X73591000Y-107852651D02*
X81749000Y-107852651D01*
X73592000Y-107812651D02*
X81748000Y-107812651D01*
X73593000Y-107772651D02*
X81747000Y-107772651D01*
X73595000Y-107732651D02*
X81745000Y-107732651D01*
X73597000Y-107692651D02*
X81743000Y-107692651D01*
X73600000Y-107652651D02*
X81740000Y-107652651D01*
X73602000Y-107612651D02*
X81738000Y-107612651D01*
X73606000Y-107572651D02*
X81734000Y-107572651D01*
X73609000Y-107532651D02*
X81731000Y-107532651D01*
X73614000Y-107492651D02*
X81726000Y-107492651D01*
X73618000Y-107452651D02*
X81722000Y-107452651D01*
X73623000Y-107412651D02*
X81717000Y-107412651D01*
X73628000Y-107372651D02*
X81712000Y-107372651D01*
X73634000Y-107332651D02*
X81706000Y-107332651D01*
X73640000Y-107292651D02*
X81700000Y-107292651D01*
X73647000Y-107252651D02*
X81693000Y-107252651D01*
X73653000Y-107212651D02*
X76630000Y-107212651D01*
X73661000Y-107172651D02*
X76630000Y-107172651D01*
X73668000Y-107132651D02*
X76630000Y-107132651D01*
X73677000Y-107092651D02*
X76630000Y-107092651D01*
X73685000Y-107052651D02*
X76630000Y-107052651D01*
X73694000Y-107012651D02*
X76630000Y-107012651D01*
X73703000Y-106972651D02*
X76630000Y-106972651D01*
X73713000Y-106932651D02*
X76630000Y-106932651D01*
X73723000Y-106892651D02*
X76630000Y-106892651D01*
X73734000Y-106852651D02*
X76630000Y-106852651D01*
X73745000Y-106812651D02*
X76630000Y-106812651D01*
X73757000Y-106772651D02*
X76630000Y-106772651D01*
X73769000Y-106732651D02*
X76630000Y-106732651D01*
X73781000Y-106692651D02*
X76630000Y-106692651D01*
X73794000Y-106652651D02*
X76630000Y-106652651D01*
X73807000Y-106612651D02*
X76630000Y-106612651D01*
X73821000Y-106572651D02*
X76630000Y-106572651D01*
X73835000Y-106532651D02*
X76630000Y-106532651D01*
X73850000Y-106492651D02*
X76630000Y-106492651D01*
X73865000Y-106452651D02*
X76630000Y-106452651D01*
X73881000Y-106412651D02*
X76630000Y-106412651D01*
X73897000Y-106372651D02*
X76630000Y-106372651D01*
X73913000Y-106332651D02*
X76630000Y-106332651D01*
X73930000Y-106292651D02*
X76630000Y-106292651D01*
X73948000Y-106252651D02*
X76630000Y-106252651D01*
X73966000Y-106212651D02*
X76630000Y-106212651D01*
X73985000Y-106172651D02*
X76630000Y-106172651D01*
X74004000Y-106132651D02*
X76630000Y-106132651D01*
X74024000Y-106092651D02*
X76630000Y-106092651D01*
X74044000Y-106052651D02*
X76630000Y-106052651D01*
X74065000Y-106012651D02*
X76630000Y-106012651D01*
X74086000Y-105972651D02*
X76630000Y-105972651D01*
X74108000Y-105932651D02*
X76630000Y-105932651D01*
X74131000Y-105892651D02*
X76630000Y-105892651D01*
X74154000Y-105852651D02*
X76630000Y-105852651D01*
X74177000Y-105812651D02*
X76630000Y-105812651D01*
X74202000Y-105772651D02*
X76630000Y-105772651D01*
X74227000Y-105732651D02*
X76630000Y-105732651D01*
X74252000Y-105692651D02*
X76630000Y-105692651D01*
X74278000Y-105652651D02*
X76630000Y-105652651D01*
X74305000Y-105612651D02*
X76630000Y-105612651D01*
X74333000Y-105572651D02*
X76630000Y-105572651D01*
X74361000Y-105532651D02*
X76630000Y-105532651D01*
X74390000Y-105492651D02*
X76630000Y-105492651D01*
X74420000Y-105452651D02*
X76630000Y-105452651D01*
X74451000Y-105412651D02*
X76630000Y-105412651D01*
X74482000Y-105372651D02*
X76630000Y-105372651D01*
X74514000Y-105332651D02*
X76630000Y-105332651D01*
X74547000Y-105292651D02*
X76630000Y-105292651D01*
X74581000Y-105252651D02*
X76630000Y-105252651D01*
X74615000Y-105212651D02*
X76630000Y-105212651D01*
X74651000Y-105172651D02*
X76630000Y-105172651D01*
X74688000Y-105132651D02*
X80652000Y-105132651D01*
X74725000Y-105092651D02*
X80615000Y-105092651D01*
X74764000Y-105052651D02*
X80576000Y-105052651D01*
X74803000Y-105012651D02*
X80537000Y-105012651D01*
X74844000Y-104972651D02*
X80496000Y-104972651D01*
X74886000Y-104932651D02*
X80454000Y-104932651D01*
X74929000Y-104892651D02*
X80411000Y-104892651D01*
X74955000Y-111942349D02*
X75755000Y-111942349D01*
X74974000Y-104852651D02*
X80366000Y-104852651D01*
X75019000Y-104812651D02*
X80321000Y-104812651D01*
X75066000Y-104772651D02*
X80274000Y-104772651D01*
X75115000Y-104732651D02*
X80225000Y-104732651D01*
X75165000Y-104692651D02*
X80175000Y-104692651D01*
X75217000Y-104652651D02*
X80123000Y-104652651D01*
X75270000Y-104612651D02*
X80070000Y-104612651D01*
X75326000Y-104572651D02*
X80014000Y-104572651D01*
X75355000Y-112342349D02*
X75355000Y-111542349D01*
X75383000Y-104532651D02*
X79957000Y-104532651D01*
X75443000Y-104492651D02*
X79897000Y-104492651D01*
X75505000Y-104452651D02*
X79835000Y-104452651D01*
X75569000Y-104412651D02*
X79771000Y-104412651D01*
X75636000Y-104372651D02*
X79704000Y-104372651D01*
X75706000Y-104332651D02*
X79634000Y-104332651D01*
X75780000Y-104292651D02*
X79560000Y-104292651D01*
X75857000Y-104252651D02*
X79483000Y-104252651D01*
X75939000Y-104212651D02*
X79401000Y-104212651D01*
X76026000Y-104172651D02*
X79314000Y-104172651D01*
X76118000Y-104132651D02*
X79222000Y-104132651D01*
X76217000Y-104092651D02*
X79123000Y-104092651D01*
X76324000Y-104052651D02*
X79016000Y-104052651D01*
X76442000Y-104012651D02*
X78898000Y-104012651D01*
X76573000Y-103972651D02*
X78767000Y-103972651D01*
X76723000Y-103932651D02*
X78617000Y-103932651D01*
X76902000Y-103892651D02*
X78438000Y-103892651D01*
X77137000Y-103852651D02*
X78203000Y-103852651D01*
X78710000Y-105172651D02*
X80689000Y-105172651D01*
X78710000Y-105212651D02*
X80725000Y-105212651D01*
X78710000Y-105252651D02*
X80759000Y-105252651D01*
X78710000Y-105292651D02*
X80793000Y-105292651D01*
X78710000Y-105332651D02*
X80826000Y-105332651D01*
X78710000Y-105372651D02*
X80858000Y-105372651D01*
X78710000Y-105412651D02*
X80889000Y-105412651D01*
X78710000Y-105452651D02*
X80920000Y-105452651D01*
X78710000Y-105492651D02*
X80950000Y-105492651D01*
X78710000Y-105532651D02*
X80979000Y-105532651D01*
X78710000Y-105572651D02*
X81007000Y-105572651D01*
X78710000Y-105612651D02*
X81035000Y-105612651D01*
X78710000Y-105652651D02*
X81062000Y-105652651D01*
X78710000Y-105692651D02*
X81088000Y-105692651D01*
X78710000Y-105732651D02*
X81113000Y-105732651D01*
X78710000Y-105772651D02*
X81138000Y-105772651D01*
X78710000Y-105812651D02*
X81163000Y-105812651D01*
X78710000Y-105852651D02*
X81186000Y-105852651D01*
X78710000Y-105892651D02*
X81209000Y-105892651D01*
X78710000Y-105932651D02*
X81232000Y-105932651D01*
X78710000Y-105972651D02*
X81254000Y-105972651D01*
X78710000Y-106012651D02*
X81275000Y-106012651D01*
X78710000Y-106052651D02*
X81296000Y-106052651D01*
X78710000Y-106092651D02*
X81316000Y-106092651D01*
X78710000Y-106132651D02*
X81336000Y-106132651D01*
X78710000Y-106172651D02*
X81355000Y-106172651D01*
X78710000Y-106212651D02*
X81374000Y-106212651D01*
X78710000Y-106252651D02*
X81392000Y-106252651D01*
X78710000Y-106292651D02*
X81410000Y-106292651D01*
X78710000Y-106332651D02*
X81427000Y-106332651D01*
X78710000Y-106372651D02*
X81443000Y-106372651D01*
X78710000Y-106412651D02*
X81459000Y-106412651D01*
X78710000Y-106452651D02*
X81475000Y-106452651D01*
X78710000Y-106492651D02*
X81490000Y-106492651D01*
X78710000Y-106532651D02*
X81505000Y-106532651D01*
X78710000Y-106572651D02*
X81519000Y-106572651D01*
X78710000Y-106612651D02*
X81533000Y-106612651D01*
X78710000Y-106652651D02*
X81546000Y-106652651D01*
X78710000Y-106692651D02*
X81559000Y-106692651D01*
X78710000Y-106732651D02*
X81571000Y-106732651D01*
X78710000Y-106772651D02*
X81583000Y-106772651D01*
X78710000Y-106812651D02*
X81595000Y-106812651D01*
X78710000Y-106852651D02*
X81606000Y-106852651D01*
X78710000Y-106892651D02*
X81617000Y-106892651D01*
X78710000Y-106932651D02*
X81627000Y-106932651D01*
X78710000Y-106972651D02*
X81637000Y-106972651D01*
X78710000Y-107012651D02*
X81646000Y-107012651D01*
X78710000Y-107052651D02*
X81655000Y-107052651D01*
X78710000Y-107092651D02*
X81663000Y-107092651D01*
X78710000Y-107132651D02*
X81672000Y-107132651D01*
X78710000Y-107172651D02*
X81679000Y-107172651D01*
X78710000Y-107212651D02*
X81687000Y-107212651D01*
X81790000Y-107932651D02*
G75*
G02*
X73550000Y-107932651I-4120000J0D01*
G01*
X73550000Y-107932651D02*
G75*
G02*
X81790000Y-107932651I4120000J0D01*
G01*
%TO.C,C7*%
X84763733Y-120790000D02*
X85056267Y-120790000D01*
X84763733Y-121810000D02*
X85056267Y-121810000D01*
%TO.C,R6*%
X49767500Y-108985276D02*
X49767500Y-109494724D01*
X50812500Y-108985276D02*
X50812500Y-109494724D01*
%TO.C,R4*%
X47987500Y-118664724D02*
X47987500Y-118155276D01*
X49032500Y-118664724D02*
X49032500Y-118155276D01*
%TO.C,C5*%
X76646267Y-122460000D02*
X76353733Y-122460000D01*
X76646267Y-123480000D02*
X76353733Y-123480000D01*
%TO.C,J11*%
X40790000Y-102930000D02*
X40790000Y-100280000D01*
X43550000Y-100280000D02*
X40790000Y-100280000D01*
X43550000Y-102930000D02*
X40790000Y-102930000D01*
X43550000Y-102930000D02*
X43550000Y-100280000D01*
X43550000Y-104200000D02*
X43550000Y-105580000D01*
X43550000Y-105580000D02*
X42170000Y-105580000D01*
%TO.C,R8*%
X72824724Y-115147500D02*
X72315276Y-115147500D01*
X72824724Y-116192500D02*
X72315276Y-116192500D01*
%TO.C,R3*%
X51987500Y-105795276D02*
X51987500Y-106304724D01*
X53032500Y-105795276D02*
X53032500Y-106304724D01*
%TO.C,J1*%
X81700000Y-120260000D02*
X81700000Y-118880000D01*
X83080000Y-120260000D02*
X81700000Y-120260000D01*
X84350000Y-117500000D02*
X89540000Y-117500000D01*
X84350000Y-120260000D02*
X84350000Y-117500000D01*
X84350000Y-120260000D02*
X89540000Y-120260000D01*
X89540000Y-120260000D02*
X89540000Y-117500000D01*
%TO.C,TP3*%
X49480000Y-121280000D02*
G75*
G02*
X47580000Y-121280000I-950000J0D01*
G01*
X47580000Y-121280000D02*
G75*
G02*
X49480000Y-121280000I950000J0D01*
G01*
%TO.C,U2*%
X68570000Y-107885000D02*
X68570000Y-108060000D01*
X68570000Y-110605000D02*
X68570000Y-110430000D01*
X69245000Y-107885000D02*
X68570000Y-107885000D01*
X69245000Y-110605000D02*
X68570000Y-110605000D01*
X71115000Y-107885000D02*
X71790000Y-107885000D01*
X71115000Y-110605000D02*
X71490000Y-110605000D01*
X71790000Y-107885000D02*
X71790000Y-108060000D01*
X71930000Y-110795000D02*
X71650000Y-110795000D01*
X71790000Y-110605000D01*
X71930000Y-110795000D01*
G36*
X71930000Y-110795000D02*
G01*
X71650000Y-110795000D01*
X71790000Y-110605000D01*
X71930000Y-110795000D01*
G37*
%TO.C,J4*%
X64690000Y-102960000D02*
X64690000Y-100310000D01*
X67450000Y-100310000D02*
X64690000Y-100310000D01*
X67450000Y-102960000D02*
X64690000Y-102960000D01*
X67450000Y-102960000D02*
X67450000Y-100310000D01*
X67450000Y-104230000D02*
X67450000Y-105610000D01*
X67450000Y-105610000D02*
X66070000Y-105610000D01*
%TO.C,U3*%
X57070000Y-105450000D02*
X55120000Y-105450000D01*
X57070000Y-105450000D02*
X59020000Y-105450000D01*
X57070000Y-110570000D02*
X55120000Y-110570000D01*
X57070000Y-110570000D02*
X59020000Y-110570000D01*
X54370000Y-105545000D02*
X54130000Y-105215000D01*
X54610000Y-105215000D01*
X54370000Y-105545000D01*
G36*
X54370000Y-105545000D02*
G01*
X54130000Y-105215000D01*
X54610000Y-105215000D01*
X54370000Y-105545000D01*
G37*
%TD*%
%LPC*%
D18*
%TO.C,J2*%
X88160000Y-115320000D03*
X85620000Y-115320000D03*
D19*
X83080000Y-115320000D03*
%TD*%
D20*
%TO.C,C2*%
X71437500Y-119590000D03*
X73162500Y-119590000D03*
%TD*%
D21*
%TO.C,J9*%
X45865000Y-108130000D03*
X45865000Y-113910000D03*
D22*
X47005000Y-107820000D03*
X47005000Y-108620000D03*
D23*
X47005000Y-109770000D03*
X47005000Y-110770000D03*
X47005000Y-111270000D03*
X47005000Y-112270000D03*
D22*
X47005000Y-114220000D03*
X47005000Y-113420000D03*
D23*
X47005000Y-112770000D03*
X47005000Y-111770000D03*
X47005000Y-110270000D03*
X47005000Y-109270000D03*
D24*
X46365000Y-106700000D03*
D25*
X42185000Y-106700000D03*
D24*
X46365000Y-115340000D03*
D25*
X42185000Y-115340000D03*
%TD*%
D26*
%TO.C,SW1*%
X60190000Y-102400000D03*
D27*
X58190000Y-102400000D03*
X56190000Y-102400000D03*
D28*
X62365000Y-102375000D03*
D29*
X54040000Y-102325000D03*
%TD*%
D20*
%TO.C,C1*%
X70237500Y-123690000D03*
X71962500Y-123690000D03*
%TD*%
D30*
%TO.C,TP2*%
X48360000Y-123550000D03*
%TD*%
D31*
%TO.C,U1*%
X68340000Y-124120000D03*
X68340000Y-122620000D03*
X68340000Y-121120000D03*
X68340000Y-119620000D03*
X68340000Y-118120000D03*
X68340000Y-116620000D03*
X68340000Y-115120000D03*
X68340000Y-113620000D03*
X68340000Y-112120000D03*
X50840000Y-112120000D03*
X50840000Y-113620000D03*
X50840000Y-115120000D03*
X50840000Y-116620000D03*
X50840000Y-118120000D03*
X50840000Y-119620000D03*
X50840000Y-121120000D03*
X50840000Y-122620000D03*
X50840000Y-124120000D03*
D32*
X59730000Y-118470000D03*
X59730000Y-117370000D03*
X59180000Y-119020000D03*
X59180000Y-117920000D03*
X59180000Y-116820000D03*
X58630000Y-118470000D03*
D33*
X58630000Y-117920000D03*
D32*
X58630000Y-117370000D03*
X58080000Y-119020000D03*
X58080000Y-117920000D03*
X58080000Y-116820000D03*
X57530000Y-118470000D03*
X57530000Y-117370000D03*
%TD*%
D34*
%TO.C,U4*%
X81990000Y-123247500D03*
X81990000Y-122297500D03*
X81990000Y-121347500D03*
X79290000Y-121347500D03*
X79290000Y-123247500D03*
%TD*%
D35*
%TO.C,R7*%
X73482500Y-114190000D03*
X71657500Y-114190000D03*
%TD*%
D30*
%TO.C,TP1*%
X43670000Y-123700000D03*
%TD*%
D36*
%TO.C,D1*%
X61767500Y-107000000D03*
X63517500Y-107000000D03*
%TD*%
D35*
%TO.C,R1*%
X73212500Y-121050000D03*
X71387500Y-121050000D03*
%TD*%
D36*
%TO.C,D2*%
X61767500Y-108670000D03*
X63517500Y-108670000D03*
%TD*%
D37*
%TO.C,R5*%
X50320000Y-103817500D03*
X50320000Y-105642500D03*
%TD*%
D19*
%TO.C,J3*%
X83080000Y-111730000D03*
D18*
X85620000Y-111730000D03*
X88160000Y-111730000D03*
%TD*%
D38*
%TO.C,C3*%
X52500000Y-110162500D03*
X52500000Y-108437500D03*
%TD*%
D39*
%TO.C,*%
X47730000Y-103780000D03*
%TD*%
D35*
%TO.C,R2*%
X63515000Y-105500000D03*
X61690000Y-105500000D03*
%TD*%
D40*
%TO.C,H1*%
X43000000Y-119500000D03*
D41*
X43000000Y-119500000D03*
%TD*%
D42*
%TO.C,C6*%
X71962500Y-112590000D03*
X70237500Y-112590000D03*
%TD*%
D43*
%TO.C,C4*%
X77670000Y-109682651D03*
D44*
X77670000Y-106182651D03*
%TD*%
D20*
%TO.C,C7*%
X84047500Y-121300000D03*
X85772500Y-121300000D03*
%TD*%
D37*
%TO.C,R6*%
X50290000Y-108327500D03*
X50290000Y-110152500D03*
%TD*%
D45*
%TO.C,R4*%
X48510000Y-119322500D03*
X48510000Y-117497500D03*
%TD*%
D42*
%TO.C,C5*%
X77362500Y-122970000D03*
X75637500Y-122970000D03*
%TD*%
D46*
%TO.C,J11*%
X42170000Y-104200000D03*
D47*
X42170000Y-101660000D03*
%TD*%
D35*
%TO.C,R8*%
X73482500Y-115670000D03*
X71657500Y-115670000D03*
%TD*%
D37*
%TO.C,R3*%
X52510000Y-105137500D03*
X52510000Y-106962500D03*
%TD*%
D19*
%TO.C,J1*%
X83080000Y-118880000D03*
D18*
X85620000Y-118880000D03*
X88160000Y-118880000D03*
%TD*%
D30*
%TO.C,TP3*%
X48530000Y-121280000D03*
%TD*%
D48*
%TO.C,U2*%
X71405000Y-109995000D03*
X71405000Y-109495000D03*
X71405000Y-108995000D03*
X71405000Y-108495000D03*
D49*
X70680000Y-108270000D03*
X70180000Y-108270000D03*
X69680000Y-108270000D03*
D48*
X68955000Y-108495000D03*
X68955000Y-108995000D03*
X68955000Y-109495000D03*
X68955000Y-109995000D03*
D49*
X69680000Y-110220000D03*
X70180000Y-110220000D03*
X70680000Y-110220000D03*
%TD*%
D40*
%TO.C,H2*%
X87000000Y-105500000D03*
D41*
X87000000Y-105500000D03*
%TD*%
D39*
%TO.C,REF\u002A\u002A*%
X71680000Y-103750000D03*
%TD*%
D46*
%TO.C,J4*%
X66070000Y-104230000D03*
D47*
X66070000Y-101690000D03*
%TD*%
D50*
%TO.C,U3*%
X54595000Y-106105000D03*
X54595000Y-107375000D03*
X54595000Y-108645000D03*
X54595000Y-109915000D03*
X59545000Y-109915000D03*
X59545000Y-108645000D03*
X59545000Y-107375000D03*
X59545000Y-106105000D03*
D51*
X57070000Y-108010000D03*
%TD*%
%LPD*%
M02*
