%TF.GenerationSoftware,KiCad,Pcbnew,9.0.6*%
%TF.CreationDate,2025-12-07T19:06:17+09:00*%
%TF.ProjectId,ROBOBIKE05_PCBA,524f424f-4249-44b4-9530-355f50434241,20250802*%
%TF.SameCoordinates,Original*%
%TF.FileFunction,Soldermask,Top*%
%TF.FilePolarity,Negative*%
%FSLAX46Y46*%
G04 Gerber Fmt 4.6, Leading zero omitted, Abs format (unit mm)*
G04 Created by KiCad (PCBNEW 9.0.6) date 2025-12-07 19:06:17*
%MOMM*%
%LPD*%
G01*
G04 APERTURE LIST*
G04 Aperture macros list*
%AMRoundRect*
0 Rectangle with rounded corners*
0 $1 Rounding radius*
0 $2 $3 $4 $5 $6 $7 $8 $9 X,Y pos of 4 corners*
0 Add a 4 corners polygon primitive as box body*
4,1,4,$2,$3,$4,$5,$6,$7,$8,$9,$2,$3,0*
0 Add four circle primitives for the rounded corners*
1,1,$1+$1,$2,$3*
1,1,$1+$1,$4,$5*
1,1,$1+$1,$6,$7*
1,1,$1+$1,$8,$9*
0 Add four rect primitives between the rounded corners*
20,1,$1+$1,$2,$3,$4,$5,0*
20,1,$1+$1,$4,$5,$6,$7,0*
20,1,$1+$1,$6,$7,$8,$9,0*
20,1,$1+$1,$8,$9,$2,$3,0*%
G04 Aperture macros list end*
%ADD10C,1.700000*%
%ADD11R,1.700000X1.700000*%
%ADD12RoundRect,0.237500X-0.300000X-0.237500X0.300000X-0.237500X0.300000X0.237500X-0.300000X0.237500X0*%
%ADD13RoundRect,0.150000X-0.500000X0.150000X-0.500000X-0.150000X0.500000X-0.150000X0.500000X0.150000X0*%
%ADD14RoundRect,0.075000X-0.575000X0.075000X-0.575000X-0.075000X0.575000X-0.075000X0.575000X0.075000X0*%
%ADD15O,2.100000X1.000000*%
%ADD16O,1.600000X1.000000*%
%ADD17R,1.500000X2.500000*%
%ADD18O,1.500000X2.500000*%
%ADD19O,2.050000X3.450000*%
%ADD20O,2.100000X3.350000*%
%ADD21C,1.500000*%
%ADD22R,1.500000X0.900000*%
%ADD23C,0.600000*%
%ADD24R,2.900000X2.900000*%
%ADD25RoundRect,0.162500X0.617500X0.162500X-0.617500X0.162500X-0.617500X-0.162500X0.617500X-0.162500X0*%
%ADD26RoundRect,0.237500X0.250000X0.237500X-0.250000X0.237500X-0.250000X-0.237500X0.250000X-0.237500X0*%
%ADD27RoundRect,0.237500X-0.287500X-0.237500X0.287500X-0.237500X0.287500X0.237500X-0.287500X0.237500X0*%
%ADD28RoundRect,0.237500X-0.237500X0.250000X-0.237500X-0.250000X0.237500X-0.250000X0.237500X0.250000X0*%
%ADD29RoundRect,0.237500X0.237500X-0.300000X0.237500X0.300000X-0.237500X0.300000X-0.237500X-0.300000X0*%
%ADD30C,3.600000*%
%ADD31C,5.500000*%
%ADD32RoundRect,0.237500X0.300000X0.237500X-0.300000X0.237500X-0.300000X-0.237500X0.300000X-0.237500X0*%
%ADD33RoundRect,0.250000X0.550000X-0.550000X0.550000X0.550000X-0.550000X0.550000X-0.550000X-0.550000X0*%
%ADD34C,1.600000*%
%ADD35RoundRect,0.237500X0.237500X-0.250000X0.237500X0.250000X-0.237500X0.250000X-0.237500X-0.250000X0*%
%ADD36R,2.200000X1.700000*%
%ADD37O,2.500000X1.700000*%
%ADD38RoundRect,0.087500X0.187500X0.087500X-0.187500X0.087500X-0.187500X-0.087500X0.187500X-0.087500X0*%
%ADD39RoundRect,0.087500X0.087500X0.187500X-0.087500X0.187500X-0.087500X-0.187500X0.087500X-0.187500X0*%
%ADD40RoundRect,0.150000X-0.825000X-0.150000X0.825000X-0.150000X0.825000X0.150000X-0.825000X0.150000X0*%
%ADD41R,2.290000X3.000000*%
G04 APERTURE END LIST*
D10*
%TO.C,J2*%
X88160000Y-115320000D03*
X85620000Y-115320000D03*
D11*
X83080000Y-115320000D03*
%TD*%
D12*
%TO.C,C2*%
X71437500Y-119590000D03*
X73162500Y-119590000D03*
%TD*%
D13*
%TO.C,J9*%
X47005000Y-107820000D03*
X47005000Y-108620000D03*
D14*
X47005000Y-109770000D03*
X47005000Y-110770000D03*
X47005000Y-111270000D03*
X47005000Y-112270000D03*
D13*
X47005000Y-114220000D03*
X47005000Y-113420000D03*
D14*
X47005000Y-112770000D03*
X47005000Y-111770000D03*
X47005000Y-110270000D03*
X47005000Y-109270000D03*
D15*
X46365000Y-106700000D03*
D16*
X42185000Y-106700000D03*
D15*
X46365000Y-115340000D03*
D16*
X42185000Y-115340000D03*
%TD*%
D17*
%TO.C,SW1*%
X60190000Y-102400000D03*
D18*
X58190000Y-102400000D03*
X56190000Y-102400000D03*
D19*
X62365000Y-102375000D03*
D20*
X54040000Y-102325000D03*
%TD*%
D12*
%TO.C,C1*%
X70237500Y-123690000D03*
X71962500Y-123690000D03*
%TD*%
D21*
%TO.C,TP2*%
X48360000Y-123550000D03*
%TD*%
D22*
%TO.C,U1*%
X68340000Y-124120000D03*
X68340000Y-122620000D03*
X68340000Y-121120000D03*
X68340000Y-119620000D03*
X68340000Y-118120000D03*
X68340000Y-116620000D03*
X68340000Y-115120000D03*
X68340000Y-113620000D03*
X68340000Y-112120000D03*
X50840000Y-112120000D03*
X50840000Y-113620000D03*
X50840000Y-115120000D03*
X50840000Y-116620000D03*
X50840000Y-118120000D03*
X50840000Y-119620000D03*
X50840000Y-121120000D03*
X50840000Y-122620000D03*
X50840000Y-124120000D03*
D23*
X59730000Y-118470000D03*
X59730000Y-117370000D03*
X59180000Y-119020000D03*
X59180000Y-117920000D03*
X59180000Y-116820000D03*
X58630000Y-118470000D03*
D24*
X58630000Y-117920000D03*
D23*
X58630000Y-117370000D03*
X58080000Y-119020000D03*
X58080000Y-117920000D03*
X58080000Y-116820000D03*
X57530000Y-118470000D03*
X57530000Y-117370000D03*
%TD*%
D25*
%TO.C,U4*%
X81990000Y-123247500D03*
X81990000Y-122297500D03*
X81990000Y-121347500D03*
X79290000Y-121347500D03*
X79290000Y-123247500D03*
%TD*%
D26*
%TO.C,R7*%
X73482500Y-114190000D03*
X71657500Y-114190000D03*
%TD*%
D21*
%TO.C,TP1*%
X43670000Y-123700000D03*
%TD*%
D27*
%TO.C,D1*%
X61767500Y-107000000D03*
X63517500Y-107000000D03*
%TD*%
D26*
%TO.C,R1*%
X73212500Y-121050000D03*
X71387500Y-121050000D03*
%TD*%
D27*
%TO.C,D2*%
X61767500Y-108670000D03*
X63517500Y-108670000D03*
%TD*%
D28*
%TO.C,R5*%
X50320000Y-103817500D03*
X50320000Y-105642500D03*
%TD*%
D11*
%TO.C,J3*%
X83080000Y-111730000D03*
D10*
X85620000Y-111730000D03*
X88160000Y-111730000D03*
%TD*%
D29*
%TO.C,C3*%
X52500000Y-110162500D03*
X52500000Y-108437500D03*
%TD*%
D26*
%TO.C,R2*%
X63515000Y-105500000D03*
X61690000Y-105500000D03*
%TD*%
D30*
%TO.C,H1*%
X43000000Y-119500000D03*
D31*
X43000000Y-119500000D03*
%TD*%
D32*
%TO.C,C6*%
X71962500Y-112590000D03*
X70237500Y-112590000D03*
%TD*%
D33*
%TO.C,C4*%
X77670000Y-109682651D03*
D34*
X77670000Y-106182651D03*
%TD*%
D12*
%TO.C,C7*%
X84047500Y-121300000D03*
X85772500Y-121300000D03*
%TD*%
D28*
%TO.C,R6*%
X50290000Y-108327500D03*
X50290000Y-110152500D03*
%TD*%
D35*
%TO.C,R4*%
X48510000Y-119322500D03*
X48510000Y-117497500D03*
%TD*%
D32*
%TO.C,C5*%
X77362500Y-122970000D03*
X75637500Y-122970000D03*
%TD*%
D36*
%TO.C,J11*%
X42170000Y-104200000D03*
D37*
X42170000Y-101660000D03*
%TD*%
D26*
%TO.C,R8*%
X73482500Y-115670000D03*
X71657500Y-115670000D03*
%TD*%
D28*
%TO.C,R3*%
X52510000Y-105137500D03*
X52510000Y-106962500D03*
%TD*%
D11*
%TO.C,J1*%
X83080000Y-118880000D03*
D10*
X85620000Y-118880000D03*
X88160000Y-118880000D03*
%TD*%
D21*
%TO.C,TP3*%
X48530000Y-121280000D03*
%TD*%
D38*
%TO.C,U2*%
X71405000Y-109995000D03*
X71405000Y-109495000D03*
X71405000Y-108995000D03*
X71405000Y-108495000D03*
D39*
X70680000Y-108270000D03*
X70180000Y-108270000D03*
X69680000Y-108270000D03*
D38*
X68955000Y-108495000D03*
X68955000Y-108995000D03*
X68955000Y-109495000D03*
X68955000Y-109995000D03*
D39*
X69680000Y-110220000D03*
X70180000Y-110220000D03*
X70680000Y-110220000D03*
%TD*%
D30*
%TO.C,H2*%
X87000000Y-105500000D03*
D31*
X87000000Y-105500000D03*
%TD*%
D36*
%TO.C,J4*%
X66070000Y-104230000D03*
D37*
X66070000Y-101690000D03*
%TD*%
D40*
%TO.C,U3*%
X54595000Y-106105000D03*
X54595000Y-107375000D03*
X54595000Y-108645000D03*
X54595000Y-109915000D03*
X59545000Y-109915000D03*
X59545000Y-108645000D03*
X59545000Y-107375000D03*
X59545000Y-106105000D03*
D41*
X57070000Y-108010000D03*
%TD*%
M02*
