999
dxfrw 0.6.3
  0
SECTION
  2
HEADER
  9
$ACADVER
  1
AC1021
  9
$DWGCODEPAGE
  3
ANSI_1252
  9
$INSBASE
 10
0
 20
0
 30
0
  9
$EXTMIN
 10
-13.00855771119702
 20
147.9660787654933
 30
0
  9
$EXTMAX
 10
180
 20
302.5475323664863
 30
0
  9
$LIMMIN
 10
0
 20
0
  9
$LIMMAX
 10
420
 20
297
  9
$ORTHOMODE
 70
    0
  9
$REGENMODE
 70
    1
  9
$FILLMODE
 70
    1
  9
$QTEXTMODE
 70
    0
  9
$MIRRTEXT
 70
    0
  9
$LTSCALE
 40
0.25
  9
$ATTMODE
 70
    1
  9
$TEXTSIZE
 40
0.2
  9
$TRACEWID
 40
0.05
  9
$TEXTSTYLE
  7
STANDARD
  9
$CLAYER
  8
OUTER
  9
$CELTYPE
  6
BYLAYER
  9
$CECOLOR
 62
  256
  9
$CELTSCALE
 40
1
  9
$DISPSILH
 70
    0
  9
$DIMSCALE
 40
1
  9
$DIMASZ
 40
1
  9
$DIMEXO
 40
0
  9
$DIMDLI
 40
0.5
  9
$DIMRND
 40
0
  9
$DIMDLE
 40
0
  9
$DIMEXE
 40
0
  9
$DIMTP
 40
0
  9
$DIMTM
 40
0
  9
$DIMTXT
 40
4
  9
$DIMCEN
 40
0
  9
$DIMTSZ
 40
0
  9
$DIMTOL
 70
    0
  9
$DIMLIM
 70
    0
  9
$DIMTIH
 70
    0
  9
$DIMTOH
 70
    1
  9
$DIMSE1
 70
    0
  9
$DIMSE2
 70
    0
  9
$DIMTAD
 70
    0
  9
$DIMZIN
 70
   12
  9
$DIMBLK
  1

  9
$DIMASO
 70
    0
  9
$DIMSHO
 70
    0
  9
$DIMPOST
  1

  9
$DIMAPOST
  1

  9
$DIMALT
 70
    0
  9
$DIMALTD
 70
    0
  9
$DIMALTF
 40
25.4
  9
$DIMLFAC
 40
1
  9
$DIMTOFL
 70
    0
  9
$DIMTVP
 40
0
  9
$DIMTIX
 70
    0
  9
$DIMSOXD
 70
    0
  9
$DIMSAH
 70
    0
  9
$DIMBLK1
  1

  9
$DIMBLK2
  1

  9
$DIMSTYLE
  2
STANDARD
  9
$DIMCLRD
 70
    0
  9
$DIMCLRE
 70
  256
  9
$DIMCLRT
 70
    0
  9
$DIMTFAC
 40
1
  9
$DIMGAP
 40
0.625
  9
$DIMJUST
 70
    0
  9
$DIMSD1
 70
    0
  9
$DIMSD2
 70
    0
  9
$DIMTOLJ
 70
    0
  9
$DIMTZIN
 70
    8
  9
$DIMALTZ
 70
    0
  9
$DIMALTTZ
 70
    0
  9
$DIMUPT
 70
    0
  9
$DIMDEC
 70
    1
  9
$DIMTDEC
 70
    2
  9
$DIMALTU
 70
    2
  9
$DIMALTTD
 70
    3
  9
$DIMTXSTY
  7
standard
  9
$DIMAUNIT
 70
    0
  9
$DIMADEC
 70
    0
  9
$DIMALTRND
 40
0
  9
$DIMAZIN
 70
    0
  9
$DIMDSEP
 70
    0
  9
$DIMATFIT
 70
    3
  9
$DIMFRAC
 70
    0
  9
$DIMLDRBLK
  1
STANDARD
  9
$DIMLUNIT
 70
    2
  9
$DIMLWD
 70
   -2
  9
$DIMLWE
 70
   -2
  9
$DIMTMOVE
 70
    0
  9
$DIMFXL
 40
0
  9
$DIMFXLON
 70
    0
  9
$DIMJOGANG
 40
0.7854
  9
$DIMTFILL
 70
    0
  9
$DIMTFILLCLR
 70
    0
  9
$DIMARCSYM
 70
    0
  9
$DIMLTYPE
  6

  9
$DIMLTEX1
  6

  9
$DIMLTEX2
  6

  9
$LUNITS
 70
    2
  9
$LUPREC
 70
    2
  9
$SKETCHINC
 40
0
  9
$FILLETRAD
 40
0
  9
$AUNITS
 70
    1
  9
$AUPREC
 70
    2
  9
$MENU
  1
ACAD
  9
$ELEVATION
 40
0
  9
$PELEVATION
 40
0
  9
$THICKNESS
 40
0
  9
$LIMCHECK
 70
    1
  9
$CHAMFERA
 40
0
  9
$CHAMFERB
 40
0
  9
$CHAMFERC
 40
0
  9
$CHAMFERD
 40
0
  9
$SKPOLY
 70
    0
  9
$USRTIMER
 70
    1
  9
$ANGBASE
 50
0
  9
$ANGDIR
 70
    0
  9
$PDMODE
 70
    0
  9
$PDSIZE
 40
0
  9
$PLINEWID
 40
0
  9
$SPLFRAME
 70
    0
  9
$SPLINETYPE
 70
    2
  9
$SPLINESEGS
 70
    8
  9
$HANDSEED
  5
20000
  9
$SURFTAB1
 70
    6
  9
$SURFTAB2
 70
    6
  9
$SURFTYPE
 70
    6
  9
$SURFU
 70
    6
  9
$SURFV
 70
    6
  9
$UCSBASE
  2

  9
$UCSNAME
  2

  9
$UCSORG
 10
0
 20
0
 30
0
  9
$UCSXDIR
 10
1
 20
0
 30
0
  9
$UCSYDIR
 10
0
 20
1
 30
0
  9
$UCSORTHOREF
  2

  9
$UCSORTHOVIEW
 70
    0
  9
$UCSORGTOP
 10
0
 20
0
 30
0
  9
$UCSORGBOTTOM
 10
0
 20
0
 30
0
  9
$UCSORGLEFT
 10
0
 20
0
 30
0
  9
$UCSORGRIGHT
 10
0
 20
0
 30
0
  9
$UCSORGFRONT
 10
0
 20
0
 30
0
  9
$UCSORGBACK
 10
0
 20
0
 30
0
  9
$PUCSBASE
  2

  9
$PUCSNAME
  2

  9
$PUCSORG
 10
0
 20
0
 30
0
  9
$PUCSXDIR
 10
1
 20
0
 30
0
  9
$PUCSYDIR
 10
0
 20
1
 30
0
  9
$PUCSORTHOREF
  2

  9
$PUCSORTHOVIEW
 70
    0
  9
$PUCSORGTOP
 10
0
 20
0
 30
0
  9
$PUCSORGBOTTOM
 10
0
 20
0
 30
0
  9
$PUCSORGLEFT
 10
0
 20
0
 30
0
  9
$PUCSORGRIGHT
 10
0
 20
0
 30
0
  9
$PUCSORGFRONT
 10
0
 20
0
 30
0
  9
$PUCSORGBACK
 10
0
 20
0
 30
0
  9
$USERI1
 70
    0
  9
$USERI2
 70
    0
  9
$USERI3
 70
    0
  9
$USERI4
 70
    0
  9
$USERI5
 70
    0
  9
$USERR1
 40
0
  9
$USERR2
 40
0
  9
$USERR3
 40
0
  9
$USERR4
 40
0
  9
$USERR5
 40
0
  9
$WORLDVIEW
 70
    1
  9
$SHADEDGE
 70
    3
  9
$SHADEDIF
 70
   70
  9
$TILEMODE
 70
    1
  9
$MAXACTVP
 70
   64
  9
$PINSBASE
 10
0
 20
0
 30
0
  9
$PLIMCHECK
 70
    0
  9
$PEXTMIN
 10
0
 20
0
 30
0
  9
$PEXTMAX
 10
420
 20
297
 30
0
  9
$GRIDMODE
 70
    0
  9
$SNAPSTYLE
 70
    0
  9
$GRIDUNIT
 10
0
 20
0
  9
$VIEWCTR
 10
210
 20
148.5
  9
$PLIMMIN
 10
0
 20
0
  9
$PLIMMAX
 10
210
 20
297
  9
$UNITMODE
 70
    0
  9
$VISRETAIN
 70
    1
  9
$PLINEGEN
 70
    0
  9
$PSLTSCALE
 70
    1
  9
$TREEDEPTH
 70
 3020
  9
$CMLSTYLE
  2
Standard
  9
$CMLJUST
 70
    0
  9
$CMLSCALE
 40
20
  9
$PROXYGRAPHICS
 70
    1
  9
$MEASUREMENT
 70
    1
  9
$CELWEIGHT
370
   -1
  9
$ENDCAPS
280
    0
  9
$JOINSTYLE
280
    0
  9
$LWDISPLAY
290
    0
  9
$INSUNITS
 70
    4
  9
$HYPERLINKBASE
  1

  9
$STYLESHEET
  1

  9
$XEDIT
290
    1
  9
$CEPSNTYPE
380
    0
  9
$PSTYLEMODE
290
    1
  9
$EXTNAMES
290
    1
  9
$PSVPSCALE
 40
1
  9
$OLESTARTUP
290
    0
  9
$SORTENTS
280
  127
  9
$INDEXCTL
280
    0
  9
$HIDETEXT
280
    1
  9
$XCLIPFRAME
290
    0
  9
$HALOGAP
280
    0
  9
$OBSCOLOR
 70
  257
  9
$OBSLTYPE
280
    0
  9
$INTERSECTIONDISPLAY
280
    0
  9
$INTERSECTIONCOLOR
 70
  257
  9
$DIMASSOC
280
    1
  9
$PROJECTNAME
  1

  9
$CAMERADISPLAY
290
    0
  9
$LENSLENGTH
 40
50
  9
$CAMERAHEIGHT
 40
0
  9
$STEPSPERSEC
 40
2
  9
$STEPSIZE
 40
50
  9
$3DDWFPREC
 40
2
  9
$PSOLWIDTH
 40
5
  9
$PSOLHEIGHT
 40
80
  9
$LOFTANG1
 40
1.570796326794897
  9
$LOFTANG2
 40
1.570796326794897
  9
$LOFTMAG1
 40
0
  9
$LOFTMAG2
 40
0
  9
$LOFTPARAM
 70
    7
  9
$LOFTNORMALS
280
    1
  9
$LATITUDE
 40
1
  9
$LONGITUDE
 40
1
  9
$NORTHDIRECTION
 40
0
  9
$TIMEZONE
 70
-8000
  9
$LIGHTGLYPHDISPLAY
280
    1
  9
$TILEMODELIGHTSYNCH
280
    1
  9
$SOLIDHIST
280
    1
  9
$SHOWHIST
280
    1
  9
$DWFFRAME
280
    2
  9
$DGNFRAME
280
    0
  9
$REALWORLDSCALE
290
    1
  9
$INTERFERECOLOR
 62
    1
  9
$CSHADOW
280
    0
  9
$SHADOWPLANELOCATION
 40
0
  0
ENDSEC
  0
SECTION
  2
CLASSES
  0
ENDSEC
  0
SECTION
  2
TABLES
  0
TABLE
  2
VPORT
  5
8
330
0
100
AcDbSymbolTable
 70
    1
  0
VPORT
  5
31
330
2
100
AcDbSymbolTableRecord
100
AcDbViewportTableRecord
  2
*ACTIVE
 70
    0
 10
0
 20
0
 11
1
 21
1
 12
130.4758600417577
 22
160.649046302401
 13
0
 23
0
 14
10
 24
10
 15
10
 25
10
 16
0
 26
0
 36
1
 17
0
 27
0
 37
0
 40
195.4563396679212
 41
1.521601685985248
 42
50
 43
0
 44
0
 50
0
 51
0
 71
    0
 72
  100
 73
    1
 74
    3
 75
    0
 76
    0
 77
    0
 78
    0
281
    0
 65
    1
110
0
120
0
130
0
111
1
121
0
131
0
112
0
122
1
132
0
 79
    0
146
0
348
10020
 60
    7
 61
    5
292
1
282
    1
141
0
142
0
 63
  250
421
3358443
  0
ENDTAB
  0
TABLE
  2
LTYPE
  5
5
330
0
100
AcDbSymbolTable
 70
    4
  0
LTYPE
  5
14
330
5
100
AcDbSymbolTableRecord
100
AcDbLinetypeTableRecord
  2
ByBlock
 70
    0
  3

 72
   65
 73
    0
 40
0
  0
LTYPE
  5
15
330
5
100
AcDbSymbolTableRecord
100
AcDbLinetypeTableRecord
  2
ByLayer
 70
    0
  3

 72
   65
 73
    0
 40
0
  0
LTYPE
  5
16
330
5
100
AcDbSymbolTableRecord
100
AcDbLinetypeTableRecord
  2
Continuous
 70
    0
  3
Solid line
 72
   65
 73
    0
 40
0
  0
LTYPE
  5
32
330
5
100
AcDbSymbolTableRecord
100
AcDbLinetypeTableRecord
  2
DOT
 70
    0
  3
Dot . . . . . . . . . . . . . . . . . . . . . .
 72
   65
 73
    2
 40
6.35
 49
0
 74
    0
 49
-6.35
 74
    0
  0
LTYPE
  5
33
330
5
100
AcDbSymbolTableRecord
100
AcDbLinetypeTableRecord
  2
DOTTINY
 70
    0
  3
Dot (.15x) .....................................
 72
   65
 73
    2
 40
0.9525
 49
0
 74
    0
 49
-0.9525
 74
    0
  0
LTYPE
  5
34
330
5
100
AcDbSymbolTableRecord
100
AcDbLinetypeTableRecord
  2
DOT2
 70
    0
  3
Dot (.5x) .....................................
 72
   65
 73
    2
 40
3.175
 49
0
 74
    0
 49
-3.175
 74
    0
  0
LTYPE
  5
35
330
5
100
AcDbSymbolTableRecord
100
AcDbLinetypeTableRecord
  2
DOTX2
 70
    0
  3
Dot (2x) .  .  .  .  .  .  .  .  .  .  .  .  .
 72
   65
 73
    2
 40
12.7
 49
0
 74
    0
 49
-12.7
 74
    0
  0
LTYPE
  5
36
330
5
100
AcDbSymbolTableRecord
100
AcDbLinetypeTableRecord
  2
DASHED
 70
    0
  3
Dashed _ _ _ _ _ _ _ _ _ _ _ _ _ _ _ _ _
 72
   65
 73
    2
 40
19.05
 49
12.7
 74
    0
 49
-6.35
 74
    0
  0
LTYPE
  5
37
330
5
100
AcDbSymbolTableRecord
100
AcDbLinetypeTableRecord
  2
DASHEDTINY
 70
    0
  3
Dashed (.15x) _ _ _ _ _ _ _ _ _ _ _ _ _ _ _ _ _
 72
   65
 73
    2
 40
2.8575
 49
1.905
 74
    0
 49
-0.9525
 74
    0
  0
LTYPE
  5
38
330
5
100
AcDbSymbolTableRecord
100
AcDbLinetypeTableRecord
  2
DASHED2
 70
    0
  3
Dashed (.5x) _ _ _ _ _ _ _ _ _ _ _ _ _ _ _ _ _
 72
   65
 73
    2
 40
9.524999999999999
 49
6.35
 74
    0
 49
-3.175
 74
    0
  0
LTYPE
  5
39
330
5
100
AcDbSymbolTableRecord
100
AcDbLinetypeTableRecord
  2
DASHEDX2
 70
    0
  3
Dashed (2x) ____  ____  ____  ____  ____  ___
 72
   65
 73
    2
 40
38.09999999999999
 49
25.4
 74
    0
 49
-12.7
 74
    0
  0
LTYPE
  5
3A
330
5
100
AcDbSymbolTableRecord
100
AcDbLinetypeTableRecord
  2
DASHDOT
 70
    0
  3
Dash dot __ . __ . __ . __ . __ . __ . __ . __
 72
   65
 73
    4
 40
25.4
 49
12.7
 74
    0
 49
-6.35
 74
    0
 49
0
 74
    0
 49
-6.35
 74
    0
  0
LTYPE
  5
3B
330
5
100
AcDbSymbolTableRecord
100
AcDbLinetypeTableRecord
  2
DASHDOTTINY
 70
    0
  3
Dash dot (.15x) _._._._._._._._._._._._._._._.
 72
   65
 73
    4
 40
3.81
 49
1.905
 74
    0
 49
-0.9525
 74
    0
 49
0
 74
    0
 49
-0.9525
 74
    0
  0
LTYPE
  5
3C
330
5
100
AcDbSymbolTableRecord
100
AcDbLinetypeTableRecord
  2
DASHDOT2
 70
    0
  3
Dash dot (.5x) _._._._._._._._._._._._._._._.
 72
   65
 73
    4
 40
12.7
 49
6.35
 74
    0
 49
-3.175
 74
    0
 49
0
 74
    0
 49
-3.175
 74
    0
  0
LTYPE
  5
3D
330
5
100
AcDbSymbolTableRecord
100
AcDbLinetypeTableRecord
  2
DASHDOTX2
 70
    0
  3
Dash dot (2x) ____  .  ____  .  ____  .  ___
 72
   65
 73
    4
 40
50.8
 49
25.4
 74
    0
 49
-12.7
 74
    0
 49
0
 74
    0
 49
-12.7
 74
    0
  0
LTYPE
  5
3E
330
5
100
AcDbSymbolTableRecord
100
AcDbLinetypeTableRecord
  2
DIVIDE
 70
    0
  3
Divide ____ . . ____ . . ____ . . ____ . . ____
 72
   65
 73
    6
 40
31.75
 49
12.7
 74
    0
 49
-6.35
 74
    0
 49
0
 74
    0
 49
-6.35
 74
    0
 49
0
 74
    0
 49
-6.35
 74
    0
  0
LTYPE
  5
3F
330
5
100
AcDbSymbolTableRecord
100
AcDbLinetypeTableRecord
  2
DIVIDETINY
 70
    0
  3
Divide (.15x) __..__..__..__..__..__..__..__.._
 72
   65
 73
    6
 40
4.7625
 49
1.905
 74
    0
 49
-0.9525
 74
    0
 49
0
 74
    0
 49
-0.9525
 74
    0
 49
0
 74
    0
 49
-0.9525
 74
    0
  0
LTYPE
  5
40
330
5
100
AcDbSymbolTableRecord
100
AcDbLinetypeTableRecord
  2
DIVIDE2
 70
    0
  3
Divide (.5x) __..__..__..__..__..__..__..__.._
 72
   65
 73
    6
 40
15.875
 49
6.35
 74
    0
 49
-3.175
 74
    0
 49
0
 74
    0
 49
-3.175
 74
    0
 49
0
 74
    0
 49
-3.175
 74
    0
  0
LTYPE
  5
41
330
5
100
AcDbSymbolTableRecord
100
AcDbLinetypeTableRecord
  2
DIVIDEX2
 70
    0
  3
Divide (2x) ________  .  .  ________  .  .  _
 72
   65
 73
    6
 40
63.5
 49
25.4
 74
    0
 49
-12.7
 74
    0
 49
0
 74
    0
 49
-12.7
 74
    0
 49
0
 74
    0
 49
-12.7
 74
    0
  0
LTYPE
  5
42
330
5
100
AcDbSymbolTableRecord
100
AcDbLinetypeTableRecord
  2
BORDER
 70
    0
  3
Border __ __ . __ __ . __ __ . __ __ . __ __ .
 72
   65
 73
    6
 40
44.45
 49
12.7
 74
    0
 49
-6.35
 74
    0
 49
12.7
 74
    0
 49
-6.35
 74
    0
 49
0
 74
    0
 49
-6.35
 74
    0
  0
LTYPE
  5
43
330
5
100
AcDbSymbolTableRecord
100
AcDbLinetypeTableRecord
  2
BORDERTINY
 70
    0
  3
Border (.15x) __.__.__.__.__.__.__.__.__.__.__.
 72
   65
 73
    6
 40
6.6675
 49
1.905
 74
    0
 49
-0.9525
 74
    0
 49
1.905
 74
    0
 49
-0.9525
 74
    0
 49
0
 74
    0
 49
-0.9525
 74
    0
  0
LTYPE
  5
44
330
5
100
AcDbSymbolTableRecord
100
AcDbLinetypeTableRecord
  2
BORDER2
 70
    0
  3
Border (.5x) __.__.__.__.__.__.__.__.__.__.__.
 72
   65
 73
    6
 40
22.225
 49
6.35
 74
    0
 49
-3.175
 74
    0
 49
6.35
 74
    0
 49
-3.175
 74
    0
 49
0
 74
    0
 49
-3.175
 74
    0
  0
LTYPE
  5
45
330
5
100
AcDbSymbolTableRecord
100
AcDbLinetypeTableRecord
  2
BORDERX2
 70
    0
  3
Border (2x) ____  ____  .  ____  ____  .  ___
 72
   65
 73
    6
 40
88.89999999999999
 49
25.4
 74
    0
 49
-12.7
 74
    0
 49
25.4
 74
    0
 49
-12.7
 74
    0
 49
0
 74
    0
 49
-12.7
 74
    0
  0
LTYPE
  5
46
330
5
100
AcDbSymbolTableRecord
100
AcDbLinetypeTableRecord
  2
CENTER
 70
    0
  3
Center ____ _ ____ _ ____ _ ____ _ ____ _ ____
 72
   65
 73
    4
 40
50.8
 49
31.75
 74
    0
 49
-6.35
 74
    0
 49
6.35
 74
    0
 49
-6.35
 74
    0
  0
LTYPE
  5
47
330
5
100
AcDbSymbolTableRecord
100
AcDbLinetypeTableRecord
  2
CENTERTINY
 70
    0
  3
Center (.15x) ___ _ ___ _ ___ _ ___ _ ___ _ ___
 72
   65
 73
    4
 40
7.619999999999999
 49
4.7625
 74
    0
 49
-0.9525
 74
    0
 49
0.9525
 74
    0
 49
-0.9525
 74
    0
  0
LTYPE
  5
48
330
5
100
AcDbSymbolTableRecord
100
AcDbLinetypeTableRecord
  2
CENTER2
 70
    0
  3
Center (.5x) ___ _ ___ _ ___ _ ___ _ ___ _ ___
 72
   65
 73
    4
 40
28.575
 49
19.05
 74
    0
 49
-3.175
 74
    0
 49
3.175
 74
    0
 49
-3.175
 74
    0
  0
LTYPE
  5
49
330
5
100
AcDbSymbolTableRecord
100
AcDbLinetypeTableRecord
  2
CENTERX2
 70
    0
  3
Center (2x) ________  __  ________  __  _____
 72
   65
 73
    4
 40
101.6
 49
63.5
 74
    0
 49
-12.7
 74
    0
 49
12.7
 74
    0
 49
-12.7
 74
    0
  0
ENDTAB
  0
TABLE
  2
LAYER
  5
2
330
0
100
AcDbSymbolTable
 70
    1
  0
LAYER
  5
10
330
2
100
AcDbSymbolTableRecord
100
AcDbLayerTableRecord
  2
0
 70
    0
 62
    6
  6
CONTINUOUS
370
   -3
390
F
  0
LAYER
  5
4A
330
2
100
AcDbSymbolTableRecord
100
AcDbLayerTableRecord
  2
INNER
 70
    0
 62
  136
420
32896
  6
CONTINUOUS
370
   35
390
F
  0
LAYER
  5
4B
330
2
100
AcDbSymbolTableRecord
100
AcDbLayerTableRecord
  2
OUTER
 70
    0
 62
    7
  6
CONTINUOUS
370
   35
390
F
  0
LAYER
  5
4C
330
2
100
AcDbSymbolTableRecord
100
AcDbLayerTableRecord
  2
TEXT
 70
    0
 62
    5
  6
CONTINUOUS
370
   -3
390
F
  0
ENDTAB
  0
TABLE
  2
STYLE
  5
3
330
0
100
AcDbSymbolTable
 70
    3
  0
STYLE
  5
4D
330
2
100
AcDbSymbolTableRecord
100
AcDbTextStyleTableRecord
  2
iso
 70
    0
 40
0
 41
1
 50
0
 71
    0
 42
1
  3
iso
  4

  0
STYLE
  5
4E
330
2
100
AcDbSymbolTableRecord
100
AcDbTextStyleTableRecord
  2
Standard
 70
    0
 40
0
 41
1
 50
0
 71
    0
 42
1
  3
txt
  4

  0
ENDTAB
  0
TABLE
  2
VIEW
  5
6
330
0
100
AcDbSymbolTable
 70
    0
  0
ENDTAB
  0
TABLE
  2
UCS
  5
7
330
0
100
AcDbSymbolTable
 70
    0
  0
ENDTAB
  0
TABLE
  2
APPID
  5
9
330
0
100
AcDbSymbolTable
 70
    1
  0
APPID
  5
12
330
9
100
AcDbSymbolTableRecord
100
AcDbRegAppTableRecord
  2
ACAD
 70
    0
  0
APPID
  5
4F
330
9
100
AcDbSymbolTableRecord
100
AcDbRegAppTableRecord
  2
LibreCad
 70
    0
  0
ENDTAB
  0
TABLE
  2
DIMSTYLE
  5
A
330
0
100
AcDbSymbolTable
 70
    1
100
AcDbDimStyleTable
 71
    1
  0
DIMSTYLE
105
50
330
A
100
AcDbSymbolTableRecord
100
AcDbDimStyleTableRecord
  2
Standard
 70
    0
 40
1
 41
1
 42
0
 43
0.38
 44
0
 45
0
 46
0
 47
0
 48
0
 49
0
140
4
141
0.09
142
0
143
25.4
144
1
145
0
146
1
147
0.625
148
0
 71
    0
 72
    0
 73
    0
 74
    1
 75
    0
 76
    0
 77
    0
 78
   12
 79
    0
170
    0
171
    2
172
    0
173
    0
174
    0
175
    0
176
    0
177
  256
178
    0
179
    0
271
    1
272
    4
273
    2
274
    2
275
    0
276
    0
277
    2
278
    0
279
    0
280
    0
281
    0
282
    0
283
    1
284
    0
285
    0
286
    0
288
    0
289
    3
340
4E
  0
ENDTAB
  0
TABLE
  2
BLOCK_RECORD
  5
1
330
0
100
AcDbSymbolTable
 70
    2
  0
BLOCK_RECORD
  5
1F
330
1
100
AcDbSymbolTableRecord
100
AcDbBlockTableRecord
  2
*Model_Space
 70
    0
280
    1
281
    0
  0
BLOCK_RECORD
  5
1E
330
1
100
AcDbSymbolTableRecord
100
AcDbBlockTableRecord
  2
*Paper_Space
 70
    0
280
    1
281
    0
  0
ENDTAB
  0
ENDSEC
  0
SECTION
  2
BLOCKS
  0
BLOCK
  5
20
330
1F
100
AcDbEntity
  8
0
100
AcDbBlockBegin
  2
*Model_Space
 70
    0
 10
0
 20
0
 30
0
  3
*Model_Space
  1

  0
ENDBLK
  5
21
330
1F
100
AcDbEntity
  8
0
100
AcDbBlockEnd
  0
BLOCK
  5
1C
330
1B
100
AcDbEntity
  8
0
100
AcDbBlockBegin
  2
*Paper_Space
 70
    0
 10
0
 20
0
 30
0
  3
*Paper_Space
  1

  0
ENDBLK
  5
1D
330
1F
100
AcDbEntity
  8
0
100
AcDbBlockEnd
  0
ENDSEC
  0
SECTION
  2
ENTITIES
  0
CIRCLE
  5
51
100
AcDbEntity
  8
INNER
  6
CONTINUOUS
 62
  256
370
   -1
100
AcDbCircle
 10
42.38322757120434
 20
282.6585034679073
 40
0.5
  0
CIRCLE
  5
52
100
AcDbEntity
  8
INNER
  6
CONTINUOUS
 62
  256
370
   -1
100
AcDbCircle
 10
14.38322757120435
 20
282.6585034679073
 40
0.5
  0
LWPOLYLINE
  5
53
100
AcDbEntity
  8
INNER
  6
ByLayer
 62
  256
370
   -1
100
AcDbPolyline
 90
    4
 70
    1
 43
0
 10
16.63322757120435
 20
289.1585034679073
 10
40.13322757120434
 20
289.1585034679073
 10
40.13322757120434
 20
276.1585034679073
 10
16.63322757120435
 20
276.1585034679073
  0
LINE
  5
54
100
AcDbEntity
  8
0
  6
CONTINUOUS
 62
  256
370
   -1
100
AcDbLine
 10
-13.00855771119702
 20
300.4555416037373
 11
-13.00855771119702
 21
302.5475323664863
  0
LINE
  5
55
100
AcDbEntity
  8
0
  6
CONTINUOUS
 62
  256
370
   -1
100
AcDbLine
 10
-13.00855771119702
 20
302.5475323664863
 11
-11.41565114188954
 21
302.5475323664863
  0
LWPOLYLINE
  5
56
100
AcDbEntity
  8
INNER
  6
ByLayer
 62
  256
370
   -1
100
AcDbPolyline
 90
    4
 70
    1
 43
0
 10
10.63322757120438
 20
278.9585034679073
 10
10.63322757120438
 20
286.4585034679073
 10
6.833267571204348
 20
286.4585034679073
 10
6.833267571204348
 20
278.9585034679073
  0
LINE
  5
57
100
AcDbEntity
  8
0
  6
CONTINUOUS
 62
  256
370
   -3
100
AcDbLine
 10
180
 20
300
 11
180
 21
150
  0
LINE
  5
58
100
AcDbEntity
  8
0
  6
CONTINUOUS
 62
  256
370
   -3
100
AcDbLine
 10
0
 20
150
 11
180
 21
150
  0
LINE
  5
59
100
AcDbEntity
  8
0
  6
CONTINUOUS
 62
  256
370
   -3
100
AcDbLine
 10
0
 20
300
 11
180
 21
300
  0
LINE
  5
5A
100
AcDbEntity
  8
0
  6
CONTINUOUS
 62
  256
370
   -3
100
AcDbLine
 10
0
 20
300
 11
0
 21
150
  0
LINE
  5
5B
100
AcDbEntity
  8
TEXT
  6
ByLayer
 62
  256
370
   -1
100
AcDbLine
 10
48.70684753234664
 20
292.8965957769129
 11
45.70684753234664
 21
292.8965957769129
  0
LINE
  5
5C
100
AcDbEntity
  8
TEXT
  6
ByLayer
 62
  256
370
   -1
100
AcDbLine
 10
45.70684753234664
 20
292.8965957769129
 11
45.70684753234664
 21
294.2299291102462
  0
LINE
  5
5D
100
AcDbEntity
  8
TEXT
  6
ByLayer
 62
  256
370
   -1
100
AcDbLine
 10
47.04018086567989
 20
292.8965957769129
 11
47.04018086567989
 21
294.2299291102462
  0
LINE
  5
5E
100
AcDbEntity
  8
TEXT
  6
ByLayer
 62
  256
370
   -1
100
AcDbLine
 10
46.37351419901332
 20
295.2299291102462
 11
45.70684753234664
 21
295.8965957769129
  0
LINE
  5
5F
100
AcDbEntity
  8
TEXT
  6
ByLayer
 62
  256
370
   -1
100
AcDbLine
 10
45.70684753234664
 20
295.8965957769129
 11
48.70684753234664
 21
295.8965957769129
  0
LINE
  5
60
100
AcDbEntity
  8
TEXT
  6
ByLayer
 62
  256
370
   -1
100
AcDbLine
 10
33.4831757201465
 20
257.0121983789907
 11
33.4831757201465
 21
254.0121983789907
  0
LINE
  5
61
100
AcDbEntity
  8
TEXT
  6
ByLayer
 62
  256
370
   -1
100
AcDbLine
 10
33.4831757201465
 20
254.0121983789907
 11
32.14984238681318
 21
254.0121983789907
  0
LINE
  5
62
100
AcDbEntity
  8
TEXT
  6
ByLayer
 62
  256
370
   -1
100
AcDbLine
 10
33.4831757201465
 20
255.3455317123241
 11
32.14984238681318
 21
255.3455317123241
  0
LINE
  5
63
100
AcDbEntity
  8
TEXT
  6
ByLayer
 62
  256
370
   -1
100
AcDbLine
 10
31.14984238681318
 20
255.3455317123241
 11
30.48317572014649
 21
255.3455317123241
  0
ARC
  5
64
100
AcDbEntity
  8
TEXT
  6
ByLayer
 62
  256
370
   -1
100
AcDbCircle
 10
30.4831752220964
 20
256.0121978809406
 40
0.6666661686167303
100
AcDbArc
 50
179.999957195713
 51
270.000042804287
  0
LINE
  5
65
100
AcDbEntity
  8
TEXT
  6
ByLayer
 62
  256
370
   -1
100
AcDbLine
 10
29.81650905347983
 20
256.0121983789907
 11
29.81650905347983
 21
256.3455317123241
  0
ARC
  5
66
100
AcDbEntity
  8
TEXT
  6
ByLayer
 62
  256
370
   -1
100
AcDbCircle
 10
30.48317572014649
 20
256.3455317123241
 40
0.6666666666666666
100
AcDbArc
 50
0
 51
180
  0
LINE
  5
67
100
AcDbEntity
  8
TEXT
  6
ByLayer
 62
  256
370
   -1
100
AcDbLine
 10
31.14984238681318
 20
256.3455317123241
 11
31.14984238681318
 21
255.3455317123241
  0
ARC
  5
68
100
AcDbEntity
  8
TEXT
  6
ByLayer
 62
  256
370
   -1
100
AcDbCircle
 10
29.76095238681219
 20
255.3455325456582
 40
1.38889000000125
100
AcDbArc
 50
286.2602390857831
 51
359.9999656225289
  0
LWPOLYLINE
  5
69
100
AcDbEntity
  8
OUTER
  6
ByLayer
 62
  256
370
   -1
100
AcDbPolyline
 90
   34
 70
    1
 43
0
 10
16.40092309565581
 20
265.133002003998
 10
16.40050904565569
 20
255.3330020035517
 10
20.20050904904731
 20
255.3330020035517
 10
20.20062734904735
 20
258.133002003998
 10
20.70064847404734
 20
258.6330020035517
 10
27.20064847065574
 20
258.6330020035517
 10
27.20064847065574
 20
262.1330020129591
 10
27.70064847022
 20
262.6330228873711
 10
34.70064847109147
 20
262.6333151291396
 10
35.20064847065573
 20
262.1333360035517
 10
35.20064847065573
 20
258.6333360035517
 10
48.10064847065576
 20
258.6333360035517
 10
48.60064847065576
 20
258.1333360035517
 10
48.60064847065576
 20
252.8333360035517
 10
52.20064847065573
 20
252.8333360035517
 10
52.20064847065573
 20
265.1330020129591
 10
52.70064847001549
 20
265.6329767100632
 10
54.90109580251107
 20
265.6328653546834
 42
-0.4141987403574771
 10
60.40081747065576
 20
260.1328653617259
 10
60.4008174706558
 20
244.121844577055
 42
-0.4142135623731008
 10
54.90081747065569
 20
238.621844577055
 10
52.9008174633264
 20
238.621844577055
 42
-0.4142135665727506
 10
47.40081746332648
 20
244.121844655917
 10
47.40081747065575
 20
244.6330019183337
 42
0.4142135686130343
 10
43.40081747065575
 20
248.6330020035517
 10
19.40081747065575
 20
248.6330020035517
 42
0.414213562373095
 10
15.40081747065575
 20
244.6330020035517
 10
15.40081747065581
 20
244.1211909196924
 42
-0.4142135623731013
 10
9.90081747065569
 20
238.6211909196924
 10
7.900817414937656
 20
238.6211909196924
 42
-0.414213563425156
 10
2.400817414937714
 20
244.1211909394483
 10
2.400817472451768
 20
260.1330020233011
 42
-0.4142135613208026
 10
7.900817472447567
 20
265.6330020035452
 10
15.90094422065579
 20
265.6330020035513
  0
LWPOLYLINE
  5
6A
100
AcDbEntity
  8
INNER
  6
ByLayer
 62
  256
370
   -1
100
AcDbPolyline
 90
    4
 70
    1
 43
0
 10
63.7344146158129
 20
287.5570959865807
 10
67.73441461581291
 20
287.5570959865807
 10
67.73441461581291
 20
289.5570959865807
 10
63.7344146158129
 20
289.5570959865807
  0
TEXT
  5
6B
100
AcDbEntity
  8
0
  6
ByLayer
 62
  256
370
   -1
100
AcDbText
 10
-8.893143789279893
 20
260.4389943499929
 30
0
 40
2
  1
Text P:12 S:18 Cut P:75 S:11
 50
90
 41
1
 51
0
  7
iso
 71
    0
210
0
220
0
230
1
100
AcDbText
  0
LWPOLYLINE
  5
6C
100
AcDbEntity
  8
INNER
  6
ByLayer
 62
  256
370
   -1
100
AcDbPolyline
 90
    4
 70
    1
 43
0
 10
60.34326957120439
 20
280.7583201473791
 10
60.34326957120439
 20
284.5583201486566
 10
80.50326957120438
 20
284.5583225591782
 10
80.50326957120438
 20
280.7583225675472
  0
LINE
  5
6D
100
AcDbEntity
  8
TEXT
  6
ByLayer
 62
  256
370
   -1
100
AcDbLine
 10
154.1355929200718
 20
203.4557636527624
 11
153.4418094328618
 21
203.4860548939884
  0
ARC
  5
6E
100
AcDbEntity
  8
TEXT
  6
ByLayer
 62
  256
370
   -1
100
AcDbCircle
 10
154.1598259130523
 20
204.0107904425302
 40
0.5555555555555556
100
AcDbArc
 50
267.4999999999999
 51
87.49999999999996
  0
LINE
  5
6F
100
AcDbEntity
  8
TEXT
  6
ByLayer
 62
  256
370
   -1
100
AcDbLine
 10
153.4902754188236
 20
204.5961084735238
 11
153.3812269504103
 21
202.0984879195692
  0
LINE
  5
70
100
AcDbEntity
  8
TEXT
  6
ByLayer
 62
  256
370
   -1
100
AcDbLine
 10
153.3812269504103
 20
202.0984879195692
 11
154.0750104376199
 21
202.0681966783432
  0
ARC
  5
71
100
AcDbEntity
  8
TEXT
  6
ByLayer
 62
  256
370
   -1
100
AcDbCircle
 10
154.1053016788458
 20
202.7619801655528
 40
0.6944444444444444
100
AcDbArc
 50
267.4999999999999
 51
87.49999999999996
  0
LINE
  5
72
100
AcDbEntity
  8
TEXT
  6
ByLayer
 62
  256
370
   -1
100
AcDbLine
 10
155.6752125472485
 20
201.7331841422932
 11
155.8931019041177
 21
204.2236708875226
  0
LINE
  5
73
100
AcDbEntity
  8
TEXT
  6
ByLayer
 62
  256
370
   -1
100
AcDbLine
 10
156.4981061572394
 20
201.6112739778501
 11
156.9322266014067
 21
204.0732933603805
  0
LINE
  5
74
100
AcDbEntity
  8
TEXT
  6
ByLayer
 62
  256
370
   -1
100
AcDbLine
 10
158.3000151472569
 20
203.8321153358433
 11
156.6669307744156
 21
202.5687259599453
  0
LINE
  5
75
100
AcDbEntity
  8
TEXT
  6
ByLayer
 62
  256
370
   -1
100
AcDbLine
 10
157.8658947030897
 20
201.3700959533127
 11
157.2828658411885
 21
203.0452313681131
  0
LINE
  5
76
100
AcDbEntity
  8
TEXT
  6
ByLayer
 62
  256
370
   -1
100
AcDbLine
 10
159.4143747273297
 20
200.826646233861
 11
158.3411238092307
 21
201.1142229506416
  0
LINE
  5
77
100
AcDbEntity
  8
TEXT
  6
ByLayer
 62
  256
370
   -1
100
AcDbLine
 10
158.3411238092307
 20
201.1142229506416
 11
158.9881714219869
 21
203.5290375163642
  0
LINE
  5
78
100
AcDbEntity
  8
TEXT
  6
ByLayer
 62
  256
370
   -1
100
AcDbLine
 10
158.9881714219869
 20
203.5290375163642
 11
160.061422340086
 21
203.2414607995836
  0
LINE
  5
79
100
AcDbEntity
  8
TEXT
  6
ByLayer
 62
  256
370
   -1
100
AcDbLine
 10
158.7005947052066
 20
202.4557865982653
 11
159.5055328937806
 21
202.2401040606798
  0
LINE
  5
7A
100
AcDbEntity
  8
TEXT
  6
ByLayer
 62
  256
370
   -1
100
AcDbLine
 10
149.8627300265578
 20
203.4468897399103
 11
149.1689465393484
 21
203.4165984986844
  0
ARC
  5
7B
100
AcDbEntity
  8
TEXT
  6
ByLayer
 62
  256
370
   -1
100
AcDbCircle
 10
149.8384970335773
 20
204.001916529678
 40
0.5555555555555556
100
AcDbArc
 50
272.5
 51
92.5
  0
LINE
  5
7C
100
AcDbEntity
  8
TEXT
  6
ByLayer
 62
  256
370
   -1
100
AcDbLine
 10
149.1204805533868
 20
204.5266520782198
 11
149.2295290217999
 21
202.0290315242651
  0
LINE
  5
7D
100
AcDbEntity
  8
TEXT
  6
ByLayer
 62
  256
370
   -1
100
AcDbLine
 10
149.2295290217999
 20
202.0290315242651
 11
149.9233125090099
 21
202.0593227654911
  0
ARC
  5
7E
100
AcDbEntity
  8
TEXT
  6
ByLayer
 62
  256
370
   -1
100
AcDbCircle
 10
149.8930212677839
 20
202.7531062527007
 40
0.6944444444444444
100
AcDbArc
 50
272.5
 51
92.5
  0
ARC
  5
7F
100
AcDbEntity
  8
TEXT
  6
ByLayer
 62
  256
370
   -1
100
AcDbCircle
 10
148.0006977392688
 20
202.5625219446038
 40
0.6944444444444444
100
AcDbArc
 50
185
 51
4.999999999999995
  0
LINE
  5
80
100
AcDbEntity
  8
TEXT
  6
ByLayer
 62
  256
370
   -1
100
AcDbLine
 10
147.3088958655941
 20
202.5019971232512
 11
147.2120561514299
 21
203.608880121131
  0
ARC
  5
81
100
AcDbEntity
  8
TEXT
  6
ByLayer
 62
  256
370
   -1
100
AcDbCircle
 10
147.9038580251047
 20
203.6694049424836
 40
0.6944444444444444
100
AcDbArc
 50
4.999999999999995
 51
185
  0
LINE
  5
82
100
AcDbEntity
  8
TEXT
  6
ByLayer
 62
  256
370
   -1
100
AcDbLine
 10
148.5956598987796
 20
203.7299297638361
 11
148.6924996129435
 21
202.6230467659564
  0
LINE
  5
83
100
AcDbEntity
  8
TEXT
  6
ByLayer
 62
  256
370
   -1
100
AcDbLine
 10
145.7646213392296
 20
201.4454681250953
 11
145.2235223043845
 21
203.8862081428952
  0
LINE
  5
84
100
AcDbEntity
  8
TEXT
  6
ByLayer
 62
  256
370
   -1
100
AcDbLine
 10
145.2235223043845
 20
203.8862081428952
 11
145.901505642662
 21
204.0365134303522
  0
ARC
  5
85
100
AcDbEntity
  8
TEXT
  6
ByLayer
 62
  256
370
   -1
100
AcDbCircle
 10
146.0518109301192
 20
203.3585300920745
 40
0.6944444444444444
100
AcDbArc
 50
282.5000000000001
 51
102.5
  0
LINE
  5
86
100
AcDbEntity
  8
TEXT
  6
ByLayer
 62
  256
370
   -1
100
AcDbLine
 10
146.202116217576
 20
202.6805467537968
 11
145.5241328792985
 21
202.5302414663396
  0
LINE
  5
87
100
AcDbEntity
  8
TEXT
  6
ByLayer
 62
  256
370
   -1
100
AcDbLine
 10
147.120588015785
 20
201.7460787000093
 11
146.3291579300839
 21
202.7218732151516
  0
LINE
  5
88
100
AcDbEntity
  8
TEXT
  6
ByLayer
 62
  256
370
   -1
100
AcDbLine
 10
154.1984541721702
 20
204.5746703744636
 11
153.5046706849608
 21
204.6049616156895
  0
LINE
  5
89
100
AcDbEntity
  8
TEXT
  6
ByLayer
 62
  256
370
   -1
100
AcDbLine
 10
149.8286593067338
 20
204.5657964616113
 11
149.134875819524
 21
204.5355052203855
  0
LWPOLYLINE
  5
8A
100
AcDbEntity
  8
TEXT
  6
ByLayer
 62
  256
370
   -1
100
AcDbPolyline
 90
    4
 70
    1
 43
0
 10
151.1590047281879
 20
203.9040434751247
 10
151.1590047281878
 20
202.7929323640136
 42
0.9999999999999999
 10
152.5478936170769
 20
202.7929323640136
 10
152.5478936170767
 20
203.9040434751247
 42
0.9999999999999999
  0
CIRCLE
  5
8B
100
AcDbEntity
  8
OUTER
  6
ByLayer
 62
  256
370
   -1
100
AcDbCircle
 10
151.5935897656676
 20
179.1947651801387
 40
26.5
  0
LWPOLYLINE
  5
8C
100
AcDbEntity
  8
INNER
  6
ByLayer
 62
  256
370
   -1
100
AcDbPolyline
 90
    4
 70
    1
 43
0
 10
11.94102928241614
 20
158.6968180797466
 10
8.141079282416142
 20
158.6968180797466
 10
8.141079282416142
 20
165.8968080797464
 10
11.94102928241614
 20
165.8968080797464
  0
LWPOLYLINE
  5
8D
100
AcDbEntity
  8
INNER
  6
ByLayer
 62
  256
370
   -1
100
AcDbPolyline
 90
    5
 70
    0
 43
0
 10
26.58683789561106
 20
211.3874170671162
 10
26.27307492924923
 20
207.8010847087263
 10
32.25024318416647
 20
207.2781510108163
 10
32.56400615052832
 20
210.8644833692064
 10
26.58683789561106
 20
211.3874170671162
  0
CIRCLE
  5
8E
100
AcDbEntity
  8
INNER
  6
CONTINUOUS
 62
  256
370
   -1
100
AcDbCircle
 10
40.44099459735482
 20
221.9967992850887
 40
1.4
  0
CIRCLE
  5
8F
100
AcDbEntity
  8
INNER
  6
ByLayer
 62
  256
370
   -1
100
AcDbCircle
 10
54.94107528241612
 20
159.2468140797466
 40
0.5
  0
LWPOLYLINE
  5
90
100
AcDbEntity
  8
INNER
  6
ByLayer
 62
  256
370
   -1
100
AcDbPolyline
 90
    4
 70
    1
 43
0
 10
11.94102928241614
 20
158.6968180797467
 10
8.141079282416142
 20
158.6968180797467
 10
8.141079282416142
 20
165.8968080797465
 10
11.94102928241614
 20
165.8968080797465
  0
LINE
  5
91
100
AcDbEntity
  8
TEXT
  6
ByLayer
 62
  256
370
   -1
100
AcDbLine
 10
17.06507219018515
 20
222.4533290722912
 11
17.06507219018515
 21
225.4533290722912
  0
LINE
  5
92
100
AcDbEntity
  8
TEXT
  6
ByLayer
 62
  256
370
   -1
100
AcDbLine
 10
17.06507219018515
 20
225.4533290722912
 11
18.39840552351849
 21
225.4533290722912
  0
LINE
  5
93
100
AcDbEntity
  8
TEXT
  6
ByLayer
 62
  256
370
   -1
100
AcDbLine
 10
17.06507219018515
 20
224.119995738958
 11
18.39840552351849
 21
224.119995738958
  0
LINE
  5
94
100
AcDbEntity
  8
TEXT
  6
ByLayer
 62
  256
370
   -1
100
AcDbLine
 10
20.06507219018515
 20
225.4533290722912
 11
19.39840552351849
 21
223.119995738958
  0
LINE
  5
95
100
AcDbEntity
  8
TEXT
  6
ByLayer
 62
  256
370
   -1
100
AcDbLine
 10
19.39840552351849
 20
223.119995738958
 11
21.06507219018515
 21
223.119995738958
  0
LINE
  5
96
100
AcDbEntity
  8
TEXT
  6
ByLayer
 62
  256
370
   -1
100
AcDbLine
 10
20.56507219018515
 20
223.7866624056244
 11
20.56507219018515
 21
222.4533290722912
  0
LINE
  5
97
100
AcDbEntity
  8
TEXT
  6
ByLayer
 62
  256
370
   -1
100
AcDbLine
 10
19.01329306855548
 20
204.734177857214
 11
21.2355152907777
 21
204.734177857214
  0
LINE
  5
98
100
AcDbEntity
  8
TEXT
  6
ByLayer
 62
  256
370
   -1
100
AcDbLine
 10
26.65218195744437
 20
205.2897334127696
 11
28.8744041796666
 21
205.2897334127696
  0
LINE
  5
99
100
AcDbEntity
  8
TEXT
  6
ByLayer
 62
  256
370
   -1
100
AcDbLine
 10
27.76329306855548
 20
204.1786223016584
 11
27.76329306855548
 21
206.4008445238806
  0
LINE
  5
9A
100
AcDbEntity
  8
TEXT
  6
CONTINUOUS
 62
  256
370
   -1
100
AcDbLine
 10
41.77004846553398
 20
213.9607976069246
 11
41.77004846553398
 21
213.2571976069247
  0
LINE
  5
9B
100
AcDbEntity
  8
TEXT
  6
CONTINUOUS
 62
  256
370
   -1
100
AcDbLine
 10
41.77004846553398
 20
215.0338976069247
 11
43.791448465534
 21
215.5391976069247
  0
LINE
  5
9C
100
AcDbEntity
  8
TEXT
  6
CONTINUOUS
 62
  256
370
   -1
100
AcDbLine
 10
41.77004846553398
 20
215.6998976069246
 11
41.77004846553398
 21
215.0338976069247
  0
LINE
  5
9D
100
AcDbEntity
  8
TEXT
  6
CONTINUOUS
 62
  256
370
   -1
100
AcDbLine
 10
41.77004846553398
 20
215.6998976069246
 11
39.58454846553396
 21
215.1534976069246
  0
LINE
  5
9E
100
AcDbEntity
  8
TEXT
  6
CONTINUOUS
 62
  256
370
   -1
100
AcDbLine
 10
40.51224846553397
 20
214.5496976069246
 11
43.01314846553395
 21
214.5496976069246
  0
ARC
  5
9F
100
AcDbEntity
  8
TEXT
  6
CONTINUOUS
 62
  256
370
   -1
100
AcDbCircle
 10
41.77286403354238
 20
214.8067817828706
 40
2.19375
100
AcDbArc
 50
19.97789999999999
 51
345.2656
  0
LINE
  5
A0
100
AcDbEntity
  8
TEXT
  6
CONTINUOUS
 62
  256
370
   -1
100
AcDbLine
 10
40.50630091028594
 20
213.96142626667
 11
42.99610091028593
 21
213.96142626667
  0
LINE
  5
A1
100
AcDbEntity
  8
TEXT
  6
CONTINUOUS
 62
  256
370
   -3
100
AcDbLine
 10
47.1070153624184
 20
215.614961826343
 11
47.1670153624185
 21
215.726072937454
  0
ARC
  5
A2
100
AcDbEntity
  8
TEXT
  6
CONTINUOUS
 62
  256
370
   -3
100
AcDbCircle
 10
47.55145980686287
 20
215.5038507152318
 40
0.4440498248097619
100
AcDbArc
 50
329.9705982384853
 51
149.9705982384854
  0
LINE
  5
A3
100
AcDbEntity
  8
TEXT
  6
CONTINUOUS
 62
  256
370
   -3
100
AcDbLine
 10
47.93590425130729
 20
215.2816284930096
 11
47.1070153624184
 21
213.9482951596761
  0
LINE
  5
A4
100
AcDbEntity
  8
TEXT
  6
CONTINUOUS
 62
  256
370
   -3
100
AcDbLine
 10
47.1070153624184
 20
213.9482951596761
 11
47.99590425130732
 21
213.9482951596761
  0
ARC
  5
A5
100
AcDbEntity
  8
TEXT
  6
CONTINUOUS
 62
  256
370
   -3
100
AcDbCircle
 10
49.1070153624184
 20
215.6705173818984
 40
0.2777777777777778
100
AcDbArc
 50
36.86989764584401
 51
143.130102354156
  0
ARC
  5
A6
100
AcDbEntity
  8
TEXT
  6
CONTINUOUS
 62
  256
370
   -3
100
AcDbCircle
 10
50.55145980686287
 20
214.9482951596761
 40
1.888888888888889
100
AcDbArc
 50
151.927513064147
 51
208.072486935853
  0
ARC
  5
A7
100
AcDbEntity
  8
TEXT
  6
CONTINUOUS
 62
  256
370
   -3
100
AcDbCircle
 10
49.1070153624184
 20
214.226072937454
 40
0.2777777777777778
100
AcDbArc
 50
216.869897645844
 51
323.130102354156
  0
ARC
  5
A8
100
AcDbEntity
  8
TEXT
  6
CONTINUOUS
 62
  256
370
   -3
100
AcDbCircle
 10
47.662570917974
 20
214.9482951596761
 40
1.888888888888889
100
AcDbArc
 50
331.927513064147
 51
28.07248693585297
  0
LINE
  5
A9
100
AcDbEntity
  8
TEXT
  6
CONTINUOUS
 62
  256
370
   -3
100
AcDbLine
 10
50.21812647352955
 20
215.5038507152318
 11
50.66257091797395
 21
215.9482951596761
  0
LINE
  5
AA
100
AcDbEntity
  8
TEXT
  6
CONTINUOUS
 62
  256
370
   -3
100
AcDbLine
 10
50.66257091797395
 20
215.9482951596761
 11
50.66257091797395
 21
213.9482951596761
  0
LINE
  5
AB
100
AcDbEntity
  8
TEXT
  6
CONTINUOUS
 62
  256
370
   -3
100
AcDbLine
 10
51.32923758464064
 20
214.614961826343
 11
52.21812647352955
 21
214.614961826343
  0
LINE
  5
AC
100
AcDbEntity
  8
TEXT
  6
CONTINUOUS
 62
  256
370
   -3
100
AcDbLine
 10
52.88479314019624
 20
215.614961826343
 11
52.94479314019625
 21
215.726072937454
  0
ARC
  5
AD
100
AcDbEntity
  8
TEXT
  6
CONTINUOUS
 62
  256
370
   -3
100
AcDbCircle
 10
53.32923758464064
 20
215.5038507152318
 40
0.4440498248097619
100
AcDbArc
 50
329.9705982384853
 51
149.9705982384854
  0
LINE
  5
AE
100
AcDbEntity
  8
TEXT
  6
CONTINUOUS
 62
  256
370
   -3
100
AcDbLine
 10
53.71368202908509
 20
215.2816284930096
 11
52.88479314019624
 21
213.9482951596761
  0
LINE
  5
AF
100
AcDbEntity
  8
TEXT
  6
CONTINUOUS
 62
  256
370
   -3
100
AcDbLine
 10
52.88479314019624
 20
213.9482951596761
 11
53.77368202908509
 21
213.9482951596761
  0
LINE
  5
B0
100
AcDbEntity
  8
TEXT
  6
CONTINUOUS
 62
  256
370
   -3
100
AcDbLine
 10
54.44034869575179
 20
215.614961826343
 11
54.50034869575178
 21
215.726072937454
  0
ARC
  5
B1
100
AcDbEntity
  8
TEXT
  6
CONTINUOUS
 62
  256
370
   -3
100
AcDbCircle
 10
54.88479314019624
 20
215.5038507152318
 40
0.4440498248097619
100
AcDbArc
 50
329.9705982384853
 51
149.9705982384854
  0
LINE
  5
B2
100
AcDbEntity
  8
TEXT
  6
CONTINUOUS
 62
  256
370
   -3
100
AcDbLine
 10
55.26923758464066
 20
215.2816284930096
 11
54.44034869575179
 21
213.9482951596761
  0
LINE
  5
B3
100
AcDbEntity
  8
TEXT
  6
CONTINUOUS
 62
  256
370
   -3
100
AcDbLine
 10
54.44034869575179
 20
213.9482951596761
 11
55.32923758464064
 21
213.9482951596761
  0
ARC
  5
B4
100
AcDbEntity
  8
TEXT
  6
CONTINUOUS
 62
  256
370
   -3
100
AcDbCircle
 10
56.44034869575179
 20
215.6705173818984
 40
0.2777777777777778
100
AcDbArc
 50
36.86989764584401
 51
143.130102354156
  0
ARC
  5
B5
100
AcDbEntity
  8
TEXT
  6
CONTINUOUS
 62
  256
370
   -3
100
AcDbCircle
 10
57.88479314019624
 20
214.9482951596761
 40
1.888888888888889
100
AcDbArc
 50
151.927513064147
 51
208.072486935853
  0
ARC
  5
B6
100
AcDbEntity
  8
TEXT
  6
CONTINUOUS
 62
  256
370
   -3
100
AcDbCircle
 10
56.44034869575179
 20
214.226072937454
 40
0.2777777777777778
100
AcDbArc
 50
216.869897645844
 51
323.130102354156
  0
ARC
  5
B7
100
AcDbEntity
  8
TEXT
  6
CONTINUOUS
 62
  256
370
   -3
100
AcDbCircle
 10
54.99590425130732
 20
214.9482951596761
 40
1.888888888888889
100
AcDbArc
 50
331.927513064147
 51
28.07248693585297
  0
LINE
  5
B8
100
AcDbEntity
  8
TEXT
  6
CONTINUOUS
 62
  256
370
   -3
100
AcDbLine
 10
58.44034869575179
 20
215.9482951596761
 11
57.55145980686287
 21
215.9482951596761
  0
LINE
  5
B9
100
AcDbEntity
  8
TEXT
  6
CONTINUOUS
 62
  256
370
   -3
100
AcDbLine
 10
57.55145980686287
 20
215.9482951596761
 11
57.55145980686287
 21
215.0594062707873
  0
LINE
  5
BA
100
AcDbEntity
  8
TEXT
  6
CONTINUOUS
 62
  256
370
   -3
100
AcDbLine
 10
57.55145980686287
 20
215.0594062707873
 11
57.99590425130732
 21
215.0594062707873
  0
ARC
  5
BB
100
AcDbEntity
  8
TEXT
  6
CONTINUOUS
 62
  256
370
   -3
100
AcDbCircle
 10
57.99267931905798
 20
214.6117368940936
 40
0.4476809924682961
100
AcDbArc
 50
0.4127416806118565
 51
89.58725831938816
  0
LINE
  5
BC
100
AcDbEntity
  8
TEXT
  6
CONTINUOUS
 62
  256
370
   -3
100
AcDbLine
 10
58.44034869575179
 20
214.614961826343
 11
58.44034869575179
 21
214.3927396041208
  0
ARC
  5
BD
100
AcDbEntity
  8
TEXT
  6
CONTINUOUS
 62
  256
370
   -3
100
AcDbCircle
 10
57.99267931905798
 20
214.3959645363701
 40
0.4476809924682961
100
AcDbArc
 50
270.4127416806118
 51
359.5872583193881
  0
LINE
  5
BE
100
AcDbEntity
  8
TEXT
  6
CONTINUOUS
 62
  256
370
   -3
100
AcDbLine
 10
57.99590425130732
 20
213.9482951596761
 11
57.55145980686287
 21
213.9482951596761
  0
LINE
  5
BF
100
AcDbEntity
  8
TEXT
  6
CONTINUOUS
 62
  256
370
   -3
100
AcDbLine
 10
59.99590425130732
 20
215.9482951596761
 11
59.10701536241847
 21
215.9482951596761
  0
LINE
  5
C0
100
AcDbEntity
  8
TEXT
  6
CONTINUOUS
 62
  256
370
   -3
100
AcDbLine
 10
59.10701536241847
 20
215.9482951596761
 11
59.10701536241847
 21
215.0594062707873
  0
LINE
  5
C1
100
AcDbEntity
  8
TEXT
  6
CONTINUOUS
 62
  256
370
   -3
100
AcDbLine
 10
59.10701536241847
 20
215.0594062707873
 11
59.55145980686287
 21
215.0594062707873
  0
ARC
  5
C2
100
AcDbEntity
  8
TEXT
  6
CONTINUOUS
 62
  256
370
   -3
100
AcDbCircle
 10
59.54823487461358
 20
214.6117368940936
 40
0.4476809924682961
100
AcDbArc
 50
0.4127416806118565
 51
89.58725831938816
  0
LINE
  5
C3
100
AcDbEntity
  8
TEXT
  6
CONTINUOUS
 62
  256
370
   -3
100
AcDbLine
 10
59.99590425130732
 20
214.614961826343
 11
59.99590425130732
 21
214.3927396041208
  0
ARC
  5
C4
100
AcDbEntity
  8
TEXT
  6
CONTINUOUS
 62
  256
370
   -3
100
AcDbCircle
 10
59.54823487461358
 20
214.3959645363701
 40
0.4476809924682961
100
AcDbArc
 50
270.4127416806118
 51
359.5872583193881
  0
LINE
  5
C5
100
AcDbEntity
  8
TEXT
  6
CONTINUOUS
 62
  256
370
   -3
100
AcDbLine
 10
59.55145980686287
 20
213.9482951596761
 11
59.10701536241847
 21
213.9482951596761
  0
LINE
  5
C6
100
AcDbEntity
  8
TEXT
  6
CONTINUOUS
 62
  256
370
   -3
100
AcDbLine
 10
45.07861618978571
 20
213.9411568327658
 11
45.07861618978571
 21
215.9411568327658
  0
LINE
  5
C7
100
AcDbEntity
  8
TEXT
  6
CONTINUOUS
 62
  256
370
   -3
100
AcDbLine
 10
45.07861618978571
 20
215.9411568327658
 11
45.63417174534131
 21
215.9411568327658
  0
ARC
  5
C8
100
AcDbEntity
  8
TEXT
  6
CONTINUOUS
 62
  256
370
   -3
100
AcDbCircle
 10
45.63417174534131
 20
215.3856012772104
 40
0.5555555555555556
100
AcDbArc
 50
270
 51
90
  0
LINE
  5
C9
100
AcDbEntity
  8
TEXT
  6
CONTINUOUS
 62
  256
370
   -3
100
AcDbLine
 10
45.63417174534131
 20
214.8300457216547
 11
45.07861618978571
 21
214.8300457216547
  0
LINE
  5
CA
100
AcDbEntity
  8
TEXT
  6
CONTINUOUS
 62
  256
370
   -3
100
AcDbLine
 10
46.18972730089684
 20
213.9411568327658
 11
45.74083841200793
 21
214.8411568327658
  0
LINE
  5
CB
100
AcDbEntity
  8
TEXT
  6
CONTINUOUS
 62
  256
370
   -3
100
AcDbLine
 10
61.49335465794602
 20
215.9559479875607
 11
60.60446576905714
 21
215.9559479875607
  0
LINE
  5
CC
100
AcDbEntity
  8
TEXT
  6
CONTINUOUS
 62
  256
370
   -3
100
AcDbLine
 10
60.60446576905714
 20
215.9559479875607
 11
60.60446576905714
 21
215.0670590986719
  0
LINE
  5
CD
100
AcDbEntity
  8
TEXT
  6
CONTINUOUS
 62
  256
370
   -3
100
AcDbLine
 10
60.60446576905714
 20
215.0670590986719
 11
61.04891021350154
 21
215.0670590986719
  0
ARC
  5
CE
100
AcDbEntity
  8
TEXT
  6
CONTINUOUS
 62
  256
370
   -3
100
AcDbCircle
 10
61.04568528125226
 20
214.6193897219781
 40
0.4476809924682961
100
AcDbArc
 50
0.4127416806118565
 51
89.58725831938816
  0
LINE
  5
CF
100
AcDbEntity
  8
TEXT
  6
CONTINUOUS
 62
  256
370
   -3
100
AcDbLine
 10
61.49335465794602
 20
214.6226146542273
 11
61.49335465794602
 21
214.4003924320051
  0
ARC
  5
D0
100
AcDbEntity
  8
TEXT
  6
CONTINUOUS
 62
  256
370
   -3
100
AcDbCircle
 10
61.04568528125226
 20
214.4036173642546
 40
0.4476809924682961
100
AcDbArc
 50
270.4127416806118
 51
359.5872583193881
  0
LINE
  5
D1
100
AcDbEntity
  8
TEXT
  6
CONTINUOUS
 62
  256
370
   -3
100
AcDbLine
 10
61.04891021350154
 20
213.9559479875607
 11
60.60446576905714
 21
213.9559479875607
  0
LINE
  5
D2
100
AcDbEntity
  8
TEXT
  6
CONTINUOUS
 62
  256
370
   -1
100
AcDbLine
 10
44.4160709278983
 20
216.3778976069247
 11
44.4160709278983
 21
213.4923976069245
  0
LINE
  5
D3
100
AcDbEntity
  8
TEXT
  6
CONTINUOUS
 62
  256
370
   -1
100
AcDbLine
 10
44.4160709278983
 20
213.4923976069245
 11
46.74007092789829
 21
213.4923976069245
  0
LINE
  5
D4
100
AcDbEntity
  8
TEXT
  6
CONTINUOUS
 62
  256
370
   -1
100
AcDbLine
 10
44.4160709278983
 20
216.3778976069247
 11
46.74007092789829
 21
216.3778976069247
  0
LINE
  5
D5
100
AcDbEntity
  8
TEXT
  6
CONTINUOUS
 62
  256
370
   -1
100
AcDbLine
 10
46.74007092789829
 20
216.3778976069247
 11
46.74007092789829
 21
213.4923976069245
  0
LWPOLYLINE
  5
D6
100
AcDbEntity
  8
INNER
  6
ByLayer
 62
  256
370
   -1
100
AcDbPolyline
 90
   12
 70
    1
 43
0
 10
25.94102928241614
 20
200.9968140797465
 10
25.94102928241614
 20
202.4968140797465
 10
21.94102928241614
 20
202.4968140797465
 10
21.94102928241614
 20
200.9968140797465
 10
18.94102928241614
 20
200.9968140797465
 42
0.414213562373095
 10
17.94102928241614
 20
199.9968140797465
 10
17.94102928241616
 20
195.9968140797465
 42
0.4142135623730888
 10
18.94102928241614
 20
194.9968140797465
 10
28.94102928241615
 20
194.9968140797465
 42
0.4142135623730961
 10
29.94102928241615
 20
195.9968140797465
 10
29.94102928241614
 20
199.9968140797465
 42
0.414213562373095
 10
28.94102928241614
 20
200.9968140797465
  0
LINE
  5
D7
100
AcDbEntity
  8
TEXT
  6
ByLayer
 62
  256
370
   -1
100
AcDbLine
 10
31.95503225884693
 20
198.7088167604304
 11
31.39947670329138
 21
198.7088167604304
  0
ARC
  5
D8
100
AcDbEntity
  8
TEXT
  6
ByLayer
 62
  256
370
   -1
100
AcDbCircle
 10
31.95503225884693
 20
199.1532612048749
 40
0.4444444444444444
100
AcDbArc
 50
270
 51
90
  0
LINE
  5
D9
100
AcDbEntity
  8
TEXT
  6
ByLayer
 62
  256
370
   -1
100
AcDbLine
 10
31.95503225884693
 20
199.5977056493193
 11
31.39947670329138
 21
199.5977056493193
  0
LINE
  5
DA
100
AcDbEntity
  8
TEXT
  6
ByLayer
 62
  256
370
   -1
100
AcDbLine
 10
31.39947670329138
 20
199.5977056493193
 11
31.39947670329138
 21
197.5977056493193
  0
LINE
  5
DB
100
AcDbEntity
  8
TEXT
  6
ByLayer
 62
  256
370
   -1
100
AcDbLine
 10
31.39947670329138
 20
197.5977056493193
 11
31.95503225884693
 21
197.5977056493193
  0
ARC
  5
DC
100
AcDbEntity
  8
TEXT
  6
ByLayer
 62
  256
370
   -1
100
AcDbCircle
 10
31.95503225884693
 20
198.1532612048749
 40
0.5555555555555556
100
AcDbArc
 50
270
 51
90
  0
LINE
  5
DD
100
AcDbEntity
  8
TEXT
  6
ByLayer
 62
  256
370
   -1
100
AcDbLine
 10
33.36243225884692
 20
198.1532612048749
 11
34.32538781440248
 21
198.1532612048749
  0
LINE
  5
DE
100
AcDbEntity
  8
TEXT
  6
ByLayer
 62
  256
370
   -1
100
AcDbLine
 10
33.17725448106914
 20
197.5977056493193
 11
33.84392114773579
 21
199.5977056493193
  0
LINE
  5
DF
100
AcDbEntity
  8
TEXT
  6
ByLayer
 62
  256
370
   -1
100
AcDbLine
 10
33.84392114773579
 20
199.5977056493193
 11
34.51058781440248
 21
197.5977056493193
  0
LINE
  5
E0
100
AcDbEntity
  8
TEXT
  6
ByLayer
 62
  256
370
   -1
100
AcDbLine
 10
35.17725448106914
 20
199.5977056493193
 11
36.28836559218026
 21
199.5977056493193
  0
LINE
  5
E1
100
AcDbEntity
  8
TEXT
  6
ByLayer
 62
  256
370
   -1
100
AcDbLine
 10
35.73281003662469
 20
199.5977056493193
 11
35.73281003662469
 21
197.5977056493193
  0
LINE
  5
E2
100
AcDbEntity
  8
TEXT
  6
ByLayer
 62
  256
370
   -1
100
AcDbLine
 10
36.95503225884691
 20
197.5977056493193
 11
36.95503225884691
 21
197.7088167604304
  0
CIRCLE
  5
E3
100
AcDbEntity
  8
INNER
  6
ByLayer
 62
  256
370
   -1
100
AcDbCircle
 10
26.44099459735483
 20
177.9963643326931
 40
1.4
  0
CIRCLE
  5
E4
100
AcDbEntity
  8
INNER
  6
ByLayer
 62
  256
370
   -1
100
AcDbCircle
 10
54.94104138768118
 20
187.246808079773
 40
0.5
  0
CIRCLE
  5
E5
100
AcDbEntity
  8
INNER
  6
ByLayer
 62
  256
370
   -1
100
AcDbCircle
 10
54.94104138768118
 20
187.2468080797731
 40
0.5
  0
LINE
  5
E6
100
AcDbEntity
  8
0
  6
ByLayer
 62
  256
370
   -1
100
AcDbLine
 10
54.94108252979985
 20
167.9667693330555
 11
26.47408900696255
 21
158.4970609833948
  0
LINE
  5
E7
100
AcDbEntity
  8
0
  6
ByLayer
 62
  256
370
   -1
100
AcDbLine
 10
34.94039196223763
 20
167.9667693330555
 11
54.94108252979985
 21
167.9667693330555
  0
CIRCLE
  5
E8
100
AcDbEntity
  8
0
  6
ByLayer
 62
  256
370
   -1
100
AcDbCircle
 10
54.94108252979985
 20
167.9667693330555
 40
20.00069056756222
  0
LWPOLYLINE
  5
E9
100
AcDbEntity
  8
INNER
  6
ByLayer
 62
  256
370
   -1
100
AcDbPolyline
 90
    4
 70
    1
 43
0
 10
21.94039196223763
 20
170.8667693330555
 10
34.94039196223763
 20
170.8667693330555
 10
34.94039196223763
 20
165.1667693330555
 10
21.94039196223763
 20
165.1667693330555
  0
LWPOLYLINE
  5
EA
100
AcDbEntity
  8
INNER
  6
ByLayer
 62
  256
370
   -1
100
AcDbPolyline
 90
    4
 70
    1
 43
0
 10
22.71274668111987
 20
160.2959069528884
 10
35.0462858248022
 20
164.4048985799492
 10
36.84792061512885
 20
158.9971160323347
 10
24.51438147144652
 20
154.8881244052739
  0
LWPOLYLINE
  5
EB
100
AcDbEntity
  8
INNER
  6
ByLayer
 62
  256
370
   -1
100
AcDbPolyline
 90
    5
 70
    0
 43
0
 10
15.35995929796454
 20
164.0983760048562
 10
19.35995929796454
 20
164.0983760048562
 10
19.35995929796454
 20
162.0983760048562
 10
15.35995929796454
 20
162.0983760048562
 10
15.35995929796454
 20
164.0983760048562
  0
LINE
  5
EC
100
AcDbEntity
  8
TEXT
  6
CONTINUOUS
 62
  256
370
   -3
100
AcDbLine
 10
45.74768039486121
 20
221.9788035767299
 11
45.74768039486121
 21
225.9788035767299
  0
LINE
  5
ED
100
AcDbEntity
  8
TEXT
  6
CONTINUOUS
 62
  256
370
   -3
100
AcDbLine
 10
45.74768039486121
 20
225.9788035767299
 11
46.85879150597229
 21
225.9788035767299
  0
ARC
  5
EE
100
AcDbEntity
  8
TEXT
  6
CONTINUOUS
 62
  256
370
   -3
100
AcDbCircle
 10
46.85879150597229
 20
224.8676924656187
 40
1.111111111111111
100
AcDbArc
 50
270
 51
90
  0
LINE
  5
EF
100
AcDbEntity
  8
TEXT
  6
CONTINUOUS
 62
  256
370
   -3
100
AcDbLine
 10
46.85879150597229
 20
223.7565813545077
 11
45.74768039486121
 21
223.7565813545077
  0
LINE
  5
F0
100
AcDbEntity
  8
TEXT
  6
CONTINUOUS
 62
  256
370
   -3
100
AcDbLine
 10
47.96990261708344
 20
221.9788035767299
 11
47.07212483930565
 21
223.7788035767298
  0
ARC
  5
F1
100
AcDbEntity
  8
TEXT
  6
CONTINUOUS
 62
  256
370
   -3
100
AcDbCircle
 10
50.41434706152789
 20
223.0899146878411
 40
1.111111111111111
100
AcDbArc
 50
180
 51
0
  0
LINE
  5
F2
100
AcDbEntity
  8
TEXT
  6
CONTINUOUS
 62
  256
370
   -3
100
AcDbLine
 10
49.30323595041676
 20
223.0899146878411
 11
49.30323595041676
 21
224.8676924656187
  0
ARC
  5
F3
100
AcDbEntity
  8
TEXT
  6
CONTINUOUS
 62
  256
370
   -3
100
AcDbCircle
 10
50.41434706152789
 20
224.8676924656187
 40
1.111111111111111
100
AcDbArc
 50
0
 51
180
  0
LINE
  5
F4
100
AcDbEntity
  8
TEXT
  6
CONTINUOUS
 62
  256
370
   -3
100
AcDbLine
 10
51.52545817263897
 20
224.8676924656187
 11
51.52545817263897
 21
223.0899146878411
  0
LINE
  5
F5
100
AcDbEntity
  8
TEXT
  6
CONTINUOUS
 62
  256
370
   -3
100
AcDbLine
 10
53.96990261708344
 20
224.2010257989521
 11
52.85879150597229
 21
224.2010257989521
  0
ARC
  5
F6
100
AcDbEntity
  8
TEXT
  6
CONTINUOUS
 62
  256
370
   -3
100
AcDbCircle
 10
53.96990261708344
 20
225.0899146878411
 40
0.8888888888888888
100
AcDbArc
 50
270
 51
90
  0
LINE
  5
F7
100
AcDbEntity
  8
TEXT
  6
CONTINUOUS
 62
  256
370
   -3
100
AcDbLine
 10
53.96990261708344
 20
225.9788035767299
 11
52.85879150597229
 21
225.9788035767299
  0
LINE
  5
F8
100
AcDbEntity
  8
TEXT
  6
CONTINUOUS
 62
  256
370
   -3
100
AcDbLine
 10
52.85879150597229
 20
225.9788035767299
 11
52.85879150597229
 21
221.9788035767299
  0
LINE
  5
F9
100
AcDbEntity
  8
TEXT
  6
CONTINUOUS
 62
  256
370
   -3
100
AcDbLine
 10
52.85879150597229
 20
221.9788035767299
 11
53.96990261708344
 21
221.9788035767299
  0
ARC
  5
FA
100
AcDbEntity
  8
TEXT
  6
CONTINUOUS
 62
  256
370
   -3
100
AcDbCircle
 10
53.96990261708344
 20
223.0899146878411
 40
1.111111111111111
100
AcDbArc
 50
270
 51
90
  0
ARC
  5
FB
100
AcDbEntity
  8
TEXT
  6
CONTINUOUS
 62
  256
370
   -3
100
AcDbCircle
 10
57.52545817263897
 20
223.0899146878411
 40
1.111111111111111
100
AcDbArc
 50
180
 51
0
  0
LINE
  5
FC
100
AcDbEntity
  8
TEXT
  6
CONTINUOUS
 62
  256
370
   -3
100
AcDbLine
 10
56.41434706152786
 20
223.0899146878411
 11
56.41434706152786
 21
224.8676924656187
  0
ARC
  5
FD
100
AcDbEntity
  8
TEXT
  6
CONTINUOUS
 62
  256
370
   -3
100
AcDbCircle
 10
57.52545817263897
 20
224.8676924656187
 40
1.111111111111111
100
AcDbArc
 50
0
 51
180
  0
LINE
  5
FE
100
AcDbEntity
  8
TEXT
  6
CONTINUOUS
 62
  256
370
   -3
100
AcDbLine
 10
58.63656928375009
 20
224.8676924656187
 11
58.63656928375009
 21
223.0899146878411
  0
LINE
  5
FF
100
AcDbEntity
  8
TEXT
  6
CONTINUOUS
 62
  256
370
   -3
100
AcDbLine
 10
61.08101372819458
 20
224.2010257989521
 11
59.96990261708341
 21
224.2010257989521
  0
ARC
  5
100
100
AcDbEntity
  8
TEXT
  6
CONTINUOUS
 62
  256
370
   -3
100
AcDbCircle
 10
61.08101372819458
 20
225.0899146878411
 40
0.8888888888888888
100
AcDbArc
 50
270
 51
90
  0
LINE
  5
101
100
AcDbEntity
  8
TEXT
  6
CONTINUOUS
 62
  256
370
   -3
100
AcDbLine
 10
61.08101372819458
 20
225.9788035767299
 11
59.96990261708341
 21
225.9788035767299
  0
LINE
  5
102
100
AcDbEntity
  8
TEXT
  6
CONTINUOUS
 62
  256
370
   -3
100
AcDbLine
 10
59.96990261708341
 20
225.9788035767299
 11
59.96990261708341
 21
221.9788035767299
  0
LINE
  5
103
100
AcDbEntity
  8
TEXT
  6
CONTINUOUS
 62
  256
370
   -3
100
AcDbLine
 10
59.96990261708341
 20
221.9788035767299
 11
61.08101372819458
 21
221.9788035767299
  0
ARC
  5
104
100
AcDbEntity
  8
TEXT
  6
CONTINUOUS
 62
  256
370
   -3
100
AcDbCircle
 10
61.08101372819458
 20
223.0899146878411
 40
1.111111111111111
100
AcDbArc
 50
270
 51
90
  0
LINE
  5
105
100
AcDbEntity
  8
TEXT
  6
CONTINUOUS
 62
  256
370
   -3
100
AcDbLine
 10
63.52545817263899
 20
221.9788035767299
 11
63.52545817263899
 21
225.9788035767299
  0
LINE
  5
106
100
AcDbEntity
  8
TEXT
  6
CONTINUOUS
 62
  256
370
   -3
100
AcDbLine
 10
64.85879150597233
 20
221.9788035767299
 11
64.85879150597233
 21
225.9788035767299
  0
LINE
  5
107
100
AcDbEntity
  8
TEXT
  6
CONTINUOUS
 62
  256
370
   -3
100
AcDbLine
 10
67.08101372819459
 20
225.9788035767299
 11
64.85879150597233
 21
223.5343591322855
  0
LINE
  5
108
100
AcDbEntity
  8
TEXT
  6
CONTINUOUS
 62
  256
370
   -3
100
AcDbLine
 10
67.08101372819459
 20
221.9788035767299
 11
65.69879150597237
 21
224.4543591322854
  0
LINE
  5
109
100
AcDbEntity
  8
TEXT
  6
CONTINUOUS
 62
  256
370
   -3
100
AcDbLine
 10
70.19212483930568
 20
221.9788035767299
 11
68.41434706152791
 21
221.9788035767299
  0
LINE
  5
10A
100
AcDbEntity
  8
TEXT
  6
CONTINUOUS
 62
  256
370
   -3
100
AcDbLine
 10
68.41434706152791
 20
221.9788035767299
 11
68.41434706152791
 21
225.9788035767299
  0
LINE
  5
10B
100
AcDbEntity
  8
TEXT
  6
CONTINUOUS
 62
  256
370
   -3
100
AcDbLine
 10
68.41434706152791
 20
225.9788035767299
 11
70.19212483930568
 21
225.9788035767299
  0
LINE
  5
10C
100
AcDbEntity
  8
TEXT
  6
CONTINUOUS
 62
  256
370
   -3
100
AcDbLine
 10
68.41434706152791
 20
224.2010257989521
 11
69.74768039486122
 21
224.2010257989521
  0
LINE
  5
10D
100
AcDbEntity
  8
TEXT
  6
CONTINUOUS
 62
  256
370
   -3
100
AcDbLine
 10
46.01880065477853
 20
222.2210307140986
 11
46.01880065477853
 21
226.2210307140986
  0
LINE
  5
10E
100
AcDbEntity
  8
TEXT
  6
CONTINUOUS
 62
  256
370
   -3
100
AcDbLine
 10
46.01880065477853
 20
226.2210307140986
 11
47.12991176588968
 21
226.2210307140986
  0
ARC
  5
10F
100
AcDbEntity
  8
TEXT
  6
CONTINUOUS
 62
  256
370
   -3
100
AcDbCircle
 10
47.12991176588968
 20
225.1099196029876
 40
1.111111111111111
100
AcDbArc
 50
270
 51
90
  0
LINE
  5
110
100
AcDbEntity
  8
TEXT
  6
CONTINUOUS
 62
  256
370
   -3
100
AcDbLine
 10
47.12991176588968
 20
223.9988084918764
 11
46.01880065477853
 21
223.9988084918764
  0
LINE
  5
111
100
AcDbEntity
  8
TEXT
  6
CONTINUOUS
 62
  256
370
   -3
100
AcDbLine
 10
48.24102287700077
 20
222.2210307140986
 11
47.34324509922299
 21
224.0210307140985
  0
ARC
  5
112
100
AcDbEntity
  8
TEXT
  6
CONTINUOUS
 62
  256
370
   -3
100
AcDbCircle
 10
50.68546732144522
 20
223.3321418252098
 40
1.111111111111111
100
AcDbArc
 50
180
 51
0
  0
LINE
  5
113
100
AcDbEntity
  8
TEXT
  6
CONTINUOUS
 62
  256
370
   -3
100
AcDbLine
 10
49.5743562103341
 20
223.3321418252098
 11
49.5743562103341
 21
225.1099196029876
  0
ARC
  5
114
100
AcDbEntity
  8
TEXT
  6
CONTINUOUS
 62
  256
370
   -3
100
AcDbCircle
 10
50.68546732144522
 20
225.1099196029876
 40
1.111111111111111
100
AcDbArc
 50
0
 51
180
  0
LINE
  5
115
100
AcDbEntity
  8
TEXT
  6
CONTINUOUS
 62
  256
370
   -3
100
AcDbLine
 10
51.79657843255637
 20
225.1099196029876
 11
51.79657843255637
 21
223.3321418252098
  0
LINE
  5
116
100
AcDbEntity
  8
TEXT
  6
CONTINUOUS
 62
  256
370
   -3
100
AcDbLine
 10
54.24102287700077
 20
224.4432529363208
 11
53.12991176588968
 21
224.4432529363208
  0
ARC
  5
117
100
AcDbEntity
  8
TEXT
  6
CONTINUOUS
 62
  256
370
   -3
100
AcDbCircle
 10
54.24102287700077
 20
225.3321418252098
 40
0.8888888888888888
100
AcDbArc
 50
270
 51
90
  0
LINE
  5
118
100
AcDbEntity
  8
TEXT
  6
CONTINUOUS
 62
  256
370
   -3
100
AcDbLine
 10
54.24102287700077
 20
226.2210307140986
 11
53.12991176588968
 21
226.2210307140986
  0
LINE
  5
119
100
AcDbEntity
  8
TEXT
  6
CONTINUOUS
 62
  256
370
   -3
100
AcDbLine
 10
53.12991176588968
 20
226.2210307140986
 11
53.12991176588968
 21
222.2210307140986
  0
LINE
  5
11A
100
AcDbEntity
  8
TEXT
  6
CONTINUOUS
 62
  256
370
   -3
100
AcDbLine
 10
53.12991176588968
 20
222.2210307140986
 11
54.24102287700077
 21
222.2210307140986
  0
ARC
  5
11B
100
AcDbEntity
  8
TEXT
  6
CONTINUOUS
 62
  256
370
   -3
100
AcDbCircle
 10
54.24102287700077
 20
223.3321418252098
 40
1.111111111111111
100
AcDbArc
 50
270
 51
90
  0
ARC
  5
11C
100
AcDbEntity
  8
TEXT
  6
CONTINUOUS
 62
  256
370
   -3
100
AcDbCircle
 10
57.79657843255637
 20
223.3321418252098
 40
1.111111111111111
100
AcDbArc
 50
180
 51
0
  0
LINE
  5
11D
100
AcDbEntity
  8
TEXT
  6
CONTINUOUS
 62
  256
370
   -3
100
AcDbLine
 10
56.68546732144522
 20
223.3321418252098
 11
56.68546732144522
 21
225.1099196029876
  0
ARC
  5
11E
100
AcDbEntity
  8
TEXT
  6
CONTINUOUS
 62
  256
370
   -3
100
AcDbCircle
 10
57.79657843255637
 20
225.1099196029876
 40
1.111111111111111
100
AcDbArc
 50
0
 51
180
  0
LINE
  5
11F
100
AcDbEntity
  8
TEXT
  6
CONTINUOUS
 62
  256
370
   -3
100
AcDbLine
 10
58.90768954366748
 20
225.1099196029876
 11
58.90768954366748
 21
223.3321418252098
  0
LINE
  5
120
100
AcDbEntity
  8
TEXT
  6
CONTINUOUS
 62
  256
370
   -3
100
AcDbLine
 10
61.3521339881119
 20
224.4432529363208
 11
60.24102287700077
 21
224.4432529363208
  0
ARC
  5
121
100
AcDbEntity
  8
TEXT
  6
CONTINUOUS
 62
  256
370
   -3
100
AcDbCircle
 10
61.3521339881119
 20
225.3321418252098
 40
0.8888888888888888
100
AcDbArc
 50
270
 51
90
  0
LINE
  5
122
100
AcDbEntity
  8
TEXT
  6
CONTINUOUS
 62
  256
370
   -3
100
AcDbLine
 10
61.3521339881119
 20
226.2210307140986
 11
60.24102287700077
 21
226.2210307140986
  0
LINE
  5
123
100
AcDbEntity
  8
TEXT
  6
CONTINUOUS
 62
  256
370
   -3
100
AcDbLine
 10
60.24102287700077
 20
226.2210307140986
 11
60.24102287700077
 21
222.2210307140986
  0
LINE
  5
124
100
AcDbEntity
  8
TEXT
  6
CONTINUOUS
 62
  256
370
   -3
100
AcDbLine
 10
60.24102287700077
 20
222.2210307140986
 11
61.3521339881119
 21
222.2210307140986
  0
ARC
  5
125
100
AcDbEntity
  8
TEXT
  6
CONTINUOUS
 62
  256
370
   -3
100
AcDbCircle
 10
61.3521339881119
 20
223.3321418252098
 40
1.111111111111111
100
AcDbArc
 50
270
 51
90
  0
LINE
  5
126
100
AcDbEntity
  8
TEXT
  6
CONTINUOUS
 62
  256
370
   -3
100
AcDbLine
 10
63.79657843255637
 20
222.2210307140986
 11
63.79657843255637
 21
226.2210307140986
  0
LINE
  5
127
100
AcDbEntity
  8
TEXT
  6
CONTINUOUS
 62
  256
370
   -3
100
AcDbLine
 10
65.12991176588972
 20
222.2210307140986
 11
65.12991176588972
 21
226.2210307140986
  0
LINE
  5
128
100
AcDbEntity
  8
TEXT
  6
CONTINUOUS
 62
  256
370
   -3
100
AcDbLine
 10
67.35213398811192
 20
226.2210307140986
 11
65.12991176588972
 21
223.7765862696542
  0
LINE
  5
129
100
AcDbEntity
  8
TEXT
  6
CONTINUOUS
 62
  256
370
   -3
100
AcDbLine
 10
67.35213398811192
 20
222.2210307140986
 11
65.96991176588969
 21
224.6965862696541
  0
LINE
  5
12A
100
AcDbEntity
  8
TEXT
  6
CONTINUOUS
 62
  256
370
   -3
100
AcDbLine
 10
70.463245099223
 20
222.2210307140986
 11
68.68546732144523
 21
222.2210307140986
  0
LINE
  5
12B
100
AcDbEntity
  8
TEXT
  6
CONTINUOUS
 62
  256
370
   -3
100
AcDbLine
 10
68.68546732144523
 20
222.2210307140986
 11
68.68546732144523
 21
226.2210307140986
  0
LINE
  5
12C
100
AcDbEntity
  8
TEXT
  6
CONTINUOUS
 62
  256
370
   -3
100
AcDbLine
 10
68.68546732144523
 20
226.2210307140986
 11
70.463245099223
 21
226.2210307140986
  0
LINE
  5
12D
100
AcDbEntity
  8
TEXT
  6
CONTINUOUS
 62
  256
370
   -3
100
AcDbLine
 10
68.68546732144523
 20
224.4432529363208
 11
70.01880065477854
 21
224.4432529363208
  0
LINE
  5
12E
100
AcDbEntity
  8
TEXT
  6
ByLayer
 62
  256
370
   -1
100
AcDbLine
 10
47.08342355460481
 20
211.9294895268839
 11
47.14296799904925
 21
212.040600637995
  0
ARC
  5
12F
100
AcDbEntity
  8
TEXT
  6
ByLayer
 62
  256
370
   -1
100
AcDbCircle
 10
47.52786799904925
 20
211.8183784157728
 40
0.4444442890277506
100
AcDbArc
 50
329.9999884324239
 51
149.9999884324239
  0
LINE
  5
130
100
AcDbEntity
  8
TEXT
  6
ByLayer
 62
  256
370
   -1
100
AcDbLine
 10
47.91276799904925
 20
211.5961561935506
 11
47.08342355460481
 21
210.2628228602172
  0
LINE
  5
131
100
AcDbEntity
  8
TEXT
  6
ByLayer
 62
  256
370
   -1
100
AcDbLine
 10
47.08342355460481
 20
210.2628228602172
 11
47.97231244349369
 21
210.2628228602172
  0
ARC
  5
132
100
AcDbEntity
  8
TEXT
  6
ByLayer
 62
  256
370
   -1
100
AcDbCircle
 10
49.08342355460481
 20
211.9850450824395
 40
0.2777777777777778
100
AcDbArc
 50
36.86989764584401
 51
143.130102354156
  0
ARC
  5
133
100
AcDbEntity
  8
TEXT
  6
ByLayer
 62
  256
370
   -1
100
AcDbCircle
 10
50.52786799904925
 20
211.2628228602172
 40
1.888888888888889
100
AcDbArc
 50
151.927513064147
 51
208.072486935853
  0
ARC
  5
134
100
AcDbEntity
  8
TEXT
  6
ByLayer
 62
  256
370
   -1
100
AcDbCircle
 10
49.08342355460481
 20
210.540600637995
 40
0.2777777777777778
100
AcDbArc
 50
216.869897645844
 51
323.130102354156
  0
ARC
  5
135
100
AcDbEntity
  8
TEXT
  6
ByLayer
 62
  256
370
   -1
100
AcDbCircle
 10
47.63897911016036
 20
211.2628228602172
 40
1.888888888888889
100
AcDbArc
 50
331.927513064147
 51
28.07248693585297
  0
LINE
  5
136
100
AcDbEntity
  8
TEXT
  6
ByLayer
 62
  256
370
   -1
100
AcDbLine
 10
50.19453466571591
 20
211.9294895268839
 11
50.25407911016036
 21
212.040600637995
  0
ARC
  5
137
100
AcDbEntity
  8
TEXT
  6
ByLayer
 62
  256
370
   -1
100
AcDbCircle
 10
50.63897911016036
 20
211.8183784157728
 40
0.4444442890277506
100
AcDbArc
 50
329.9999884324239
 51
149.9999884324239
  0
LINE
  5
138
100
AcDbEntity
  8
TEXT
  6
ByLayer
 62
  256
370
   -1
100
AcDbLine
 10
51.02387911016036
 20
211.5961561935506
 11
50.19453466571591
 21
210.2628228602172
  0
LINE
  5
139
100
AcDbEntity
  8
TEXT
  6
ByLayer
 62
  256
370
   -1
100
AcDbLine
 10
50.19453466571591
 20
210.2628228602172
 11
51.0834235546048
 21
210.2628228602172
  0
LINE
  5
13A
100
AcDbEntity
  8
TEXT
  6
ByLayer
 62
  256
370
   -1
100
AcDbLine
 10
51.75009022127147
 20
211.3739339713284
 11
52.19453466571591
 21
211.3739339713284
  0
ARC
  5
13B
100
AcDbEntity
  8
TEXT
  6
ByLayer
 62
  256
370
   -1
100
AcDbCircle
 10
52.19453499774933
 20
210.9294898589173
 40
0.4444441124111536
100
AcDbArc
 50
359.999957195713
 51
90.00004280428698
  0
LINE
  5
13C
100
AcDbEntity
  8
TEXT
  6
ByLayer
 62
  256
370
   -1
100
AcDbLine
 10
52.63897911016036
 20
210.9294895268839
 11
52.63897911016036
 21
210.7072673046617
  0
ARC
  5
13D
100
AcDbEntity
  8
TEXT
  6
ByLayer
 62
  256
370
   -1
100
AcDbCircle
 10
52.19453466571591
 20
210.7072673046617
 40
0.4444444444444444
100
AcDbArc
 50
180
 51
0
  0
LINE
  5
13E
100
AcDbEntity
  8
TEXT
  6
ByLayer
 62
  256
370
   -1
100
AcDbLine
 10
51.75009022127147
 20
210.7072673046617
 11
51.75009022127147
 21
211.3739339713284
  0
ARC
  5
13F
100
AcDbEntity
  8
TEXT
  6
ByLayer
 62
  256
370
   -1
100
AcDbCircle
 10
52.67601688793881
 20
211.3739334157723
 40
0.9259266666674999
100
AcDbArc
 50
106.2602390857831
 51
179.9999656225289
  0
ARC
  5
140
100
AcDbEntity
  8
TEXT
  6
ByLayer
 62
  256
370
   -1
100
AcDbCircle
 10
53.7500902212716
 20
211.9850450824395
 40
0.2777777777777778
100
AcDbArc
 50
36.86989764584401
 51
143.130102354156
  0
ARC
  5
141
100
AcDbEntity
  8
TEXT
  6
ByLayer
 62
  256
370
   -1
100
AcDbCircle
 10
55.19453466571604
 20
211.2628228602172
 40
1.888888888888889
100
AcDbArc
 50
151.927513064147
 51
208.072486935853
  0
ARC
  5
142
100
AcDbEntity
  8
TEXT
  6
ByLayer
 62
  256
370
   -1
100
AcDbCircle
 10
53.7500902212716
 20
210.540600637995
 40
0.2777777777777778
100
AcDbArc
 50
216.869897645844
 51
323.130102354156
  0
ARC
  5
143
100
AcDbEntity
  8
TEXT
  6
ByLayer
 62
  256
370
   -1
100
AcDbCircle
 10
52.30564577682716
 20
211.2628228602172
 40
1.888888888888889
100
AcDbArc
 50
331.927513064147
 51
28.07248693585297
  0
LINE
  5
144
100
AcDbEntity
  8
TEXT
  6
ByLayer
 62
  256
370
   -1
100
AcDbLine
 10
55.30564577682715
 20
212.2628228602172
 11
54.86120133238271
 21
210.7072673046617
  0
LINE
  5
145
100
AcDbEntity
  8
TEXT
  6
ByLayer
 62
  256
370
   -1
100
AcDbLine
 10
54.86120133238271
 20
210.7072673046617
 11
55.97231244349382
 21
210.7072673046617
  0
LINE
  5
146
100
AcDbEntity
  8
TEXT
  6
ByLayer
 62
  256
370
   -1
100
AcDbLine
 10
55.63897911016048
 20
211.1517117491061
 11
55.63897911016048
 21
210.2628228602172
  0
LINE
  5
147
100
AcDbEntity
  8
TEXT
  6
ByLayer
 62
  256
370
   -1
100
AcDbLine
 10
56.63897911016048
 20
211.8183784157728
 11
57.08342355460493
 21
212.2628228602172
  0
LINE
  5
148
100
AcDbEntity
  8
TEXT
  6
ByLayer
 62
  256
370
   -1
100
AcDbLine
 10
57.08342355460493
 20
212.2628228602172
 11
57.08342355460493
 21
210.2628228602172
  0
LINE
  5
149
100
AcDbEntity
  8
TEXT
  6
ByLayer
 62
  256
370
   -1
100
AcDbLine
 10
58.63897911016048
 20
212.2628228602172
 11
57.7500902212716
 21
212.2628228602172
  0
LINE
  5
14A
100
AcDbEntity
  8
TEXT
  6
ByLayer
 62
  256
370
   -1
100
AcDbLine
 10
57.7500902212716
 20
212.2628228602172
 11
57.7500902212716
 21
211.3739339713284
  0
LINE
  5
14B
100
AcDbEntity
  8
TEXT
  6
ByLayer
 62
  256
370
   -1
100
AcDbLine
 10
57.7500902212716
 20
211.3739339713284
 11
58.19453466571604
 21
211.3739339713284
  0
ARC
  5
14C
100
AcDbEntity
  8
TEXT
  6
ByLayer
 62
  256
370
   -1
100
AcDbCircle
 10
58.19453499774946
 20
210.9294898589173
 40
0.4444441124111536
100
AcDbArc
 50
359.999957195713
 51
90.00004280428698
  0
LINE
  5
14D
100
AcDbEntity
  8
TEXT
  6
ByLayer
 62
  256
370
   -1
100
AcDbLine
 10
58.63897911016048
 20
210.9294895268839
 11
58.63897911016048
 21
210.7072673046617
  0
ARC
  5
14E
100
AcDbEntity
  8
TEXT
  6
ByLayer
 62
  256
370
   -1
100
AcDbCircle
 10
58.19453499774946
 20
210.7072669726283
 40
0.4444441124111536
100
AcDbArc
 50
269.999957195713
 51
4.280428697680878e-05
  0
LINE
  5
14F
100
AcDbEntity
  8
TEXT
  6
ByLayer
 62
  256
370
   -1
100
AcDbLine
 10
58.19453466571604
 20
210.2628228602172
 11
57.7500902212716
 21
210.2628228602172
  0
LWPOLYLINE
  5
150
100
AcDbEntity
  8
INNER
  6
ByLayer
 62
  256
370
   -1
100
AcDbPolyline
 90
    4
 70
    1
 43
0
 10
8.141079282416142
 20
196.1968080797464
 10
11.94102928241614
 20
196.1968080797464
 10
11.94102928241614
 20
179.6968080797464
 10
8.141079282416142
 20
179.6968080797464
  0
LWPOLYLINE
  5
151
100
AcDbEntity
  8
INNER
  6
ByLayer
 62
  256
370
   -1
100
AcDbPolyline
 90
    4
 70
    1
 43
0
 10
8.141079282416142
 20
196.1968080797465
 10
11.94102928241614
 20
196.1968080797465
 10
11.94102928241614
 20
179.6968080797465
 10
8.141079282416142
 20
179.6968080797465
  0
CIRCLE
  5
152
100
AcDbEntity
  8
INNER
  6
CONTINUOUS
 62
  256
370
   -1
100
AcDbCircle
 10
102.8485633364582
 20
190.9258924829921
 40
0.5
  0
CIRCLE
  5
153
100
AcDbEntity
  8
INNER
  6
CONTINUOUS
 62
  256
370
   -1
100
AcDbCircle
 10
102.8485633364582
 20
218.9258924829921
 40
0.5
  0
LINE
  5
154
100
AcDbEntity
  8
TEXT
  6
ByLayer
 62
  256
370
   -1
100
AcDbLine
 10
113.8562307239418
 20
198.636223539239
 11
116.8562307239418
 21
198.636223539239
  0
LINE
  5
155
100
AcDbEntity
  8
TEXT
  6
ByLayer
 62
  256
370
   -1
100
AcDbLine
 10
116.8562307239418
 20
198.636223539239
 11
116.8562307239418
 21
197.3028902059056
  0
LINE
  5
156
100
AcDbEntity
  8
TEXT
  6
ByLayer
 62
  256
370
   -1
100
AcDbLine
 10
115.5228973906086
 20
198.636223539239
 11
115.5228973906086
 21
197.3028902059056
  0
LINE
  5
157
100
AcDbEntity
  8
TEXT
  6
ByLayer
 62
  256
370
   -1
100
AcDbLine
 10
116.8562307239418
 20
194.9695568725724
 11
116.8562307239418
 21
196.3028902059056
  0
LINE
  5
158
100
AcDbEntity
  8
TEXT
  6
ByLayer
 62
  256
370
   -1
100
AcDbLine
 10
116.8562307239418
 20
196.3028902059056
 11
115.5228973906086
 21
196.3028902059056
  0
LINE
  5
159
100
AcDbEntity
  8
TEXT
  6
ByLayer
 62
  256
370
   -1
100
AcDbLine
 10
115.5228973906086
 20
196.3028902059056
 11
115.5228973906086
 21
195.636223539239
  0
ARC
  5
15A
100
AcDbEntity
  8
TEXT
  6
ByLayer
 62
  256
370
   -1
100
AcDbCircle
 10
114.8562312219921
 20
195.6362230411889
 40
0.6666661686167303
100
AcDbArc
 50
269.999957195713
 51
4.280428697680878e-05
  0
LINE
  5
15B
100
AcDbEntity
  8
TEXT
  6
ByLayer
 62
  256
370
   -1
100
AcDbLine
 10
114.8562307239418
 20
194.9695568725724
 11
114.5228973906086
 21
194.9695568725724
  0
ARC
  5
15C
100
AcDbEntity
  8
TEXT
  6
ByLayer
 62
  256
370
   -1
100
AcDbCircle
 10
114.5228968925585
 20
195.6362230411889
 40
0.6666661686167303
100
AcDbArc
 50
179.999957195713
 51
270.000042804287
  0
LINE
  5
15D
100
AcDbEntity
  8
TEXT
  6
ByLayer
 62
  256
370
   -1
100
AcDbLine
 10
113.8562307239418
 20
195.636223539239
 11
113.8562307239418
 21
196.3028902059056
  0
LWPOLYLINE
  5
15E
100
AcDbEntity
  8
OUTER
  6
ByLayer
 62
  256
370
   -1
100
AcDbPolyline
 90
   22
 70
    1
 43
0
 10
97.34854933645812
 20
216.6758514829921
 10
96.84854933645812
 20
217.1758514829921
 10
96.84854933645812
 20
220.6758514829921
 42
-0.4142135623730742
 10
98.84854933645832
 20
222.6758514829922
 10
123.8485493364582
 20
222.6758514829921
 10
125.8485493364581
 20
220.6758514829921
 10
125.8485493364581
 20
209.6758514829921
 10
129.8485493364582
 20
209.6758514829921
 10
129.8485493364582
 20
203.9758514829921
 10
129.3485493364582
 20
203.4758514829921
 10
117.5485493364583
 20
203.4758514829921
 10
117.5485493364583
 20
199.7758514829922
 10
130.8485493364581
 20
199.7758514829922
 10
131.3485493364581
 20
199.2758514829922
 10
131.3485493364581
 20
198.175850482992
 10
120.3485503364582
 20
187.1758514829921
 10
98.84854933645833
 20
187.1758514829921
 42
-0.4142135623730971
 10
96.84854933645815
 20
189.1758514829921
 10
96.84854933645812
 20
192.6758514829921
 10
97.34854933645812
 20
193.1758514829921
 10
109.3485493364583
 20
193.1758514829921
 10
109.3485493364583
 20
216.6758514829921
  0
LWPOLYLINE
  5
15F
100
AcDbEntity
  8
OUTER
  6
ByLayer
 62
  256
370
   -1
100
AcDbPolyline
 90
   28
 70
    1
 43
0
 10
54.81536370888039
 20
202.0842901709876
 10
62.04107328241612
 20
190.9700110797464
 10
62.04107328241612
 20
185.4968140797464
 10
61.54107328241612
 20
184.9968140427093
 10
48.54107328241612
 20
184.9968130797464
 10
48.54107428241614
 20
161.4968130797464
 10
61.54107328241612
 20
161.4968140427095
 10
62.04107328241612
 20
160.9968140797465
 10
62.04107328241612
 20
156.9968140797465
 10
57.04107328241612
 20
151.9968140797465
 10
6.941075282416106
 20
151.9968140797465
 10
1.941075282416107
 20
156.9968140797465
 10
1.941075282416107
 20
174.1968140797465
 10
2.441075282416107
 20
174.6968140797465
 10
4.741075282416118
 20
174.6968140797465
 10
4.741075282416118
 20
178.2968140797464
 10
2.441075282416107
 20
178.2968140797464
 10
1.941075282416107
 20
178.7968140797464
 10
1.941075282416107
 20
209.4298572478018
 10
2.439172630659866
 20
209.8862793672597
 10
12.32634900110904
 20
209.0212633371824
 10
12.64011196747084
 20
212.6075956955724
 10
2.879470902389663
 20
213.4615423112931
 42
-0.6370702188626407
 10
2.259519982839604
 20
215.16484378017
 10
16.59149028241606
 20
229.4968140797466
 10
72.74348041141354
 20
229.4968140797463
 42
-0.6681786379193094
 10
74.86480075497319
 20
224.3754937361867
 10
55.07793891760436
 20
204.5886318988178
 42
0.3542611937629687
  0
LINE
  5
160
100
AcDbEntity
  8
TEXT
  6
ByLayer
 62
  256
370
   -1
100
AcDbLine
 10
36.10114983797095
 20
235.4049172073159
 11
36.10114983797095
 21
238.4049172073159
  0
LINE
  5
161
100
AcDbEntity
  8
TEXT
  6
ByLayer
 62
  256
370
   -1
100
AcDbLine
 10
36.10114983797095
 20
238.4049172073159
 11
37.43448317130428
 21
238.4049172073159
  0
LINE
  5
162
100
AcDbEntity
  8
TEXT
  6
ByLayer
 62
  256
370
   -1
100
AcDbLine
 10
36.10114983797095
 20
237.0715838739827
 11
37.43448317130428
 21
237.0715838739827
  0
LINE
  5
163
100
AcDbEntity
  8
TEXT
  6
ByLayer
 62
  256
370
   -1
100
AcDbLine
 10
39.76781650463762
 20
236.7382505406493
 11
39.10114983797095
 21
236.7382505406493
  0
ARC
  5
164
100
AcDbEntity
  8
TEXT
  6
ByLayer
 62
  256
370
   -1
100
AcDbCircle
 10
39.10114933992084
 20
237.4049167092658
 40
0.6666661686167303
100
AcDbArc
 50
179.999957195713
 51
270.000042804287
  0
LINE
  5
165
100
AcDbEntity
  8
TEXT
  6
ByLayer
 62
  256
370
   -1
100
AcDbLine
 10
38.43448317130428
 20
237.4049172073159
 11
38.43448317130428
 21
237.7382505406493
  0
ARC
  5
166
100
AcDbEntity
  8
TEXT
  6
ByLayer
 62
  256
370
   -1
100
AcDbCircle
 10
39.10114983797095
 20
237.7382505406493
 40
0.6666666666666666
100
AcDbArc
 50
0
 51
180
  0
LINE
  5
167
100
AcDbEntity
  8
TEXT
  6
ByLayer
 62
  256
370
   -1
100
AcDbLine
 10
39.76781650463762
 20
237.7382505406493
 11
39.76781650463762
 21
236.7382505406493
  0
ARC
  5
168
100
AcDbEntity
  8
TEXT
  6
ByLayer
 62
  256
370
   -1
100
AcDbCircle
 10
38.37892650463661
 20
236.7382513739835
 40
1.38889000000125
100
AcDbArc
 50
286.2602390857832
 51
359.9999656225289
  0
LWPOLYLINE
  5
169
100
AcDbEntity
  8
INNER
  6
ByLayer
 62
  256
370
   -1
100
AcDbPolyline
 90
    4
 70
    1
 43
0
 10
26.67192051358641
 20
240.6334806775214
 10
34.17192051358641
 20
240.6334806775214
 10
34.17192051358641
 20
236.8334806775214
 10
26.67192051358641
 20
236.8334806775214
  0
LWPOLYLINE
  5
16A
100
AcDbEntity
  8
OUTER
  6
ByLayer
 62
  256
370
   -1
100
AcDbPolyline
 90
   12
 70
    1
 43
0
 10
54.37107424833702
 20
232.7848785411305
 10
54.54472238328034
 20
233.7696858488941
 42
0.414213562373094
 10
52.92240316677439
 20
236.0865978910784
 10
42.07343818385926
 20
237.999563444663
 42
0.6149540417411288
 10
18.8704615300367
 20
237.9995623321551
 10
8.021496790883257
 20
236.0865959195735
 42
0.4142135623731039
 10
6.399177761196126
 20
233.7696837465772
 10
6.572825975547023
 20
232.7848764528153
 42
0.4142135623730893
 10
8.88973814854333
 20
231.1625574231282
 10
20.07002897087692
 20
233.133944758154
 10
40.87387497087683
 20
233.1339455968886
 10
52.05416220615264
 20
231.1625593246246
 42
0.4142135623730909
  0
LINE
  5
16B
100
AcDbEntity
  8
TEXT
  6
ByLayer
 62
  256
370
   -1
100
AcDbLine
 10
109.9464597142677
 20
252.7692139139824
 11
112.9464597142677
 21
252.7692139139824
  0
LINE
  5
16C
100
AcDbEntity
  8
TEXT
  6
ByLayer
 62
  256
370
   -1
100
AcDbLine
 10
112.9464597142677
 20
252.7692139139824
 11
112.9464597142677
 21
251.4358805806492
  0
LINE
  5
16D
100
AcDbEntity
  8
TEXT
  6
ByLayer
 62
  256
370
   -1
100
AcDbLine
 10
111.6131263809343
 20
252.7692139139824
 11
111.6131263809343
 21
251.4358805806492
  0
LINE
  5
16E
100
AcDbEntity
  8
TEXT
  6
ByLayer
 62
  256
370
   -1
100
AcDbLine
 10
112.9464597142677
 20
250.4358805806492
 11
112.9464597142677
 21
249.7692139139824
  0
ARC
  5
16F
100
AcDbEntity
  8
TEXT
  6
ByLayer
 62
  256
370
   -1
100
AcDbCircle
 10
112.279793047601
 20
249.7692139139824
 40
0.6666666666666666
100
AcDbArc
 50
180
 51
0
  0
LINE
  5
170
100
AcDbEntity
  8
TEXT
  6
ByLayer
 62
  256
370
   -1
100
AcDbLine
 10
111.6131263809343
 20
250.1025472473158
 11
111.6131263809343
 21
249.7692139139824
  0
ARC
  5
171
100
AcDbEntity
  8
TEXT
  6
ByLayer
 62
  256
370
   -1
100
AcDbCircle
 10
110.9464602123178
 20
249.7692134159323
 40
0.6666661686167303
100
AcDbArc
 50
269.999957195713
 51
4.280428697680878e-05
  0
LINE
  5
172
100
AcDbEntity
  8
TEXT
  6
ByLayer
 62
  256
370
   -1
100
AcDbLine
 10
110.9464597142677
 20
249.1025472473158
 11
110.6131263809343
 21
249.1025472473158
  0
ARC
  5
173
100
AcDbEntity
  8
TEXT
  6
ByLayer
 62
  256
370
   -1
100
AcDbCircle
 10
110.6131258828842
 20
249.7692134159323
 40
0.6666661686167303
100
AcDbArc
 50
179.999957195713
 51
270.000042804287
  0
LINE
  5
174
100
AcDbEntity
  8
TEXT
  6
ByLayer
 62
  256
370
   -1
100
AcDbLine
 10
109.9464597142677
 20
249.7692139139824
 11
109.9464597142677
 21
250.4358805806492
  0
LWPOLYLINE
  5
175
100
AcDbEntity
  8
INNER
  6
ByLayer
 62
  256
370
   -1
100
AcDbPolyline
 90
    5
 70
    0
 43
0
 10
98.8289743341124
 20
230.3964622113327
 10
102.8289743341124
 20
230.3964622113327
 10
102.8289743341124
 20
228.3964622113327
 10
98.8289743341124
 20
228.3964622113327
 10
98.8289743341124
 20
230.3964622113327
  0
LWPOLYLINE
  5
176
100
AcDbEntity
  8
INNER
  6
ByLayer
 62
  256
370
   -1
100
AcDbPolyline
 90
    4
 70
    1
 43
0
 10
102.8289743341124
 20
260.3964622113324
 10
102.8289743341124
 20
262.3964622113324
 10
98.8289743341124
 20
262.3964622113324
 10
98.8289743341124
 20
260.3964622113324
  0
LWPOLYLINE
  5
177
100
AcDbEntity
  8
INNER
  6
ByLayer
 62
  256
370
   -1
100
AcDbPolyline
 90
    4
 70
    1
 43
0
 10
90.87897433411248
 20
249.0964622113326
 10
90.87897433411248
 20
241.0964622113326
 10
86.97897433411249
 20
241.0964622113326
 10
86.97897433411249
 20
249.0964622113326
  0
LWPOLYLINE
  5
178
100
AcDbEntity
  8
OUTER
  6
ByLayer
 62
  256
370
   -1
100
AcDbPolyline
 90
   23
 70
    1
 43
0
 10
120.6289743341125
 20
247.1964622113327
 10
121.1289743341125
 20
247.6964622113327
 10
121.1289743341125
 20
249.5680350865864
 10
104.3005472093663
 20
266.3964622113324
 10
78.82897433411252
 20
266.3964622113324
 10
78.82897433411252
 20
262.3964622113324
 10
71.32897433411252
 20
262.3964622113324
 10
71.32897433411252
 20
230.8964622113327
 10
71.82897433411252
 20
230.3964622113327
 10
78.32897433411252
 20
230.3964622113327
 10
78.82897433411252
 20
230.8964622113327
 10
78.82897433411252
 20
234.3964622113327
 10
92.62897433411251
 20
234.3964622113327
 10
92.62897433411251
 20
226.3964622113327
 10
94.62897433411251
 20
224.3964622113327
 10
104.3005472093663
 20
224.3964622113327
 10
109.1289743341125
 20
229.2248893360789
 10
109.1289743341125
 20
234.3964622113327
 10
121.1289743341125
 20
234.3964622113327
 10
121.1289743341125
 20
242.9964622113327
 10
120.6289743341125
 20
243.4964622113327
 10
109.5289743341122
 20
243.4964622113327
 10
109.5289743341122
 20
247.1964622113327
  0
LINE
  5
179
100
AcDbEntity
  8
TEXT
  6
ByLayer
 62
  256
370
   -1
100
AcDbLine
 10
112.3178917730606
 20
169.3791437334856
 11
109.3178917730606
 21
169.3791437334856
  0
LINE
  5
17A
100
AcDbEntity
  8
TEXT
  6
ByLayer
 62
  256
370
   -1
100
AcDbLine
 10
109.3178917730606
 20
169.3791437334856
 11
109.3178917730606
 21
170.7124770668188
  0
LINE
  5
17B
100
AcDbEntity
  8
TEXT
  6
ByLayer
 62
  256
370
   -1
100
AcDbLine
 10
110.6512251063938
 20
169.3791437334856
 11
110.6512251063938
 21
170.7124770668188
  0
LINE
  5
17C
100
AcDbEntity
  8
TEXT
  6
ByLayer
 62
  256
370
   -1
100
AcDbLine
 10
109.8178917730606
 20
171.7124770668188
 11
109.6512251063938
 21
171.8017937334855
  0
ARC
  5
17D
100
AcDbEntity
  8
TEXT
  6
ByLayer
 62
  256
370
   -1
100
AcDbCircle
 10
109.9845584397272
 20
172.3791437334856
 40
0.6666664335416259
100
AcDbArc
 50
59.99998843242389
 51
239.9999884324239
  0
LINE
  5
17E
100
AcDbEntity
  8
TEXT
  6
ByLayer
 62
  256
370
   -1
100
AcDbLine
 10
110.3178917730606
 20
172.9564937334856
 11
112.3178917730606
 21
171.7124770668188
  0
LINE
  5
17F
100
AcDbEntity
  8
TEXT
  6
ByLayer
 62
  256
370
   -1
100
AcDbLine
 10
112.3178917730606
 20
171.7124770668188
 11
112.3178917730606
 21
173.0458104001522
  0
LWPOLYLINE
  5
180
100
AcDbEntity
  8
INNER
  6
ByLayer
 62
  256
370
   -1
100
AcDbPolyline
 90
    4
 70
    1
 43
0
 10
76.71332206881102
 20
174.6274954957777
 10
74.72093267487584
 20
174.8018070069716
 10
74.37230965248783
 20
170.8170282191014
 10
76.36469909782035
 20
170.6427167034107
  0
LWPOLYLINE
  5
181
100
AcDbEntity
  8
INNER
  6
ByLayer
 62
  256
370
   -1
100
AcDbPolyline
 90
    4
 70
    1
 43
0
 10
101.3189522690255
 20
172.4747814962367
 10
99.32656287509032
 20
172.6490930074307
 10
98.97793985270233
 20
168.6643142195605
 10
100.9703292980348
 20
168.4900027038697
  0
LWPOLYLINE
  5
182
100
AcDbEntity
  8
INNER
  6
ByLayer
 62
  256
370
   -1
100
AcDbPolyline
 90
    4
 70
    1
 43
0
 10
65.39940569512176
 20
179.0645462718298
 10
67.39940569512176
 20
175.600444656692
 10
69.13145650269065
 20
176.600444656692
 10
67.13145650269065
 20
180.0645462718298
  0
LWPOLYLINE
  5
183
100
AcDbEntity
  8
OUTER
  6
ByLayer
 62
  256
370
   -1
100
AcDbPolyline
 90
   30
 70
    1
 43
0
 10
94.24456413002299
 20
165.2603720592217
 10
90.55902253288455
 20
165.5828152588726
 10
89.4212043113467
 20
152.5774954077054
 10
88.8776264335482
 20
152.0793980592218
 10
85.20078330365995
 20
152.0793980592218
 10
70.21980930365994
 20
167.0603720592218
 10
68.79682750028776
 20
167.0603914523455
 10
65.91006430365992
 20
162.0603720592218
 10
62.91006430365992
 20
162.0603720592218
 10
62.91006430365992
 20
168.0603720592218
 10
58.91006430365991
 20
168.0603720592218
 10
58.91006430365991
 20
177.0603720592217
 10
62.91006430365992
 20
177.0603720592217
 10
62.91006430365992
 20
183.0603720592218
 10
81.41006430365992
 20
183.0603720592218
 10
88.41006430365992
 20
190.0603720592218
 10
92.20053158186546
 20
190.0603720592217
 10
92.65695370406696
 20
189.5622747107381
 10
92.35057687981408
 20
186.06037210541
 10
103.780626486555
 20
185.0603720592217
 10
120.9100643036599
 20
185.0603720592217
 10
123.9100643036599
 20
182.0603720592217
 10
123.9100643036599
 20
179.4603720592216
 10
123.4100643036599
 20
178.9603720592216
 10
107.6100643036601
 20
178.9603720592216
 10
107.6100643036601
 20
175.2603720592217
 10
123.4100643036599
 20
175.2603720592217
 10
123.9100643036599
 20
174.7603720592217
 10
123.9100643036599
 20
172.0603720592217
 10
117.1100646439835
 20
165.2603720592217
  0
LWPOLYLINE
  5
184
100
AcDbEntity
  8
INNER
  6
ByLayer
 62
  256
370
   -1
100
AcDbPolyline
 90
    2
 70
    0
 43
0
 10
76.36469909782035
 20
170.6427167034107
 10
74.37230965248783
 20
170.8170282191014
  0
LINE
  5
185
100
AcDbEntity
  8
TEXT
  6
ByLayer
 62
  256
370
   -1
100
AcDbLine
 10
85.4787617658537
 20
197.8685609245761
 11
88.47876176585362
 21
197.8685609245761
  0
LINE
  5
186
100
AcDbEntity
  8
TEXT
  6
ByLayer
 62
  256
370
   -1
100
AcDbLine
 10
88.47876176585362
 20
197.8685609245761
 11
88.47876176585362
 21
196.5352275912428
  0
LINE
  5
187
100
AcDbEntity
  8
TEXT
  6
ByLayer
 62
  256
370
   -1
100
AcDbLine
 10
87.14542843252042
 20
197.8685609245761
 11
87.14542843252042
 21
196.5352275912428
  0
LINE
  5
188
100
AcDbEntity
  8
TEXT
  6
ByLayer
 62
  256
370
   -1
100
AcDbLine
 10
88.14542843252042
 20
195.5352275912428
 11
88.47876176585362
 21
195.5352275912428
  0
LINE
  5
189
100
AcDbEntity
  8
TEXT
  6
ByLayer
 62
  256
370
   -1
100
AcDbLine
 10
88.47876176585362
 20
195.5352275912428
 11
88.47876176585362
 21
194.2018942579094
  0
LINE
  5
18A
100
AcDbEntity
  8
TEXT
  6
ByLayer
 62
  256
370
   -1
100
AcDbLine
 10
88.47876176585362
 20
194.2018942579094
 11
85.4787617658537
 21
194.8685609245761
  0
LWPOLYLINE
  5
18B
100
AcDbEntity
  8
OUTER
  6
ByLayer
 62
  256
370
   -1
100
AcDbPolyline
 90
   10
 70
    1
 43
0
 10
74.67290939204273
 20
202.2097625490296
 42
-0.1316519723647658
 10
73.17291563169805
 20
202.6116865032318
 10
67.4764651982746
 20
205.9005345327226
 42
0.3766467792947198
 10
64.88859289200458
 20
205.3844863627068
 42
0.3389202437648454
 10
64.88859256783381
 20
187.0350386290891
 42
0.3766467893810546
 10
67.47646491706891
 20
186.5189904029689
 10
73.17291563169871
 20
189.8078385948133
 42
-0.1316523988845534
 10
74.67291741384022
 20
190.2097625490225
 10
85.82711175606963
 20
190.2097625490244
 42
0.9999996331099286
 10
85.8271073491384
 20
202.2097625490237
  0
LWPOLYLINE
  5
18C
100
AcDbEntity
  8
INNER
  6
ByLayer
 62
  256
370
   -1
100
AcDbPolyline
 90
    4
 70
    1
 43
0
 10
79.56868178769142
 20
194.1097755490226
 10
70.56868178769162
 20
194.1097755490226
 10
70.56868178769162
 20
198.1097755490228
 10
79.56868178769142
 20
198.1097755490228
  0
CIRCLE
  5
18D
100
AcDbEntity
  8
INNER
  6
CONTINUOUS
 62
  256
370
   -1
100
AcDbCircle
 10
92.64022600479721
 20
216.8088230431671
 40
0.3
  0
CIRCLE
  5
18E
100
AcDbEntity
  8
INNER
  6
CONTINUOUS
 62
  256
370
   -1
100
AcDbCircle
 10
77.65976030652213
 20
216.808823043167
 40
0.3
  0
CIRCLE
  5
18F
100
AcDbEntity
  8
INNER
  6
CONTINUOUS
 62
  256
370
   -1
100
AcDbCircle
 10
85.15982030652212
 20
227.808823043167
 40
0.3
  0
CIRCLE
  5
190
100
AcDbEntity
  8
INNER
  6
CONTINUOUS
 62
  256
370
   -1
100
AcDbCircle
 10
85.15982030652212
 20
205.808823043167
 40
0.3
  0
LINE
  5
191
100
AcDbEntity
  8
TEXT
  6
ByLayer
 62
  256
370
   -1
100
AcDbLine
 10
82.89479579514243
 20
207.4361032523623
 11
82.89479579514243
 21
210.4361032523623
  0
LINE
  5
192
100
AcDbEntity
  8
TEXT
  6
ByLayer
 62
  256
370
   -1
100
AcDbLine
 10
82.89479579514243
 20
210.4361032523623
 11
84.22812912847583
 21
210.4361032523623
  0
LINE
  5
193
100
AcDbEntity
  8
TEXT
  6
ByLayer
 62
  256
370
   -1
100
AcDbLine
 10
82.89479579514243
 20
209.102769919029
 11
84.22812912847583
 21
209.102769919029
  0
LINE
  5
194
100
AcDbEntity
  8
TEXT
  6
ByLayer
 62
  256
370
   -1
100
AcDbLine
 10
85.22812912847583
 20
209.7694365856957
 11
85.89479579514243
 21
210.4361032523623
  0
LINE
  5
195
100
AcDbEntity
  8
TEXT
  6
ByLayer
 62
  256
370
   -1
100
AcDbLine
 10
85.89479579514243
 20
210.4361032523623
 11
85.89479579514243
 21
207.4361032523623
  0
ARC
  5
196
100
AcDbEntity
  8
TEXT
  6
ByLayer
 62
  256
370
   -1
100
AcDbCircle
 10
87.56146246180911
 20
210.0194365856957
 40
0.4166666666666666
100
AcDbArc
 50
36.86989764584401
 51
143.130102354156
  0
ARC
  5
197
100
AcDbEntity
  8
TEXT
  6
ByLayer
 62
  256
370
   -1
100
AcDbCircle
 10
89.72812912847583
 20
208.9361032523623
 40
2.833333333333333
100
AcDbArc
 50
151.927513064147
 51
208.072486935853
  0
ARC
  5
198
100
AcDbEntity
  8
TEXT
  6
ByLayer
 62
  256
370
   -1
100
AcDbCircle
 10
87.56146246180911
 20
207.852769919029
 40
0.4166666666666666
100
AcDbArc
 50
216.869897645844
 51
323.130102354156
  0
ARC
  5
199
100
AcDbEntity
  8
TEXT
  6
ByLayer
 62
  256
370
   -1
100
AcDbCircle
 10
85.39479579514243
 20
208.9361032523623
 40
2.833333333333333
100
AcDbArc
 50
331.927513064147
 51
28.07248693585299
  0
LWPOLYLINE
  5
19A
100
AcDbEntity
  8
OUTER
  6
ByLayer
 62
  256
370
   -1
100
AcDbPolyline
 90
   15
 70
    1
 43
0
 10
78.90982030652212
 20
204.308635043167
 10
78.90982030652212
 20
210.308635043167
 10
74.90982030652212
 20
210.308635043167
 10
74.90982030652212
 20
222.3086350431672
 10
78.90982030652212
 20
222.3086350431672
 10
78.90982030652224
 20
229.6744410431671
 10
85.15982030652204
 20
231.3491234958616
 10
91.40982030652212
 20
229.6744410431671
 10
91.40982030652212
 20
222.3086350431672
 10
95.40982030652212
 20
222.3086350431672
 10
95.40982030652204
 20
210.308635043167
 10
91.40982030652204
 20
210.308635043167
 10
91.40982030652204
 20
204.308635043167
 10
90.40982030652204
 20
203.308635043167
 10
79.90982030652212
 20
203.308635043167
  0
CIRCLE
  5
19B
100
AcDbEntity
  8
OUTER
  6
ByLayer
 62
  256
370
   -1
100
AcDbCircle
 10
113.6300798642444
 20
157.9877902417402
 40
5
  0
CIRCLE
  5
19C
100
AcDbEntity
  8
INNER
  6
ByLayer
 62
  256
370
   -1
100
AcDbCircle
 10
113.6300798642444
 20
157.9877902417402
 40
0.95
  0
LWPOLYLINE
  5
19D
100
AcDbEntity
  8
OUTER
  6
ByLayer
 62
  256
370
   -1
100
AcDbPolyline
 90
    8
 70
    1
 43
0
 10
88.90976030652202
 20
219.8088230431671
 42
0.414213562373095
 10
86.90976030652202
 20
221.8088230431671
 10
83.40976030652193
 20
221.808823043167
 42
0.414213562373095
 10
81.40976030652193
 20
219.808823043167
 10
81.40976030652202
 20
213.808823043167
 42
0.414213562373095
 10
83.40976030652202
 20
211.808823043167
 10
86.90976030652202
 20
211.808823043167
 42
0.414213562373095
 10
88.90976030652202
 20
213.808823043167
  0
LINE
  5
19E
100
AcDbEntity
  8
OUTER
  6
ByLayer
 62
  256
370
   -1
100
AcDbLine
 10
93.50326707120438
 20
297.6583164679073
 11
88.50326707120432
 21
297.6583164679073
  0
LINE
  5
19F
100
AcDbEntity
  8
OUTER
  6
ByLayer
 62
  256
370
   -1
100
AcDbLine
 10
88.50326707120432
 20
297.6583164679073
 11
88.00326713370431
 21
297.1583164679073
  0
LINE
  5
1A0
100
AcDbEntity
  8
OUTER
  6
ByLayer
 62
  256
370
   -1
100
AcDbLine
 10
88.00326713370431
 20
297.1583164679073
 11
88.00326757120432
 21
293.6583164679073
  0
LINE
  5
1A1
100
AcDbEntity
  8
OUTER
  6
ByLayer
 62
  256
370
   -1
100
AcDbLine
 10
88.00326757120432
 20
293.6583164679073
 11
74.00022657120438
 21
293.6583164679073
  0
LINE
  5
1A2
100
AcDbEntity
  8
OUTER
  6
ByLayer
 62
  256
370
   -1
100
AcDbLine
 10
74.00022657120438
 20
293.6583164679073
 11
74.00022657120438
 21
297.1583164679073
  0
LINE
  5
1A3
100
AcDbEntity
  8
OUTER
  6
ByLayer
 62
  256
370
   -1
100
AcDbLine
 10
74.00022657120438
 20
297.1583164679073
 11
73.50022657120438
 21
297.6583164679073
  0
LINE
  5
1A4
100
AcDbEntity
  8
OUTER
  6
ByLayer
 62
  256
370
   -1
100
AcDbLine
 10
73.50022657120438
 20
297.6583164679073
 11
16.13326957120437
 21
297.6583164679073
  0
ARC
  5
1A5
100
AcDbEntity
  8
OUTER
  6
ByLayer
 62
  256
370
   -1
100
AcDbCircle
 10
16.13326957120434
 20
283.6583164679073
 40
14
100
AcDbArc
 50
89.9999999999999
 51
180
  0
LINE
  5
1A6
100
AcDbEntity
  8
OUTER
  6
ByLayer
 62
  256
370
   -1
100
AcDbLine
 10
2.133269571204345
 20
283.6583164679073
 11
2.133269571204373
 21
281.6583204679073
  0
ARC
  5
1A7
100
AcDbEntity
  8
OUTER
  6
ByLayer
 62
  256
370
   -1
100
AcDbCircle
 10
16.13326957120437
 20
281.6583204679073
 40
14
100
AcDbArc
 50
180
 51
269.9999999999999
  0
LINE
  5
1A8
100
AcDbEntity
  8
OUTER
  6
ByLayer
 62
  256
370
   -1
100
AcDbLine
 10
94.00326713370438
 20
297.1583164679073
 11
93.50326707120438
 21
297.6583164679073
  0
LINE
  5
1A9
100
AcDbEntity
  8
TEXT
  6
ByLayer
 62
  256
370
   -1
100
AcDbLine
 10
63.86540730238345
 20
273.848299730526
 11
63.30985174682786
 21
273.848299730526
  0
ARC
  5
1AA
100
AcDbEntity
  8
TEXT
  6
ByLayer
 62
  256
370
   -1
100
AcDbCircle
 10
63.86540730238345
 20
274.2927441749704
 40
0.4444444444444444
100
AcDbArc
 50
270
 51
90
  0
LINE
  5
1AB
100
AcDbEntity
  8
TEXT
  6
ByLayer
 62
  256
370
   -1
100
AcDbLine
 10
63.86540730238345
 20
274.7371886194149
 11
63.30985174682786
 21
274.7371886194149
  0
LINE
  5
1AC
100
AcDbEntity
  8
TEXT
  6
ByLayer
 62
  256
370
   -1
100
AcDbLine
 10
63.30985174682786
 20
274.7371886194149
 11
63.30985174682786
 21
272.7371886194149
  0
LINE
  5
1AD
100
AcDbEntity
  8
TEXT
  6
ByLayer
 62
  256
370
   -1
100
AcDbLine
 10
63.30985174682786
 20
272.7371886194149
 11
63.86540730238345
 21
272.7371886194149
  0
ARC
  5
1AE
100
AcDbEntity
  8
TEXT
  6
ByLayer
 62
  256
370
   -1
100
AcDbCircle
 10
63.86540730238345
 20
273.2927441749704
 40
0.5555555555555556
100
AcDbArc
 50
270
 51
90
  0
LINE
  5
1AF
100
AcDbEntity
  8
TEXT
  6
ByLayer
 62
  256
370
   -1
100
AcDbLine
 10
65.27280730238344
 20
273.2927441749704
 11
66.23576285793899
 21
273.2927441749704
  0
LINE
  5
1B0
100
AcDbEntity
  8
TEXT
  6
ByLayer
 62
  256
370
   -1
100
AcDbLine
 10
65.08762952460566
 20
272.7371886194149
 11
65.75429619127233
 21
274.7371886194149
  0
LINE
  5
1B1
100
AcDbEntity
  8
TEXT
  6
ByLayer
 62
  256
370
   -1
100
AcDbLine
 10
65.75429619127233
 20
274.7371886194149
 11
66.42096285793899
 21
272.7371886194149
  0
LINE
  5
1B2
100
AcDbEntity
  8
TEXT
  6
ByLayer
 62
  256
370
   -1
100
AcDbLine
 10
67.08762952460566
 20
274.7371886194149
 11
68.19874063571677
 21
274.7371886194149
  0
LINE
  5
1B3
100
AcDbEntity
  8
TEXT
  6
ByLayer
 62
  256
370
   -1
100
AcDbLine
 10
67.64318508016122
 20
274.7371886194149
 11
67.64318508016122
 21
272.7371886194149
  0
LINE
  5
1B4
100
AcDbEntity
  8
TEXT
  6
ByLayer
 62
  256
370
   -1
100
AcDbLine
 10
68.86540730238343
 20
274.7371886194149
 11
69.97651841349455
 21
274.7371886194149
  0
LINE
  5
1B5
100
AcDbEntity
  8
TEXT
  6
ByLayer
 62
  256
370
   -1
100
AcDbLine
 10
69.42096285793899
 20
274.7371886194149
 11
69.42096285793899
 21
272.7371886194149
  0
LINE
  5
1B6
100
AcDbEntity
  8
TEXT
  6
ByLayer
 62
  256
370
   -1
100
AcDbLine
 10
71.5320739690501
 20
272.7371886194149
 11
70.64318508016122
 21
272.7371886194149
  0
LINE
  5
1B7
100
AcDbEntity
  8
TEXT
  6
ByLayer
 62
  256
370
   -1
100
AcDbLine
 10
70.64318508016122
 20
272.7371886194149
 11
70.64318508016122
 21
274.7371886194149
  0
LINE
  5
1B8
100
AcDbEntity
  8
TEXT
  6
ByLayer
 62
  256
370
   -1
100
AcDbLine
 10
70.64318508016122
 20
274.7371886194149
 11
71.5320739690501
 21
274.7371886194149
  0
LINE
  5
1B9
100
AcDbEntity
  8
TEXT
  6
ByLayer
 62
  256
370
   -1
100
AcDbLine
 10
70.64318508016122
 20
273.848299730526
 11
71.30985174682789
 21
273.848299730526
  0
LINE
  5
1BA
100
AcDbEntity
  8
TEXT
  6
ByLayer
 62
  256
370
   -1
100
AcDbLine
 10
72.19874063571677
 20
272.7371886194149
 11
72.19874063571677
 21
274.7371886194149
  0
LINE
  5
1BB
100
AcDbEntity
  8
TEXT
  6
ByLayer
 62
  256
370
   -1
100
AcDbLine
 10
72.19874063571677
 20
274.7371886194149
 11
72.75429619127233
 21
274.7371886194149
  0
ARC
  5
1BC
100
AcDbEntity
  8
TEXT
  6
ByLayer
 62
  256
370
   -1
100
AcDbCircle
 10
72.75429619127233
 20
274.1816330638593
 40
0.5555555555555556
100
AcDbArc
 50
270
 51
90
  0
LINE
  5
1BD
100
AcDbEntity
  8
TEXT
  6
ByLayer
 62
  256
370
   -1
100
AcDbLine
 10
72.75429619127233
 20
273.6260775083038
 11
72.19874063571677
 21
273.6260775083038
  0
LINE
  5
1BE
100
AcDbEntity
  8
TEXT
  6
ByLayer
 62
  256
370
   -1
100
AcDbLine
 10
73.30985174682789
 20
272.7371886194149
 11
72.86067619127233
 21
273.6363575083038
  0
LINE
  5
1BF
100
AcDbEntity
  8
TEXT
  6
ByLayer
 62
  256
370
   -1
100
AcDbLine
 10
73.97651841349455
 20
274.7371886194149
 11
74.64318508016122
 21
273.848299730526
  0
LINE
  5
1C0
100
AcDbEntity
  8
TEXT
  6
ByLayer
 62
  256
370
   -1
100
AcDbLine
 10
74.64318508016122
 20
273.848299730526
 11
75.30985174682787
 21
274.7371886194149
  0
LINE
  5
1C1
100
AcDbEntity
  8
TEXT
  6
ByLayer
 62
  256
370
   -1
100
AcDbLine
 10
74.64318508016122
 20
272.7371886194149
 11
74.64318508016122
 21
273.848299730526
  0
LINE
  5
1C2
100
AcDbEntity
  8
OUTER
  6
ByLayer
 62
  256
370
   -1
100
AcDbLine
 10
16.13326957120434
 20
267.6583204679073
 11
95.00327082120388
 21
267.6583204679072
  0
LINE
  5
1C3
100
AcDbEntity
  8
OUTER
  6
ByLayer
 62
  256
370
   -1
100
AcDbLine
 10
98.00326944620393
 20
278.6583204679072
 11
98.00327019620391
 21
272.6583204679072
  0
LINE
  5
1C4
100
AcDbEntity
  8
OUTER
  6
CONTINUOUS
 62
    7
370
   35
100
AcDbLine
 10
95.00327082120388
 20
267.6583204679072
 11
95.00327019620389
 21
272.6583204679072
  0
LINE
  5
1C5
100
AcDbEntity
  8
OUTER
  6
ByLayer
 62
  256
370
   -1
100
AcDbLine
 10
95.00326944620389
 20
278.6583204679072
 11
98.00326944620393
 21
278.6583204679072
  0
LINE
  5
1C6
100
AcDbEntity
  8
OUTER
  6
ByLayer
 62
  256
370
   -1
100
AcDbLine
 10
95.00327019620389
 20
272.6583204679072
 11
98.00327019620391
 21
272.6583204679072
  0
LINE
  5
1C7
100
AcDbEntity
  8
OUTER
  6
ByLayer
 62
  256
370
   -1
100
AcDbLine
 10
94.00326882120389
 20
283.6583204679072
 11
94.00326713370438
 21
297.1583164679073
  0
LINE
  5
1C8
100
AcDbEntity
  8
OUTER
  6
CONTINUOUS
 62
    7
370
   35
100
AcDbLine
 10
95.00326944620389
 20
278.6583204679072
 11
95.00326882120389
 21
283.6583204679072
  0
LINE
  5
1C9
100
AcDbEntity
  8
OUTER
  6
ByLayer
 62
  256
370
   -1
100
AcDbLine
 10
94.00326882120389
 20
283.6583204679072
 11
95.00326882120389
 21
283.6583204679072
  0
LWPOLYLINE
  5
1CA
100
AcDbEntity
  8
OUTER
  6
ByLayer
 62
  256
370
   -1
100
AcDbPolyline
 90
    8
 70
    1
 43
0
 10
103.3395685367682
 20
163.6485362364388
 42
-0.414213562373094
 10
107.3395685367682
 20
159.6485362364388
 10
107.3395685367681
 20
155.6485362364388
 42
-0.414213562373094
 10
103.3395685367682
 20
151.6485362364388
 10
95.33956853676817
 20
151.6485362364388
 42
-0.414213562373095
 10
91.33956853676817
 20
155.6485362364388
 10
91.33956853676817
 20
159.6485362364388
 42
-0.414213562373095
 10
95.33956853676817
 20
163.6485362364388
  0
LWPOLYLINE
  5
1CB
100
AcDbEntity
  8
INNER
  6
ByLayer
 62
  256
370
   -1
100
AcDbPolyline
 90
    4
 70
    1
 43
0
 10
102.3395685367682
 20
159.6485362364388
 10
96.33956853676817
 20
159.6485362364388
 10
96.33956853676817
 20
155.6485362364388
 10
102.3395685367682
 20
155.6485362364388
  0
CIRCLE
  5
1CC
100
AcDbEntity
  8
INNER
  6
ByLayer
 62
  256
370
   -1
100
AcDbCircle
 10
99.85680528304664
 20
288.2096521579272
 40
0.9
  0
LWPOLYLINE
  5
1CD
100
AcDbEntity
  8
OUTER
  6
ByLayer
 62
  256
370
   -1
100
AcDbPolyline
 90
   11
 70
    1
 43
0
 10
132.7010511493215
 20
279.2951541812526
 10
136.5010511493214
 20
279.2951541812526
 10
136.5010511493214
 20
273.0951541812525
 10
126.8091916541988
 20
273.0951541812525
 10
98.36265819207381
 20
283.4488452162986
 42
-0.8221803452286439
 10
99.88327914932154
 20
293.2120071812524
 10
122.2431921493215
 20
293.2120071812525
 10
130.7010511493215
 20
298.0951541812525
 10
136.5010511493214
 20
298.0951541812525
 10
136.5010511493214
 20
290.8951541812525
 10
132.7010511493215
 20
290.8951541812525
  0
LINE
  5
1CE
100
AcDbEntity
  8
TEXT
  6
ByLayer
 62
  256
370
   -1
100
AcDbLine
 10
127.5760819618433
 20
288.429473564564
 11
130.5760819618433
 21
288.429473564564
  0
LINE
  5
1CF
100
AcDbEntity
  8
TEXT
  6
ByLayer
 62
  256
370
   -1
100
AcDbLine
 10
130.5760819618433
 20
288.429473564564
 11
130.5760819618433
 21
287.0961402312307
  0
LINE
  5
1D0
100
AcDbEntity
  8
TEXT
  6
ByLayer
 62
  256
370
   -1
100
AcDbLine
 10
129.2427486285099
 20
288.429473564564
 11
129.2427486285099
 21
287.0961402312307
  0
LINE
  5
1D1
100
AcDbEntity
  8
TEXT
  6
ByLayer
 62
  256
370
   -1
100
AcDbLine
 10
129.9094152951766
 20
286.0961402312307
 11
130.5760819618433
 21
285.429473564564
  0
LINE
  5
1D2
100
AcDbEntity
  8
TEXT
  6
ByLayer
 62
  256
370
   -1
100
AcDbLine
 10
130.5760819618433
 20
285.429473564564
 11
127.5760819618433
 21
285.429473564564
  0
LINE
  5
1D3
100
AcDbEntity
  8
TEXT
  6
ByLayer
 62
  256
370
   -1
100
AcDbLine
 10
130.0760819618433
 20
284.429473564564
 11
130.2427486285099
 21
284.3401568978974
  0
ARC
  5
1D4
100
AcDbEntity
  8
TEXT
  6
ByLayer
 62
  256
370
   -1
100
AcDbCircle
 10
129.9094152951766
 20
283.7628068978974
 40
0.6666664335416259
100
AcDbArc
 50
239.9999884324239
 51
59.99998843242388
  0
LINE
  5
1D5
100
AcDbEntity
  8
TEXT
  6
ByLayer
 62
  256
370
   -1
100
AcDbLine
 10
129.5760819618433
 20
283.1854568978974
 11
127.5760819618433
 21
284.429473564564
  0
LINE
  5
1D6
100
AcDbEntity
  8
TEXT
  6
ByLayer
 62
  256
370
   -1
100
AcDbLine
 10
127.5760819618433
 20
284.429473564564
 11
127.5760819618433
 21
283.0961402312307
  0
LINE
  5
1D7
100
AcDbEntity
  8
TEXT
  6
ByLayer
 62
  256
370
   -1
100
AcDbLine
 10
128.6412457921527
 20
292.5288397865719
 11
130.6412457921527
 21
292.5288397865719
  0
LINE
  5
1D8
100
AcDbEntity
  8
TEXT
  6
ByLayer
 62
  256
370
   -1
100
AcDbLine
 10
130.6412457921527
 20
292.5288397865719
 11
130.6412457921527
 21
291.9732842310162
  0
ARC
  5
1D9
100
AcDbEntity
  8
TEXT
  6
ByLayer
 62
  256
370
   -1
100
AcDbCircle
 10
130.0856902365971
 20
291.9732842310162
 40
0.5555555555555556
100
AcDbArc
 50
180
 51
0
  0
LINE
  5
1DA
100
AcDbEntity
  8
TEXT
  6
ByLayer
 62
  256
370
   -1
100
AcDbLine
 10
129.5301346810415
 20
291.9732842310163
 11
129.5301346810415
 21
292.5288397865719
  0
LINE
  5
1DB
100
AcDbEntity
  8
TEXT
  6
ByLayer
 62
  256
370
   -1
100
AcDbLine
 10
128.6412457921527
 20
291.4177286754608
 11
129.5404146810416
 21
291.8669042310163
  0
CIRCLE
  5
1DC
100
AcDbEntity
  8
INNER
  6
ByLayer
 62
  256
370
   -1
100
AcDbCircle
 10
141.1461038569347
 20
283.2547416317081
 40
0.9
  0
LWPOLYLINE
  5
1DD
100
AcDbEntity
  8
OUTER
  6
ByLayer
 62
  256
370
   -1
100
AcDbPolyline
 90
   11
 70
    1
 43
0
 10
173.9903497232094
 20
292.1692396083828
 10
177.7903497232094
 20
292.1692396083828
 10
177.7903497232094
 20
298.3692396083828
 10
168.0984902280869
 20
298.3692396083828
 10
139.6519567659618
 20
288.0155485733367
 42
0.8221803452286327
 10
141.1725777232094
 20
278.2523866083828
 10
163.5324907232094
 20
278.2523866083828
 10
171.9903497232095
 20
273.3692396083828
 10
177.7903497232094
 20
273.3692396083828
 10
177.7903497232094
 20
280.5692396083827
 10
173.9903497232094
 20
280.5692396083827
  0
LINE
  5
1DE
100
AcDbEntity
  8
TEXT
  6
ByLayer
 62
  256
370
   -1
100
AcDbLine
 10
169.1529053249106
 20
288.8110638550991
 11
172.1529053249106
 21
288.8110638550991
  0
LINE
  5
1DF
100
AcDbEntity
  8
TEXT
  6
ByLayer
 62
  256
370
   -1
100
AcDbLine
 10
172.1529053249106
 20
288.8110638550991
 11
172.1529053249106
 21
287.4777305217658
  0
LINE
  5
1E0
100
AcDbEntity
  8
TEXT
  6
ByLayer
 62
  256
370
   -1
100
AcDbLine
 10
170.8195719915773
 20
288.8110638550991
 11
170.8195719915773
 21
287.4777305217658
  0
LINE
  5
1E1
100
AcDbEntity
  8
TEXT
  6
ByLayer
 62
  256
370
   -1
100
AcDbLine
 10
171.4862386582439
 20
286.4777305217658
 11
172.1529053249106
 21
285.8110638550991
  0
LINE
  5
1E2
100
AcDbEntity
  8
TEXT
  6
ByLayer
 62
  256
370
   -1
100
AcDbLine
 10
172.1529053249106
 20
285.8110638550991
 11
169.1529053249106
 21
285.8110638550991
  0
LINE
  5
1E3
100
AcDbEntity
  8
TEXT
  6
ByLayer
 62
  256
370
   -1
100
AcDbLine
 10
171.4862386582439
 20
284.8110638550991
 11
172.1529053249106
 21
284.1443971884324
  0
LINE
  5
1E4
100
AcDbEntity
  8
TEXT
  6
ByLayer
 62
  256
370
   -1
100
AcDbLine
 10
172.1529053249106
 20
284.1443971884324
 11
169.1529053249106
 21
284.1443971884324
  0
LINE
  5
1E5
100
AcDbEntity
  8
TEXT
  6
ByLayer
 62
  256
370
   -1
100
AcDbLine
 10
172.1274480226605
 20
279.6841772588512
 11
170.1274480226605
 21
279.6841772588512
  0
LINE
  5
1E6
100
AcDbEntity
  8
TEXT
  6
ByLayer
 62
  256
370
   -1
100
AcDbLine
 10
170.1274480226605
 20
279.6841772588512
 11
170.1274480226605
 21
278.7952883699623
  0
CIRCLE
  5
1E7
100
AcDbEntity
  8
INNER
  6
CONTINUOUS
 62
  256
370
   -1
100
AcDbCircle
 10
157.6769389881279
 20
248.9711147476771
 40
0.3
  0
CIRCLE
  5
1E8
100
AcDbEntity
  8
INNER
  6
CONTINUOUS
 62
  256
370
   -1
100
AcDbCircle
 10
151.4267847541001
 20
248.9710551918855
 40
3.25
  0
CIRCLE
  5
1E9
100
AcDbEntity
  8
INNER
  6
CONTINUOUS
 62
  256
370
   -1
100
AcDbCircle
 10
145.1769397737941
 20
248.9708122576403
 40
0.3
  0
ARC
  5
1EA
100
AcDbEntity
  8
TEXT
  6
ByLayer
 62
  256
370
   -1
100
AcDbCircle
 10
151.686644161065
 20
272.5692223757604
 40
0.6944444444444444
100
AcDbArc
 50
180
 51
0
  0
LINE
  5
1EB
100
AcDbEntity
  8
TEXT
  6
ByLayer
 62
  256
370
   -1
100
AcDbLine
 10
150.9921997166206
 20
272.5692223757604
 11
150.9921997166206
 21
273.6803334868715
  0
ARC
  5
1EC
100
AcDbEntity
  8
TEXT
  6
ByLayer
 62
  256
370
   -1
100
AcDbCircle
 10
151.686644161065
 20
273.6803334868715
 40
0.6944444444444444
100
AcDbArc
 50
0
 51
180
  0
LINE
  5
1ED
100
AcDbEntity
  8
TEXT
  6
ByLayer
 62
  256
370
   -1
100
AcDbLine
 10
152.3810886055094
 20
273.6803334868715
 11
152.3810886055094
 21
272.5692223757604
  0
LINE
  5
1EE
100
AcDbEntity
  8
TEXT
  6
ByLayer
 62
  256
370
   -1
100
AcDbLine
 10
153.9687879085043
 20
273.2320536645089
 11
153.2750044212945
 21
273.2623449057349
  0
ARC
  5
1EF
100
AcDbEntity
  8
TEXT
  6
ByLayer
 62
  256
370
   -1
100
AcDbCircle
 10
153.993020901485
 20
273.7870804542767
 40
0.5555555555555556
100
AcDbArc
 50
267.4999999999999
 51
87.49999999999996
  0
LINE
  5
1F0
100
AcDbEntity
  8
TEXT
  6
ByLayer
 62
  256
370
   -1
100
AcDbLine
 10
153.3234704072561
 20
274.3723984852705
 11
153.2144219388426
 21
271.8747779313157
  0
LINE
  5
1F1
100
AcDbEntity
  8
TEXT
  6
ByLayer
 62
  256
370
   -1
100
AcDbLine
 10
153.2144219388426
 20
271.8747779313157
 11
153.9082054260524
 21
271.8444866900897
  0
ARC
  5
1F2
100
AcDbEntity
  8
TEXT
  6
ByLayer
 62
  256
370
   -1
100
AcDbCircle
 10
153.9384966672783
 20
272.5382701772996
 40
0.6944444444444444
100
AcDbArc
 50
267.4999999999999
 51
87.49999999999996
  0
LINE
  5
1F3
100
AcDbEntity
  8
TEXT
  6
ByLayer
 62
  256
370
   -1
100
AcDbLine
 10
155.5084075356812
 20
271.5094741540398
 11
155.7262968925502
 21
273.9999608992692
  0
LINE
  5
1F4
100
AcDbEntity
  8
TEXT
  6
ByLayer
 62
  256
370
   -1
100
AcDbLine
 10
156.3313011456719
 20
271.3875639895968
 11
156.7654215898394
 21
273.8495833721274
  0
LINE
  5
1F5
100
AcDbEntity
  8
TEXT
  6
ByLayer
 62
  256
370
   -1
100
AcDbLine
 10
158.1332101356894
 20
273.60840534759
 11
156.5001257628481
 21
272.3450159716919
  0
LINE
  5
1F6
100
AcDbEntity
  8
TEXT
  6
ByLayer
 62
  256
370
   -1
100
AcDbLine
 10
157.6990896915223
 20
271.1463859650592
 11
157.116060829621
 21
272.8215213798597
  0
LINE
  5
1F7
100
AcDbEntity
  8
TEXT
  6
ByLayer
 62
  256
370
   -1
100
AcDbLine
 10
159.2475697157622
 20
270.6029362456075
 11
158.1743187976632
 21
270.8905129623882
  0
LINE
  5
1F8
100
AcDbEntity
  8
TEXT
  6
ByLayer
 62
  256
370
   -1
100
AcDbLine
 10
158.1743187976632
 20
270.8905129623882
 11
158.8213664104196
 21
273.3053275281108
  0
LINE
  5
1F9
100
AcDbEntity
  8
TEXT
  6
ByLayer
 62
  256
370
   -1
100
AcDbLine
 10
158.8213664104196
 20
273.3053275281108
 11
159.8946173285187
 21
273.0177508113305
  0
LINE
  5
1FA
100
AcDbEntity
  8
TEXT
  6
ByLayer
 62
  256
370
   -1
100
AcDbLine
 10
158.5337896936389
 20
272.2320766100117
 11
159.3387278822133
 21
272.0163940724264
  0
LINE
  5
1FB
100
AcDbEntity
  8
TEXT
  6
ByLayer
 62
  256
370
   -1
100
AcDbLine
 10
149.6959250149903
 20
273.2231797516574
 11
149.0021415277807
 21
273.1928885104314
  0
ARC
  5
1FC
100
AcDbEntity
  8
TEXT
  6
ByLayer
 62
  256
370
   -1
100
AcDbCircle
 10
149.6716920220096
 20
273.7782065414247
 40
0.5555555555555556
100
AcDbArc
 50
272.5
 51
92.5
  0
LINE
  5
1FD
100
AcDbEntity
  8
TEXT
  6
ByLayer
 62
  256
370
   -1
100
AcDbLine
 10
148.9536755418195
 20
274.3029420899664
 11
149.0627240102326
 21
271.8053215360122
  0
LINE
  5
1FE
100
AcDbEntity
  8
TEXT
  6
ByLayer
 62
  256
370
   -1
100
AcDbLine
 10
149.0627240102326
 20
271.8053215360122
 11
149.7565074974424
 21
271.8356127772375
  0
ARC
  5
1FF
100
AcDbEntity
  8
TEXT
  6
ByLayer
 62
  256
370
   -1
100
AcDbCircle
 10
149.7262162562165
 20
272.5293962644474
 40
0.6944444444444444
100
AcDbArc
 50
272.5
 51
92.5
  0
ARC
  5
200
100
AcDbEntity
  8
TEXT
  6
ByLayer
 62
  256
370
   -1
100
AcDbCircle
 10
147.8338927277013
 20
272.3388119563502
 40
0.6944444444444444
100
AcDbArc
 50
185
 51
4.999999999999995
  0
LINE
  5
201
100
AcDbEntity
  8
TEXT
  6
ByLayer
 62
  256
370
   -1
100
AcDbLine
 10
147.1420908540266
 20
272.2782871349977
 11
147.0452511398624
 21
273.3851701328776
  0
ARC
  5
202
100
AcDbEntity
  8
TEXT
  6
ByLayer
 62
  256
370
   -1
100
AcDbCircle
 10
147.7370530135374
 20
273.4456949542302
 40
0.6944444444444444
100
AcDbArc
 50
4.999999999999995
 51
185
  0
LINE
  5
203
100
AcDbEntity
  8
TEXT
  6
ByLayer
 62
  256
370
   -1
100
AcDbLine
 10
148.4288548872121
 20
273.5062197755827
 11
148.525694601376
 21
272.3993367777028
  0
LINE
  5
204
100
AcDbEntity
  8
TEXT
  6
ByLayer
 62
  256
370
   -1
100
AcDbLine
 10
145.5978163276623
 20
271.2217581368419
 11
145.056717292817
 21
273.6624981546417
  0
LINE
  5
205
100
AcDbEntity
  8
TEXT
  6
ByLayer
 62
  256
370
   -1
100
AcDbLine
 10
145.056717292817
 20
273.6624981546417
 11
145.7347006310947
 21
273.812803442099
  0
ARC
  5
206
100
AcDbEntity
  8
TEXT
  6
ByLayer
 62
  256
370
   -1
100
AcDbCircle
 10
145.8850059185517
 20
273.1348201038214
 40
0.6944444444444444
100
AcDbArc
 50
282.5000000000001
 51
102.5
  0
LINE
  5
207
100
AcDbEntity
  8
TEXT
  6
ByLayer
 62
  256
370
   -1
100
AcDbLine
 10
146.0353112060087
 20
272.4568367655432
 11
145.357327867731
 21
272.3065314780865
  0
LINE
  5
208
100
AcDbEntity
  8
TEXT
  6
ByLayer
 62
  256
370
   -1
100
AcDbLine
 10
146.9537830042177
 20
271.5223687117561
 11
146.1623529185164
 21
272.4981632268984
  0
LINE
  5
209
100
AcDbEntity
  8
TEXT
  6
ByLayer
 62
  256
370
   -1
100
AcDbLine
 10
154.0172538944655
 20
274.3421072440445
 11
153.3234704072561
 21
274.3723984852705
  0
LINE
  5
20A
100
AcDbEntity
  8
TEXT
  6
ByLayer
 62
  256
370
   -1
100
AcDbLine
 10
149.6474590290289
 20
274.3332333311924
 11
148.9536755418195
 21
274.3029420899664
  0
CIRCLE
  5
20B
100
AcDbEntity
  8
INNER
  6
CONTINUOUS
 62
  256
370
   -1
100
AcDbCircle
 10
151.4272083431841
 20
255.9713552339495
 40
0.3
  0
CIRCLE
  5
20C
100
AcDbEntity
  8
INNER
  6
CONTINUOUS
 62
  256
370
   -1
100
AcDbCircle
 10
151.426688881642
 20
242.4713552439437
 40
0.3
  0
CIRCLE
  5
20D
100
AcDbEntity
  8
INNER
  6
CONTINUOUS
 62
  256
370
   -1
100
AcDbCircle
 10
151.4269737415825
 20
268.9711245386065
 40
0.5
  0
CIRCLE
  5
20E
100
AcDbEntity
  8
OUTER
  6
ByLayer
 62
  256
370
   -1
100
AcDbCircle
 10
151.426797988128
 20
248.9710837476773
 40
26.5
  0
LWPOLYLINE
  5
20F
100
AcDbEntity
  8
INNER
  6
ByLayer
 62
  256
370
   -1
100
AcDbPolyline
 90
    4
 70
    1
 43
0
 10
164.5725748460079
 20
245.7263891534436
 42
1.022020977581141
 10
161.6234651817546
 20
243.02402847112
 10
166.9686785702688
 20
237.1907529682848
 42
1.022020977581325
 10
169.9177882345222
 20
239.8931136506085
  0
LWPOLYLINE
  5
210
100
AcDbEntity
  8
INNER
  6
ByLayer
 62
  256
370
   -1
100
AcDbPolyline
 90
    4
 70
    1
 43
0
 10
158.4279217805569
 20
237.3812730093665
 42
1.022020977581167
 10
154.4317285984244
 20
237.5557499118454
 10
154.0866165104468
 20
229.6513645510701
 42
1.022020977581118
 10
158.082808719099
 20
229.4768866227571
  0
LWPOLYLINE
  5
211
100
AcDbEntity
  8
INNER
  6
ByLayer
 62
  256
370
   -1
100
AcDbPolyline
 90
    4
 70
    1
 43
0
 10
148.1821025991203
 20
235.825310162717
 42
1.02202097758118
 10
145.4797419429736
 20
238.7744188273131
 10
139.6464654404816
 20
233.4292054126218
 42
1.022020977581397
 10
142.348826096628
 20
230.4800967480257
  0
LWPOLYLINE
  5
212
100
AcDbEntity
  8
INNER
  6
ByLayer
 62
  256
370
   -1
100
AcDbPolyline
 90
    4
 70
    1
 43
0
 10
139.8369854553862
 20
241.9699632019911
 42
1.022020977581016
 10
140.0114633836992
 20
245.9661554106433
 10
132.1070769970896
 20
246.3112684721017
 42
1.022020977581011
 10
131.9326000684341
 20
242.3150762896265
  0
LWPOLYLINE
  5
213
100
AcDbEntity
  8
INNER
  6
ByLayer
 62
  256
370
   -1
100
AcDbPolyline
 90
    4
 70
    1
 43
0
 10
138.2810236083941
 20
252.2157824096049
 42
1.022020977581196
 10
141.2301322729901
 20
254.9181430657516
 10
135.8849188582987
 20
260.7514195682437
 42
1.022020977581228
 10
132.9358101937026
 20
258.0490589120972
  0
LWPOLYLINE
  5
214
100
AcDbEntity
  8
INNER
  6
ByLayer
 62
  256
370
   -1
100
AcDbPolyline
 90
    4
 70
    1
 43
0
 10
144.4256766476683
 20
260.5608995533389
 42
1.022020977581066
 10
148.4218688563206
 20
260.3864216250259
 10
148.766980944298
 20
268.2908069858012
 42
1.022020977581119
 10
144.7707887356458
 20
268.4652849141142
  0
LWPOLYLINE
  5
215
100
AcDbEntity
  8
INNER
  6
ByLayer
 62
  256
370
   -1
100
AcDbPolyline
 90
    4
 70
    1
 43
0
 10
154.6714958552816
 20
262.1168614003311
 42
1.022020977581155
 10
157.3738565114283
 20
259.1677527357351
 10
163.2071320142633
 20
264.5129661242497
 42
1.022020977581172
 10
160.5047713581167
 20
267.4620747888454
  0
LWPOLYLINE
  5
216
100
AcDbEntity
  8
INNER
  6
ByLayer
 62
  256
370
   -1
100
AcDbPolyline
 90
    4
 70
    1
 43
0
 10
163.0166119993584
 20
255.97220833488
 42
1.022020977580807
 10
162.8421350707028
 20
251.9760161524047
 10
170.7465204576551
 20
251.6309030647695
 42
1.022020977581106
 10
170.9209983597911
 20
255.6270962730792
  0
CIRCLE
  5
217
100
AcDbEntity
  8
INNER
  6
ByLayer
 62
  256
370
   -1
100
AcDbCircle
 10
162.1938296409614
 20
236.4682257359458
 40
1
  0
CIRCLE
  5
218
100
AcDbEntity
  8
INNER
  6
ByLayer
 62
  256
370
   -1
100
AcDbCircle
 10
163.9296128178325
 20
259.7380814148578
 40
1
  0
CIRCLE
  5
219
100
AcDbEntity
  8
INNER
  6
ByLayer
 62
  256
370
   -1
100
AcDbCircle
 10
140.6597571389203
 20
261.473864591729
 40
1
  0
CIRCLE
  5
21A
100
AcDbEntity
  8
INNER
  6
ByLayer
 62
  256
370
   -1
100
AcDbCircle
 10
138.9239739620493
 20
238.2040089128168
 40
1
  0
CIRCLE
  5
21B
100
AcDbEntity
  8
INNER
  6
CONTINUOUS
 62
  256
370
   -1
100
AcDbCircle
 10
151.5939599595482
 20
179.1947153796442
 40
1
  0
CIRCLE
  5
21C
100
AcDbEntity
  8
INNER
  6
ByLayer
 62
  256
370
   -1
100
AcDbCircle
 10
162.360621418501
 20
166.6919071684072
 40
1
  0
CIRCLE
  5
21D
100
AcDbEntity
  8
INNER
  6
ByLayer
 62
  256
370
   -1
100
AcDbCircle
 10
164.0964045953721
 20
189.9617628473193
 40
1
  0
CIRCLE
  5
21E
100
AcDbEntity
  8
INNER
  6
ByLayer
 62
  256
370
   -1
100
AcDbCircle
 10
140.8265489164599
 20
191.6975460241904
 40
1
  0
CIRCLE
  5
21F
100
AcDbEntity
  8
INNER
  6
ByLayer
 62
  256
370
   -1
100
AcDbCircle
 10
139.0907657395889
 20
168.4276903452782
 40
1
  0
LWPOLYLINE
  5
220
100
AcDbEntity
  8
INNER
  6
ByLayer
 62
  256
370
   -1
100
AcDbPolyline
 90
    4
 70
    1
 43
0
 10
164.739750051456
 20
175.9500493412023
 42
1.022020977581141
 10
161.7906403872027
 20
173.2476886588788
 10
167.1358537757169
 20
167.4144131560435
 42
1.022020977581325
 10
170.0849634399703
 20
170.1167738383672
  0
LWPOLYLINE
  5
221
100
AcDbEntity
  8
INNER
  6
ByLayer
 62
  256
370
   -1
100
AcDbPolyline
 90
    4
 70
    1
 43
0
 10
158.595096986005
 20
167.6049331971252
 42
1.022020977581167
 10
154.5989038038725
 20
167.7794100996041
 10
154.2537917158949
 20
159.8750247388288
 42
1.022020977581118
 10
158.2499839245471
 20
159.7005468105158
  0
LWPOLYLINE
  5
222
100
AcDbEntity
  8
INNER
  6
ByLayer
 62
  256
370
   -1
100
AcDbPolyline
 90
    4
 70
    1
 43
0
 10
148.3492778045684
 20
166.0489703504758
 42
1.02202097758118
 10
145.6469171484217
 20
168.9980790150718
 10
139.8136406459297
 20
163.6528656003805
 42
1.022020977581397
 10
142.5160013020761
 20
160.7037569357845
  0
LWPOLYLINE
  5
223
100
AcDbEntity
  8
INNER
  6
ByLayer
 62
  256
370
   -1
100
AcDbPolyline
 90
    4
 70
    1
 43
0
 10
140.0041606608343
 20
172.1936233897498
 42
1.022020977581016
 10
140.1786385891473
 20
176.189815598402
 10
132.2742522025377
 20
176.5349286598604
 42
1.022020977581011
 10
132.0997752738822
 20
172.5387364773852
  0
LWPOLYLINE
  5
224
100
AcDbEntity
  8
INNER
  6
ByLayer
 62
  256
370
   -1
100
AcDbPolyline
 90
    4
 70
    1
 43
0
 10
138.4481988138422
 20
182.4394425973636
 42
1.022020977581196
 10
141.3973074784382
 20
185.1418032535103
 10
136.0520940637468
 20
190.9750797560024
 42
1.022020977581228
 10
133.1029853991507
 20
188.2727190998559
  0
LWPOLYLINE
  5
225
100
AcDbEntity
  8
INNER
  6
ByLayer
 62
  256
370
   -1
100
AcDbPolyline
 90
    4
 70
    1
 43
0
 10
144.5928518531164
 20
190.7845597410977
 42
1.022020977581066
 10
148.5890440617687
 20
190.6100818127847
 10
148.9341561497461
 20
198.5144671735599
 42
1.022020977581119
 10
144.9379639410939
 20
198.6889451018729
  0
LWPOLYLINE
  5
226
100
AcDbEntity
  8
INNER
  6
ByLayer
 62
  256
370
   -1
100
AcDbPolyline
 90
    4
 70
    1
 43
0
 10
154.8386710607297
 20
192.3405215880898
 42
1.022020977581155
 10
157.5410317168764
 20
189.3914129234938
 10
163.3743072197114
 20
194.7366263120084
 42
1.022020977581172
 10
160.6719465635648
 20
197.6857349766042
  0
LWPOLYLINE
  5
227
100
AcDbEntity
  8
INNER
  6
ByLayer
 62
  256
370
   -1
100
AcDbPolyline
 90
    4
 70
    1
 43
0
 10
163.1837872048065
 20
186.1958685226387
 42
1.022020977580807
 10
163.0093102761509
 20
182.1996763401634
 10
170.9136956631032
 20
181.8545632525283
 42
1.022020977581106
 10
171.0881735652392
 20
185.8507564608379
  0
CIRCLE
  5
228
100
AcDbEntity
  8
OUTER
  6
ByLayer
 62
  256
370
   -1
100
AcDbCircle
 10
125.371328834718
 20
157.9498791651392
 40
5
  0
CIRCLE
  5
229
100
AcDbEntity
  8
INNER
  6
ByLayer
 62
  256
370
   -1
100
AcDbCircle
 10
125.371328834718
 20
157.9498791651392
 40
0.95
  0
LINE
  5
22A
100
AcDbEntity
  8
TEXT
  6
ByLayer
 62
  256
370
   -1
100
AcDbLine
 10
137.108160360811
 20
217.3201723693054
 11
140.108160360811
 21
217.3201723693054
  0
LINE
  5
22B
100
AcDbEntity
  8
TEXT
  6
ByLayer
 62
  256
370
   -1
100
AcDbLine
 10
140.108160360811
 20
217.3201723693054
 11
140.108160360811
 21
215.9868390359723
  0
LINE
  5
22C
100
AcDbEntity
  8
TEXT
  6
ByLayer
 62
  256
370
   -1
100
AcDbLine
 10
138.7748270274778
 20
217.3201723693054
 11
138.7748270274778
 21
215.9868390359723
  0
LINE
  5
22D
100
AcDbEntity
  8
TEXT
  6
ByLayer
 62
  256
370
   -1
100
AcDbLine
 10
137.7748270274778
 20
213.6535057026387
 11
138.108160360811
 21
213.6535057026387
  0
ARC
  5
22E
100
AcDbEntity
  8
TEXT
  6
ByLayer
 62
  256
370
   -1
100
AcDbCircle
 10
138.108160360811
 20
214.3201723693054
 40
0.6666666666666666
100
AcDbArc
 50
270
 51
90
  0
LINE
  5
22F
100
AcDbEntity
  8
TEXT
  6
ByLayer
 62
  256
370
   -1
100
AcDbLine
 10
138.108160360811
 20
214.9868390359723
 11
137.7748270274778
 21
214.9868390359723
  0
ARC
  5
230
100
AcDbEntity
  8
TEXT
  6
ByLayer
 62
  256
370
   -1
100
AcDbCircle
 10
137.7748270274778
 20
214.3201723693054
 40
0.6666666666666666
100
AcDbArc
 50
90
 51
270
  0
ARC
  5
231
100
AcDbEntity
  8
TEXT
  6
ByLayer
 62
  256
370
   -1
100
AcDbCircle
 10
139.4414936941443
 20
214.3201723693054
 40
0.6666666666666666
100
AcDbArc
 50
180
 51
0
  0
ARC
  5
232
100
AcDbEntity
  8
TEXT
  6
ByLayer
 62
  256
370
   -1
100
AcDbCircle
 10
139.4414936941443
 20
214.3201723693054
 40
0.6666666666666666
100
AcDbArc
 50
0
 51
180
  0
LWPOLYLINE
  5
233
100
AcDbEntity
  8
INNER
  6
ByLayer
 62
  256
370
   -1
100
AcDbPolyline
 90
    4
 70
    1
 43
0
 10
147.0292642406677
 20
216.8257338489995
 42
0.4635841960158211
 10
144.1292642406561
 20
216.8257338490153
 10
144.1292642406629
 20
214.3701280174436
 42
0.4635841960124121
 10
147.0292642406559
 20
214.3701280174591
  0
LWPOLYLINE
  5
234
100
AcDbEntity
  8
OUTER
  6
ByLayer
 62
  256
370
   -1
100
AcDbPolyline
 90
   20
 70
    1
 43
0
 10
173.579245240656
 20
211.5978919332324
 10
173.5792442406558
 20
207.4209229332323
 10
171.7562142406561
 20
207.4209229332323
 10
168.5792420675793
 20
210.5978951063092
 10
140.5792434137329
 20
210.5978951063092
 10
135.579244240656
 20
205.5978959332325
 10
132.5792442406562
 20
205.5978949332325
 10
132.579245240656
 20
211.5978949332325
 10
128.579245240656
 20
211.5978969332325
 10
128.579245240656
 20
219.5978969332325
 10
132.579245240656
 20
219.5978979332325
 10
132.579245240656
 20
225.5978969332325
 10
135.5792542406541
 20
225.5978909332293
 10
140.5792479137303
 20
220.5978872601552
 10
168.5792644699171
 20
220.5978872601552
 10
171.7562142406561
 20
223.7748659332326
 10
173.579245240656
 20
223.7748659332326
 10
173.579245240656
 20
219.5978969332325
 10
177.579245240656
 20
219.5978969332325
 10
177.579245240656
 20
211.5978909332324
  0
ENDSEC
  0
SECTION
  2
OBJECTS
  0
DICTIONARY
  5
C
330
0
100
AcDbDictionary
281
    1
  3
ACAD_GROUP
350
D
  0
DICTIONARY
  5
D
330
C
100
AcDbDictionary
281
    1
  0
PLOTSETTINGS
  5
235
100
AcDbPlotSettings
  6
1x1
 40
0
 41
0
 42
0
 43
0
  0
ENDSEC
  0
EOF
