999
dxfrw 0.6.3
  0
SECTION
  2
HEADER
  9
$ACADVER
  1
AC1021
  9
$DWGCODEPAGE
  3
ANSI_1252
  9
$INSBASE
 10
0
 20
0
 30
0
  9
$EXTMIN
 10
-13.00855771119702
 20
150
 30
0
  9
$EXTMAX
 10
180
 20
302.5475323664863
 30
0
  9
$LIMMIN
 10
0
 20
0
  9
$LIMMAX
 10
420
 20
297
  9
$ORTHOMODE
 70
    0
  9
$REGENMODE
 70
    1
  9
$FILLMODE
 70
    1
  9
$QTEXTMODE
 70
    0
  9
$MIRRTEXT
 70
    0
  9
$LTSCALE
 40
0.25
  9
$ATTMODE
 70
    1
  9
$TEXTSIZE
 40
0.2
  9
$TRACEWID
 40
0.05
  9
$TEXTSTYLE
  7
STANDARD
  9
$CLAYER
  8
INNER
  9
$CELTYPE
  6
BYLAYER
  9
$CECOLOR
 62
  256
  9
$CELTSCALE
 40
1
  9
$DISPSILH
 70
    0
  9
$DIMSCALE
 40
1
  9
$DIMASZ
 40
1
  9
$DIMEXO
 40
0
  9
$DIMDLI
 40
0.5
  9
$DIMRND
 40
0
  9
$DIMDLE
 40
0
  9
$DIMEXE
 40
0
  9
$DIMTP
 40
0
  9
$DIMTM
 40
0
  9
$DIMTXT
 40
4
  9
$DIMCEN
 40
0
  9
$DIMTSZ
 40
0
  9
$DIMTOL
 70
    0
  9
$DIMLIM
 70
    0
  9
$DIMTIH
 70
    0
  9
$DIMTOH
 70
    1
  9
$DIMSE1
 70
    0
  9
$DIMSE2
 70
    0
  9
$DIMTAD
 70
    0
  9
$DIMZIN
 70
   12
  9
$DIMBLK
  1

  9
$DIMASO
 70
    0
  9
$DIMSHO
 70
    0
  9
$DIMPOST
  1

  9
$DIMAPOST
  1

  9
$DIMALT
 70
    0
  9
$DIMALTD
 70
    0
  9
$DIMALTF
 40
25.4
  9
$DIMLFAC
 40
1
  9
$DIMTOFL
 70
    0
  9
$DIMTVP
 40
0
  9
$DIMTIX
 70
    0
  9
$DIMSOXD
 70
    0
  9
$DIMSAH
 70
    0
  9
$DIMBLK1
  1

  9
$DIMBLK2
  1

  9
$DIMSTYLE
  2
STANDARD
  9
$DIMCLRD
 70
    0
  9
$DIMCLRE
 70
  256
  9
$DIMCLRT
 70
    0
  9
$DIMTFAC
 40
1
  9
$DIMGAP
 40
0.625
  9
$DIMJUST
 70
    0
  9
$DIMSD1
 70
    0
  9
$DIMSD2
 70
    0
  9
$DIMTOLJ
 70
    0
  9
$DIMTZIN
 70
    8
  9
$DIMALTZ
 70
    0
  9
$DIMALTTZ
 70
    0
  9
$DIMUPT
 70
    0
  9
$DIMDEC
 70
    1
  9
$DIMTDEC
 70
    2
  9
$DIMALTU
 70
    2
  9
$DIMALTTD
 70
    3
  9
$DIMTXSTY
  7
standard
  9
$DIMAUNIT
 70
    0
  9
$DIMADEC
 70
    0
  9
$DIMALTRND
 40
0
  9
$DIMAZIN
 70
    0
  9
$DIMDSEP
 70
    0
  9
$DIMATFIT
 70
    3
  9
$DIMFRAC
 70
    0
  9
$DIMLDRBLK
  1
STANDARD
  9
$DIMLUNIT
 70
    2
  9
$DIMLWD
 70
   -2
  9
$DIMLWE
 70
   -2
  9
$DIMTMOVE
 70
    0
  9
$DIMFXL
 40
0
  9
$DIMFXLON
 70
    0
  9
$DIMJOGANG
 40
0.7854
  9
$DIMTFILL
 70
    0
  9
$DIMTFILLCLR
 70
    0
  9
$DIMARCSYM
 70
    0
  9
$DIMLTYPE
  6

  9
$DIMLTEX1
  6

  9
$DIMLTEX2
  6

  9
$LUNITS
 70
    2
  9
$LUPREC
 70
    2
  9
$SKETCHINC
 40
0
  9
$FILLETRAD
 40
0
  9
$AUNITS
 70
    1
  9
$AUPREC
 70
    2
  9
$MENU
  1
ACAD
  9
$ELEVATION
 40
0
  9
$PELEVATION
 40
0
  9
$THICKNESS
 40
0
  9
$LIMCHECK
 70
    1
  9
$CHAMFERA
 40
0
  9
$CHAMFERB
 40
0
  9
$CHAMFERC
 40
0
  9
$CHAMFERD
 40
0
  9
$SKPOLY
 70
    0
  9
$USRTIMER
 70
    1
  9
$ANGBASE
 50
0
  9
$ANGDIR
 70
    0
  9
$PDMODE
 70
    0
  9
$PDSIZE
 40
0
  9
$PLINEWID
 40
0
  9
$SPLFRAME
 70
    0
  9
$SPLINETYPE
 70
    2
  9
$SPLINESEGS
 70
    8
  9
$HANDSEED
  5
20000
  9
$SURFTAB1
 70
    6
  9
$SURFTAB2
 70
    6
  9
$SURFTYPE
 70
    6
  9
$SURFU
 70
    6
  9
$SURFV
 70
    6
  9
$UCSBASE
  2

  9
$UCSNAME
  2

  9
$UCSORG
 10
0
 20
0
 30
0
  9
$UCSXDIR
 10
1
 20
0
 30
0
  9
$UCSYDIR
 10
0
 20
1
 30
0
  9
$UCSORTHOREF
  2

  9
$UCSORTHOVIEW
 70
    0
  9
$UCSORGTOP
 10
0
 20
0
 30
0
  9
$UCSORGBOTTOM
 10
0
 20
0
 30
0
  9
$UCSORGLEFT
 10
0
 20
0
 30
0
  9
$UCSORGRIGHT
 10
0
 20
0
 30
0
  9
$UCSORGFRONT
 10
0
 20
0
 30
0
  9
$UCSORGBACK
 10
0
 20
0
 30
0
  9
$PUCSBASE
  2

  9
$PUCSNAME
  2

  9
$PUCSORG
 10
0
 20
0
 30
0
  9
$PUCSXDIR
 10
1
 20
0
 30
0
  9
$PUCSYDIR
 10
0
 20
1
 30
0
  9
$PUCSORTHOREF
  2

  9
$PUCSORTHOVIEW
 70
    0
  9
$PUCSORGTOP
 10
0
 20
0
 30
0
  9
$PUCSORGBOTTOM
 10
0
 20
0
 30
0
  9
$PUCSORGLEFT
 10
0
 20
0
 30
0
  9
$PUCSORGRIGHT
 10
0
 20
0
 30
0
  9
$PUCSORGFRONT
 10
0
 20
0
 30
0
  9
$PUCSORGBACK
 10
0
 20
0
 30
0
  9
$USERI1
 70
    0
  9
$USERI2
 70
    0
  9
$USERI3
 70
    0
  9
$USERI4
 70
    0
  9
$USERI5
 70
    0
  9
$USERR1
 40
0
  9
$USERR2
 40
0
  9
$USERR3
 40
0
  9
$USERR4
 40
0
  9
$USERR5
 40
0
  9
$WORLDVIEW
 70
    1
  9
$SHADEDGE
 70
    3
  9
$SHADEDIF
 70
   70
  9
$TILEMODE
 70
    1
  9
$MAXACTVP
 70
   64
  9
$PINSBASE
 10
0
 20
0
 30
0
  9
$PLIMCHECK
 70
    0
  9
$PEXTMIN
 10
0
 20
0
 30
0
  9
$PEXTMAX
 10
420
 20
297
 30
0
  9
$GRIDMODE
 70
    0
  9
$SNAPSTYLE
 70
    0
  9
$GRIDUNIT
 10
0
 20
0
  9
$VIEWCTR
 10
210
 20
148.5
  9
$PLIMMIN
 10
0
 20
0
  9
$PLIMMAX
 10
210
 20
297
  9
$UNITMODE
 70
    0
  9
$VISRETAIN
 70
    1
  9
$PLINEGEN
 70
    0
  9
$PSLTSCALE
 70
    1
  9
$TREEDEPTH
 70
 3020
  9
$CMLSTYLE
  2
Standard
  9
$CMLJUST
 70
    0
  9
$CMLSCALE
 40
20
  9
$PROXYGRAPHICS
 70
    1
  9
$MEASUREMENT
 70
    1
  9
$CELWEIGHT
370
   -1
  9
$ENDCAPS
280
    0
  9
$JOINSTYLE
280
    0
  9
$LWDISPLAY
290
    0
  9
$INSUNITS
 70
    4
  9
$HYPERLINKBASE
  1

  9
$STYLESHEET
  1

  9
$XEDIT
290
    1
  9
$CEPSNTYPE
380
    0
  9
$PSTYLEMODE
290
    1
  9
$EXTNAMES
290
    1
  9
$PSVPSCALE
 40
1
  9
$OLESTARTUP
290
    0
  9
$SORTENTS
280
  127
  9
$INDEXCTL
280
    0
  9
$HIDETEXT
280
    1
  9
$XCLIPFRAME
290
    0
  9
$HALOGAP
280
    0
  9
$OBSCOLOR
 70
  257
  9
$OBSLTYPE
280
    0
  9
$INTERSECTIONDISPLAY
280
    0
  9
$INTERSECTIONCOLOR
 70
  257
  9
$DIMASSOC
280
    1
  9
$PROJECTNAME
  1

  9
$CAMERADISPLAY
290
    0
  9
$LENSLENGTH
 40
50
  9
$CAMERAHEIGHT
 40
0
  9
$STEPSPERSEC
 40
2
  9
$STEPSIZE
 40
50
  9
$3DDWFPREC
 40
2
  9
$PSOLWIDTH
 40
5
  9
$PSOLHEIGHT
 40
80
  9
$LOFTANG1
 40
1.570796326794897
  9
$LOFTANG2
 40
1.570796326794897
  9
$LOFTMAG1
 40
0
  9
$LOFTMAG2
 40
0
  9
$LOFTPARAM
 70
    7
  9
$LOFTNORMALS
280
    1
  9
$LATITUDE
 40
1
  9
$LONGITUDE
 40
1
  9
$NORTHDIRECTION
 40
0
  9
$TIMEZONE
 70
-8000
  9
$LIGHTGLYPHDISPLAY
280
    1
  9
$TILEMODELIGHTSYNCH
280
    1
  9
$SOLIDHIST
280
    1
  9
$SHOWHIST
280
    1
  9
$DWFFRAME
280
    2
  9
$DGNFRAME
280
    0
  9
$REALWORLDSCALE
290
    1
  9
$INTERFERECOLOR
 62
    1
  9
$CSHADOW
280
    0
  9
$SHADOWPLANELOCATION
 40
0
  0
ENDSEC
  0
SECTION
  2
CLASSES
  0
ENDSEC
  0
SECTION
  2
TABLES
  0
TABLE
  2
VPORT
  5
8
330
0
100
AcDbSymbolTable
 70
    1
  0
VPORT
  5
31
330
2
100
AcDbSymbolTableRecord
100
AcDbViewportTableRecord
  2
*ACTIVE
 70
    0
 10
0
 20
0
 11
1
 21
1
 12
47.00144688939112
 22
158.6121334605737
 13
0
 23
0
 14
10
 24
10
 15
10
 25
10
 16
0
 26
0
 36
1
 17
0
 27
0
 37
0
 40
120.8405779542956
 41
1.649823736780259
 42
50
 43
0
 44
0
 50
0
 51
0
 71
    0
 72
  100
 73
    1
 74
    3
 75
    0
 76
    0
 77
    0
 78
    0
281
    0
 65
    1
110
0
120
0
130
0
111
1
121
0
131
0
112
0
122
1
132
0
 79
    0
146
0
348
10020
 60
    7
 61
    5
292
1
282
    1
141
0
142
0
 63
  250
421
3358443
  0
ENDTAB
  0
TABLE
  2
LTYPE
  5
5
330
0
100
AcDbSymbolTable
 70
    4
  0
LTYPE
  5
14
330
5
100
AcDbSymbolTableRecord
100
AcDbLinetypeTableRecord
  2
ByBlock
 70
    0
  3

 72
   65
 73
    0
 40
0
  0
LTYPE
  5
15
330
5
100
AcDbSymbolTableRecord
100
AcDbLinetypeTableRecord
  2
ByLayer
 70
    0
  3

 72
   65
 73
    0
 40
0
  0
LTYPE
  5
16
330
5
100
AcDbSymbolTableRecord
100
AcDbLinetypeTableRecord
  2
Continuous
 70
    0
  3
Solid line
 72
   65
 73
    0
 40
0
  0
LTYPE
  5
32
330
5
100
AcDbSymbolTableRecord
100
AcDbLinetypeTableRecord
  2
DOT
 70
    0
  3
Dot . . . . . . . . . . . . . . . . . . . . . .
 72
   65
 73
    2
 40
6.35
 49
0
 74
    0
 49
-6.35
 74
    0
  0
LTYPE
  5
33
330
5
100
AcDbSymbolTableRecord
100
AcDbLinetypeTableRecord
  2
DOTTINY
 70
    0
  3
Dot (.15x) .....................................
 72
   65
 73
    2
 40
0.9525
 49
0
 74
    0
 49
-0.9525
 74
    0
  0
LTYPE
  5
34
330
5
100
AcDbSymbolTableRecord
100
AcDbLinetypeTableRecord
  2
DOT2
 70
    0
  3
Dot (.5x) .....................................
 72
   65
 73
    2
 40
3.175
 49
0
 74
    0
 49
-3.175
 74
    0
  0
LTYPE
  5
35
330
5
100
AcDbSymbolTableRecord
100
AcDbLinetypeTableRecord
  2
DOTX2
 70
    0
  3
Dot (2x) .  .  .  .  .  .  .  .  .  .  .  .  .
 72
   65
 73
    2
 40
12.7
 49
0
 74
    0
 49
-12.7
 74
    0
  0
LTYPE
  5
36
330
5
100
AcDbSymbolTableRecord
100
AcDbLinetypeTableRecord
  2
DASHED
 70
    0
  3
Dashed _ _ _ _ _ _ _ _ _ _ _ _ _ _ _ _ _
 72
   65
 73
    2
 40
19.05
 49
12.7
 74
    0
 49
-6.35
 74
    0
  0
LTYPE
  5
37
330
5
100
AcDbSymbolTableRecord
100
AcDbLinetypeTableRecord
  2
DASHEDTINY
 70
    0
  3
Dashed (.15x) _ _ _ _ _ _ _ _ _ _ _ _ _ _ _ _ _
 72
   65
 73
    2
 40
2.8575
 49
1.905
 74
    0
 49
-0.9525
 74
    0
  0
LTYPE
  5
38
330
5
100
AcDbSymbolTableRecord
100
AcDbLinetypeTableRecord
  2
DASHED2
 70
    0
  3
Dashed (.5x) _ _ _ _ _ _ _ _ _ _ _ _ _ _ _ _ _
 72
   65
 73
    2
 40
9.524999999999999
 49
6.35
 74
    0
 49
-3.175
 74
    0
  0
LTYPE
  5
39
330
5
100
AcDbSymbolTableRecord
100
AcDbLinetypeTableRecord
  2
DASHEDX2
 70
    0
  3
Dashed (2x) ____  ____  ____  ____  ____  ___
 72
   65
 73
    2
 40
38.09999999999999
 49
25.4
 74
    0
 49
-12.7
 74
    0
  0
LTYPE
  5
3A
330
5
100
AcDbSymbolTableRecord
100
AcDbLinetypeTableRecord
  2
DASHDOT
 70
    0
  3
Dash dot __ . __ . __ . __ . __ . __ . __ . __
 72
   65
 73
    4
 40
25.4
 49
12.7
 74
    0
 49
-6.35
 74
    0
 49
0
 74
    0
 49
-6.35
 74
    0
  0
LTYPE
  5
3B
330
5
100
AcDbSymbolTableRecord
100
AcDbLinetypeTableRecord
  2
DASHDOTTINY
 70
    0
  3
Dash dot (.15x) _._._._._._._._._._._._._._._.
 72
   65
 73
    4
 40
3.81
 49
1.905
 74
    0
 49
-0.9525
 74
    0
 49
0
 74
    0
 49
-0.9525
 74
    0
  0
LTYPE
  5
3C
330
5
100
AcDbSymbolTableRecord
100
AcDbLinetypeTableRecord
  2
DASHDOT2
 70
    0
  3
Dash dot (.5x) _._._._._._._._._._._._._._._.
 72
   65
 73
    4
 40
12.7
 49
6.35
 74
    0
 49
-3.175
 74
    0
 49
0
 74
    0
 49
-3.175
 74
    0
  0
LTYPE
  5
3D
330
5
100
AcDbSymbolTableRecord
100
AcDbLinetypeTableRecord
  2
DASHDOTX2
 70
    0
  3
Dash dot (2x) ____  .  ____  .  ____  .  ___
 72
   65
 73
    4
 40
50.8
 49
25.4
 74
    0
 49
-12.7
 74
    0
 49
0
 74
    0
 49
-12.7
 74
    0
  0
LTYPE
  5
3E
330
5
100
AcDbSymbolTableRecord
100
AcDbLinetypeTableRecord
  2
DIVIDE
 70
    0
  3
Divide ____ . . ____ . . ____ . . ____ . . ____
 72
   65
 73
    6
 40
31.75
 49
12.7
 74
    0
 49
-6.35
 74
    0
 49
0
 74
    0
 49
-6.35
 74
    0
 49
0
 74
    0
 49
-6.35
 74
    0
  0
LTYPE
  5
3F
330
5
100
AcDbSymbolTableRecord
100
AcDbLinetypeTableRecord
  2
DIVIDETINY
 70
    0
  3
Divide (.15x) __..__..__..__..__..__..__..__.._
 72
   65
 73
    6
 40
4.7625
 49
1.905
 74
    0
 49
-0.9525
 74
    0
 49
0
 74
    0
 49
-0.9525
 74
    0
 49
0
 74
    0
 49
-0.9525
 74
    0
  0
LTYPE
  5
40
330
5
100
AcDbSymbolTableRecord
100
AcDbLinetypeTableRecord
  2
DIVIDE2
 70
    0
  3
Divide (.5x) __..__..__..__..__..__..__..__.._
 72
   65
 73
    6
 40
15.875
 49
6.35
 74
    0
 49
-3.175
 74
    0
 49
0
 74
    0
 49
-3.175
 74
    0
 49
0
 74
    0
 49
-3.175
 74
    0
  0
LTYPE
  5
41
330
5
100
AcDbSymbolTableRecord
100
AcDbLinetypeTableRecord
  2
DIVIDEX2
 70
    0
  3
Divide (2x) ________  .  .  ________  .  .  _
 72
   65
 73
    6
 40
63.5
 49
25.4
 74
    0
 49
-12.7
 74
    0
 49
0
 74
    0
 49
-12.7
 74
    0
 49
0
 74
    0
 49
-12.7
 74
    0
  0
LTYPE
  5
42
330
5
100
AcDbSymbolTableRecord
100
AcDbLinetypeTableRecord
  2
BORDER
 70
    0
  3
Border __ __ . __ __ . __ __ . __ __ . __ __ .
 72
   65
 73
    6
 40
44.45
 49
12.7
 74
    0
 49
-6.35
 74
    0
 49
12.7
 74
    0
 49
-6.35
 74
    0
 49
0
 74
    0
 49
-6.35
 74
    0
  0
LTYPE
  5
43
330
5
100
AcDbSymbolTableRecord
100
AcDbLinetypeTableRecord
  2
BORDERTINY
 70
    0
  3
Border (.15x) __.__.__.__.__.__.__.__.__.__.__.
 72
   65
 73
    6
 40
6.6675
 49
1.905
 74
    0
 49
-0.9525
 74
    0
 49
1.905
 74
    0
 49
-0.9525
 74
    0
 49
0
 74
    0
 49
-0.9525
 74
    0
  0
LTYPE
  5
44
330
5
100
AcDbSymbolTableRecord
100
AcDbLinetypeTableRecord
  2
BORDER2
 70
    0
  3
Border (.5x) __.__.__.__.__.__.__.__.__.__.__.
 72
   65
 73
    6
 40
22.225
 49
6.35
 74
    0
 49
-3.175
 74
    0
 49
6.35
 74
    0
 49
-3.175
 74
    0
 49
0
 74
    0
 49
-3.175
 74
    0
  0
LTYPE
  5
45
330
5
100
AcDbSymbolTableRecord
100
AcDbLinetypeTableRecord
  2
BORDERX2
 70
    0
  3
Border (2x) ____  ____  .  ____  ____  .  ___
 72
   65
 73
    6
 40
88.89999999999999
 49
25.4
 74
    0
 49
-12.7
 74
    0
 49
25.4
 74
    0
 49
-12.7
 74
    0
 49
0
 74
    0
 49
-12.7
 74
    0
  0
LTYPE
  5
46
330
5
100
AcDbSymbolTableRecord
100
AcDbLinetypeTableRecord
  2
CENTER
 70
    0
  3
Center ____ _ ____ _ ____ _ ____ _ ____ _ ____
 72
   65
 73
    4
 40
50.8
 49
31.75
 74
    0
 49
-6.35
 74
    0
 49
6.35
 74
    0
 49
-6.35
 74
    0
  0
LTYPE
  5
47
330
5
100
AcDbSymbolTableRecord
100
AcDbLinetypeTableRecord
  2
CENTERTINY
 70
    0
  3
Center (.15x) ___ _ ___ _ ___ _ ___ _ ___ _ ___
 72
   65
 73
    4
 40
7.619999999999999
 49
4.7625
 74
    0
 49
-0.9525
 74
    0
 49
0.9525
 74
    0
 49
-0.9525
 74
    0
  0
LTYPE
  5
48
330
5
100
AcDbSymbolTableRecord
100
AcDbLinetypeTableRecord
  2
CENTER2
 70
    0
  3
Center (.5x) ___ _ ___ _ ___ _ ___ _ ___ _ ___
 72
   65
 73
    4
 40
28.575
 49
19.05
 74
    0
 49
-3.175
 74
    0
 49
3.175
 74
    0
 49
-3.175
 74
    0
  0
LTYPE
  5
49
330
5
100
AcDbSymbolTableRecord
100
AcDbLinetypeTableRecord
  2
CENTERX2
 70
    0
  3
Center (2x) ________  __  ________  __  _____
 72
   65
 73
    4
 40
101.6
 49
63.5
 74
    0
 49
-12.7
 74
    0
 49
12.7
 74
    0
 49
-12.7
 74
    0
  0
ENDTAB
  0
TABLE
  2
LAYER
  5
2
330
0
100
AcDbSymbolTable
 70
    1
  0
LAYER
  5
10
330
2
100
AcDbSymbolTableRecord
100
AcDbLayerTableRecord
  2
0
 70
    0
 62
    6
  6
CONTINUOUS
370
   -3
390
F
  0
LAYER
  5
4A
330
2
100
AcDbSymbolTableRecord
100
AcDbLayerTableRecord
  2
INNER
 70
    0
 62
  136
420
32896
  6
CONTINUOUS
370
   35
390
F
  0
LAYER
  5
4B
330
2
100
AcDbSymbolTableRecord
100
AcDbLayerTableRecord
  2
OUTER
 70
    0
 62
    7
  6
CONTINUOUS
370
   35
390
F
  0
LAYER
  5
4C
330
2
100
AcDbSymbolTableRecord
100
AcDbLayerTableRecord
  2
TEXT
 70
    0
 62
    5
  6
CONTINUOUS
370
   -3
390
F
  0
ENDTAB
  0
TABLE
  2
STYLE
  5
3
330
0
100
AcDbSymbolTable
 70
    3
  0
STYLE
  5
4D
330
2
100
AcDbSymbolTableRecord
100
AcDbTextStyleTableRecord
  2
iso
 70
    0
 40
0
 41
1
 50
0
 71
    0
 42
1
  3
iso
  4

  0
STYLE
  5
4E
330
2
100
AcDbSymbolTableRecord
100
AcDbTextStyleTableRecord
  2
Standard
 70
    0
 40
0
 41
1
 50
0
 71
    0
 42
1
  3
txt
  4

  0
ENDTAB
  0
TABLE
  2
VIEW
  5
6
330
0
100
AcDbSymbolTable
 70
    0
  0
ENDTAB
  0
TABLE
  2
UCS
  5
7
330
0
100
AcDbSymbolTable
 70
    0
  0
ENDTAB
  0
TABLE
  2
APPID
  5
9
330
0
100
AcDbSymbolTable
 70
    1
  0
APPID
  5
12
330
9
100
AcDbSymbolTableRecord
100
AcDbRegAppTableRecord
  2
ACAD
 70
    0
  0
APPID
  5
4F
330
9
100
AcDbSymbolTableRecord
100
AcDbRegAppTableRecord
  2
LibreCad
 70
    0
  0
ENDTAB
  0
TABLE
  2
DIMSTYLE
  5
A
330
0
100
AcDbSymbolTable
 70
    1
100
AcDbDimStyleTable
 71
    1
  0
DIMSTYLE
105
50
330
A
100
AcDbSymbolTableRecord
100
AcDbDimStyleTableRecord
  2
Standard
 70
    0
 40
1
 41
1
 42
0
 43
0.38
 44
0
 45
0
 46
0
 47
0
 48
0
 49
0
140
4
141
0.09
142
0
143
25.4
144
1
145
0
146
1
147
0.625
148
0
 71
    0
 72
    0
 73
    0
 74
    1
 75
    0
 76
    0
 77
    0
 78
   12
 79
    0
170
    0
171
    2
172
    0
173
    0
174
    0
175
    0
176
    0
177
  256
178
    0
179
    0
271
    1
272
    4
273
    2
274
    2
275
    0
276
    0
277
    2
278
    0
279
    0
280
    0
281
    0
282
    0
283
    1
284
    0
285
    0
286
    0
288
    0
289
    3
340
4E
  0
ENDTAB
  0
TABLE
  2
BLOCK_RECORD
  5
1
330
0
100
AcDbSymbolTable
 70
    2
  0
BLOCK_RECORD
  5
1F
330
1
100
AcDbSymbolTableRecord
100
AcDbBlockTableRecord
  2
*Model_Space
 70
    0
280
    1
281
    0
  0
BLOCK_RECORD
  5
1E
330
1
100
AcDbSymbolTableRecord
100
AcDbBlockTableRecord
  2
*Paper_Space
 70
    0
280
    1
281
    0
  0
BLOCK_RECORD
  5
51
330
1
100
AcDbSymbolTableRecord
100
AcDbBlockTableRecord
  2
*D2
 70
    0
280
    1
281
    0
  0
BLOCK_RECORD
  5
54
330
1
100
AcDbSymbolTableRecord
100
AcDbBlockTableRecord
  2
*D1
 70
    0
280
    1
281
    0
  0
ENDTAB
  0
ENDSEC
  0
SECTION
  2
BLOCKS
  0
BLOCK
  5
20
330
1F
100
AcDbEntity
  8
0
100
AcDbBlockBegin
  2
*Model_Space
 70
    0
 10
0
 20
0
 30
0
  3
*Model_Space
  1

  0
ENDBLK
  5
21
330
1F
100
AcDbEntity
  8
0
100
AcDbBlockEnd
  0
BLOCK
  5
1C
330
1B
100
AcDbEntity
  8
0
100
AcDbBlockBegin
  2
*Paper_Space
 70
    0
 10
0
 20
0
 30
0
  3
*Paper_Space
  1

  0
ENDBLK
  5
1D
330
1F
100
AcDbEntity
  8
0
100
AcDbBlockEnd
  0
BLOCK
  5
52
330
51
100
AcDbEntity
  8
0
100
AcDbBlockBegin
  2
*D2
 70
    1
 10
0
 20
0
  3
*D2
  1

  0
LINE
  5
57
100
AcDbEntity
  8
0
  6
ByBlock
 62
    0
370
   -2
100
AcDbLine
 10
15.99048262280078
 20
277.3471367674345
 11
41.98931737719882
 21
277.3471367674345
  0
MTEXT
  5
58
100
AcDbEntity
  8
0
  6
CONTINUOUS
 62
    0
370
   -2
100
AcDbMText
 10
28.9898999999998
 20
279.9721367674345
 30
0
 40
4
 41
4.888888888889136
 71
    5
 72
    1
  1
26
  7
standard
210
0
220
0
230
1
 50
0
 73
    2
 44
1
  0
SOLID
  5
59
100
AcDbEntity
  8
0
  6
ByBlock
 62
    0
370
   -2
100
AcDbTrace
 10
15.99048262280078
 20
277.3471367674345
 30
0
 11
16.99048262280078
 21
277.5136506305436
 31
0
 12
16.99048262280078
 22
277.1806229043254
 32
0
 13
16.99048262280078
 23
277.1806229043254
 33
0
  0
SOLID
  5
5A
100
AcDbEntity
  8
0
  6
ByBlock
 62
    0
370
   -2
100
AcDbTrace
 10
41.98931737719882
 20
277.3471367674345
 30
0
 11
40.98931737719882
 21
277.1806229043254
 31
0
 12
40.98931737719882
 22
277.5136506305436
 32
0
 13
40.98931737719882
 23
277.5136506305436
 33
0
  0
LINE
  5
5B
100
AcDbEntity
  8
0
  6
ByBlock
 62
  256
370
   -2
100
AcDbLine
 10
15.99048262280078
 20
270.8321176383595
 11
15.99048262280078
 21
277.3471367674345
  0
LINE
  5
5C
100
AcDbEntity
  8
0
  6
ByBlock
 62
  256
370
   -2
100
AcDbLine
 10
41.98931737719882
 20
270.8321287475931
 11
41.98931737719882
 21
277.3471367674345
  0
ENDBLK
  5
53
330
51
100
AcDbEntity
  8
0
100
AcDbBlockEnd
  0
BLOCK
  5
55
330
54
100
AcDbEntity
  8
0
100
AcDbBlockBegin
  2
*D1
 70
    1
 10
0
 20
0
  3
*D1
  1

  0
LINE
  5
5D
100
AcDbEntity
  8
0
  6
ByBlock
 62
    0
370
   -2
100
AcDbLine
 10
7.641401518206891
 20
255.1328037100954
 11
50.33900655499575
 21
286.5320795635666
  0
MTEXT
  5
5E
100
AcDbEntity
  8
0
  6
CONTINUOUS
 62
    0
370
   -2
100
AcDbMText
 10
27.43505122310392
 20
272.9471815089361
 30
0
 40
4
 41
4.888888888889385
 71
    5
 72
    1
  1
53
  7
standard
210
0
220
0
230
1
 50
36.33029062331855
 73
    2
 44
1
  0
SOLID
  5
5F
100
AcDbEntity
  8
0
  6
ByBlock
 62
    0
370
   -2
100
AcDbTrace
 10
7.641401518206891
 20
255.1328037100954
 30
0
 11
8.348367373218172
 21
255.859388974504
 31
0
 12
8.545666041942358
 22
255.59109677978
 32
0
 13
8.545666041942358
 23
255.59109677978
 33
0
  0
SOLID
  5
60
100
AcDbEntity
  8
0
  6
ByBlock
 62
    0
370
   -2
100
AcDbTrace
 10
50.33900655499575
 20
286.5320795635666
 30
0
 11
49.63204069998446
 21
285.8054942991581
 31
0
 12
49.43474203126028
 22
286.073786493882
 32
0
 13
49.43474203126028
 23
286.073786493882
 33
0
  0
ENDBLK
  5
56
330
54
100
AcDbEntity
  8
0
100
AcDbBlockEnd
  0
ENDSEC
  0
SECTION
  2
ENTITIES
  0
LINE
  5
61
100
AcDbEntity
  8
0
  6
CONTINUOUS
 62
  256
370
   -1
100
AcDbLine
 10
-13.00855771119702
 20
300.4555416037373
 11
-13.00855771119702
 21
302.5475323664863
  0
LINE
  5
62
100
AcDbEntity
  8
0
  6
CONTINUOUS
 62
  256
370
   -1
100
AcDbLine
 10
-13.00855771119702
 20
302.5475323664863
 11
-11.41565114188954
 21
302.5475323664863
  0
LINE
  5
63
100
AcDbEntity
  8
0
  6
CONTINUOUS
 62
  256
370
   -3
100
AcDbLine
 10
180
 20
300
 11
180
 21
150
  0
LINE
  5
64
100
AcDbEntity
  8
0
  6
CONTINUOUS
 62
  256
370
   -3
100
AcDbLine
 10
0
 20
150
 11
180
 21
150
  0
LINE
  5
65
100
AcDbEntity
  8
0
  6
CONTINUOUS
 62
  256
370
   -3
100
AcDbLine
 10
0
 20
300
 11
180
 21
300
  0
LINE
  5
66
100
AcDbEntity
  8
0
  6
CONTINUOUS
 62
  256
370
   -3
100
AcDbLine
 10
0
 20
300
 11
0
 21
150
  0
TEXT
  5
67
100
AcDbEntity
  8
0
  6
ByLayer
 62
  256
370
   -1
100
AcDbText
 10
-8.893143789279893
 20
260.4389943499929
 30
0
 40
2
  1
Text P:12 S:18 Cut P:75 S:11
 50
90
 41
1
 51
0
  7
iso
 71
    0
210
0
220
0
230
1
100
AcDbText
  0
CIRCLE
  5
68
100
AcDbEntity
  8
OUTER
  6
ByLayer
 62
  256
370
   -1
100
AcDbCircle
 10
28.99020403660132
 20
270.832441636831
 40
26.5
  0
CIRCLE
  5
69
100
AcDbEntity
  8
INNER
  6
ByLayer
 62
  256
370
   -1
100
AcDbCircle
 10
45.48931737719092
 20
270.8321364393246
 40
0.9
  0
LINE
  5
6A
100
AcDbEntity
  8
0
  6
ByLayer
 62
  256
370
   -1
100
AcDbLine
 10
46.54397714531485
 20
276.6717292686719
 11
58.40531133726952
 21
280.6174699857435
  0
LINE
  5
6B
100
AcDbEntity
  8
0
  6
ByLayer
 62
  256
370
   -1
100
AcDbLine
 10
49.49020403461171
 20
267.8321212729425
 11
49.49020403461171
 21
273.8321212729425
  0
LINE
  5
6C
100
AcDbEntity
  8
0
  6
ByLayer
 62
  256
370
   -1
100
AcDbLine
 10
49.49020403461171
 20
267.8321212729425
 11
59.49020403461171
 21
267.8321212729425
  0
LINE
  5
6D
100
AcDbEntity
  8
0
  6
ByLayer
 62
  256
370
   -1
100
AcDbLine
 10
49.49020403461171
 20
273.8321212729425
 11
59.49020403461171
 21
273.8321212729425
  0
LINE
  5
6E
100
AcDbEntity
  8
0
  6
ByLayer
 62
  256
370
   -1
100
AcDbLine
 10
56.50563041317734
 20
276.8238948399688
 11
54.61173619149474
 21
282.5171509098357
  0
LINE
  5
6F
100
AcDbEntity
  8
0
  6
ByLayer
 62
  256
370
   -1
100
AcDbLine
 10
49.38906032584359
 20
274.4565270628656
 11
47.49516610416101
 21
280.1497831327325
  0
LINE
  5
70
100
AcDbEntity
  8
0
  6
ByLayer
 62
  256
370
   -1
100
AcDbLine
 10
47.49516610416101
 20
280.1497831327325
 11
56.98392622060599
 21
283.3062735022035
  0
LINE
  5
71
100
AcDbEntity
  8
0
  6
ByLayer
 62
  256
370
   -1
100
AcDbLine
 10
49.38906032584359
 20
274.4565270628656
 11
58.87782044228857
 21
277.6130174323364
  0
LINE
  5
72
100
AcDbEntity
  8
0
  6
ByLayer
 62
  256
370
   -1
100
AcDbLine
 10
0.830971847949634
 20
270.8321111607404
 11
59.99020403448471
 21
270.8321364393246
  0
LINE
  5
73
100
AcDbEntity
  8
0
  6
CONTINUOUS
 62
  256
370
   -1
100
AcDbLine
 10
28.9899
 20
247.2149105690427
 11
28.9899
 21
302.2372619593446
  0
LWPOLYLINE
  5
74
100
AcDbEntity
  8
INNER
  6
ByLayer
 62
  256
370
   -1
100
AcDbPolyline
 90
    4
 70
    1
 43
0
 10
26.57454906222606
 20
291.852174011098
 10
26.04798417220054
 20
295.5145133479799
 10
24.86019844140149
 20
295.3437355458212
 10
25.38676333142701
 20
291.6813962089393
  0
LWPOLYLINE
  5
75
100
AcDbEntity
  8
INNER
  6
ByLayer
 62
  256
370
   -1
100
AcDbPolyline
 90
    4
 70
    1
 43
0
 10
23.60768516547606
 20
291.2944811127761
 10
22.56527472762258
 20
294.8446051220093
 10
21.41388315713951
 20
294.5065260611071
 10
22.45629359499299
 20
290.9564020518739
  0
LWPOLYLINE
  5
76
100
AcDbEntity
  8
INNER
  6
ByLayer
 62
  256
370
   -1
100
AcDbPolyline
 90
    4
 70
    1
 43
0
 10
20.75038763686972
 20
290.3202359774546
 10
19.213352120698
 20
293.68587437513
 10
18.12179372152688
 20
293.1873763699194
 10
19.65882923769861
 20
289.821737972244
  0
LWPOLYLINE
  5
77
100
AcDbEntity
  8
INNER
  6
ByLayer
 62
  256
370
   -1
100
AcDbPolyline
 90
    4
 70
    1
 43
0
 10
18.06082281174307
 20
288.9492714257179
 10
16.06045182652965
 20
292.0619095227983
 10
15.05094757889721
 20
291.4131405546656
 10
17.05131856411063
 20
288.3005024575851
  0
LWPOLYLINE
  5
78
100
AcDbEntity
  8
INNER
  6
ByLayer
 62
  256
370
   -1
100
AcDbPolyline
 90
    4
 70
    1
 43
0
 10
15.59374247144192
 20
287.2094963410656
 10
13.17075780004541
 20
290.005769804813
 10
12.26385829835178
 20
289.2199369384681
 10
14.68684296974828
 20
286.4236634747207
  0
LWPOLYLINE
  5
79
100
AcDbEntity
  8
INNER
  6
ByLayer
 62
  256
370
   -1
100
AcDbPolyline
 90
    4
 70
    1
 43
0
 10
13.39936925499426
 20
285.1363275255529
 10
10.60309587582501
 20
287.5593122945577
 10
9.81726297782334
 20
286.6524128202948
 10
12.61353635699259
 20
284.22942805129
  0
LWPOLYLINE
  5
7A
100
AcDbEntity
  8
INNER
  6
ByLayer
 62
  256
370
   -1
100
AcDbPolyline
 90
    4
 70
    1
 43
0
 10
11.52237427105518
 20
282.7719687158658
 10
8.409736243800872
 20
284.7723398097307
 10
7.76096724042975
 20
283.7628355847446
 10
10.87360526768406
 20
281.7624644908797
  0
LWPOLYLINE
  5
7B
100
AcDbEntity
  8
INNER
  6
ByLayer
 62
  256
370
   -1
100
AcDbPolyline
 90
    4
 70
    1
 43
0
 10
10.00096772299577
 20
280.1645514369863
 10
6.635329378973054
 20
281.701587070641
 10
6.136831335659828
 20
280.6100286888707
 10
9.502469679682545
 20
279.072993055216
  0
LWPOLYLINE
  5
7C
100
AcDbEntity
  8
INNER
  6
ByLayer
 62
  256
370
   -1
100
AcDbPolyline
 90
    4
 70
    1
 43
0
 10
8.866121059386163
 20
277.3671551831868
 10
5.315997086539909
 20
278.409565744963
 10
4.977917985446528
 20
277.2581741862811
 10
8.528041958292782
 20
276.2157636245049
  0
LWPOLYLINE
  5
7D
100
AcDbEntity
  8
INNER
  6
ByLayer
 62
  256
370
   -1
100
AcDbPolyline
 90
    4
 70
    1
 43
0
 10
8.140936484644904
 20
274.4367268726433
 10
4.478597166143579
 20
274.9632918905086
 10
4.307819322523326
 20
273.7755061656708
 10
7.97015864102465
 20
273.2489411478056
  0
LWPOLYLINE
  5
7E
100
AcDbEntity
  8
INNER
  6
ByLayer
 62
  256
370
   -1
100
AcDbPolyline
 90
    4
 70
    1
 43
0
 10
7.840176664799092
 20
271.4329215724543
 10
4.140176664545017
 20
271.4329217016087
 10
4.140176622657116
 20
270.2329217016087
 10
7.840176622911191
 20
270.2329215724543
  0
LWPOLYLINE
  5
7F
100
AcDbEntity
  8
INNER
  6
ByLayer
 62
  256
370
   -1
100
AcDbPolyline
 90
    4
 70
    1
 43
0
 10
7.969964202189448
 20
268.4168880935593
 10
4.307624846926963
 20
267.8903233313736
 10
4.47840260762413
 20
266.7025375946132
 10
8.140741962886615
 20
267.229102356799
  0
LWPOLYLINE
  5
80
100
AcDbEntity
  8
INNER
  6
ByLayer
 62
  256
370
   -1
100
AcDbPolyline
 90
    4
 70
    1
 43
0
 10
8.52765699694827
 20
265.4500241773421
 10
4.97753295132804
 20
264.4076138634114
 10
5.315611972039129
 20
263.2562222811271
 10
8.865736017659358
 20
264.2986325950579
  0
LWPOLYLINE
  5
81
100
AcDbEntity
  8
INNER
  6
ByLayer
 62
  256
370
   -1
100
AcDbPolyline
 90
    4
 70
    1
 43
0
 10
9.501902032531206
 20
262.5927266147282
 10
6.136263581203167
 20
261.0556912160395
 10
6.634761548311246
 20
259.9641327994675
 10
10.00039999963928
 20
261.5011681981563
  0
LWPOLYLINE
  5
82
100
AcDbEntity
  8
INNER
  6
ByLayer
 62
  256
370
   -1
100
AcDbPolyline
 90
    4
 70
    1
 43
0
 10
10.87286649038444
 20
259.9031617417459
 10
7.760228323477886
 20
257.902790865184
 10
8.408997256372313
 20
256.8932865949053
 10
11.52163542327886
 20
258.8936574714672
  0
LWPOLYLINE
  5
83
100
AcDbEntity
  8
INNER
  6
ByLayer
 62
  256
370
   -1
100
AcDbPolyline
 90
    4
 70
    1
 43
0
 10
12.61264148891937
 20
257.4360813407151
 10
9.816367940593874
 20
255.013096766927
 10
10.60220077528201
 20
254.1061972378026
 10
13.39847432360751
 20
256.5291818115908
  0
LWPOLYLINE
  5
84
100
AcDbEntity
  8
INNER
  6
ByLayer
 62
  256
370
   -1
100
AcDbPolyline
 90
    4
 70
    1
 43
0
 10
14.68581022783404
 20
255.2417080519002
 10
12.26282536122083
 20
252.4454347573091
 10
13.16972480805297
 20
251.6596018276507
 10
15.59270967466619
 20
254.4558751222418
  0
LWPOLYLINE
  5
85
100
AcDbEntity
  8
INNER
  6
ByLayer
 62
  256
370
   -1
100
AcDbPolyline
 90
    4
 70
    1
 43
0
 10
17.05016897200162
 20
253.3647129854295
 10
15.04979776948508
 20
250.2520750280013
 10
16.0593019718249
 20
249.6033059893918
 10
18.05967317434144
 20
252.71594394682
  0
LWPOLYLINE
  5
86
100
AcDbEntity
  8
INNER
  6
ByLayer
 62
  256
370
   -1
100
AcDbPolyline
 90
    4
 70
    1
 43
0
 10
19.65758619777399
 20
251.843306346354
 10
18.12055044663639
 20
248.477668055984
 10
19.21210881100577
 20
247.9791699745682
 10
20.74914456214338
 20
251.3448082649383
  0
LWPOLYLINE
  5
87
100
AcDbEntity
  8
INNER
  6
ByLayer
 62
  256
370
   -1
100
AcDbPolyline
 90
    4
 70
    1
 43
0
 10
22.45498241195988
 20
250.7084595850969
 10
21.41257172626099
 20
247.1583356486376
 10
22.56396327314169
 20
246.8202565073531
 10
23.60637395884057
 20
250.3703804438124
  0
LWPOLYLINE
  5
88
100
AcDbEntity
  8
INNER
  6
ByLayer
 62
  256
370
   -1
100
AcDbPolyline
 90
    4
 70
    1
 43
0
 10
25.38541069718963
 20
249.9832749080644
 10
24.8588455514846
 20
246.3209356079437
 10
26.04663127036111
 20
246.1501577228618
 10
26.57319641606614
 20
249.8124970229826
  0
LWPOLYLINE
  5
89
100
AcDbEntity
  8
INNER
  6
ByLayer
 62
  256
370
   -1
100
AcDbPolyline
 90
    4
 70
    1
 43
0
 10
28.38921598688015
 20
249.682514983366
 10
28.38921572857141
 20
245.9825149831119
 10
29.58921572857142
 20
245.9825148993361
 10
29.58921598688014
 20
249.6825148995902
  0
LWPOLYLINE
  5
8A
100
AcDbEntity
  8
INNER
  6
ByLayer
 62
  256
370
   -1
100
AcDbPolyline
 90
    4
 70
    1
 43
0
 10
31.40524947030558
 20
249.8123024154769
 10
31.93181410465158
 20
246.1499630418338
 10
33.11959984737317
 20
246.3207407610695
 10
32.59303521302717
 20
249.9830801347125
  0
LWPOLYLINE
  5
8B
100
AcDbEntity
  8
INNER
  6
ByLayer
 62
  256
370
   -1
100
AcDbPolyline
 90
    4
 70
    1
 43
0
 10
34.37211340598989
 20
250.3699951066727
 10
35.41452359599795
 20
246.8198710246654
 10
36.56591519008339
 20
247.1579500051854
 10
35.52350500007533
 20
250.7080740871926
  0
LWPOLYLINE
  5
8C
100
AcDbEntity
  8
INNER
  6
ByLayer
 62
  256
370
   -1
100
AcDbPolyline
 90
    4
 70
    1
 43
0
 10
37.22941100261136
 20
251.3442400425171
 10
38.7664462838172
 20
247.9786015375364
 10
39.85800471779004
 20
248.4770994665419
 10
38.3209694365842
 20
251.8427379715226
  0
LWPOLYLINE
  5
8D
100
AcDbEntity
  8
INNER
  6
ByLayer
 62
  256
370
   -1
100
AcDbPolyline
 90
    4
 70
    1
 43
0
 10
39.91897592344939
 20
252.7152044064868
 10
41.91934669135966
 20
249.6025661697541
 10
42.92885098428472
 20
250.2513350674102
 10
40.92848021637444
 20
253.3639733041429
  0
LWPOLYLINE
  5
8E
100
AcDbEntity
  8
INNER
  6
ByLayer
 62
  256
370
   -1
100
AcDbPolyline
 90
    4
 70
    1
 43
0
 10
42.38605638520975
 20
254.4549793189043
 10
44.80904086138953
 20
251.6587056860008
 10
45.71594041794464
 20
252.4445384890321
 10
43.29295594176486
 20
255.2408121219357
  0
LWPOLYLINE
  5
8F
100
AcDbEntity
  8
INNER
  6
ByLayer
 62
  256
370
   -1
100
AcDbPolyline
 90
    4
 70
    1
 43
0
 10
44.58042974639189
 20
256.528147981221
 10
47.37670295640488
 20
254.1051630169994
 10
48.16253591772008
 20
255.0120624364008
 10
45.36626270770708
 20
257.4350474006224
  0
LWPOLYLINE
  5
90
100
AcDbEntity
  8
INNER
  6
ByLayer
 62
  256
370
   -1
100
AcDbPolyline
 90
    4
 70
    1
 43
0
 10
46.45742489539434
 20
258.8925066598691
 10
49.5700627829964
 20
256.8921353487009
 10
50.2188318568442
 20
257.9016395283945
 10
47.10619396924216
 20
259.9020108395626
  0
LWPOLYLINE
  5
91
100
AcDbEntity
  8
INNER
  6
ByLayer
 62
  256
370
   -1
100
AcDbPolyline
 90
    4
 70
    1
 43
0
 10
47.97883162548581
 20
261.4999238325343
 10
51.34446986220319
 20
259.9628879639138
 10
51.84296798172157
 20
261.0544463108823
 10
48.47732974500418
 20
262.5914821795028
  0
LWPOLYLINE
  5
92
100
AcDbEntity
  8
INNER
  6
ByLayer
 62
  256
370
   -1
100
AcDbPolyline
 90
    4
 70
    1
 43
0
 10
49.11367848439052
 20
264.2973200071066
 10
52.66380238446277
 20
263.2549091974849
 10
53.00188156593845
 20
264.4063007325645
 10
49.4517576658662
 20
265.4487115421861
  0
LWPOLYLINE
  5
93
100
AcDbEntity
  8
INNER
  6
ByLayer
 62
  256
370
   -1
100
AcDbPolyline
 90
    4
 70
    1
 43
0
 10
49.83886326371427
 20
267.2277482670226
 10
53.5012025454544
 20
266.7011829934778
 10
53.67198047199775
 20
267.888968706393
 10
50.00964119025761
 20
268.4155339799378
  0
LWPOLYLINE
  5
94
100
AcDbEntity
  8
INNER
  6
ByLayer
 62
  256
370
   -1
100
AcDbPolyline
 90
    4
 70
    1
 43
0
 10
50.13962329326525
 20
270.2315535462146
 10
53.83962329351931
 20
270.2315531587515
 10
53.83962341918301
 20
271.4315531587515
 10
50.13962341892896
 20
271.4315535462146
  0
LWPOLYLINE
  5
95
100
AcDbEntity
  8
INNER
  6
ByLayer
 62
  256
370
   -1
100
AcDbPolyline
 90
    4
 70
    1
 43
0
 10
50.00983596643376
 20
273.2475870341705
 10
53.67217535845738
 20
273.7741515406767
 10
53.5013976806833
 20
274.9619372893596
 10
49.83905828865967
 20
274.4353727828533
  0
LWPOLYLINE
  5
96
100
AcDbEntity
  8
INNER
  6
ByLayer
 62
  256
370
   -1
100
AcDbPolyline
 90
    4
 70
    1
 43
0
 10
49.45214337880111
 20
276.2144509893219
 10
53.0022674971953
 20
277.2568610554073
 10
52.66418855686651
 20
278.4082526612939
 10
49.11406443847232
 20
277.3658425952086
  0
LWPOLYLINE
  5
97
100
AcDbEntity
  8
INNER
  6
ByLayer
 62
  256
370
   -1
100
AcDbPolyline
 90
    4
 70
    1
 43
0
 10
48.47789854269517
 20
279.0717486199509
 10
51.84353710132851
 20
280.6087837836739
 10
51.3450392104256
 20
281.7003422350476
 10
47.97940065179225
 20
280.1633070713247
  0
LWPOLYLINE
  5
98
100
AcDbEntity
  8
INNER
  6
ByLayer
 62
  256
370
   -1
100
AcDbPolyline
 90
    4
 70
    1
 43
0
 10
47.106934272609
 20
281.7613135886447
 10
50.21957257916777
 20
283.7616842479034
 10
49.57080371675004
 20
284.7711885634748
 10
46.45816541019126
 20
282.770817904216
  0
LWPOLYLINE
  5
99
100
AcDbEntity
  8
INNER
  6
ByLayer
 62
  256
370
   -1
100
AcDbPolyline
 90
    4
 70
    1
 43
0
 10
45.36715944630878
 20
284.2283941111346
 10
48.1634331637905
 20
286.6513784897061
 10
47.37760039241589
 20
287.5582780736919
 10
44.58132667493417
 20
285.1352936951205
  0
LWPOLYLINE
  5
9A
100
AcDbEntity
  8
INNER
  6
ByLayer
 62
  256
370
   -1
100
AcDbPolyline
 90
    4
 70
    1
 43
0
 10
43.29399086059026
 20
286.422767544684
 10
45.71697592242018
 20
289.2190406701189
 10
44.81007653044952
 20
290.0048736630908
 10
42.38709146861961
 20
287.208600537656
  0
LWPOLYLINE
  5
9B
100
AcDbEntity
  8
INNER
  6
ByLayer
 62
  256
370
   -1
100
AcDbPolyline
 90
    4
 70
    1
 43
0
 10
40.92963224746165
 20
288.2997627762181
 10
42.93000366728132
 20
291.4124005939941
 10
41.92049951023412
 20
292.0611697030802
 10
39.92012809041447
 20
288.9485318853043
  0
LWPOLYLINE
  5
9C
100
AcDbEntity
  8
INNER
  6
ByLayer
 62
  256
370
   -1
100
AcDbPolyline
 90
    4
 70
    1
 43
0
 10
38.3222151279035
 20
289.8211695973256
 10
39.85925111400699
 20
293.1868077803904
 10
38.76769278443933
 20
293.6853059380113
 10
37.23065679833586
 20
290.3196677549466
  0
LWPOLYLINE
  5
9D
100
AcDbEntity
  8
INNER
  6
ByLayer
 62
  256
370
   -1
100
AcDbPolyline
 90
    4
 70
    1
 43
0
 10
35.52481899294489
 20
290.9560165538779
 10
36.56722992648917
 20
294.5061404175632
 10
35.41583840321085
 20
294.84421963923
 10
34.37342746966657
 20
291.2940957755447
  0
LWPOLYLINE
  5
9E
100
AcDbEntity
  8
INNER
  6
ByLayer
 62
  256
370
   -1
100
AcDbPolyline
 90
    4
 70
    1
 43
0
 10
32.59439075834259
 20
291.6812014354929
 10
33.12095615972714
 20
295.3435406988525
 10
31.93317045277318
 20
295.5143186668573
 10
31.40660505138863
 20
291.8519794034978
  0
LINE
  5
9F
100
AcDbEntity
  8
INNER
  6
ByLayer
 62
  256
370
   -1
100
AcDbLine
 10
29.59058253659062
 20
291.9819616537678
 11
29.59058253659062
 21
295.6819616540218
  0
LINE
  5
A0
100
AcDbEntity
  8
INNER
  6
ByLayer
 62
  256
370
   -1
100
AcDbLine
 10
29.59058253659062
 20
295.6819616540218
 11
28.39058253659062
 21
295.6819616540218
  0
LINE
  5
A1
100
AcDbEntity
  8
INNER
  6
ByLayer
 62
  256
370
   -1
100
AcDbLine
 10
28.39058253659062
 20
295.6819616540218
 11
28.39058253659062
 21
291.9819616537678
  0
LINE
  5
A2
100
AcDbEntity
  8
INNER
  6
ByLayer
 62
  256
370
   -1
100
AcDbLine
 10
28.39058253659062
 20
291.9819616537678
 11
29.59058253659062
 21
291.9819616537678
  0
CIRCLE
  5
A3
100
AcDbEntity
  8
INNER
  6
ByLayer
 62
  256
370
   -1
100
AcDbCircle
 10
28.98988675365168
 20
287.3315405701672
 40
0.9
  0
CIRCLE
  5
A4
100
AcDbEntity
  8
INNER
  6
ByLayer
 62
  256
370
   -1
100
AcDbCircle
 10
12.49048262280907
 20
270.832109946628
 40
0.9
  0
CIRCLE
  5
A5
100
AcDbEntity
  8
INNER
  6
ByLayer
 62
  256
370
   -1
100
AcDbCircle
 10
28.98991324634831
 20
254.3327058157853
 40
0.9
  0
DIMENSION
  5
A6
100
AcDbEntity
  8
0
  6
ByLayer
 62
  256
370
   -1
100
AcDbDimension
  2
*D1
 10
7.641401518206891
 20
255.1328037100954
 30
0
 11
27.43505122310392
 21
272.9471815089361
 31
0
 70
   35
 71
    5
  3
Standard
 53
0
210
0
220
0
230
1
100
AcDbDiametricDimension
 15
50.33900655499575
 25
286.5320795635666
 35
0
 40
0
  0
DIMENSION
  5
A7
100
AcDbEntity
  8
0
  6
ByLayer
 62
  256
370
   -1
100
AcDbDimension
  2
*D2
 10
41.98931737719882
 20
277.3471367674345
 30
0
 11
28.9898999999998
 21
279.9721367674345
 31
0
 70
   32
 71
    5
  3
Standard
 53
0
210
0
220
0
230
1
100
AcDbAlignedDimension
 13
15.99048262280078
 23
270.8321176383595
 33
0
 14
41.98931737719882
 24
270.8321287475931
 34
0
100
AcDbRotatedDimension
  0
CIRCLE
  5
A8
100
AcDbEntity
  8
INNER
  6
ByLayer
 62
  256
370
   -1
100
AcDbCircle
 10
28.9899
 20
270.8321231929763
 40
12.99941737721304
  0
ENDSEC
  0
SECTION
  2
OBJECTS
  0
DICTIONARY
  5
C
330
0
100
AcDbDictionary
281
    1
  3
ACAD_GROUP
350
D
  0
DICTIONARY
  5
D
330
C
100
AcDbDictionary
281
    1
  0
PLOTSETTINGS
  5
A9
100
AcDbPlotSettings
  6
1x1
 40
0
 41
0
 42
0
 43
0
  0
ENDSEC
  0
EOF
